%TF.GenerationSoftware,KiCad,Pcbnew,10.0.3*%
%TF.CreationDate,2026-06-15T13:38:46+02:00*%
%TF.ProjectId,Macropad,4d616372-6f70-4616-942e-6b696361645f,rev?*%
%TF.SameCoordinates,Original*%
%TF.FileFunction,Copper,L1,Top*%
%TF.FilePolarity,Positive*%
%FSLAX46Y46*%
G04 Gerber Fmt 4.6, Leading zero omitted, Abs format (unit mm)*
G04 Created by KiCad (PCBNEW 10.0.3) date 2026-06-15 13:38:46*
%MOMM*%
%LPD*%
G01*
G04 APERTURE LIST*
G04 Aperture macros list*
%AMRoundRect*
0 Rectangle with rounded corners*
0 $1 Rounding radius*
0 $2 $3 $4 $5 $6 $7 $8 $9 X,Y pos of 4 corners*
0 Add a 4 corners polygon primitive as box body*
4,1,4,$2,$3,$4,$5,$6,$7,$8,$9,$2,$3,0*
0 Add four circle primitives for the rounded corners*
1,1,$1+$1,$2,$3*
1,1,$1+$1,$4,$5*
1,1,$1+$1,$6,$7*
1,1,$1+$1,$8,$9*
0 Add four rect primitives between the rounded corners*
20,1,$1+$1,$2,$3,$4,$5,0*
20,1,$1+$1,$4,$5,$6,$7,0*
20,1,$1+$1,$6,$7,$8,$9,0*
20,1,$1+$1,$8,$9,$2,$3,0*%
%AMFreePoly0*
4,1,91,0.070557,0.105597,0.105597,0.070557,0.124560,0.024776,0.127000,0.000000,0.127000,-5.727207,0.124560,-5.751983,0.105597,-5.797764,0.070557,-5.832804,0.024776,-5.851767,0.000000,-5.854207,-2.217801,-5.854207,-2.242577,-5.851767,-2.288358,-5.832804,-2.323398,-5.797764,-2.342361,-5.751983,-2.344801,-5.727207,-2.344801,-2.910601,-4.148201,-2.910601,-4.148201,-5.727207,-4.150641,-5.751983,
-4.169604,-5.797764,-4.204644,-5.832804,-4.250425,-5.851767,-4.275201,-5.854207,-6.256401,-5.854207,-6.281177,-5.851767,-6.326958,-5.832804,-6.361998,-5.797764,-6.380961,-5.751983,-6.383401,-5.727207,-6.383401,-2.885201,-8.085201,-2.885201,-8.085201,-5.727207,-8.087641,-5.751983,-8.106604,-5.797764,-8.141644,-5.832804,-8.187425,-5.851767,-8.212201,-5.854207,-10.091801,-5.854207,-10.116577,-5.851767,
-10.162358,-5.832804,-10.197398,-5.797764,-10.216361,-5.751983,-10.218801,-5.727207,-10.218801,-2.763004,-10.216361,-2.738228,-10.197398,-2.692447,-10.162358,-2.657407,-10.116577,-2.638444,-10.067025,-2.638444,-10.021244,-2.657407,-9.986204,-2.692447,-9.967241,-2.738228,-9.964801,-2.763004,-9.964801,-5.600207,-8.339201,-5.600207,-8.339201,-2.758201,-8.336761,-2.733425,-8.317798,-2.687644,-8.282758,-2.652604,
-8.236977,-2.633641,-8.212201,-2.631201,-6.256401,-2.631201,-6.231625,-2.633641,-6.185844,-2.652604,-6.150804,-2.687644,-6.131841,-2.733425,-6.129401,-2.758201,-6.129401,-5.600207,-4.402201,-5.600207,-4.402201,-2.783601,-4.399761,-2.758825,-4.380798,-2.713044,-4.345758,-2.678004,-4.299977,-2.659041,-4.275201,-2.656601,-2.217801,-2.656601,-2.193025,-2.659041,-2.147244,-2.678004,-2.112204,-2.713044,
-2.093241,-2.758825,-2.090801,-2.783601,-2.090801,-5.600207,-0.127000,-5.600207,-0.127000,0.000000,-0.124560,0.024776,-0.105597,0.070557,-0.070557,0.105597,-0.024776,0.124560,0.024776,0.124560,0.070557,0.105597,0.070557,0.105597,$1*%
G04 Aperture macros list end*
%TA.AperFunction,SMDPad,CuDef*%
%ADD10RoundRect,0.140000X-0.140000X-0.170000X0.140000X-0.170000X0.140000X0.170000X-0.140000X0.170000X0*%
%TD*%
%TA.AperFunction,SMDPad,CuDef*%
%ADD11RoundRect,0.077500X0.532500X0.232500X-0.532500X0.232500X-0.532500X-0.232500X0.532500X-0.232500X0*%
%TD*%
%TA.AperFunction,SMDPad,CuDef*%
%ADD12RoundRect,0.225000X-0.225000X-0.250000X0.225000X-0.250000X0.225000X0.250000X-0.225000X0.250000X0*%
%TD*%
%TA.AperFunction,SMDPad,CuDef*%
%ADD13R,4.000000X4.000000*%
%TD*%
%TA.AperFunction,SMDPad,CuDef*%
%ADD14C,0.250000*%
%TD*%
%TA.AperFunction,SMDPad,CuDef*%
%ADD15RoundRect,0.135000X-0.185000X0.135000X-0.185000X-0.135000X0.185000X-0.135000X0.185000X0.135000X0*%
%TD*%
%TA.AperFunction,SMDPad,CuDef*%
%ADD16R,0.600000X1.140000*%
%TD*%
%TA.AperFunction,SMDPad,CuDef*%
%ADD17R,0.300000X1.140000*%
%TD*%
%TA.AperFunction,ComponentPad*%
%ADD18O,0.900000X2.000000*%
%TD*%
%TA.AperFunction,ComponentPad*%
%ADD19O,0.900000X1.700000*%
%TD*%
%TA.AperFunction,ComponentPad*%
%ADD20R,1.700000X1.700000*%
%TD*%
%TA.AperFunction,ComponentPad*%
%ADD21C,1.700000*%
%TD*%
%TA.AperFunction,SMDPad,CuDef*%
%ADD22RoundRect,0.140000X0.170000X-0.140000X0.170000X0.140000X-0.170000X0.140000X-0.170000X-0.140000X0*%
%TD*%
%TA.AperFunction,SMDPad,CuDef*%
%ADD23RoundRect,0.225000X0.225000X0.250000X-0.225000X0.250000X-0.225000X-0.250000X0.225000X-0.250000X0*%
%TD*%
%TA.AperFunction,SMDPad,CuDef*%
%ADD24RoundRect,0.218750X-0.218750X-0.256250X0.218750X-0.256250X0.218750X0.256250X-0.218750X0.256250X0*%
%TD*%
%TA.AperFunction,SMDPad,CuDef*%
%ADD25RoundRect,0.147500X0.147500X0.172500X-0.147500X0.172500X-0.147500X-0.172500X0.147500X-0.172500X0*%
%TD*%
%TA.AperFunction,SMDPad,CuDef*%
%ADD26RoundRect,0.135000X-0.135000X-0.185000X0.135000X-0.185000X0.135000X0.185000X-0.135000X0.185000X0*%
%TD*%
%TA.AperFunction,SMDPad,CuDef*%
%ADD27RoundRect,0.225000X0.250000X-0.225000X0.250000X0.225000X-0.250000X0.225000X-0.250000X-0.225000X0*%
%TD*%
%TA.AperFunction,SMDPad,CuDef*%
%ADD28RoundRect,0.140000X0.140000X0.170000X-0.140000X0.170000X-0.140000X-0.170000X0.140000X-0.170000X0*%
%TD*%
%TA.AperFunction,SMDPad,CuDef*%
%ADD29RoundRect,0.140000X-0.170000X0.140000X-0.170000X-0.140000X0.170000X-0.140000X0.170000X0.140000X0*%
%TD*%
%TA.AperFunction,SMDPad,CuDef*%
%ADD30RoundRect,0.135000X0.185000X-0.135000X0.185000X0.135000X-0.185000X0.135000X-0.185000X-0.135000X0*%
%TD*%
%TA.AperFunction,SMDPad,CuDef*%
%ADD31FreePoly0,90.000000*%
%TD*%
%TA.AperFunction,SMDPad,CuDef*%
%ADD32RoundRect,0.135000X0.135000X0.185000X-0.135000X0.185000X-0.135000X-0.185000X0.135000X-0.185000X0*%
%TD*%
%TA.AperFunction,SMDPad,CuDef*%
%ADD33RoundRect,0.200000X0.250000X0.200000X-0.250000X0.200000X-0.250000X-0.200000X0.250000X-0.200000X0*%
%TD*%
%TA.AperFunction,SMDPad,CuDef*%
%ADD34RoundRect,0.032500X-0.397500X-0.097500X0.397500X-0.097500X0.397500X0.097500X-0.397500X0.097500X0*%
%TD*%
%TA.AperFunction,SMDPad,CuDef*%
%ADD35RoundRect,0.032500X-0.097500X-0.397500X0.097500X-0.397500X0.097500X0.397500X-0.097500X0.397500X0*%
%TD*%
%TA.AperFunction,SMDPad,CuDef*%
%ADD36R,1.680000X1.680000*%
%TD*%
%TA.AperFunction,ComponentPad*%
%ADD37C,0.400000*%
%TD*%
%TA.AperFunction,SMDPad,CuDef*%
%ADD38R,0.900000X1.000000*%
%TD*%
%TA.AperFunction,ComponentPad*%
%ADD39R,2.000000X2.000000*%
%TD*%
%TA.AperFunction,ComponentPad*%
%ADD40C,2.000000*%
%TD*%
%TA.AperFunction,ComponentPad*%
%ADD41R,3.200000X2.000000*%
%TD*%
%TA.AperFunction,SMDPad,CuDef*%
%ADD42R,1.000000X1.800000*%
%TD*%
%TA.AperFunction,ComponentPad*%
%ADD43RoundRect,0.250000X-0.350000X-0.625000X0.350000X-0.625000X0.350000X0.625000X-0.350000X0.625000X0*%
%TD*%
%TA.AperFunction,ComponentPad*%
%ADD44O,1.200000X1.750000*%
%TD*%
%TA.AperFunction,ViaPad*%
%ADD45C,0.600000*%
%TD*%
%TA.AperFunction,ViaPad*%
%ADD46C,0.500000*%
%TD*%
%TA.AperFunction,Conductor*%
%ADD47C,0.400000*%
%TD*%
%TA.AperFunction,Conductor*%
%ADD48C,0.200000*%
%TD*%
%TA.AperFunction,Conductor*%
%ADD49C,0.150000*%
%TD*%
%TA.AperFunction,Conductor*%
%ADD50C,0.498300*%
%TD*%
G04 APERTURE END LIST*
D10*
%TO.P,C10,1*%
%TO.N,MCU System VDD*%
X167045000Y-146150000D03*
%TO.P,C10,2*%
%TO.N,GND*%
X168005000Y-146150000D03*
%TD*%
D11*
%TO.P,VR1,1,GND_1*%
%TO.N,GND*%
X157430000Y-140825000D03*
%TO.P,VR1,2,VOUT_2*%
%TO.N,MCU System VDD*%
X157430000Y-138925000D03*
%TO.P,VR1,3,VIN_3*%
%TO.N,Net-(U2-EN2)*%
X155300000Y-139875000D03*
%TD*%
D12*
%TO.P,C18,1*%
%TO.N,USB-C VBUS*%
X150375000Y-136875000D03*
%TO.P,C18,2*%
%TO.N,GND*%
X151925000Y-136875000D03*
%TD*%
D13*
%TO.P,U1,74,VSS_74*%
%TO.N,GND*%
X165000000Y-140775000D03*
D14*
%TO.P,U1,A8,P0.31/AIN7_A8*%
%TO.N,P.031{slash}AIN7*%
X163750000Y-137525000D03*
%TO.P,U1,A10,P0.29/AIN5_A10*%
%TO.N,P0.29{slash}AIN5*%
X164250000Y-137525000D03*
%TO.P,U1,A12,P0.02/AIN0_A12*%
%TO.N,P0.02{slash}AIN0*%
X164750000Y-137525000D03*
%TO.P,U1,A14,P1.15_A14*%
%TO.N,P1.15 Display SDA*%
X165250000Y-137525000D03*
%TO.P,U1,A16,P1.13_A16*%
%TO.N,P1.13*%
X165750000Y-137525000D03*
%TO.P,U1,A18,DEC2_A18*%
%TO.N,Net-(U1-DEC2)*%
X166250000Y-137525000D03*
%TO.P,U1,A20,P1.10_A20*%
%TO.N,P1.10 CLK*%
X166750000Y-137525000D03*
%TO.P,U1,A22,VDD_A22*%
%TO.N,MCU System VDD*%
X167250000Y-137525000D03*
%TO.P,U1,A23,XC2_A23*%
%TO.N,XC2*%
X167750000Y-137525000D03*
%TO.P,U1,AA24,SWDCLK_AA24*%
%TO.N,SWDCLK*%
X168250000Y-143025000D03*
%TO.P,U1,AB2,DCCH_AB2*%
%TO.N,unconnected-(U1-DCCH-PadAB2)*%
X162250000Y-143275000D03*
%TO.P,U1,AC5,DECUSB_AC5*%
%TO.N,Net-(U1-DECUSB)*%
X163000000Y-143525000D03*
%TO.P,U1,AC9,P0.14_AC9*%
%TO.N,P0.14*%
X164000000Y-143525000D03*
%TO.P,U1,AC11,P0.16_AC11*%
%TO.N,P0.16*%
X164500000Y-143525000D03*
%TO.P,U1,AC13,P0.18/NRESET_AC13*%
%TO.N,P0.18{slash}RESET*%
X165000000Y-143525000D03*
%TO.P,U1,AC15,P0.19_AC15*%
%TO.N,P0.19*%
X165500000Y-143525000D03*
%TO.P,U1,AC17,P0.21_AC17*%
%TO.N,P0.21*%
X166000000Y-143525000D03*
%TO.P,U1,AC19,P0.23_AC19*%
%TO.N,P0.23*%
X166500000Y-143525000D03*
%TO.P,U1,AC21,P0.25_AC21*%
%TO.N,P0.25*%
X167000000Y-143525000D03*
%TO.P,U1,AC24,SWDIO_AC24*%
%TO.N,SWDIO*%
X168250000Y-143525000D03*
%TO.P,U1,AD2,VBUS_AD2*%
%TO.N,USB-C VBUS*%
X162250000Y-144025000D03*
%TO.P,U1,AD4,D-_AD4*%
%TO.N,D- USB-C*%
X162750000Y-144025000D03*
%TO.P,U1,AD6,D+_AD6*%
%TO.N,D+ USB-C*%
X163250000Y-144025000D03*
%TO.P,U1,AD8,P0.13_AD8*%
%TO.N,P0.13*%
X163750000Y-144025000D03*
%TO.P,U1,AD10,P0.15_AD10*%
%TO.N,P0.15*%
X164250000Y-144025000D03*
%TO.P,U1,AD12,P0.17_AD12*%
%TO.N,P0.17*%
X164750000Y-144025000D03*
%TO.P,U1,AD14,VDD_AD14*%
%TO.N,MCU System VDD*%
X165250000Y-144025000D03*
%TO.P,U1,AD16,P0.20_AD16*%
%TO.N,P0.20*%
X165750000Y-144025000D03*
%TO.P,U1,AD18,P0.22_AD18*%
%TO.N,P0.22*%
X166250000Y-144025000D03*
%TO.P,U1,AD20,P0.24_AD20*%
%TO.N,P0.24*%
X166750000Y-144025000D03*
%TO.P,U1,AD22,P1.00/TRACEDATA0_AD22*%
%TO.N,P1.00*%
X167250000Y-144025000D03*
%TO.P,U1,AD23,VDD_AD23*%
%TO.N,MCU System VDD*%
X167750000Y-144025000D03*
%TO.P,U1,B1,VDD_B1*%
X161750000Y-138025000D03*
%TO.P,U1,B3,DCC_B3*%
%TO.N,unconnected-(U1-DCC-PadB3)*%
X162500000Y-138025000D03*
%TO.P,U1,B5,DEC4_B5*%
%TO.N,DEC4*%
X163000000Y-138025000D03*
%TO.P,U1,B7,VSS_B7*%
%TO.N,GND*%
X163500000Y-138025000D03*
%TO.P,U1,B9,P0.30/AIN6_B9*%
%TO.N,P0.30{slash}AIN6*%
X164000000Y-138025000D03*
%TO.P,U1,B11,P0.28/AIN4_B11*%
%TO.N,P0.28{slash}AIN4*%
X164500000Y-138025000D03*
%TO.P,U1,B13,P0.03/AIN1_B13*%
%TO.N,P0.03{slash}AIN1*%
X165000000Y-138025000D03*
%TO.P,U1,B15,P1.14_B15*%
%TO.N,P1.14 Display SCL*%
X165500000Y-138025000D03*
%TO.P,U1,B17,P1.12_B17*%
%TO.N,P1.12 SW*%
X166000000Y-138025000D03*
%TO.P,U1,B19,P1.11_B19*%
%TO.N,P1.11 DT*%
X166500000Y-138025000D03*
%TO.P,U1,B24,XC1_B24*%
%TO.N,XC1*%
X168250000Y-138025000D03*
%TO.P,U1,C1,DEC1_C1*%
%TO.N,Net-(U1-DEC1)*%
X161750000Y-138525000D03*
%TO.P,U1,D2,P0.00/XL1_D2*%
%TO.N,P0.00{slash}XL1*%
X162250000Y-138775000D03*
%TO.P,U1,D23,DEC3_D23*%
%TO.N,DEC3*%
X167750000Y-138775000D03*
%TO.P,U1,E24,DEC6_E24*%
%TO.N,DEC4*%
X168250000Y-139025000D03*
%TO.P,U1,F2,P0.01/XL2_F2*%
%TO.N,P0.01{slash}XL2*%
X162250000Y-139275000D03*
%TO.P,U1,F23,VSS_PA_F23*%
%TO.N,GND*%
X167750000Y-139275000D03*
%TO.P,U1,G1,P0.26_G1*%
%TO.N,P0.26*%
X161750000Y-139525000D03*
%TO.P,U1,H2,P0.27_H2*%
%TO.N,P0.27*%
X162250000Y-139775000D03*
%TO.P,U1,H23,ANT_H23*%
%TO.N,ANT*%
X167750000Y-139775000D03*
%TO.P,U1,J1,P0.04/AIN2_J1*%
%TO.N,P0.04{slash}AIN2*%
X161750000Y-140025000D03*
%TO.P,U1,J24,P0.10/NFC2_J24*%
%TO.N,P0.10{slash}NFC2*%
X168250000Y-140025000D03*
%TO.P,U1,K2,P0.05/AIN3_K2*%
%TO.N,P0.05{slash}AIN3*%
X162250000Y-140275000D03*
%TO.P,U1,L1,P0.06_L1*%
%TO.N,P0.06*%
X161750000Y-140525000D03*
%TO.P,U1,L24,P0.09/NFC1_L24*%
%TO.N,P0.09{slash}NFC1*%
X168250000Y-140525000D03*
%TO.P,U1,M2,P0.07/TRACECLK_M2*%
%TO.N,P0.07*%
X162250000Y-140775000D03*
%TO.P,U1,N1,P0.08_N1*%
%TO.N,P0.08*%
X161750000Y-141025000D03*
%TO.P,U1,N24,DEC5_N24*%
%TO.N,Net-(U1-DEC5)*%
X168250000Y-141025000D03*
%TO.P,U1,P2,P1.08_P2*%
%TO.N,P1.08*%
X162250000Y-141275000D03*
%TO.P,U1,P23,P1.07_P23*%
%TO.N,P1.07*%
X167750000Y-141275000D03*
%TO.P,U1,R1,P1.09/TRACEDATA3_R1*%
%TO.N,P1.09*%
X161750000Y-141525000D03*
%TO.P,U1,R24,P1.06_R24*%
%TO.N,P1.06*%
X168250000Y-141525000D03*
%TO.P,U1,T2,P0.11/TRACEDATA2_T2*%
%TO.N,P0.11*%
X162250000Y-141775000D03*
%TO.P,U1,T23,P1.05_T23*%
%TO.N,P1.05*%
X167750000Y-141775000D03*
%TO.P,U1,U1,P0.12/TRACEDATA1_U1*%
%TO.N,P0.12*%
X161750000Y-142025000D03*
%TO.P,U1,U24,P1.04_U24*%
%TO.N,P1.04*%
X168250000Y-142025000D03*
%TO.P,U1,V23,P1.03_V23*%
%TO.N,P1.03*%
X167750000Y-142275000D03*
%TO.P,U1,W1,VDD_W1*%
%TO.N,MCU System VDD*%
X161750000Y-142525000D03*
%TO.P,U1,W24,P1.02_W24*%
%TO.N,P1.02*%
X168250000Y-142525000D03*
%TO.P,U1,Y2,VDDH_Y2*%
%TO.N,MCU System VDD*%
X162250000Y-142775000D03*
%TO.P,U1,Y23,P1.01_Y23*%
%TO.N,P1.01*%
X167750000Y-142775000D03*
%TD*%
D15*
%TO.P,R5,1*%
%TO.N,/ANT*%
X171405000Y-135725000D03*
%TO.P,R5,2*%
%TO.N,Net-(C14-Pad1)*%
X171405000Y-136745000D03*
%TD*%
%TO.P,R10,1*%
%TO.N,GND*%
X145150000Y-137165000D03*
%TO.P,R10,2*%
%TO.N,Net-(U2-TS)*%
X145150000Y-138185000D03*
%TD*%
D16*
%TO.P,J2,A1_B12,GND_A1_B12*%
%TO.N,GND*%
X122225000Y-139925000D03*
%TO.P,J2,A4_B9,VBUS_A4_B9*%
%TO.N,USB-C VBUS*%
X123025000Y-139925000D03*
D17*
%TO.P,J2,A5,CC1_A5*%
%TO.N,Net-(J2-CC1)*%
X124175000Y-139925000D03*
%TO.P,J2,A6,DP1_A6*%
%TO.N,D+ USB-C*%
X125175000Y-139925000D03*
%TO.P,J2,A7,DN1_A7*%
%TO.N,D- USB-C*%
X125675000Y-139925000D03*
%TO.P,J2,A8,SBU1_A8*%
%TO.N,unconnected-(J2-SBU1-PadA8)*%
X126675000Y-139925000D03*
D16*
%TO.P,J2,B1_A12,GND_B1_A12*%
%TO.N,GND*%
X128625000Y-139925000D03*
%TO.P,J2,B4_A9,VBUS_B4_A9*%
%TO.N,USB-C VBUS*%
X127825000Y-139925000D03*
D17*
%TO.P,J2,B5,CC2_B5*%
%TO.N,Net-(J2-CC2)*%
X127175000Y-139925000D03*
%TO.P,J2,B6,DP2_B6*%
%TO.N,D+ USB-C*%
X126175000Y-139925000D03*
%TO.P,J2,B7,DN2_B7*%
%TO.N,D- USB-C*%
X124675000Y-139925000D03*
%TO.P,J2,B8,SBU2_B8*%
%TO.N,unconnected-(J2-SBU2-PadB8)*%
X123675000Y-139925000D03*
D18*
%TO.P,J2,S1,SHIELD_S1*%
%TO.N,GND*%
X121100000Y-140505000D03*
%TO.P,J2,S2,SHIELD_S2*%
X129750000Y-140505000D03*
D19*
%TO.P,J2,S3,SHIELD_S3*%
X121100000Y-144675000D03*
%TO.P,J2,S4,SHIELD_S4*%
X129750000Y-144675000D03*
%TD*%
D20*
%TO.P,Display1,1,Pin_1_1*%
%TO.N,GND*%
X155700000Y-62550000D03*
D21*
%TO.P,Display1,2,Pin_2_2*%
%TO.N,MCU System VDD*%
X155700000Y-65090000D03*
%TO.P,Display1,3,Pin_3_3*%
%TO.N,P1.14 Display SCL*%
X155700000Y-67630000D03*
%TO.P,Display1,4,Pin_4_4*%
%TO.N,P1.15 Display SDA*%
X155700000Y-70170000D03*
%TD*%
D22*
%TO.P,C13,1*%
%TO.N,ANT*%
X169420000Y-139980000D03*
%TO.P,C13,2*%
%TO.N,GND*%
X169420000Y-139020000D03*
%TD*%
D15*
%TO.P,R6,1*%
%TO.N,GND*%
X148600000Y-136230000D03*
%TO.P,R6,2*%
%TO.N,Net-(U2-TMR)*%
X148600000Y-137250000D03*
%TD*%
D23*
%TO.P,C5,1*%
%TO.N,MCU System VDD*%
X155025000Y-136875000D03*
%TO.P,C5,2*%
%TO.N,GND*%
X153475000Y-136875000D03*
%TD*%
D24*
%TO.P,D10,1,K_1*%
%TO.N,Net-(D10-K)*%
X151262500Y-142650000D03*
%TO.P,D10,2,A_2*%
%TO.N,Net-(D10-A)*%
X152837500Y-142650000D03*
%TD*%
D25*
%TO.P,L1,1,1_1*%
%TO.N,Net-(C14-Pad1)*%
X171405000Y-139985000D03*
%TO.P,L1,2,2_2*%
%TO.N,ANT*%
X170435000Y-139985000D03*
%TD*%
D26*
%TO.P,R2,1*%
%TO.N,Net-(D11-A)*%
X154415000Y-144375000D03*
%TO.P,R2,2*%
%TO.N,Net-(U2-EN2)*%
X155435000Y-144375000D03*
%TD*%
D12*
%TO.P,C22,1*%
%TO.N,MCU System VDD*%
X160225000Y-146750000D03*
%TO.P,C22,2*%
%TO.N,GND*%
X161775000Y-146750000D03*
%TD*%
D27*
%TO.P,C20,1*%
%TO.N,GND*%
X143200000Y-143625000D03*
%TO.P,C20,2*%
%TO.N,Net-(J1-Pin_1)*%
X143200000Y-142075000D03*
%TD*%
D28*
%TO.P,C7,1*%
%TO.N,DEC4*%
X161605000Y-135800000D03*
%TO.P,C7,2*%
%TO.N,GND*%
X160645000Y-135800000D03*
%TD*%
D29*
%TO.P,C2,1*%
%TO.N,GND*%
X158950000Y-133625000D03*
%TO.P,C2,2*%
%TO.N,P0.00{slash}XL1*%
X158950000Y-134585000D03*
%TD*%
D22*
%TO.P,C23,1*%
%TO.N,GND*%
X134000000Y-138430000D03*
%TO.P,C23,2*%
%TO.N,P0.18{slash}RESET*%
X134000000Y-137470000D03*
%TD*%
D12*
%TO.P,C17,1*%
%TO.N,Net-(U2-EN2)*%
X149750000Y-146775000D03*
%TO.P,C17,2*%
%TO.N,GND*%
X151300000Y-146775000D03*
%TD*%
D30*
%TO.P,R9,1*%
%TO.N,MCU System VDD*%
X157450000Y-137360000D03*
%TO.P,R9,2*%
%TO.N,P0.18{slash}RESET*%
X157450000Y-136340000D03*
%TD*%
D28*
%TO.P,C8,1*%
%TO.N,GND*%
X171380000Y-142650000D03*
%TO.P,C8,2*%
%TO.N,DEC3*%
X170420000Y-142650000D03*
%TD*%
D31*
%TO.P,,1,A*%
%TO.N,/ANT*%
X171550000Y-135725000D03*
%TD*%
D24*
%TO.P,D11,1,K_1*%
%TO.N,Net-(D11-K)*%
X151262500Y-144425000D03*
%TO.P,D11,2,A_2*%
%TO.N,Net-(D11-A)*%
X152837500Y-144425000D03*
%TD*%
D32*
%TO.P,R3,1*%
%TO.N,GND*%
X152070000Y-138625000D03*
%TO.P,R3,2*%
%TO.N,Net-(U2-ILIM)*%
X151050000Y-138625000D03*
%TD*%
D33*
%TO.P,X1,1,1_1*%
%TO.N,XC1*%
X169165000Y-133960000D03*
%TO.P,X1,2,2_2*%
%TO.N,XC2*%
X167765000Y-133960000D03*
%TO.P,X1,3*%
%TO.N,N/C*%
X167765000Y-135060000D03*
%TO.P,X1,4*%
X169165000Y-135060000D03*
%TD*%
D29*
%TO.P,C12,1*%
%TO.N,GND*%
X171265000Y-133640000D03*
%TO.P,C12,2*%
%TO.N,XC1*%
X171265000Y-134600000D03*
%TD*%
D10*
%TO.P,C9,1*%
%TO.N,Net-(U1-DEC2)*%
X168345000Y-136325000D03*
%TO.P,C9,2*%
%TO.N,GND*%
X169305000Y-136325000D03*
%TD*%
D26*
%TO.P,R1,1*%
%TO.N,Net-(D10-A)*%
X154355000Y-142675000D03*
%TO.P,R1,2*%
%TO.N,Net-(U2-EN2)*%
X155375000Y-142675000D03*
%TD*%
D10*
%TO.P,C4,1*%
%TO.N,GND*%
X159695000Y-138875000D03*
%TO.P,C4,2*%
%TO.N,Net-(U1-DEC1)*%
X160655000Y-138875000D03*
%TD*%
D27*
%TO.P,C1,1*%
%TO.N,Net-(U1-DECUSB)*%
X159100000Y-141950000D03*
%TO.P,C1,2*%
%TO.N,GND*%
X159100000Y-140400000D03*
%TD*%
D28*
%TO.P,C14,1*%
%TO.N,Net-(C14-Pad1)*%
X171400000Y-138935000D03*
%TO.P,C14,2*%
%TO.N,GND*%
X170440000Y-138935000D03*
%TD*%
D30*
%TO.P,R7,1*%
%TO.N,GND*%
X145450000Y-143285000D03*
%TO.P,R7,2*%
%TO.N,Net-(U2-~{CE})*%
X145450000Y-142265000D03*
%TD*%
D15*
%TO.P,R4,1*%
%TO.N,GND*%
X147575000Y-136250000D03*
%TO.P,R4,2*%
%TO.N,Net-(U2-ISET)*%
X147575000Y-137270000D03*
%TD*%
D29*
%TO.P,C11,1*%
%TO.N,GND*%
X165800000Y-133655000D03*
%TO.P,C11,2*%
%TO.N,XC2*%
X165800000Y-134615000D03*
%TD*%
D34*
%TO.P,U2,1,TS_1*%
%TO.N,Net-(U2-TS)*%
X146915000Y-139135000D03*
%TO.P,U2,2,BAT_2_2*%
%TO.N,Net-(J1-Pin_1)*%
X146915000Y-139635000D03*
%TO.P,U2,3,BAT_3_3*%
X146915000Y-140135000D03*
%TO.P,U2,4,~{CE}_4*%
%TO.N,Net-(U2-~{CE})*%
X146915000Y-140635000D03*
D35*
%TO.P,U2,5,EN2_5*%
%TO.N,Net-(U2-EN2)*%
X147600000Y-141320000D03*
%TO.P,U2,6,EN1_6*%
%TO.N,GND*%
X148100000Y-141320000D03*
%TO.P,U2,7,~{PGOOD}_7*%
%TO.N,Net-(D11-K)*%
X148600000Y-141320000D03*
%TO.P,U2,8,VSS_8*%
%TO.N,GND*%
X149100000Y-141320000D03*
D34*
%TO.P,U2,9,~{CHG}_9*%
%TO.N,Net-(D10-K)*%
X149785000Y-140635000D03*
%TO.P,U2,10,OUT_10_10*%
%TO.N,Net-(U2-EN2)*%
X149785000Y-140135000D03*
%TO.P,U2,11,OUT_11_11*%
X149785000Y-139635000D03*
%TO.P,U2,12,ILIM_12*%
%TO.N,Net-(U2-ILIM)*%
X149785000Y-139135000D03*
D35*
%TO.P,U2,13,IN_13*%
%TO.N,USB-C VBUS*%
X149100000Y-138450000D03*
%TO.P,U2,14,TMR_14*%
%TO.N,Net-(U2-TMR)*%
X148600000Y-138450000D03*
%TO.P,U2,15,ITERM_15*%
%TO.N,unconnected-(U2-ITERM-Pad15)*%
X148100000Y-138450000D03*
%TO.P,U2,16,ISET_16*%
%TO.N,Net-(U2-ISET)*%
X147600000Y-138450000D03*
D36*
%TO.P,U2,17,EXP_17*%
%TO.N,GND*%
X148350000Y-139885000D03*
D37*
%TO.P,U2,18*%
X148350000Y-139885000D03*
%TO.P,U2,19*%
X147770000Y-139305000D03*
%TO.P,U2,20*%
X148930000Y-139305000D03*
%TO.P,U2,21*%
X147770000Y-140465000D03*
%TO.P,U2,22*%
X148930000Y-140465000D03*
%TD*%
D15*
%TO.P,R12,1*%
%TO.N,GND*%
X124225000Y-137590000D03*
%TO.P,R12,2*%
%TO.N,Net-(J2-CC1)*%
X124225000Y-138610000D03*
%TD*%
D20*
%TO.P,MCU_flash1,1,Pin_1_1*%
%TO.N,MCU System VDD*%
X177200000Y-119310000D03*
D21*
%TO.P,MCU_flash1,2,Pin_2_2*%
%TO.N,SWDIO*%
X177200000Y-121850000D03*
%TO.P,MCU_flash1,3,Pin_3_3*%
%TO.N,SWDCLK*%
X177200000Y-124390000D03*
%TO.P,MCU_flash1,4,Pin_4_4*%
%TO.N,P0.18{slash}RESET*%
X177200000Y-126930000D03*
%TO.P,MCU_flash1,5,Pin_5_5*%
%TO.N,GND*%
X177200000Y-129470000D03*
%TD*%
D30*
%TO.P,R11,1*%
%TO.N,Net-(J2-CC2)*%
X127225000Y-138610000D03*
%TO.P,R11,2*%
%TO.N,GND*%
X127225000Y-137590000D03*
%TD*%
D29*
%TO.P,C3,1*%
%TO.N,GND*%
X164275000Y-133665000D03*
%TO.P,C3,2*%
%TO.N,P0.01{slash}XL2*%
X164275000Y-134625000D03*
%TD*%
D23*
%TO.P,C6,1*%
%TO.N,GND*%
X171125000Y-144375000D03*
%TO.P,C6,2*%
%TO.N,DEC4*%
X169575000Y-144375000D03*
%TD*%
%TO.P,C19,1*%
%TO.N,USB-C VBUS*%
X155125000Y-146775000D03*
%TO.P,C19,2*%
%TO.N,GND*%
X153575000Y-146775000D03*
%TD*%
D28*
%TO.P,C16,1*%
%TO.N,GND*%
X171385000Y-141675000D03*
%TO.P,C16,2*%
%TO.N,Net-(U1-DEC5)*%
X170425000Y-141675000D03*
%TD*%
D29*
%TO.P,C15,1*%
%TO.N,/ANT*%
X172355000Y-135755000D03*
%TO.P,C15,2*%
%TO.N,GND*%
X172355000Y-136715000D03*
%TD*%
D38*
%TO.P,SW10,1,1_1*%
%TO.N,GND*%
X139975000Y-138700000D03*
X135875000Y-138700000D03*
%TO.P,SW10,2,2_2*%
%TO.N,P0.18{slash}RESET*%
X139975000Y-137100000D03*
X135875000Y-137100000D03*
%TD*%
D39*
%TO.P,SW11,A,A_A*%
%TO.N,P1.10 CLK*%
X160100000Y-63700000D03*
D40*
%TO.P,SW11,B,B_B*%
%TO.N,P1.11 DT*%
X160100000Y-68700000D03*
%TO.P,SW11,C,C_C*%
%TO.N,GND*%
X160100000Y-66200000D03*
D41*
%TO.P,SW11,MP*%
%TO.N,N/C*%
X167600000Y-60600000D03*
X167600000Y-71800000D03*
D40*
%TO.P,SW11,S1,S1_S1*%
%TO.N,P1.12 SW*%
X174600000Y-68700000D03*
%TO.P,SW11,S2,S2_S2*%
%TO.N,GND*%
X174600000Y-63700000D03*
%TD*%
D42*
%TO.P,X2,1,1_1*%
%TO.N,P0.01{slash}XL2*%
X162825000Y-134025000D03*
%TO.P,X2,2,2_2*%
%TO.N,P0.00{slash}XL1*%
X160325000Y-134025000D03*
%TD*%
D12*
%TO.P,C21,1*%
%TO.N,GND*%
X146350000Y-146750000D03*
%TO.P,C21,2*%
%TO.N,Net-(U2-EN2)*%
X147900000Y-146750000D03*
%TD*%
D43*
%TO.P,J1,1,Pin_1_1*%
%TO.N,Net-(J1-Pin_1)*%
X136100000Y-145875000D03*
D44*
%TO.P,J1,2,Pin_2_2*%
%TO.N,GND*%
X138100000Y-145875000D03*
%TD*%
D45*
%TO.N,GND*%
X157425000Y-142125000D03*
X152400000Y-146775000D03*
X165050000Y-132900000D03*
X145150000Y-136450000D03*
X172600000Y-81700000D03*
X171275000Y-131975000D03*
X159625000Y-136775000D03*
X124225000Y-136650000D03*
X165000000Y-140775000D03*
X162925000Y-146775000D03*
X169025000Y-146625000D03*
X172950000Y-118375000D03*
X170025000Y-138235000D03*
X148100000Y-135200000D03*
D46*
X153437000Y-100695000D03*
D45*
X152880000Y-62595000D03*
X145450000Y-144050000D03*
X167645000Y-65065000D03*
X171130000Y-145855000D03*
D46*
X133962000Y-100695000D03*
X133962000Y-81695000D03*
X133962000Y-119870000D03*
D45*
X143225000Y-145875000D03*
X127250000Y-136650000D03*
X169313235Y-137363235D03*
X172300000Y-137375000D03*
X149750000Y-142525000D03*
X148275000Y-142875000D03*
X131250000Y-139100000D03*
D46*
X153437000Y-81695000D03*
D45*
X152800000Y-138625000D03*
D46*
X153455000Y-119800000D03*
X172850000Y-100695000D03*
%TO.N,P1.08*%
X162625000Y-141317182D03*
X158850000Y-130200000D03*
D45*
%TO.N,USB-C VBUS*%
X158075000Y-144075000D03*
X154550000Y-135325000D03*
X156950000Y-146775000D03*
D46*
%TO.N,P1.04*%
X133660000Y-110420000D03*
X169190452Y-142145672D03*
%TO.N,P1.15 Display SDA*%
X165405189Y-137146884D03*
%TO.N,Net-(U1-DEC2)*%
X165955189Y-136692317D03*
D45*
X168355000Y-137225000D03*
D46*
%TO.N,P1.10 CLK*%
X166575380Y-137019620D03*
%TO.N,SWDCLK*%
X133135000Y-132185000D03*
X167690000Y-147205000D03*
D45*
X169640002Y-142746012D03*
%TO.N,Net-(U1-DECUSB)*%
X162840831Y-143169071D03*
X160046788Y-141838210D03*
%TO.N,P0.18{slash}RESET*%
X169175000Y-126925000D03*
X157450000Y-134700000D03*
X165050000Y-143200002D03*
X134000000Y-136300000D03*
D46*
%TO.N,SWDIO*%
X172050000Y-126625000D03*
D45*
X168625000Y-144176473D03*
X155350000Y-131750000D03*
X163795000Y-127865000D03*
X163556291Y-143200000D03*
X165775000Y-127930000D03*
%TO.N,D- USB-C*%
X161575000Y-144800000D03*
X155625000Y-135300000D03*
%TO.N,D+ USB-C*%
X126175000Y-138475000D03*
X163065318Y-144765318D03*
%TO.N,DEC4*%
X168432369Y-138898198D03*
X162450000Y-135850000D03*
X164325000Y-136850000D03*
X162450000Y-137477277D03*
X169575000Y-145375000D03*
D46*
%TO.N,P1.14 Display SCL*%
X165330722Y-138400001D03*
%TO.N,P1.12 SW*%
X166030724Y-138399998D03*
%TO.N,P1.11 DT*%
X166773185Y-138400001D03*
D45*
%TO.N,P0.00{slash}XL1*%
X162366605Y-138558581D03*
X159375000Y-135475000D03*
%TO.N,DEC3*%
X170576401Y-143352625D03*
X167528047Y-138744564D03*
%TO.N,P0.01{slash}XL2*%
X164075000Y-135500000D03*
X162575001Y-139331292D03*
D46*
%TO.N,P1.07*%
X167741865Y-140814527D03*
X170025000Y-136616091D03*
X169900000Y-131305000D03*
%TO.N,P1.09*%
X161274187Y-141871368D03*
X157168591Y-130956409D03*
%TO.N,P1.06*%
X168636742Y-141614560D03*
X151990000Y-132950000D03*
%TO.N,P1.05*%
X151435000Y-117305000D03*
X167374999Y-140142423D03*
%TO.N,P1.03*%
X167375002Y-142271960D03*
X136095000Y-132870000D03*
%TO.N,P1.02*%
X168865000Y-142770000D03*
X135955000Y-117180000D03*
%TO.N,P1.01*%
X167321578Y-142969918D03*
X164655000Y-146200000D03*
X132750000Y-97975000D03*
%TD*%
%TO.N,MCU System VDD*%
D47*
X167750000Y-144201776D02*
X167750000Y-144025000D01*
X162200000Y-136600000D02*
X163385050Y-136600000D01*
X161375000Y-142900000D02*
X161750000Y-142525000D01*
X163385050Y-136600000D02*
X163785050Y-136200000D01*
X157430000Y-138250000D02*
X157425000Y-138250000D01*
X174700000Y-119325000D02*
X174715000Y-119310000D01*
X163550000Y-124525000D02*
X165850000Y-122225000D01*
X166297893Y-136140000D02*
X166615000Y-136140000D01*
X163785050Y-136200000D02*
X164364950Y-136200000D01*
X174715000Y-119310000D02*
X177200000Y-119310000D01*
X165801776Y-146150000D02*
X167045000Y-146150000D01*
X163925000Y-145550000D02*
X165250000Y-144225000D01*
X156375000Y-134785050D02*
X158435050Y-132725000D01*
X162000000Y-142525000D02*
X162250000Y-142775000D01*
X170725000Y-122200000D02*
X173600000Y-119325000D01*
X156375000Y-137200000D02*
X156375000Y-134785050D01*
X157900000Y-114275000D02*
X157900000Y-67290000D01*
X169550000Y-122225000D02*
X169575000Y-122200000D01*
X159832360Y-132725000D02*
X164400000Y-128157360D01*
X165201776Y-145550000D02*
X165801776Y-146150000D01*
X166137894Y-135980000D02*
X166297893Y-136140000D01*
X158300000Y-145550000D02*
X163925000Y-145550000D01*
X156420000Y-139935000D02*
X156420000Y-142900000D01*
X164584950Y-135980000D02*
X166137894Y-135980000D01*
X157275000Y-145550000D02*
X158300000Y-145550000D01*
X167250000Y-136775000D02*
X167250000Y-137525000D01*
X157900000Y-67290000D02*
X155700000Y-65090000D01*
X173600000Y-119325000D02*
X174700000Y-119325000D01*
X158435050Y-132725000D02*
X159832360Y-132725000D01*
X165801776Y-146150000D02*
X167750000Y-144201776D01*
X157430000Y-137380000D02*
X157450000Y-137360000D01*
X157430000Y-138925000D02*
X158330000Y-138025000D01*
X164400000Y-128157360D02*
X164400000Y-127125000D01*
X161750000Y-138025000D02*
X161750000Y-137050000D01*
X159500000Y-146750000D02*
X160225000Y-146750000D01*
X165850000Y-122225000D02*
X157900000Y-114275000D01*
X161750000Y-137050000D02*
X162200000Y-136600000D01*
X157425000Y-138250000D02*
X156375000Y-137200000D01*
X158300000Y-145550000D02*
X159500000Y-146750000D01*
X163550000Y-126275000D02*
X163550000Y-124525000D01*
X156050000Y-136875000D02*
X155025000Y-136875000D01*
X164400000Y-127125000D02*
X163550000Y-126275000D01*
X156420000Y-144695000D02*
X157275000Y-145550000D01*
X165250000Y-144225000D02*
X165250000Y-144025000D01*
X164364950Y-136200000D02*
X164584950Y-135980000D01*
X163100000Y-145550000D02*
X165201776Y-145550000D01*
X166615000Y-136140000D02*
X167250000Y-136775000D01*
X169575000Y-122200000D02*
X170725000Y-122200000D01*
X158330000Y-138025000D02*
X161750000Y-138025000D01*
X161750000Y-142525000D02*
X162000000Y-142525000D01*
X156420000Y-142900000D02*
X156420000Y-144695000D01*
X156420000Y-142900000D02*
X161375000Y-142900000D01*
X157430000Y-138250000D02*
X157430000Y-137380000D01*
X165850000Y-122225000D02*
X169550000Y-122225000D01*
X157430000Y-138925000D02*
X157430000Y-138250000D01*
X157430000Y-138925000D02*
X156420000Y-139935000D01*
X156375000Y-137200000D02*
X156050000Y-136875000D01*
%TO.N,GND*%
D48*
X158950000Y-133625000D02*
X158340000Y-134235000D01*
D47*
X155700000Y-62550000D02*
X152925000Y-62550000D01*
D48*
X139975000Y-138700000D02*
X135875000Y-138700000D01*
X171125000Y-143650000D02*
X171375000Y-143400000D01*
X146350000Y-144950000D02*
X145450000Y-144050000D01*
D47*
X143225000Y-145875000D02*
X143225000Y-143650000D01*
D49*
X169420000Y-139020000D02*
X170355000Y-139020000D01*
X167850000Y-139375000D02*
X169065000Y-139375000D01*
D48*
X158340000Y-135490000D02*
X159625000Y-136775000D01*
X171125000Y-145850000D02*
X171130000Y-145855000D01*
D47*
X128625000Y-140325000D02*
X129170000Y-140325000D01*
D49*
X165000000Y-140775000D02*
X164965000Y-140775000D01*
D48*
X165800000Y-133650000D02*
X165050000Y-132900000D01*
X171380000Y-142650000D02*
X171380000Y-143395000D01*
X171265000Y-131985000D02*
X171275000Y-131975000D01*
X171125000Y-144375000D02*
X171125000Y-143650000D01*
X158340000Y-134235000D02*
X158340000Y-135490000D01*
X171125000Y-144375000D02*
X171125000Y-145850000D01*
X165800000Y-133655000D02*
X165800000Y-133650000D01*
X157855000Y-140400000D02*
X157430000Y-140825000D01*
X171385000Y-141675000D02*
X171385000Y-142645000D01*
X135875000Y-138700000D02*
X134270000Y-138700000D01*
X151300000Y-146775000D02*
X152400000Y-146775000D01*
X134000000Y-138430000D02*
X131920000Y-138430000D01*
X175525000Y-129470000D02*
X173020000Y-131975000D01*
D47*
X157430000Y-140825000D02*
X157430000Y-142120000D01*
X172100000Y-66200000D02*
X167620000Y-66200000D01*
D49*
X148600000Y-135700000D02*
X148100000Y-135200000D01*
D47*
X138100000Y-145875000D02*
X143225000Y-145875000D01*
D48*
X165790000Y-133665000D02*
X165800000Y-133655000D01*
D47*
X162900000Y-146750000D02*
X162925000Y-146775000D01*
D48*
X145450000Y-143285000D02*
X145450000Y-144050000D01*
D49*
X169065000Y-139375000D02*
X169420000Y-139020000D01*
D48*
X165050000Y-133665000D02*
X165790000Y-133665000D01*
X159100000Y-139470000D02*
X159695000Y-138875000D01*
X127225000Y-136675000D02*
X127250000Y-136650000D01*
X171265000Y-133640000D02*
X171265000Y-131985000D01*
X171385000Y-142645000D02*
X171380000Y-142650000D01*
D47*
X153575000Y-146775000D02*
X152400000Y-146775000D01*
X152675000Y-136875000D02*
X153475000Y-136875000D01*
D48*
X159670000Y-136775000D02*
X160645000Y-135800000D01*
X159100000Y-140400000D02*
X157855000Y-140400000D01*
X175525000Y-129470000D02*
X177200000Y-129470000D01*
X169305000Y-137355000D02*
X169313235Y-137363235D01*
X164275000Y-133665000D02*
X165050000Y-133665000D01*
X131920000Y-138430000D02*
X131250000Y-139100000D01*
D47*
X167620000Y-66200000D02*
X160100000Y-66200000D01*
X143225000Y-143650000D02*
X143200000Y-143625000D01*
X168005000Y-146150000D02*
X168550000Y-146150000D01*
D48*
X173020000Y-131975000D02*
X171275000Y-131975000D01*
X159625000Y-136775000D02*
X159670000Y-136775000D01*
D47*
X129170000Y-140325000D02*
X129750000Y-140905000D01*
D49*
X147575000Y-135725000D02*
X148100000Y-135200000D01*
D48*
X172355000Y-136715000D02*
X172355000Y-137320000D01*
X172355000Y-137320000D02*
X172300000Y-137375000D01*
D49*
X165000000Y-140760000D02*
X164130000Y-139890000D01*
D47*
X161775000Y-146750000D02*
X162900000Y-146750000D01*
X152675000Y-138500000D02*
X152800000Y-138625000D01*
D49*
X148600000Y-136230000D02*
X148600000Y-135700000D01*
X148100000Y-141320000D02*
X148100000Y-142700000D01*
D47*
X152675000Y-136875000D02*
X152675000Y-138500000D01*
D48*
X127225000Y-137590000D02*
X127225000Y-136675000D01*
D49*
X170440000Y-138650000D02*
X170025000Y-138235000D01*
X167750000Y-139275000D02*
X167850000Y-139375000D01*
D48*
X169305000Y-136325000D02*
X169305000Y-137355000D01*
D47*
X167620000Y-66200000D02*
X167620000Y-65090000D01*
X157430000Y-142120000D02*
X157425000Y-142125000D01*
D49*
X148100000Y-142700000D02*
X148275000Y-142875000D01*
D47*
X151925000Y-136875000D02*
X152675000Y-136875000D01*
D49*
X170440000Y-138935000D02*
X170440000Y-138650000D01*
D48*
X146350000Y-146750000D02*
X146350000Y-144950000D01*
D49*
X149100000Y-141875000D02*
X149750000Y-142525000D01*
X147575000Y-136250000D02*
X147575000Y-135725000D01*
D48*
X152070000Y-138625000D02*
X152800000Y-138625000D01*
X159100000Y-140400000D02*
X159100000Y-139470000D01*
D49*
X163500000Y-138025000D02*
X165000000Y-139525000D01*
X165000000Y-139525000D02*
X165000000Y-140775000D01*
D47*
X121680000Y-140325000D02*
X121100000Y-140905000D01*
D49*
X170355000Y-139020000D02*
X170440000Y-138935000D01*
X149100000Y-141320000D02*
X149100000Y-141875000D01*
D48*
X134270000Y-138700000D02*
X134000000Y-138430000D01*
D47*
X155700000Y-62550000D02*
X159350000Y-66200000D01*
X174600000Y-63700000D02*
X172100000Y-66200000D01*
D48*
X124225000Y-137590000D02*
X124225000Y-136650000D01*
X171380000Y-143395000D02*
X171375000Y-143400000D01*
D47*
X168550000Y-146150000D02*
X169025000Y-146625000D01*
X122225000Y-140325000D02*
X121680000Y-140325000D01*
D48*
X145150000Y-137165000D02*
X145150000Y-136450000D01*
%TO.N,Net-(U2-EN2)*%
X147775000Y-143300000D02*
X149175000Y-144700000D01*
X149175000Y-144700000D02*
X150100000Y-145625000D01*
X155435000Y-142735000D02*
X155375000Y-142675000D01*
X155375000Y-139950000D02*
X155300000Y-139875000D01*
D47*
X155300000Y-139875000D02*
X154625000Y-139875000D01*
X154415000Y-139665000D02*
X149785000Y-139665000D01*
D48*
X154675000Y-145625000D02*
X155435000Y-144865000D01*
X149175000Y-144700000D02*
X149750000Y-145275000D01*
D47*
X154620000Y-140105000D02*
X149785000Y-140105000D01*
D48*
X147600000Y-143125000D02*
X147775000Y-143300000D01*
X150100000Y-145625000D02*
X154675000Y-145625000D01*
D47*
X154850000Y-139875000D02*
X154620000Y-140105000D01*
X155300000Y-139875000D02*
X154850000Y-139875000D01*
X154625000Y-139875000D02*
X154415000Y-139665000D01*
D48*
X147600000Y-141320000D02*
X147600000Y-143125000D01*
X147900000Y-143425000D02*
X147900000Y-146750000D01*
X147775000Y-143300000D02*
X147900000Y-143425000D01*
X155435000Y-144865000D02*
X155435000Y-144375000D01*
X155435000Y-144375000D02*
X155435000Y-142735000D01*
X155375000Y-142675000D02*
X155375000Y-139950000D01*
X149750000Y-145275000D02*
X149750000Y-146775000D01*
%TO.N,P1.08*%
X162250000Y-141275000D02*
X162582818Y-141275000D01*
X162582818Y-141275000D02*
X162625000Y-141317182D01*
%TO.N,USB-C VBUS*%
D47*
X127825000Y-139255000D02*
X128025000Y-139055000D01*
X158125000Y-144025000D02*
X162250000Y-144025000D01*
X126970000Y-141230000D02*
X127100000Y-141100000D01*
X124400000Y-142050000D02*
X123025000Y-140675000D01*
X149320000Y-138260000D02*
X150375000Y-137205000D01*
X132780000Y-134500000D02*
X128225000Y-139055000D01*
X149320000Y-135430050D02*
X149320000Y-138260000D01*
X148389950Y-134500000D02*
X153725000Y-134500000D01*
X128025000Y-139055000D02*
X128225000Y-139055000D01*
X126970000Y-142050000D02*
X124400000Y-142050000D01*
X127825000Y-140595000D02*
X127825000Y-139925000D01*
X158075000Y-144075000D02*
X158125000Y-144025000D01*
X153725000Y-134500000D02*
X154550000Y-135325000D01*
X127320000Y-141100000D02*
X127825000Y-140595000D01*
X126970000Y-142050000D02*
X126970000Y-141230000D01*
X148389950Y-134500000D02*
X132780000Y-134500000D01*
X127100000Y-141100000D02*
X127320000Y-141100000D01*
X150375000Y-137205000D02*
X150375000Y-136875000D01*
X148389950Y-134500000D02*
X149320000Y-135430050D01*
X123025000Y-140675000D02*
X123025000Y-139925000D01*
X127825000Y-139925000D02*
X127825000Y-139255000D01*
X156950000Y-146775000D02*
X155125000Y-146775000D01*
%TO.N,P1.04*%
D49*
X168370672Y-142145672D02*
X169190452Y-142145672D01*
X168250000Y-142025000D02*
X168370672Y-142145672D01*
%TO.N,P1.15 Display SDA*%
X165405189Y-137146884D02*
X165405189Y-137369811D01*
X165405189Y-137369811D02*
X165250000Y-137525000D01*
%TO.N,Net-(U1-DEC2)*%
D48*
X166250000Y-137525000D02*
X165955189Y-137230189D01*
X166250000Y-137500000D02*
X166250000Y-137525000D01*
X168355000Y-136335000D02*
X168345000Y-136325000D01*
X165955189Y-137230189D02*
X165955189Y-136692317D01*
X168355000Y-137225000D02*
X168355000Y-136335000D01*
%TO.N,P1.10 CLK*%
D49*
X166750000Y-137194240D02*
X166575380Y-137019620D01*
X166750000Y-137525000D02*
X166750000Y-137194240D01*
%TO.N,XC2*%
D48*
X167750000Y-136567893D02*
X167750000Y-136825000D01*
D49*
X167750000Y-137525000D02*
X167755000Y-137520000D01*
D48*
X166878553Y-134396447D02*
X167315000Y-133960000D01*
X165800000Y-134935000D02*
X165800000Y-134615000D01*
X167315000Y-133960000D02*
X167765000Y-133960000D01*
X167755000Y-136830000D02*
X167755000Y-137520000D01*
X166878553Y-135696447D02*
X166822106Y-135640000D01*
X167403553Y-136221447D02*
X166878553Y-135696447D01*
X166505000Y-135640000D02*
X165800000Y-134935000D01*
D49*
X167737708Y-133960000D02*
X167765000Y-133960000D01*
D48*
X167320000Y-136137894D02*
X167750000Y-136567893D01*
X166822106Y-135640000D02*
X166505000Y-135640000D01*
X167750000Y-136825000D02*
X167755000Y-136830000D01*
X166878553Y-135696447D02*
X166878553Y-134396447D01*
%TO.N,SWDCLK*%
X169400000Y-143320000D02*
X168610686Y-143320000D01*
X168415686Y-143125000D02*
X168350000Y-143125000D01*
X169400000Y-142986013D02*
X169400000Y-143320000D01*
X169640002Y-142746012D02*
X169400000Y-142986013D01*
X168610686Y-143320000D02*
X168415686Y-143125000D01*
X168350000Y-143125000D02*
X168250000Y-143025000D01*
%TO.N,Net-(U1-DECUSB)*%
D49*
X163000000Y-143328240D02*
X162840831Y-143169071D01*
D48*
X159200000Y-142050000D02*
X159834998Y-142050000D01*
X159834998Y-142050000D02*
X160046788Y-141838210D01*
D49*
X163000000Y-143525000D02*
X163000000Y-143328240D01*
X159200000Y-142050000D02*
X159100000Y-141950000D01*
%TO.N,P0.18{slash}RESET*%
D48*
X134000000Y-136300000D02*
X134000000Y-137470000D01*
X169175000Y-126925000D02*
X169775000Y-127525000D01*
X135505000Y-137470000D02*
X135875000Y-137100000D01*
X157450000Y-136340000D02*
X157450000Y-134700000D01*
X169775000Y-127525000D02*
X176605000Y-127525000D01*
X134000000Y-137470000D02*
X135505000Y-137470000D01*
X176605000Y-127525000D02*
X177200000Y-126930000D01*
X165050000Y-143200002D02*
X165050000Y-143475000D01*
X135875000Y-137100000D02*
X139975000Y-137100000D01*
X165050000Y-143475000D02*
X165000000Y-143525000D01*
%TO.N,SWDIO*%
X155350000Y-131750000D02*
X159910000Y-131750000D01*
X171545000Y-126175000D02*
X168800000Y-126175000D01*
X165830000Y-127875000D02*
X165775000Y-127930000D01*
X168800000Y-126175000D02*
X167100000Y-127875000D01*
X159910000Y-131750000D02*
X163795000Y-127865000D01*
X168625000Y-144176473D02*
X168625000Y-143900000D01*
X168625000Y-143900000D02*
X168250000Y-143525000D01*
X171995000Y-126625000D02*
X171545000Y-126175000D01*
X167100000Y-127875000D02*
X165830000Y-127875000D01*
X172050000Y-126625000D02*
X171995000Y-126625000D01*
%TO.N,D- USB-C*%
X162257107Y-144725000D02*
X162750000Y-144232107D01*
X162750000Y-144232107D02*
X162750000Y-144025000D01*
X125350000Y-138875000D02*
X125350000Y-137701471D01*
X124925000Y-138875000D02*
X124675000Y-139125000D01*
X125675000Y-139200000D02*
X125350000Y-138875000D01*
X154050000Y-133725000D02*
X155625000Y-135300000D01*
X129326471Y-133725000D02*
X154050000Y-133725000D01*
X125350000Y-137701471D02*
X129326471Y-133725000D01*
X161575000Y-144800000D02*
X161650000Y-144725000D01*
X125350000Y-138875000D02*
X124925000Y-138875000D01*
X125675000Y-139925000D02*
X125675000Y-139200000D01*
X161650000Y-144725000D02*
X162257107Y-144725000D01*
X125675000Y-139505000D02*
X125675000Y-140325000D01*
X125610000Y-139440000D02*
X125675000Y-139505000D01*
X124675000Y-140325000D02*
X124675000Y-139505000D01*
X124675000Y-139125000D02*
X124675000Y-139925000D01*
%TO.N,D+ USB-C*%
X125970000Y-141350000D02*
X125380000Y-141350000D01*
X163250000Y-144580636D02*
X163250000Y-144025000D01*
X163065318Y-144765318D02*
X163250000Y-144580636D01*
X126175000Y-138475000D02*
X126175000Y-141145000D01*
X125380000Y-141350000D02*
X125175000Y-141145000D01*
X126175000Y-141145000D02*
X125970000Y-141350000D01*
X125175000Y-141145000D02*
X125175000Y-140325000D01*
%TO.N,DEC4*%
X163000000Y-138025000D02*
X162997723Y-138025000D01*
X168325000Y-139025000D02*
X168250000Y-139025000D01*
D49*
X161680000Y-135875000D02*
X161605000Y-135800000D01*
D48*
X162450000Y-135850000D02*
X161655000Y-135850000D01*
X168432369Y-138898198D02*
X168432369Y-138917631D01*
X164175000Y-137000000D02*
X162927277Y-137000000D01*
X164325000Y-136850000D02*
X164175000Y-137000000D01*
X162927277Y-137000000D02*
X162450000Y-137477277D01*
X162997723Y-138025000D02*
X162450000Y-137477277D01*
X161655000Y-135850000D02*
X161605000Y-135800000D01*
X169575000Y-145375000D02*
X169575000Y-144375000D01*
X168432369Y-138917631D02*
X168325000Y-139025000D01*
%TO.N,P1.14 Display SCL*%
D49*
X165500000Y-138025000D02*
X165500000Y-138230723D01*
X165500000Y-138230723D02*
X165330722Y-138400001D01*
%TO.N,P1.12 SW*%
X166000000Y-138025000D02*
X166000000Y-138369274D01*
X166000000Y-138369274D02*
X166030724Y-138399998D01*
%TO.N,P1.11 DT*%
X166773185Y-138400001D02*
X166773185Y-138298185D01*
X166773185Y-138298185D02*
X166500000Y-138025000D01*
%TO.N,XC1*%
D48*
X170175000Y-134520000D02*
X169615000Y-133960000D01*
X170600000Y-136175000D02*
X170175000Y-135750000D01*
X170600000Y-136925000D02*
X169500000Y-138025000D01*
X170600000Y-135265000D02*
X170600000Y-136925000D01*
X169500000Y-138025000D02*
X168250000Y-138025000D01*
X171265000Y-134600000D02*
X170600000Y-135265000D01*
D49*
X169615000Y-133960000D02*
X169165000Y-133960000D01*
D48*
X170175000Y-135750000D02*
X170175000Y-134520000D01*
%TO.N,Net-(U1-DEC1)*%
X161005000Y-138525000D02*
X160655000Y-138875000D01*
X161750000Y-138525000D02*
X161005000Y-138525000D01*
%TO.N,P0.00{slash}XL1*%
X158950000Y-135050000D02*
X159375000Y-135475000D01*
X159765000Y-134585000D02*
X160325000Y-134025000D01*
X158950000Y-134585000D02*
X158950000Y-135050000D01*
D49*
X162366605Y-138558581D02*
X162366605Y-138658395D01*
X162366605Y-138658395D02*
X162250000Y-138775000D01*
D48*
X158950000Y-134585000D02*
X159765000Y-134585000D01*
%TO.N,DEC3*%
X167528047Y-138744564D02*
X167558483Y-138775000D01*
X170576401Y-143352625D02*
X170400000Y-143176224D01*
X167558483Y-138775000D02*
X167750000Y-138775000D01*
X170400000Y-142670000D02*
X170420000Y-142650000D01*
X170400000Y-143176224D02*
X170400000Y-142670000D01*
%TO.N,P0.01{slash}XL2*%
D49*
X164275000Y-135300000D02*
X164075000Y-135500000D01*
X162306292Y-139331292D02*
X162250000Y-139275000D01*
D48*
X164275000Y-134625000D02*
X164275000Y-135300000D01*
X163425000Y-134625000D02*
X162825000Y-134025000D01*
D49*
X162575001Y-139331292D02*
X162306292Y-139331292D01*
D48*
X164275000Y-134625000D02*
X163425000Y-134625000D01*
%TO.N,ANT*%
D50*
X169435000Y-139995000D02*
X169420000Y-139980000D01*
D49*
X167850000Y-139675000D02*
X169115000Y-139675000D01*
D50*
X170430000Y-139980000D02*
X170435000Y-139985000D01*
X169420000Y-139980000D02*
X170430000Y-139980000D01*
X170415000Y-139980000D02*
X170420000Y-139985000D01*
X170455000Y-139980000D02*
X170460000Y-139985000D01*
D49*
X167750000Y-139775000D02*
X167850000Y-139675000D01*
X169115000Y-139675000D02*
X169420000Y-139980000D01*
D50*
X170425000Y-139980000D02*
X170430000Y-139985000D01*
X170470000Y-139980000D02*
X170475000Y-139985000D01*
X170435000Y-139980000D02*
X170440000Y-139985000D01*
%TO.N,Net-(U1-DEC5)*%
D48*
X168250000Y-141025000D02*
X168825000Y-141025000D01*
X169475000Y-141675000D02*
X170425000Y-141675000D01*
X168825000Y-141025000D02*
X169475000Y-141675000D01*
%TO.N,P1.07*%
D49*
X167750000Y-140822662D02*
X167741865Y-140814527D01*
X167750000Y-141275000D02*
X167750000Y-140822662D01*
%TO.N,P1.09*%
D48*
X161274187Y-141871368D02*
X161403632Y-141871368D01*
X161403632Y-141871368D02*
X161750000Y-141525000D01*
%TO.N,P1.06*%
X168636742Y-141614560D02*
X168339560Y-141614560D01*
X168339560Y-141614560D02*
X168250000Y-141525000D01*
%TO.N,P1.05*%
D49*
X167544281Y-141775000D02*
X167200000Y-141430719D01*
X167200000Y-141430719D02*
X167200000Y-140317422D01*
X167544281Y-141775000D02*
X167750000Y-141775000D01*
X167200000Y-140317422D02*
X167374999Y-140142423D01*
%TO.N,P1.03*%
D48*
X167375002Y-142304047D02*
X167386811Y-142315856D01*
X167375002Y-142271960D02*
X167375002Y-142304047D01*
D49*
X167378042Y-142275000D02*
X167375002Y-142271960D01*
X167750000Y-142275000D02*
X167378042Y-142275000D01*
%TO.N,P1.02*%
D48*
X168250000Y-142525000D02*
X168620000Y-142525000D01*
X168620000Y-142525000D02*
X168865000Y-142770000D01*
%TO.N,P1.01*%
D49*
X167750000Y-142775000D02*
X167555082Y-142969918D01*
X167555082Y-142969918D02*
X167321578Y-142969918D01*
%TO.N,Net-(C14-Pad1)*%
D50*
X171405000Y-138955000D02*
X171405000Y-136764142D01*
X171405000Y-140005000D02*
X171405000Y-138955000D01*
%TO.N,Net-(U2-TS)*%
D48*
X145660000Y-139135000D02*
X145150000Y-138625000D01*
X145150000Y-138625000D02*
X145150000Y-138185000D01*
X146915000Y-139135000D02*
X145660000Y-139135000D01*
%TO.N,Net-(J2-CC1)*%
X124175000Y-140325000D02*
X124175000Y-138660000D01*
X124175000Y-138660000D02*
X124225000Y-138610000D01*
%TO.N,Net-(J2-CC2)*%
D49*
X127175000Y-140325000D02*
X127175000Y-138660000D01*
X127175000Y-140325000D02*
X127240000Y-140260000D01*
X127175000Y-138660000D02*
X127225000Y-138610000D01*
%TO.N,Net-(U2-TMR)*%
D48*
X148600000Y-137250000D02*
X148600000Y-138450000D01*
%TO.N,Net-(D10-K)*%
X149785000Y-140635000D02*
X151262500Y-142112500D01*
X151262500Y-142112500D02*
X151262500Y-142650000D01*
%TO.N,Net-(D10-A)*%
X154330000Y-142650000D02*
X154355000Y-142675000D01*
X152837500Y-142650000D02*
X154330000Y-142650000D01*
%TO.N,Net-(D11-A)*%
X154365000Y-144425000D02*
X154415000Y-144375000D01*
X152837500Y-144425000D02*
X154365000Y-144425000D01*
%TO.N,Net-(J1-Pin_1)*%
D47*
X144280000Y-140995000D02*
X143200000Y-142075000D01*
X143815000Y-139665000D02*
X143840000Y-139665000D01*
X144280000Y-140105000D02*
X144280000Y-140995000D01*
X136100000Y-145875000D02*
X136100000Y-142600000D01*
X136900000Y-141800000D02*
X141680000Y-141800000D01*
X141680000Y-141800000D02*
X143815000Y-139665000D01*
X143840000Y-139665000D02*
X144280000Y-140105000D01*
X143815000Y-139665000D02*
X146915000Y-139665000D01*
X144280000Y-140105000D02*
X146915000Y-140105000D01*
X136100000Y-142600000D02*
X136900000Y-141800000D01*
%TO.N,Net-(D11-K)*%
D48*
X150700000Y-144425000D02*
X148600000Y-142325000D01*
X148600000Y-142325000D02*
X148600000Y-141320000D01*
X151262500Y-144425000D02*
X150700000Y-144425000D01*
%TO.N,Net-(U2-ILIM)*%
X149785000Y-139135000D02*
X150540000Y-139135000D01*
X150540000Y-139135000D02*
X151050000Y-138625000D01*
%TO.N,Net-(U2-~{CE})*%
X146915000Y-140635000D02*
X146040000Y-140635000D01*
X146040000Y-140635000D02*
X145450000Y-141225000D01*
X145450000Y-141225000D02*
X145450000Y-142265000D01*
%TO.N,Net-(U2-ISET)*%
X147575000Y-138425000D02*
X147600000Y-138450000D01*
X147575000Y-137270000D02*
X147575000Y-138425000D01*
%TD*%
M02*
