%TF.GenerationSoftware,KiCad,Pcbnew,10.0.3*%
%TF.CreationDate,2026-06-15T13:38:46+02:00*%
%TF.ProjectId,Macropad,4d616372-6f70-4616-942e-6b696361645f,rev?*%
%TF.SameCoordinates,Original*%
%TF.FileFunction,Soldermask,Bot*%
%TF.FilePolarity,Negative*%
%FSLAX46Y46*%
G04 Gerber Fmt 4.6, Leading zero omitted, Abs format (unit mm)*
G04 Created by KiCad (PCBNEW 10.0.3) date 2026-06-15 13:38:46*
%MOMM*%
%LPD*%
G01*
G04 APERTURE LIST*
G04 Aperture macros list*
%AMRoundRect*
0 Rectangle with rounded corners*
0 $1 Rounding radius*
0 $2 $3 $4 $5 $6 $7 $8 $9 X,Y pos of 4 corners*
0 Add a 4 corners polygon primitive as box body*
4,1,4,$2,$3,$4,$5,$6,$7,$8,$9,$2,$3,0*
0 Add four circle primitives for the rounded corners*
1,1,$1+$1,$2,$3*
1,1,$1+$1,$4,$5*
1,1,$1+$1,$6,$7*
1,1,$1+$1,$8,$9*
0 Add four rect primitives between the rounded corners*
20,1,$1+$1,$2,$3,$4,$5,0*
20,1,$1+$1,$4,$5,$6,$7,0*
20,1,$1+$1,$6,$7,$8,$9,0*
20,1,$1+$1,$8,$9,$2,$3,0*%
G04 Aperture macros list end*
%ADD10C,1.750000*%
%ADD11C,3.050000*%
%ADD12C,4.000000*%
%ADD13RoundRect,0.250000X-1.025000X-1.000000X1.025000X-1.000000X1.025000X1.000000X-1.025000X1.000000X0*%
%ADD14C,0.600000*%
%ADD15O,1.104000X2.204000*%
%ADD16O,1.104000X1.904000*%
%ADD17R,1.700000X1.700000*%
%ADD18C,1.700000*%
%ADD19C,2.200000*%
%ADD20R,2.000000X2.000000*%
%ADD21C,2.000000*%
%ADD22R,3.200000X2.000000*%
%ADD23RoundRect,0.250000X-0.350000X-0.625000X0.350000X-0.625000X0.350000X0.625000X-0.350000X0.625000X0*%
%ADD24O,1.200000X1.750000*%
G04 APERTURE END LIST*
D10*
%TO.C,SW8*%
X161678000Y-105775000D03*
D11*
X162948000Y-103235000D03*
D12*
X166758000Y-105775000D03*
D11*
X169298000Y-100695000D03*
D10*
X171838000Y-105775000D03*
D13*
X159673000Y-103235000D03*
X172600000Y-100695000D03*
%TD*%
D10*
%TO.C,SW4*%
X142515000Y-86775000D03*
D11*
X143785000Y-84235000D03*
D12*
X147595000Y-86775000D03*
D11*
X150135000Y-81695000D03*
D10*
X152675000Y-86775000D03*
D13*
X140510000Y-84235000D03*
X153437000Y-81695000D03*
%TD*%
D14*
%TO.C,J2*%
X122535000Y-140995000D03*
X128315000Y-140995000D03*
D15*
X121100000Y-140505000D03*
X129750000Y-140505000D03*
D16*
X121100000Y-144675000D03*
X129750000Y-144675000D03*
%TD*%
D17*
%TO.C,Display1*%
X155700000Y-62550000D03*
D18*
X155700000Y-65090000D03*
X155700000Y-67630000D03*
X155700000Y-70170000D03*
%TD*%
D10*
%TO.C,SW3*%
X123040000Y-124950000D03*
D11*
X124310000Y-122410000D03*
D12*
X128120000Y-124950000D03*
D11*
X130660000Y-119870000D03*
D10*
X133200000Y-124950000D03*
D13*
X121035000Y-122410000D03*
X133962000Y-119870000D03*
%TD*%
D10*
%TO.C,SW2*%
X123040000Y-105775000D03*
D11*
X124310000Y-103235000D03*
D12*
X128120000Y-105775000D03*
D11*
X130660000Y-100695000D03*
D10*
X133200000Y-105775000D03*
D13*
X121035000Y-103235000D03*
X133962000Y-100695000D03*
%TD*%
D19*
%TO.C,REF\u002A\u002A*%
X118200000Y-79575000D03*
%TD*%
D10*
%TO.C,SW9*%
X161678000Y-124950000D03*
D11*
X162948000Y-122410000D03*
D12*
X166758000Y-124950000D03*
D11*
X169298000Y-119870000D03*
D10*
X171838000Y-124950000D03*
D13*
X159673000Y-122410000D03*
X172600000Y-119870000D03*
%TD*%
D10*
%TO.C,SW6*%
X142515000Y-124950000D03*
D11*
X143785000Y-122410000D03*
D12*
X147595000Y-124950000D03*
D11*
X150135000Y-119870000D03*
D10*
X152675000Y-124950000D03*
D13*
X140510000Y-122410000D03*
X153437000Y-119870000D03*
%TD*%
D10*
%TO.C,SW5*%
X142515000Y-105775000D03*
D11*
X143785000Y-103235000D03*
D12*
X147595000Y-105775000D03*
D11*
X150135000Y-100695000D03*
D10*
X152675000Y-105775000D03*
D13*
X140510000Y-103235000D03*
X153437000Y-100695000D03*
%TD*%
D19*
%TO.C,REF\u002A\u002A*%
X118200000Y-134575000D03*
%TD*%
D10*
%TO.C,SW1*%
X123040000Y-86775000D03*
D11*
X124310000Y-84235000D03*
D12*
X128120000Y-86775000D03*
D11*
X130660000Y-81695000D03*
D10*
X133200000Y-86775000D03*
D13*
X121035000Y-84235000D03*
X133962000Y-81695000D03*
%TD*%
D10*
%TO.C,SW7*%
X161678000Y-86775000D03*
D11*
X162948000Y-84235000D03*
D12*
X166758000Y-86775000D03*
D11*
X169298000Y-81695000D03*
D10*
X171838000Y-86775000D03*
D13*
X159673000Y-84235000D03*
X172600000Y-81695000D03*
%TD*%
D17*
%TO.C,MCU_flash1*%
X177200000Y-119310000D03*
D18*
X177200000Y-121850000D03*
X177200000Y-124390000D03*
X177200000Y-126930000D03*
X177200000Y-129470000D03*
%TD*%
D19*
%TO.C,REF\u002A\u002A*%
X177000000Y-88575000D03*
%TD*%
%TO.C,REF\u002A\u002A*%
X177000000Y-109575000D03*
%TD*%
D20*
%TO.C,SW11*%
X160100000Y-63700000D03*
D21*
X160100000Y-68700000D03*
X160100000Y-66200000D03*
D22*
X167600000Y-60600000D03*
X167600000Y-71800000D03*
D21*
X174600000Y-68700000D03*
X174600000Y-63700000D03*
%TD*%
D23*
%TO.C,J1*%
X136100000Y-145875000D03*
D24*
X138100000Y-145875000D03*
%TD*%
M02*
