%TF.GenerationSoftware,KiCad,Pcbnew,10.0.3*%
%TF.CreationDate,2026-06-15T13:38:46+02:00*%
%TF.ProjectId,Macropad,4d616372-6f70-4616-942e-6b696361645f,rev?*%
%TF.SameCoordinates,Original*%
%TF.FileFunction,Paste,Top*%
%TF.FilePolarity,Positive*%
%FSLAX46Y46*%
G04 Gerber Fmt 4.6, Leading zero omitted, Abs format (unit mm)*
G04 Created by KiCad (PCBNEW 10.0.3) date 2026-06-15 13:38:46*
%MOMM*%
%LPD*%
G01*
G04 APERTURE LIST*
G04 Aperture macros list*
%AMRoundRect*
0 Rectangle with rounded corners*
0 $1 Rounding radius*
0 $2 $3 $4 $5 $6 $7 $8 $9 X,Y pos of 4 corners*
0 Add a 4 corners polygon primitive as box body*
4,1,4,$2,$3,$4,$5,$6,$7,$8,$9,$2,$3,0*
0 Add four circle primitives for the rounded corners*
1,1,$1+$1,$2,$3*
1,1,$1+$1,$4,$5*
1,1,$1+$1,$6,$7*
1,1,$1+$1,$8,$9*
0 Add four rect primitives between the rounded corners*
20,1,$1+$1,$2,$3,$4,$5,0*
20,1,$1+$1,$4,$5,$6,$7,0*
20,1,$1+$1,$6,$7,$8,$9,0*
20,1,$1+$1,$8,$9,$2,$3,0*%
G04 Aperture macros list end*
%ADD10C,0.010000*%
%ADD11RoundRect,0.140000X-0.140000X-0.170000X0.140000X-0.170000X0.140000X0.170000X-0.140000X0.170000X0*%
%ADD12RoundRect,0.077500X0.532500X0.232500X-0.532500X0.232500X-0.532500X-0.232500X0.532500X-0.232500X0*%
%ADD13RoundRect,0.225000X-0.225000X-0.250000X0.225000X-0.250000X0.225000X0.250000X-0.225000X0.250000X0*%
%ADD14RoundRect,0.086250X0.201250X0.201250X-0.201250X0.201250X-0.201250X-0.201250X0.201250X-0.201250X0*%
%ADD15C,0.250000*%
%ADD16RoundRect,0.135000X-0.185000X0.135000X-0.185000X-0.135000X0.185000X-0.135000X0.185000X0.135000X0*%
%ADD17R,0.600000X1.140000*%
%ADD18R,0.300000X1.140000*%
%ADD19RoundRect,0.140000X0.170000X-0.140000X0.170000X0.140000X-0.170000X0.140000X-0.170000X-0.140000X0*%
%ADD20RoundRect,0.225000X0.225000X0.250000X-0.225000X0.250000X-0.225000X-0.250000X0.225000X-0.250000X0*%
%ADD21RoundRect,0.218750X-0.218750X-0.256250X0.218750X-0.256250X0.218750X0.256250X-0.218750X0.256250X0*%
%ADD22RoundRect,0.147500X0.147500X0.172500X-0.147500X0.172500X-0.147500X-0.172500X0.147500X-0.172500X0*%
%ADD23RoundRect,0.135000X-0.135000X-0.185000X0.135000X-0.185000X0.135000X0.185000X-0.135000X0.185000X0*%
%ADD24RoundRect,0.225000X0.250000X-0.225000X0.250000X0.225000X-0.250000X0.225000X-0.250000X-0.225000X0*%
%ADD25RoundRect,0.140000X0.140000X0.170000X-0.140000X0.170000X-0.140000X-0.170000X0.140000X-0.170000X0*%
%ADD26RoundRect,0.140000X-0.170000X0.140000X-0.170000X-0.140000X0.170000X-0.140000X0.170000X0.140000X0*%
%ADD27RoundRect,0.135000X0.185000X-0.135000X0.185000X0.135000X-0.185000X0.135000X-0.185000X-0.135000X0*%
%ADD28RoundRect,0.135000X0.135000X0.185000X-0.135000X0.185000X-0.135000X-0.185000X0.135000X-0.185000X0*%
%ADD29RoundRect,0.200000X0.250000X0.200000X-0.250000X0.200000X-0.250000X-0.200000X0.250000X-0.200000X0*%
%ADD30RoundRect,0.032500X-0.397500X-0.097500X0.397500X-0.097500X0.397500X0.097500X-0.397500X0.097500X0*%
%ADD31RoundRect,0.032500X-0.097500X-0.397500X0.097500X-0.397500X0.097500X0.397500X-0.097500X0.397500X0*%
%ADD32R,0.900000X1.000000*%
%ADD33R,1.000000X1.800000*%
G04 APERTURE END LIST*
D10*
%TO.C,U2*%
X147820000Y-139355000D02*
X148880000Y-139355000D01*
X148880000Y-140415000D01*
X147820000Y-140415000D01*
X147820000Y-139355000D01*
G36*
X148880000Y-140415000D02*
G01*
X147820000Y-140415000D01*
X147820000Y-139355000D01*
X148880000Y-139355000D01*
X148880000Y-140415000D01*
G37*
%TD*%
D11*
%TO.C,C10*%
X167045000Y-146150000D03*
X168005000Y-146150000D03*
%TD*%
D12*
%TO.C,VR1*%
X157430000Y-140825000D03*
X157430000Y-138925000D03*
X155300000Y-139875000D03*
%TD*%
D13*
%TO.C,C18*%
X150375000Y-136875000D03*
X151925000Y-136875000D03*
%TD*%
D14*
%TO.C,U1*%
X163500000Y-139275000D03*
X163500000Y-140275000D03*
X163500000Y-141275000D03*
X163500000Y-142275000D03*
X164500000Y-139275000D03*
X164500000Y-140275000D03*
X164500000Y-141275000D03*
X164500000Y-142275000D03*
X165500000Y-139275000D03*
X165500000Y-140275000D03*
X165500000Y-141275000D03*
X165500000Y-142275000D03*
X166500000Y-139275000D03*
X166500000Y-140275000D03*
X166500000Y-141275000D03*
X166500000Y-142275000D03*
D15*
X163750000Y-137525000D03*
X164250000Y-137525000D03*
X164750000Y-137525000D03*
X165250000Y-137525000D03*
X165750000Y-137525000D03*
X166250000Y-137525000D03*
X166750000Y-137525000D03*
X167250000Y-137525000D03*
X167750000Y-137525000D03*
X168250000Y-143025000D03*
X162250000Y-143275000D03*
X163000000Y-143525000D03*
X164000000Y-143525000D03*
X164500000Y-143525000D03*
X165000000Y-143525000D03*
X165500000Y-143525000D03*
X166000000Y-143525000D03*
X166500000Y-143525000D03*
X167000000Y-143525000D03*
X168250000Y-143525000D03*
X162250000Y-144025000D03*
X162750000Y-144025000D03*
X163250000Y-144025000D03*
X163750000Y-144025000D03*
X164250000Y-144025000D03*
X164750000Y-144025000D03*
X165250000Y-144025000D03*
X165750000Y-144025000D03*
X166250000Y-144025000D03*
X166750000Y-144025000D03*
X167250000Y-144025000D03*
X167750000Y-144025000D03*
X161750000Y-138025000D03*
X162500000Y-138025000D03*
X163000000Y-138025000D03*
X163500000Y-138025000D03*
X164000000Y-138025000D03*
X164500000Y-138025000D03*
X165000000Y-138025000D03*
X165500000Y-138025000D03*
X166000000Y-138025000D03*
X166500000Y-138025000D03*
X168250000Y-138025000D03*
X161750000Y-138525000D03*
X162250000Y-138775000D03*
X167750000Y-138775000D03*
X168250000Y-139025000D03*
X162250000Y-139275000D03*
X167750000Y-139275000D03*
X161750000Y-139525000D03*
X162250000Y-139775000D03*
X167750000Y-139775000D03*
X161750000Y-140025000D03*
X168250000Y-140025000D03*
X162250000Y-140275000D03*
X161750000Y-140525000D03*
X168250000Y-140525000D03*
X162250000Y-140775000D03*
X161750000Y-141025000D03*
X168250000Y-141025000D03*
X162250000Y-141275000D03*
X167750000Y-141275000D03*
X161750000Y-141525000D03*
X168250000Y-141525000D03*
X162250000Y-141775000D03*
X167750000Y-141775000D03*
X161750000Y-142025000D03*
X168250000Y-142025000D03*
X167750000Y-142275000D03*
X161750000Y-142525000D03*
X168250000Y-142525000D03*
X162250000Y-142775000D03*
X167750000Y-142775000D03*
%TD*%
D16*
%TO.C,R5*%
X171405000Y-135725000D03*
X171405000Y-136745000D03*
%TD*%
%TO.C,R10*%
X145150000Y-137165000D03*
X145150000Y-138185000D03*
%TD*%
D17*
%TO.C,J2*%
X122225000Y-139925000D03*
X123025000Y-139925000D03*
D18*
X124175000Y-139925000D03*
X125175000Y-139925000D03*
X125675000Y-139925000D03*
X126675000Y-139925000D03*
D17*
X128625000Y-139925000D03*
X127825000Y-139925000D03*
D18*
X127175000Y-139925000D03*
X126175000Y-139925000D03*
X124675000Y-139925000D03*
X123675000Y-139925000D03*
%TD*%
D19*
%TO.C,C13*%
X169420000Y-139980000D03*
X169420000Y-139020000D03*
%TD*%
D16*
%TO.C,R6*%
X148600000Y-136230000D03*
X148600000Y-137250000D03*
%TD*%
D20*
%TO.C,C5*%
X155025000Y-136875000D03*
X153475000Y-136875000D03*
%TD*%
D21*
%TO.C,D10*%
X151262500Y-142650000D03*
X152837500Y-142650000D03*
%TD*%
D22*
%TO.C,L1*%
X171405000Y-139985000D03*
X170435000Y-139985000D03*
%TD*%
D23*
%TO.C,R2*%
X154415000Y-144375000D03*
X155435000Y-144375000D03*
%TD*%
D13*
%TO.C,C22*%
X160225000Y-146750000D03*
X161775000Y-146750000D03*
%TD*%
D24*
%TO.C,C20*%
X143200000Y-143625000D03*
X143200000Y-142075000D03*
%TD*%
D25*
%TO.C,C7*%
X161605000Y-135800000D03*
X160645000Y-135800000D03*
%TD*%
D26*
%TO.C,C2*%
X158950000Y-133625000D03*
X158950000Y-134585000D03*
%TD*%
D19*
%TO.C,C23*%
X134000000Y-138430000D03*
X134000000Y-137470000D03*
%TD*%
D13*
%TO.C,C17*%
X149750000Y-146775000D03*
X151300000Y-146775000D03*
%TD*%
D27*
%TO.C,R9*%
X157450000Y-137360000D03*
X157450000Y-136340000D03*
%TD*%
D25*
%TO.C,C8*%
X171380000Y-142650000D03*
X170420000Y-142650000D03*
%TD*%
D21*
%TO.C,D11*%
X151262500Y-144425000D03*
X152837500Y-144425000D03*
%TD*%
D28*
%TO.C,R3*%
X152070000Y-138625000D03*
X151050000Y-138625000D03*
%TD*%
D29*
%TO.C,X1*%
X169165000Y-133960000D03*
X167765000Y-133960000D03*
X167765000Y-135060000D03*
X169165000Y-135060000D03*
%TD*%
D26*
%TO.C,C12*%
X171265000Y-133640000D03*
X171265000Y-134600000D03*
%TD*%
D11*
%TO.C,C9*%
X168345000Y-136325000D03*
X169305000Y-136325000D03*
%TD*%
D23*
%TO.C,R1*%
X154355000Y-142675000D03*
X155375000Y-142675000D03*
%TD*%
D11*
%TO.C,C4*%
X159695000Y-138875000D03*
X160655000Y-138875000D03*
%TD*%
D24*
%TO.C,C1*%
X159100000Y-141950000D03*
X159100000Y-140400000D03*
%TD*%
D25*
%TO.C,C14*%
X171400000Y-138935000D03*
X170440000Y-138935000D03*
%TD*%
D27*
%TO.C,R7*%
X145450000Y-143285000D03*
X145450000Y-142265000D03*
%TD*%
D16*
%TO.C,R4*%
X147575000Y-136250000D03*
X147575000Y-137270000D03*
%TD*%
D26*
%TO.C,C11*%
X165800000Y-133655000D03*
X165800000Y-134615000D03*
%TD*%
D30*
%TO.C,U2*%
X146915000Y-139135000D03*
X146915000Y-139635000D03*
X146915000Y-140135000D03*
X146915000Y-140635000D03*
D31*
X147600000Y-141320000D03*
X148100000Y-141320000D03*
X148600000Y-141320000D03*
X149100000Y-141320000D03*
D30*
X149785000Y-140635000D03*
X149785000Y-140135000D03*
X149785000Y-139635000D03*
X149785000Y-139135000D03*
D31*
X149100000Y-138450000D03*
X148600000Y-138450000D03*
X148100000Y-138450000D03*
X147600000Y-138450000D03*
%TD*%
D16*
%TO.C,R12*%
X124225000Y-137590000D03*
X124225000Y-138610000D03*
%TD*%
D27*
%TO.C,R11*%
X127225000Y-138610000D03*
X127225000Y-137590000D03*
%TD*%
D26*
%TO.C,C3*%
X164275000Y-133665000D03*
X164275000Y-134625000D03*
%TD*%
D20*
%TO.C,C6*%
X171125000Y-144375000D03*
X169575000Y-144375000D03*
%TD*%
%TO.C,C19*%
X155125000Y-146775000D03*
X153575000Y-146775000D03*
%TD*%
D25*
%TO.C,C16*%
X171385000Y-141675000D03*
X170425000Y-141675000D03*
%TD*%
D26*
%TO.C,C15*%
X172355000Y-135755000D03*
X172355000Y-136715000D03*
%TD*%
D32*
%TO.C,SW10*%
X139975000Y-138700000D03*
X135875000Y-138700000D03*
X139975000Y-137100000D03*
X135875000Y-137100000D03*
%TD*%
D33*
%TO.C,X2*%
X162825000Y-134025000D03*
X160325000Y-134025000D03*
%TD*%
D13*
%TO.C,C21*%
X146350000Y-146750000D03*
X147900000Y-146750000D03*
%TD*%
M02*
