%TF.GenerationSoftware,KiCad,Pcbnew,10.0.3*%
%TF.CreationDate,2026-06-15T13:38:46+02:00*%
%TF.ProjectId,Macropad,4d616372-6f70-4616-942e-6b696361645f,rev?*%
%TF.SameCoordinates,Original*%
%TF.FileFunction,Legend,Top*%
%TF.FilePolarity,Positive*%
%FSLAX46Y46*%
G04 Gerber Fmt 4.6, Leading zero omitted, Abs format (unit mm)*
G04 Created by KiCad (PCBNEW 10.0.3) date 2026-06-15 13:38:46*
%MOMM*%
%LPD*%
G01*
G04 APERTURE LIST*
%ADD10C,0.100000*%
%ADD11C,0.125000*%
%ADD12C,0.200000*%
%ADD13C,0.300000*%
%ADD14C,0.150000*%
%ADD15C,0.120000*%
%ADD16C,0.127000*%
G04 APERTURE END LIST*
D10*
X121600000Y-59950000D02*
X157600000Y-59950000D01*
X157600000Y-72450000D01*
X121600000Y-72450000D01*
X121600000Y-59950000D01*
X173800000Y-121775000D02*
X175695000Y-121775000D01*
X173937500Y-126900000D02*
X175662500Y-126900000D01*
X175525000Y-117500000D02*
X175525000Y-118345000D01*
X175600000Y-124350000D02*
X176210000Y-124350000D01*
X175600000Y-129575000D02*
X176295000Y-129575000D01*
D11*
X173481500Y-122758478D02*
X173510071Y-122672764D01*
X173510071Y-122672764D02*
X173510071Y-122529906D01*
X173510071Y-122529906D02*
X173481500Y-122472764D01*
X173481500Y-122472764D02*
X173452928Y-122444192D01*
X173452928Y-122444192D02*
X173395785Y-122415621D01*
X173395785Y-122415621D02*
X173338642Y-122415621D01*
X173338642Y-122415621D02*
X173281500Y-122444192D01*
X173281500Y-122444192D02*
X173252928Y-122472764D01*
X173252928Y-122472764D02*
X173224357Y-122529906D01*
X173224357Y-122529906D02*
X173195785Y-122644192D01*
X173195785Y-122644192D02*
X173167214Y-122701335D01*
X173167214Y-122701335D02*
X173138642Y-122729906D01*
X173138642Y-122729906D02*
X173081500Y-122758478D01*
X173081500Y-122758478D02*
X173024357Y-122758478D01*
X173024357Y-122758478D02*
X172967214Y-122729906D01*
X172967214Y-122729906D02*
X172938642Y-122701335D01*
X172938642Y-122701335D02*
X172910071Y-122644192D01*
X172910071Y-122644192D02*
X172910071Y-122501335D01*
X172910071Y-122501335D02*
X172938642Y-122415621D01*
X172910071Y-122215620D02*
X173510071Y-122072763D01*
X173510071Y-122072763D02*
X173081500Y-121958477D01*
X173081500Y-121958477D02*
X173510071Y-121844192D01*
X173510071Y-121844192D02*
X172910071Y-121701335D01*
X173510071Y-121472763D02*
X172910071Y-121472763D01*
X172910071Y-121472763D02*
X172910071Y-121329906D01*
X172910071Y-121329906D02*
X172938642Y-121244192D01*
X172938642Y-121244192D02*
X172995785Y-121187049D01*
X172995785Y-121187049D02*
X173052928Y-121158478D01*
X173052928Y-121158478D02*
X173167214Y-121129906D01*
X173167214Y-121129906D02*
X173252928Y-121129906D01*
X173252928Y-121129906D02*
X173367214Y-121158478D01*
X173367214Y-121158478D02*
X173424357Y-121187049D01*
X173424357Y-121187049D02*
X173481500Y-121244192D01*
X173481500Y-121244192D02*
X173510071Y-121329906D01*
X173510071Y-121329906D02*
X173510071Y-121472763D01*
X173510071Y-120872763D02*
X172910071Y-120872763D01*
X172910071Y-120472764D02*
X172910071Y-120358478D01*
X172910071Y-120358478D02*
X172938642Y-120301335D01*
X172938642Y-120301335D02*
X172995785Y-120244192D01*
X172995785Y-120244192D02*
X173110071Y-120215621D01*
X173110071Y-120215621D02*
X173310071Y-120215621D01*
X173310071Y-120215621D02*
X173424357Y-120244192D01*
X173424357Y-120244192D02*
X173481500Y-120301335D01*
X173481500Y-120301335D02*
X173510071Y-120358478D01*
X173510071Y-120358478D02*
X173510071Y-120472764D01*
X173510071Y-120472764D02*
X173481500Y-120529907D01*
X173481500Y-120529907D02*
X173424357Y-120587049D01*
X173424357Y-120587049D02*
X173310071Y-120615621D01*
X173310071Y-120615621D02*
X173110071Y-120615621D01*
X173110071Y-120615621D02*
X172995785Y-120587049D01*
X172995785Y-120587049D02*
X172938642Y-120529907D01*
X172938642Y-120529907D02*
X172910071Y-120472764D01*
X173520071Y-127472049D02*
X173234357Y-127672049D01*
X173520071Y-127814906D02*
X172920071Y-127814906D01*
X172920071Y-127814906D02*
X172920071Y-127586335D01*
X172920071Y-127586335D02*
X172948642Y-127529192D01*
X172948642Y-127529192D02*
X172977214Y-127500621D01*
X172977214Y-127500621D02*
X173034357Y-127472049D01*
X173034357Y-127472049D02*
X173120071Y-127472049D01*
X173120071Y-127472049D02*
X173177214Y-127500621D01*
X173177214Y-127500621D02*
X173205785Y-127529192D01*
X173205785Y-127529192D02*
X173234357Y-127586335D01*
X173234357Y-127586335D02*
X173234357Y-127814906D01*
X173205785Y-127214906D02*
X173205785Y-127014906D01*
X173520071Y-126929192D02*
X173520071Y-127214906D01*
X173520071Y-127214906D02*
X172920071Y-127214906D01*
X172920071Y-127214906D02*
X172920071Y-126929192D01*
X173491500Y-126700621D02*
X173520071Y-126614907D01*
X173520071Y-126614907D02*
X173520071Y-126472049D01*
X173520071Y-126472049D02*
X173491500Y-126414907D01*
X173491500Y-126414907D02*
X173462928Y-126386335D01*
X173462928Y-126386335D02*
X173405785Y-126357764D01*
X173405785Y-126357764D02*
X173348642Y-126357764D01*
X173348642Y-126357764D02*
X173291500Y-126386335D01*
X173291500Y-126386335D02*
X173262928Y-126414907D01*
X173262928Y-126414907D02*
X173234357Y-126472049D01*
X173234357Y-126472049D02*
X173205785Y-126586335D01*
X173205785Y-126586335D02*
X173177214Y-126643478D01*
X173177214Y-126643478D02*
X173148642Y-126672049D01*
X173148642Y-126672049D02*
X173091500Y-126700621D01*
X173091500Y-126700621D02*
X173034357Y-126700621D01*
X173034357Y-126700621D02*
X172977214Y-126672049D01*
X172977214Y-126672049D02*
X172948642Y-126643478D01*
X172948642Y-126643478D02*
X172920071Y-126586335D01*
X172920071Y-126586335D02*
X172920071Y-126443478D01*
X172920071Y-126443478D02*
X172948642Y-126357764D01*
X173205785Y-126100620D02*
X173205785Y-125900620D01*
X173520071Y-125814906D02*
X173520071Y-126100620D01*
X173520071Y-126100620D02*
X172920071Y-126100620D01*
X172920071Y-126100620D02*
X172920071Y-125814906D01*
X172920071Y-125643478D02*
X172920071Y-125300621D01*
X173520071Y-125472049D02*
X172920071Y-125472049D01*
X175236500Y-125568478D02*
X175265071Y-125482764D01*
X175265071Y-125482764D02*
X175265071Y-125339906D01*
X175265071Y-125339906D02*
X175236500Y-125282764D01*
X175236500Y-125282764D02*
X175207928Y-125254192D01*
X175207928Y-125254192D02*
X175150785Y-125225621D01*
X175150785Y-125225621D02*
X175093642Y-125225621D01*
X175093642Y-125225621D02*
X175036500Y-125254192D01*
X175036500Y-125254192D02*
X175007928Y-125282764D01*
X175007928Y-125282764D02*
X174979357Y-125339906D01*
X174979357Y-125339906D02*
X174950785Y-125454192D01*
X174950785Y-125454192D02*
X174922214Y-125511335D01*
X174922214Y-125511335D02*
X174893642Y-125539906D01*
X174893642Y-125539906D02*
X174836500Y-125568478D01*
X174836500Y-125568478D02*
X174779357Y-125568478D01*
X174779357Y-125568478D02*
X174722214Y-125539906D01*
X174722214Y-125539906D02*
X174693642Y-125511335D01*
X174693642Y-125511335D02*
X174665071Y-125454192D01*
X174665071Y-125454192D02*
X174665071Y-125311335D01*
X174665071Y-125311335D02*
X174693642Y-125225621D01*
X174665071Y-125025620D02*
X175265071Y-124882763D01*
X175265071Y-124882763D02*
X174836500Y-124768477D01*
X174836500Y-124768477D02*
X175265071Y-124654192D01*
X175265071Y-124654192D02*
X174665071Y-124511335D01*
X175265071Y-124282763D02*
X174665071Y-124282763D01*
X174665071Y-124282763D02*
X174665071Y-124139906D01*
X174665071Y-124139906D02*
X174693642Y-124054192D01*
X174693642Y-124054192D02*
X174750785Y-123997049D01*
X174750785Y-123997049D02*
X174807928Y-123968478D01*
X174807928Y-123968478D02*
X174922214Y-123939906D01*
X174922214Y-123939906D02*
X175007928Y-123939906D01*
X175007928Y-123939906D02*
X175122214Y-123968478D01*
X175122214Y-123968478D02*
X175179357Y-123997049D01*
X175179357Y-123997049D02*
X175236500Y-124054192D01*
X175236500Y-124054192D02*
X175265071Y-124139906D01*
X175265071Y-124139906D02*
X175265071Y-124282763D01*
X175207928Y-123339906D02*
X175236500Y-123368478D01*
X175236500Y-123368478D02*
X175265071Y-123454192D01*
X175265071Y-123454192D02*
X175265071Y-123511335D01*
X175265071Y-123511335D02*
X175236500Y-123597049D01*
X175236500Y-123597049D02*
X175179357Y-123654192D01*
X175179357Y-123654192D02*
X175122214Y-123682763D01*
X175122214Y-123682763D02*
X175007928Y-123711335D01*
X175007928Y-123711335D02*
X174922214Y-123711335D01*
X174922214Y-123711335D02*
X174807928Y-123682763D01*
X174807928Y-123682763D02*
X174750785Y-123654192D01*
X174750785Y-123654192D02*
X174693642Y-123597049D01*
X174693642Y-123597049D02*
X174665071Y-123511335D01*
X174665071Y-123511335D02*
X174665071Y-123454192D01*
X174665071Y-123454192D02*
X174693642Y-123368478D01*
X174693642Y-123368478D02*
X174722214Y-123339906D01*
X175265071Y-122797049D02*
X175265071Y-123082763D01*
X175265071Y-123082763D02*
X174665071Y-123082763D01*
X175265071Y-122597049D02*
X174665071Y-122597049D01*
X175265071Y-122254192D02*
X174922214Y-122511335D01*
X174665071Y-122254192D02*
X175007928Y-122597049D01*
X174823642Y-129815621D02*
X174795071Y-129872764D01*
X174795071Y-129872764D02*
X174795071Y-129958478D01*
X174795071Y-129958478D02*
X174823642Y-130044192D01*
X174823642Y-130044192D02*
X174880785Y-130101335D01*
X174880785Y-130101335D02*
X174937928Y-130129906D01*
X174937928Y-130129906D02*
X175052214Y-130158478D01*
X175052214Y-130158478D02*
X175137928Y-130158478D01*
X175137928Y-130158478D02*
X175252214Y-130129906D01*
X175252214Y-130129906D02*
X175309357Y-130101335D01*
X175309357Y-130101335D02*
X175366500Y-130044192D01*
X175366500Y-130044192D02*
X175395071Y-129958478D01*
X175395071Y-129958478D02*
X175395071Y-129901335D01*
X175395071Y-129901335D02*
X175366500Y-129815621D01*
X175366500Y-129815621D02*
X175337928Y-129787049D01*
X175337928Y-129787049D02*
X175137928Y-129787049D01*
X175137928Y-129787049D02*
X175137928Y-129901335D01*
X175395071Y-129529906D02*
X174795071Y-129529906D01*
X174795071Y-129529906D02*
X175395071Y-129187049D01*
X175395071Y-129187049D02*
X174795071Y-129187049D01*
X175395071Y-128901335D02*
X174795071Y-128901335D01*
X174795071Y-128901335D02*
X174795071Y-128758478D01*
X174795071Y-128758478D02*
X174823642Y-128672764D01*
X174823642Y-128672764D02*
X174880785Y-128615621D01*
X174880785Y-128615621D02*
X174937928Y-128587050D01*
X174937928Y-128587050D02*
X175052214Y-128558478D01*
X175052214Y-128558478D02*
X175137928Y-128558478D01*
X175137928Y-128558478D02*
X175252214Y-128587050D01*
X175252214Y-128587050D02*
X175309357Y-128615621D01*
X175309357Y-128615621D02*
X175366500Y-128672764D01*
X175366500Y-128672764D02*
X175395071Y-128758478D01*
X175395071Y-128758478D02*
X175395071Y-128901335D01*
D10*
X135733884Y-144461466D02*
X136495789Y-144461466D01*
X136114836Y-144842419D02*
X136114836Y-144080514D01*
X137728884Y-144461466D02*
X138490789Y-144461466D01*
D12*
X151493482Y-62089838D02*
X151398244Y-62042219D01*
X151398244Y-62042219D02*
X151255387Y-62042219D01*
X151255387Y-62042219D02*
X151112530Y-62089838D01*
X151112530Y-62089838D02*
X151017292Y-62185076D01*
X151017292Y-62185076D02*
X150969673Y-62280314D01*
X150969673Y-62280314D02*
X150922054Y-62470790D01*
X150922054Y-62470790D02*
X150922054Y-62613647D01*
X150922054Y-62613647D02*
X150969673Y-62804123D01*
X150969673Y-62804123D02*
X151017292Y-62899361D01*
X151017292Y-62899361D02*
X151112530Y-62994600D01*
X151112530Y-62994600D02*
X151255387Y-63042219D01*
X151255387Y-63042219D02*
X151350625Y-63042219D01*
X151350625Y-63042219D02*
X151493482Y-62994600D01*
X151493482Y-62994600D02*
X151541101Y-62946980D01*
X151541101Y-62946980D02*
X151541101Y-62613647D01*
X151541101Y-62613647D02*
X151350625Y-62613647D01*
X151969673Y-63042219D02*
X151969673Y-62042219D01*
X151969673Y-62042219D02*
X152541101Y-63042219D01*
X152541101Y-63042219D02*
X152541101Y-62042219D01*
X153017292Y-63042219D02*
X153017292Y-62042219D01*
X153017292Y-62042219D02*
X153255387Y-62042219D01*
X153255387Y-62042219D02*
X153398244Y-62089838D01*
X153398244Y-62089838D02*
X153493482Y-62185076D01*
X153493482Y-62185076D02*
X153541101Y-62280314D01*
X153541101Y-62280314D02*
X153588720Y-62470790D01*
X153588720Y-62470790D02*
X153588720Y-62613647D01*
X153588720Y-62613647D02*
X153541101Y-62804123D01*
X153541101Y-62804123D02*
X153493482Y-62899361D01*
X153493482Y-62899361D02*
X153398244Y-62994600D01*
X153398244Y-62994600D02*
X153255387Y-63042219D01*
X153255387Y-63042219D02*
X153017292Y-63042219D01*
X151026816Y-64642219D02*
X151360149Y-65642219D01*
X151360149Y-65642219D02*
X151693482Y-64642219D01*
X152026816Y-65642219D02*
X152026816Y-64642219D01*
X152026816Y-64642219D02*
X152264911Y-64642219D01*
X152264911Y-64642219D02*
X152407768Y-64689838D01*
X152407768Y-64689838D02*
X152503006Y-64785076D01*
X152503006Y-64785076D02*
X152550625Y-64880314D01*
X152550625Y-64880314D02*
X152598244Y-65070790D01*
X152598244Y-65070790D02*
X152598244Y-65213647D01*
X152598244Y-65213647D02*
X152550625Y-65404123D01*
X152550625Y-65404123D02*
X152503006Y-65499361D01*
X152503006Y-65499361D02*
X152407768Y-65594600D01*
X152407768Y-65594600D02*
X152264911Y-65642219D01*
X152264911Y-65642219D02*
X152026816Y-65642219D01*
X153026816Y-65642219D02*
X153026816Y-64642219D01*
X153026816Y-64642219D02*
X153264911Y-64642219D01*
X153264911Y-64642219D02*
X153407768Y-64689838D01*
X153407768Y-64689838D02*
X153503006Y-64785076D01*
X153503006Y-64785076D02*
X153550625Y-64880314D01*
X153550625Y-64880314D02*
X153598244Y-65070790D01*
X153598244Y-65070790D02*
X153598244Y-65213647D01*
X153598244Y-65213647D02*
X153550625Y-65404123D01*
X153550625Y-65404123D02*
X153503006Y-65499361D01*
X153503006Y-65499361D02*
X153407768Y-65594600D01*
X153407768Y-65594600D02*
X153264911Y-65642219D01*
X153264911Y-65642219D02*
X153026816Y-65642219D01*
X151122054Y-70794600D02*
X151264911Y-70842219D01*
X151264911Y-70842219D02*
X151503006Y-70842219D01*
X151503006Y-70842219D02*
X151598244Y-70794600D01*
X151598244Y-70794600D02*
X151645863Y-70746980D01*
X151645863Y-70746980D02*
X151693482Y-70651742D01*
X151693482Y-70651742D02*
X151693482Y-70556504D01*
X151693482Y-70556504D02*
X151645863Y-70461266D01*
X151645863Y-70461266D02*
X151598244Y-70413647D01*
X151598244Y-70413647D02*
X151503006Y-70366028D01*
X151503006Y-70366028D02*
X151312530Y-70318409D01*
X151312530Y-70318409D02*
X151217292Y-70270790D01*
X151217292Y-70270790D02*
X151169673Y-70223171D01*
X151169673Y-70223171D02*
X151122054Y-70127933D01*
X151122054Y-70127933D02*
X151122054Y-70032695D01*
X151122054Y-70032695D02*
X151169673Y-69937457D01*
X151169673Y-69937457D02*
X151217292Y-69889838D01*
X151217292Y-69889838D02*
X151312530Y-69842219D01*
X151312530Y-69842219D02*
X151550625Y-69842219D01*
X151550625Y-69842219D02*
X151693482Y-69889838D01*
X152122054Y-70842219D02*
X152122054Y-69842219D01*
X152122054Y-69842219D02*
X152360149Y-69842219D01*
X152360149Y-69842219D02*
X152503006Y-69889838D01*
X152503006Y-69889838D02*
X152598244Y-69985076D01*
X152598244Y-69985076D02*
X152645863Y-70080314D01*
X152645863Y-70080314D02*
X152693482Y-70270790D01*
X152693482Y-70270790D02*
X152693482Y-70413647D01*
X152693482Y-70413647D02*
X152645863Y-70604123D01*
X152645863Y-70604123D02*
X152598244Y-70699361D01*
X152598244Y-70699361D02*
X152503006Y-70794600D01*
X152503006Y-70794600D02*
X152360149Y-70842219D01*
X152360149Y-70842219D02*
X152122054Y-70842219D01*
X153074435Y-70556504D02*
X153550625Y-70556504D01*
X152979197Y-70842219D02*
X153312530Y-69842219D01*
X153312530Y-69842219D02*
X153645863Y-70842219D01*
X151322054Y-68194600D02*
X151464911Y-68242219D01*
X151464911Y-68242219D02*
X151703006Y-68242219D01*
X151703006Y-68242219D02*
X151798244Y-68194600D01*
X151798244Y-68194600D02*
X151845863Y-68146980D01*
X151845863Y-68146980D02*
X151893482Y-68051742D01*
X151893482Y-68051742D02*
X151893482Y-67956504D01*
X151893482Y-67956504D02*
X151845863Y-67861266D01*
X151845863Y-67861266D02*
X151798244Y-67813647D01*
X151798244Y-67813647D02*
X151703006Y-67766028D01*
X151703006Y-67766028D02*
X151512530Y-67718409D01*
X151512530Y-67718409D02*
X151417292Y-67670790D01*
X151417292Y-67670790D02*
X151369673Y-67623171D01*
X151369673Y-67623171D02*
X151322054Y-67527933D01*
X151322054Y-67527933D02*
X151322054Y-67432695D01*
X151322054Y-67432695D02*
X151369673Y-67337457D01*
X151369673Y-67337457D02*
X151417292Y-67289838D01*
X151417292Y-67289838D02*
X151512530Y-67242219D01*
X151512530Y-67242219D02*
X151750625Y-67242219D01*
X151750625Y-67242219D02*
X151893482Y-67289838D01*
X152893482Y-68146980D02*
X152845863Y-68194600D01*
X152845863Y-68194600D02*
X152703006Y-68242219D01*
X152703006Y-68242219D02*
X152607768Y-68242219D01*
X152607768Y-68242219D02*
X152464911Y-68194600D01*
X152464911Y-68194600D02*
X152369673Y-68099361D01*
X152369673Y-68099361D02*
X152322054Y-68004123D01*
X152322054Y-68004123D02*
X152274435Y-67813647D01*
X152274435Y-67813647D02*
X152274435Y-67670790D01*
X152274435Y-67670790D02*
X152322054Y-67480314D01*
X152322054Y-67480314D02*
X152369673Y-67385076D01*
X152369673Y-67385076D02*
X152464911Y-67289838D01*
X152464911Y-67289838D02*
X152607768Y-67242219D01*
X152607768Y-67242219D02*
X152703006Y-67242219D01*
X152703006Y-67242219D02*
X152845863Y-67289838D01*
X152845863Y-67289838D02*
X152893482Y-67337457D01*
X153798244Y-68242219D02*
X153322054Y-68242219D01*
X153322054Y-68242219D02*
X153322054Y-67242219D01*
X162341101Y-63946980D02*
X162293482Y-63994600D01*
X162293482Y-63994600D02*
X162150625Y-64042219D01*
X162150625Y-64042219D02*
X162055387Y-64042219D01*
X162055387Y-64042219D02*
X161912530Y-63994600D01*
X161912530Y-63994600D02*
X161817292Y-63899361D01*
X161817292Y-63899361D02*
X161769673Y-63804123D01*
X161769673Y-63804123D02*
X161722054Y-63613647D01*
X161722054Y-63613647D02*
X161722054Y-63470790D01*
X161722054Y-63470790D02*
X161769673Y-63280314D01*
X161769673Y-63280314D02*
X161817292Y-63185076D01*
X161817292Y-63185076D02*
X161912530Y-63089838D01*
X161912530Y-63089838D02*
X162055387Y-63042219D01*
X162055387Y-63042219D02*
X162150625Y-63042219D01*
X162150625Y-63042219D02*
X162293482Y-63089838D01*
X162293482Y-63089838D02*
X162341101Y-63137457D01*
X163245863Y-64042219D02*
X162769673Y-64042219D01*
X162769673Y-64042219D02*
X162769673Y-63042219D01*
X163579197Y-64042219D02*
X163579197Y-63042219D01*
X164150625Y-64042219D02*
X163722054Y-63470790D01*
X164150625Y-63042219D02*
X163579197Y-63613647D01*
X162393482Y-65689838D02*
X162298244Y-65642219D01*
X162298244Y-65642219D02*
X162155387Y-65642219D01*
X162155387Y-65642219D02*
X162012530Y-65689838D01*
X162012530Y-65689838D02*
X161917292Y-65785076D01*
X161917292Y-65785076D02*
X161869673Y-65880314D01*
X161869673Y-65880314D02*
X161822054Y-66070790D01*
X161822054Y-66070790D02*
X161822054Y-66213647D01*
X161822054Y-66213647D02*
X161869673Y-66404123D01*
X161869673Y-66404123D02*
X161917292Y-66499361D01*
X161917292Y-66499361D02*
X162012530Y-66594600D01*
X162012530Y-66594600D02*
X162155387Y-66642219D01*
X162155387Y-66642219D02*
X162250625Y-66642219D01*
X162250625Y-66642219D02*
X162393482Y-66594600D01*
X162393482Y-66594600D02*
X162441101Y-66546980D01*
X162441101Y-66546980D02*
X162441101Y-66213647D01*
X162441101Y-66213647D02*
X162250625Y-66213647D01*
X162869673Y-66642219D02*
X162869673Y-65642219D01*
X162869673Y-65642219D02*
X163441101Y-66642219D01*
X163441101Y-66642219D02*
X163441101Y-65642219D01*
X163917292Y-66642219D02*
X163917292Y-65642219D01*
X163917292Y-65642219D02*
X164155387Y-65642219D01*
X164155387Y-65642219D02*
X164298244Y-65689838D01*
X164298244Y-65689838D02*
X164393482Y-65785076D01*
X164393482Y-65785076D02*
X164441101Y-65880314D01*
X164441101Y-65880314D02*
X164488720Y-66070790D01*
X164488720Y-66070790D02*
X164488720Y-66213647D01*
X164488720Y-66213647D02*
X164441101Y-66404123D01*
X164441101Y-66404123D02*
X164393482Y-66499361D01*
X164393482Y-66499361D02*
X164298244Y-66594600D01*
X164298244Y-66594600D02*
X164155387Y-66642219D01*
X164155387Y-66642219D02*
X163917292Y-66642219D01*
X161969673Y-69242219D02*
X161969673Y-68242219D01*
X161969673Y-68242219D02*
X162207768Y-68242219D01*
X162207768Y-68242219D02*
X162350625Y-68289838D01*
X162350625Y-68289838D02*
X162445863Y-68385076D01*
X162445863Y-68385076D02*
X162493482Y-68480314D01*
X162493482Y-68480314D02*
X162541101Y-68670790D01*
X162541101Y-68670790D02*
X162541101Y-68813647D01*
X162541101Y-68813647D02*
X162493482Y-69004123D01*
X162493482Y-69004123D02*
X162445863Y-69099361D01*
X162445863Y-69099361D02*
X162350625Y-69194600D01*
X162350625Y-69194600D02*
X162207768Y-69242219D01*
X162207768Y-69242219D02*
X161969673Y-69242219D01*
X162826816Y-68242219D02*
X163398244Y-68242219D01*
X163112530Y-69242219D02*
X163112530Y-68242219D01*
X171293482Y-63289838D02*
X171198244Y-63242219D01*
X171198244Y-63242219D02*
X171055387Y-63242219D01*
X171055387Y-63242219D02*
X170912530Y-63289838D01*
X170912530Y-63289838D02*
X170817292Y-63385076D01*
X170817292Y-63385076D02*
X170769673Y-63480314D01*
X170769673Y-63480314D02*
X170722054Y-63670790D01*
X170722054Y-63670790D02*
X170722054Y-63813647D01*
X170722054Y-63813647D02*
X170769673Y-64004123D01*
X170769673Y-64004123D02*
X170817292Y-64099361D01*
X170817292Y-64099361D02*
X170912530Y-64194600D01*
X170912530Y-64194600D02*
X171055387Y-64242219D01*
X171055387Y-64242219D02*
X171150625Y-64242219D01*
X171150625Y-64242219D02*
X171293482Y-64194600D01*
X171293482Y-64194600D02*
X171341101Y-64146980D01*
X171341101Y-64146980D02*
X171341101Y-63813647D01*
X171341101Y-63813647D02*
X171150625Y-63813647D01*
X171769673Y-64242219D02*
X171769673Y-63242219D01*
X171769673Y-63242219D02*
X172341101Y-64242219D01*
X172341101Y-64242219D02*
X172341101Y-63242219D01*
X172817292Y-64242219D02*
X172817292Y-63242219D01*
X172817292Y-63242219D02*
X173055387Y-63242219D01*
X173055387Y-63242219D02*
X173198244Y-63289838D01*
X173198244Y-63289838D02*
X173293482Y-63385076D01*
X173293482Y-63385076D02*
X173341101Y-63480314D01*
X173341101Y-63480314D02*
X173388720Y-63670790D01*
X173388720Y-63670790D02*
X173388720Y-63813647D01*
X173388720Y-63813647D02*
X173341101Y-64004123D01*
X173341101Y-64004123D02*
X173293482Y-64099361D01*
X173293482Y-64099361D02*
X173198244Y-64194600D01*
X173198244Y-64194600D02*
X173055387Y-64242219D01*
X173055387Y-64242219D02*
X172817292Y-64242219D01*
X171482054Y-69194600D02*
X171624911Y-69242219D01*
X171624911Y-69242219D02*
X171863006Y-69242219D01*
X171863006Y-69242219D02*
X171958244Y-69194600D01*
X171958244Y-69194600D02*
X172005863Y-69146980D01*
X172005863Y-69146980D02*
X172053482Y-69051742D01*
X172053482Y-69051742D02*
X172053482Y-68956504D01*
X172053482Y-68956504D02*
X172005863Y-68861266D01*
X172005863Y-68861266D02*
X171958244Y-68813647D01*
X171958244Y-68813647D02*
X171863006Y-68766028D01*
X171863006Y-68766028D02*
X171672530Y-68718409D01*
X171672530Y-68718409D02*
X171577292Y-68670790D01*
X171577292Y-68670790D02*
X171529673Y-68623171D01*
X171529673Y-68623171D02*
X171482054Y-68527933D01*
X171482054Y-68527933D02*
X171482054Y-68432695D01*
X171482054Y-68432695D02*
X171529673Y-68337457D01*
X171529673Y-68337457D02*
X171577292Y-68289838D01*
X171577292Y-68289838D02*
X171672530Y-68242219D01*
X171672530Y-68242219D02*
X171910625Y-68242219D01*
X171910625Y-68242219D02*
X172053482Y-68289838D01*
X172386816Y-68242219D02*
X172624911Y-69242219D01*
X172624911Y-69242219D02*
X172815387Y-68527933D01*
X172815387Y-68527933D02*
X173005863Y-69242219D01*
X173005863Y-69242219D02*
X173243959Y-68242219D01*
X176026816Y-116302219D02*
X176360149Y-117302219D01*
X176360149Y-117302219D02*
X176693482Y-116302219D01*
X177026816Y-117302219D02*
X177026816Y-116302219D01*
X177026816Y-116302219D02*
X177264911Y-116302219D01*
X177264911Y-116302219D02*
X177407768Y-116349838D01*
X177407768Y-116349838D02*
X177503006Y-116445076D01*
X177503006Y-116445076D02*
X177550625Y-116540314D01*
X177550625Y-116540314D02*
X177598244Y-116730790D01*
X177598244Y-116730790D02*
X177598244Y-116873647D01*
X177598244Y-116873647D02*
X177550625Y-117064123D01*
X177550625Y-117064123D02*
X177503006Y-117159361D01*
X177503006Y-117159361D02*
X177407768Y-117254600D01*
X177407768Y-117254600D02*
X177264911Y-117302219D01*
X177264911Y-117302219D02*
X177026816Y-117302219D01*
X178026816Y-117302219D02*
X178026816Y-116302219D01*
X178026816Y-116302219D02*
X178264911Y-116302219D01*
X178264911Y-116302219D02*
X178407768Y-116349838D01*
X178407768Y-116349838D02*
X178503006Y-116445076D01*
X178503006Y-116445076D02*
X178550625Y-116540314D01*
X178550625Y-116540314D02*
X178598244Y-116730790D01*
X178598244Y-116730790D02*
X178598244Y-116873647D01*
X178598244Y-116873647D02*
X178550625Y-117064123D01*
X178550625Y-117064123D02*
X178503006Y-117159361D01*
X178503006Y-117159361D02*
X178407768Y-117254600D01*
X178407768Y-117254600D02*
X178264911Y-117302219D01*
X178264911Y-117302219D02*
X178026816Y-117302219D01*
D13*
X119486542Y-130091917D02*
X119415114Y-130163346D01*
X119415114Y-130163346D02*
X119343685Y-130306203D01*
X119343685Y-130306203D02*
X119343685Y-130449060D01*
X119343685Y-130449060D02*
X119415114Y-130591917D01*
X119415114Y-130591917D02*
X119486542Y-130663346D01*
X119486542Y-130663346D02*
X119629400Y-130734774D01*
X119629400Y-130734774D02*
X119772257Y-130734774D01*
X119772257Y-130734774D02*
X119915114Y-130663346D01*
X119915114Y-130663346D02*
X119986542Y-130591917D01*
X119986542Y-130591917D02*
X120057971Y-130449060D01*
X120057971Y-130449060D02*
X120057971Y-130306203D01*
X120057971Y-130306203D02*
X119986542Y-130163346D01*
X119986542Y-130163346D02*
X119915114Y-130091917D01*
X119343685Y-130091917D02*
X119915114Y-130091917D01*
X119915114Y-130091917D02*
X119986542Y-130020489D01*
X119986542Y-130020489D02*
X119986542Y-129949060D01*
X119986542Y-129949060D02*
X119915114Y-129806203D01*
X119915114Y-129806203D02*
X119772257Y-129734774D01*
X119772257Y-129734774D02*
X119415114Y-129734774D01*
X119415114Y-129734774D02*
X119200828Y-129877632D01*
X119200828Y-129877632D02*
X119057971Y-130091917D01*
X119057971Y-130091917D02*
X118986542Y-130377632D01*
X118986542Y-130377632D02*
X119057971Y-130663346D01*
X119057971Y-130663346D02*
X119200828Y-130877632D01*
X119200828Y-130877632D02*
X119415114Y-131020489D01*
X119415114Y-131020489D02*
X119700828Y-131091917D01*
X119700828Y-131091917D02*
X119986542Y-131020489D01*
X119986542Y-131020489D02*
X120200828Y-130877632D01*
X120200828Y-130877632D02*
X120343685Y-130663346D01*
X120343685Y-130663346D02*
X120415114Y-130377632D01*
X120415114Y-130377632D02*
X120343685Y-130091917D01*
X120343685Y-130091917D02*
X120200828Y-129877632D01*
X120200828Y-129091918D02*
X118700828Y-129091918D01*
X118700828Y-129091918D02*
X118700828Y-128734775D01*
X118700828Y-128734775D02*
X118772257Y-128520489D01*
X118772257Y-128520489D02*
X118915114Y-128377632D01*
X118915114Y-128377632D02*
X119057971Y-128306203D01*
X119057971Y-128306203D02*
X119343685Y-128234775D01*
X119343685Y-128234775D02*
X119557971Y-128234775D01*
X119557971Y-128234775D02*
X119843685Y-128306203D01*
X119843685Y-128306203D02*
X119986542Y-128377632D01*
X119986542Y-128377632D02*
X120129400Y-128520489D01*
X120129400Y-128520489D02*
X120200828Y-128734775D01*
X120200828Y-128734775D02*
X120200828Y-129091918D01*
X120129400Y-127020489D02*
X120200828Y-127163346D01*
X120200828Y-127163346D02*
X120200828Y-127449061D01*
X120200828Y-127449061D02*
X120129400Y-127591918D01*
X120129400Y-127591918D02*
X119986542Y-127663346D01*
X119986542Y-127663346D02*
X119415114Y-127663346D01*
X119415114Y-127663346D02*
X119272257Y-127591918D01*
X119272257Y-127591918D02*
X119200828Y-127449061D01*
X119200828Y-127449061D02*
X119200828Y-127163346D01*
X119200828Y-127163346D02*
X119272257Y-127020489D01*
X119272257Y-127020489D02*
X119415114Y-126949061D01*
X119415114Y-126949061D02*
X119557971Y-126949061D01*
X119557971Y-126949061D02*
X119700828Y-127663346D01*
X120200828Y-126091918D02*
X120129400Y-126234775D01*
X120129400Y-126234775D02*
X119986542Y-126306204D01*
X119986542Y-126306204D02*
X118700828Y-126306204D01*
X120200828Y-125306204D02*
X120129400Y-125449061D01*
X120129400Y-125449061D02*
X120057971Y-125520490D01*
X120057971Y-125520490D02*
X119915114Y-125591918D01*
X119915114Y-125591918D02*
X119486542Y-125591918D01*
X119486542Y-125591918D02*
X119343685Y-125520490D01*
X119343685Y-125520490D02*
X119272257Y-125449061D01*
X119272257Y-125449061D02*
X119200828Y-125306204D01*
X119200828Y-125306204D02*
X119200828Y-125091918D01*
X119200828Y-125091918D02*
X119272257Y-124949061D01*
X119272257Y-124949061D02*
X119343685Y-124877633D01*
X119343685Y-124877633D02*
X119486542Y-124806204D01*
X119486542Y-124806204D02*
X119915114Y-124806204D01*
X119915114Y-124806204D02*
X120057971Y-124877633D01*
X120057971Y-124877633D02*
X120129400Y-124949061D01*
X120129400Y-124949061D02*
X120200828Y-125091918D01*
X120200828Y-125091918D02*
X120200828Y-125306204D01*
X119200828Y-124163347D02*
X120200828Y-124163347D01*
X119343685Y-124163347D02*
X119272257Y-124091918D01*
X119272257Y-124091918D02*
X119200828Y-123949061D01*
X119200828Y-123949061D02*
X119200828Y-123734775D01*
X119200828Y-123734775D02*
X119272257Y-123591918D01*
X119272257Y-123591918D02*
X119415114Y-123520490D01*
X119415114Y-123520490D02*
X120200828Y-123520490D01*
X119200828Y-122163347D02*
X120415114Y-122163347D01*
X120415114Y-122163347D02*
X120557971Y-122234775D01*
X120557971Y-122234775D02*
X120629400Y-122306204D01*
X120629400Y-122306204D02*
X120700828Y-122449061D01*
X120700828Y-122449061D02*
X120700828Y-122663347D01*
X120700828Y-122663347D02*
X120629400Y-122806204D01*
X120129400Y-122163347D02*
X120200828Y-122306204D01*
X120200828Y-122306204D02*
X120200828Y-122591918D01*
X120200828Y-122591918D02*
X120129400Y-122734775D01*
X120129400Y-122734775D02*
X120057971Y-122806204D01*
X120057971Y-122806204D02*
X119915114Y-122877632D01*
X119915114Y-122877632D02*
X119486542Y-122877632D01*
X119486542Y-122877632D02*
X119343685Y-122806204D01*
X119343685Y-122806204D02*
X119272257Y-122734775D01*
X119272257Y-122734775D02*
X119200828Y-122591918D01*
X119200828Y-122591918D02*
X119200828Y-122306204D01*
X119200828Y-122306204D02*
X119272257Y-122163347D01*
D10*
X124151503Y-64602657D02*
X124437217Y-64602657D01*
X124437217Y-64602657D02*
X124722931Y-64745514D01*
X124722931Y-64745514D02*
X124865789Y-64888371D01*
X124865789Y-64888371D02*
X125008646Y-65174085D01*
X125008646Y-65174085D02*
X125151503Y-65745514D01*
X125151503Y-65745514D02*
X125151503Y-66459800D01*
X125151503Y-66459800D02*
X125008646Y-67031228D01*
X125008646Y-67031228D02*
X124865789Y-67316942D01*
X124865789Y-67316942D02*
X124722931Y-67459800D01*
X124722931Y-67459800D02*
X124437217Y-67602657D01*
X124437217Y-67602657D02*
X124151503Y-67602657D01*
X124151503Y-67602657D02*
X123865789Y-67459800D01*
X123865789Y-67459800D02*
X123722931Y-67316942D01*
X123722931Y-67316942D02*
X123580074Y-67031228D01*
X123580074Y-67031228D02*
X123437217Y-66459800D01*
X123437217Y-66459800D02*
X123437217Y-65745514D01*
X123437217Y-65745514D02*
X123580074Y-65174085D01*
X123580074Y-65174085D02*
X123722931Y-64888371D01*
X123722931Y-64888371D02*
X123865789Y-64745514D01*
X123865789Y-64745514D02*
X124151503Y-64602657D01*
X126437217Y-67316942D02*
X126580074Y-67459800D01*
X126580074Y-67459800D02*
X126437217Y-67602657D01*
X126437217Y-67602657D02*
X126294360Y-67459800D01*
X126294360Y-67459800D02*
X126437217Y-67316942D01*
X126437217Y-67316942D02*
X126437217Y-67602657D01*
X128008645Y-67602657D02*
X128580074Y-67602657D01*
X128580074Y-67602657D02*
X128865788Y-67459800D01*
X128865788Y-67459800D02*
X129008645Y-67316942D01*
X129008645Y-67316942D02*
X129294360Y-66888371D01*
X129294360Y-66888371D02*
X129437217Y-66316942D01*
X129437217Y-66316942D02*
X129437217Y-65174085D01*
X129437217Y-65174085D02*
X129294360Y-64888371D01*
X129294360Y-64888371D02*
X129151503Y-64745514D01*
X129151503Y-64745514D02*
X128865788Y-64602657D01*
X128865788Y-64602657D02*
X128294360Y-64602657D01*
X128294360Y-64602657D02*
X128008645Y-64745514D01*
X128008645Y-64745514D02*
X127865788Y-64888371D01*
X127865788Y-64888371D02*
X127722931Y-65174085D01*
X127722931Y-65174085D02*
X127722931Y-65888371D01*
X127722931Y-65888371D02*
X127865788Y-66174085D01*
X127865788Y-66174085D02*
X128008645Y-66316942D01*
X128008645Y-66316942D02*
X128294360Y-66459800D01*
X128294360Y-66459800D02*
X128865788Y-66459800D01*
X128865788Y-66459800D02*
X129151503Y-66316942D01*
X129151503Y-66316942D02*
X129294360Y-66174085D01*
X129294360Y-66174085D02*
X129437217Y-65888371D01*
X132294360Y-67602657D02*
X130580074Y-67602657D01*
X131437217Y-67602657D02*
X131437217Y-64602657D01*
X131437217Y-64602657D02*
X131151503Y-65031228D01*
X131151503Y-65031228D02*
X130865788Y-65316942D01*
X130865788Y-65316942D02*
X130580074Y-65459800D01*
X135865788Y-67602657D02*
X135865788Y-64602657D01*
X135865788Y-64602657D02*
X136580074Y-64602657D01*
X136580074Y-64602657D02*
X137008645Y-64745514D01*
X137008645Y-64745514D02*
X137294360Y-65031228D01*
X137294360Y-65031228D02*
X137437217Y-65316942D01*
X137437217Y-65316942D02*
X137580074Y-65888371D01*
X137580074Y-65888371D02*
X137580074Y-66316942D01*
X137580074Y-66316942D02*
X137437217Y-66888371D01*
X137437217Y-66888371D02*
X137294360Y-67174085D01*
X137294360Y-67174085D02*
X137008645Y-67459800D01*
X137008645Y-67459800D02*
X136580074Y-67602657D01*
X136580074Y-67602657D02*
X135865788Y-67602657D01*
X138865788Y-67602657D02*
X138865788Y-65602657D01*
X138865788Y-64602657D02*
X138722931Y-64745514D01*
X138722931Y-64745514D02*
X138865788Y-64888371D01*
X138865788Y-64888371D02*
X139008645Y-64745514D01*
X139008645Y-64745514D02*
X138865788Y-64602657D01*
X138865788Y-64602657D02*
X138865788Y-64888371D01*
X140151502Y-67459800D02*
X140437216Y-67602657D01*
X140437216Y-67602657D02*
X141008645Y-67602657D01*
X141008645Y-67602657D02*
X141294359Y-67459800D01*
X141294359Y-67459800D02*
X141437216Y-67174085D01*
X141437216Y-67174085D02*
X141437216Y-67031228D01*
X141437216Y-67031228D02*
X141294359Y-66745514D01*
X141294359Y-66745514D02*
X141008645Y-66602657D01*
X141008645Y-66602657D02*
X140580074Y-66602657D01*
X140580074Y-66602657D02*
X140294359Y-66459800D01*
X140294359Y-66459800D02*
X140151502Y-66174085D01*
X140151502Y-66174085D02*
X140151502Y-66031228D01*
X140151502Y-66031228D02*
X140294359Y-65745514D01*
X140294359Y-65745514D02*
X140580074Y-65602657D01*
X140580074Y-65602657D02*
X141008645Y-65602657D01*
X141008645Y-65602657D02*
X141294359Y-65745514D01*
X142722930Y-65602657D02*
X142722930Y-68602657D01*
X142722930Y-65745514D02*
X143008645Y-65602657D01*
X143008645Y-65602657D02*
X143580073Y-65602657D01*
X143580073Y-65602657D02*
X143865787Y-65745514D01*
X143865787Y-65745514D02*
X144008645Y-65888371D01*
X144008645Y-65888371D02*
X144151502Y-66174085D01*
X144151502Y-66174085D02*
X144151502Y-67031228D01*
X144151502Y-67031228D02*
X144008645Y-67316942D01*
X144008645Y-67316942D02*
X143865787Y-67459800D01*
X143865787Y-67459800D02*
X143580073Y-67602657D01*
X143580073Y-67602657D02*
X143008645Y-67602657D01*
X143008645Y-67602657D02*
X142722930Y-67459800D01*
X145865788Y-67602657D02*
X145580073Y-67459800D01*
X145580073Y-67459800D02*
X145437216Y-67174085D01*
X145437216Y-67174085D02*
X145437216Y-64602657D01*
X148294360Y-67602657D02*
X148294360Y-66031228D01*
X148294360Y-66031228D02*
X148151502Y-65745514D01*
X148151502Y-65745514D02*
X147865788Y-65602657D01*
X147865788Y-65602657D02*
X147294360Y-65602657D01*
X147294360Y-65602657D02*
X147008645Y-65745514D01*
X148294360Y-67459800D02*
X148008645Y-67602657D01*
X148008645Y-67602657D02*
X147294360Y-67602657D01*
X147294360Y-67602657D02*
X147008645Y-67459800D01*
X147008645Y-67459800D02*
X146865788Y-67174085D01*
X146865788Y-67174085D02*
X146865788Y-66888371D01*
X146865788Y-66888371D02*
X147008645Y-66602657D01*
X147008645Y-66602657D02*
X147294360Y-66459800D01*
X147294360Y-66459800D02*
X148008645Y-66459800D01*
X148008645Y-66459800D02*
X148294360Y-66316942D01*
X149437217Y-65602657D02*
X150151503Y-67602657D01*
X150865788Y-65602657D02*
X150151503Y-67602657D01*
X150151503Y-67602657D02*
X149865788Y-68316942D01*
X149865788Y-68316942D02*
X149722931Y-68459800D01*
X149722931Y-68459800D02*
X149437217Y-68602657D01*
D14*
X165624667Y-111627200D02*
X165767524Y-111674819D01*
X165767524Y-111674819D02*
X166005619Y-111674819D01*
X166005619Y-111674819D02*
X166100857Y-111627200D01*
X166100857Y-111627200D02*
X166148476Y-111579580D01*
X166148476Y-111579580D02*
X166196095Y-111484342D01*
X166196095Y-111484342D02*
X166196095Y-111389104D01*
X166196095Y-111389104D02*
X166148476Y-111293866D01*
X166148476Y-111293866D02*
X166100857Y-111246247D01*
X166100857Y-111246247D02*
X166005619Y-111198628D01*
X166005619Y-111198628D02*
X165815143Y-111151009D01*
X165815143Y-111151009D02*
X165719905Y-111103390D01*
X165719905Y-111103390D02*
X165672286Y-111055771D01*
X165672286Y-111055771D02*
X165624667Y-110960533D01*
X165624667Y-110960533D02*
X165624667Y-110865295D01*
X165624667Y-110865295D02*
X165672286Y-110770057D01*
X165672286Y-110770057D02*
X165719905Y-110722438D01*
X165719905Y-110722438D02*
X165815143Y-110674819D01*
X165815143Y-110674819D02*
X166053238Y-110674819D01*
X166053238Y-110674819D02*
X166196095Y-110722438D01*
X166529429Y-110674819D02*
X166767524Y-111674819D01*
X166767524Y-111674819D02*
X166958000Y-110960533D01*
X166958000Y-110960533D02*
X167148476Y-111674819D01*
X167148476Y-111674819D02*
X167386572Y-110674819D01*
X167910381Y-111103390D02*
X167815143Y-111055771D01*
X167815143Y-111055771D02*
X167767524Y-111008152D01*
X167767524Y-111008152D02*
X167719905Y-110912914D01*
X167719905Y-110912914D02*
X167719905Y-110865295D01*
X167719905Y-110865295D02*
X167767524Y-110770057D01*
X167767524Y-110770057D02*
X167815143Y-110722438D01*
X167815143Y-110722438D02*
X167910381Y-110674819D01*
X167910381Y-110674819D02*
X168100857Y-110674819D01*
X168100857Y-110674819D02*
X168196095Y-110722438D01*
X168196095Y-110722438D02*
X168243714Y-110770057D01*
X168243714Y-110770057D02*
X168291333Y-110865295D01*
X168291333Y-110865295D02*
X168291333Y-110912914D01*
X168291333Y-110912914D02*
X168243714Y-111008152D01*
X168243714Y-111008152D02*
X168196095Y-111055771D01*
X168196095Y-111055771D02*
X168100857Y-111103390D01*
X168100857Y-111103390D02*
X167910381Y-111103390D01*
X167910381Y-111103390D02*
X167815143Y-111151009D01*
X167815143Y-111151009D02*
X167767524Y-111198628D01*
X167767524Y-111198628D02*
X167719905Y-111293866D01*
X167719905Y-111293866D02*
X167719905Y-111484342D01*
X167719905Y-111484342D02*
X167767524Y-111579580D01*
X167767524Y-111579580D02*
X167815143Y-111627200D01*
X167815143Y-111627200D02*
X167910381Y-111674819D01*
X167910381Y-111674819D02*
X168100857Y-111674819D01*
X168100857Y-111674819D02*
X168196095Y-111627200D01*
X168196095Y-111627200D02*
X168243714Y-111579580D01*
X168243714Y-111579580D02*
X168291333Y-111484342D01*
X168291333Y-111484342D02*
X168291333Y-111293866D01*
X168291333Y-111293866D02*
X168243714Y-111198628D01*
X168243714Y-111198628D02*
X168196095Y-111151009D01*
X168196095Y-111151009D02*
X168100857Y-111103390D01*
X146461667Y-92627200D02*
X146604524Y-92674819D01*
X146604524Y-92674819D02*
X146842619Y-92674819D01*
X146842619Y-92674819D02*
X146937857Y-92627200D01*
X146937857Y-92627200D02*
X146985476Y-92579580D01*
X146985476Y-92579580D02*
X147033095Y-92484342D01*
X147033095Y-92484342D02*
X147033095Y-92389104D01*
X147033095Y-92389104D02*
X146985476Y-92293866D01*
X146985476Y-92293866D02*
X146937857Y-92246247D01*
X146937857Y-92246247D02*
X146842619Y-92198628D01*
X146842619Y-92198628D02*
X146652143Y-92151009D01*
X146652143Y-92151009D02*
X146556905Y-92103390D01*
X146556905Y-92103390D02*
X146509286Y-92055771D01*
X146509286Y-92055771D02*
X146461667Y-91960533D01*
X146461667Y-91960533D02*
X146461667Y-91865295D01*
X146461667Y-91865295D02*
X146509286Y-91770057D01*
X146509286Y-91770057D02*
X146556905Y-91722438D01*
X146556905Y-91722438D02*
X146652143Y-91674819D01*
X146652143Y-91674819D02*
X146890238Y-91674819D01*
X146890238Y-91674819D02*
X147033095Y-91722438D01*
X147366429Y-91674819D02*
X147604524Y-92674819D01*
X147604524Y-92674819D02*
X147795000Y-91960533D01*
X147795000Y-91960533D02*
X147985476Y-92674819D01*
X147985476Y-92674819D02*
X148223572Y-91674819D01*
X149033095Y-92008152D02*
X149033095Y-92674819D01*
X148795000Y-91627200D02*
X148556905Y-92341485D01*
X148556905Y-92341485D02*
X149175952Y-92341485D01*
X126986667Y-130802200D02*
X127129524Y-130849819D01*
X127129524Y-130849819D02*
X127367619Y-130849819D01*
X127367619Y-130849819D02*
X127462857Y-130802200D01*
X127462857Y-130802200D02*
X127510476Y-130754580D01*
X127510476Y-130754580D02*
X127558095Y-130659342D01*
X127558095Y-130659342D02*
X127558095Y-130564104D01*
X127558095Y-130564104D02*
X127510476Y-130468866D01*
X127510476Y-130468866D02*
X127462857Y-130421247D01*
X127462857Y-130421247D02*
X127367619Y-130373628D01*
X127367619Y-130373628D02*
X127177143Y-130326009D01*
X127177143Y-130326009D02*
X127081905Y-130278390D01*
X127081905Y-130278390D02*
X127034286Y-130230771D01*
X127034286Y-130230771D02*
X126986667Y-130135533D01*
X126986667Y-130135533D02*
X126986667Y-130040295D01*
X126986667Y-130040295D02*
X127034286Y-129945057D01*
X127034286Y-129945057D02*
X127081905Y-129897438D01*
X127081905Y-129897438D02*
X127177143Y-129849819D01*
X127177143Y-129849819D02*
X127415238Y-129849819D01*
X127415238Y-129849819D02*
X127558095Y-129897438D01*
X127891429Y-129849819D02*
X128129524Y-130849819D01*
X128129524Y-130849819D02*
X128320000Y-130135533D01*
X128320000Y-130135533D02*
X128510476Y-130849819D01*
X128510476Y-130849819D02*
X128748572Y-129849819D01*
X129034286Y-129849819D02*
X129653333Y-129849819D01*
X129653333Y-129849819D02*
X129320000Y-130230771D01*
X129320000Y-130230771D02*
X129462857Y-130230771D01*
X129462857Y-130230771D02*
X129558095Y-130278390D01*
X129558095Y-130278390D02*
X129605714Y-130326009D01*
X129605714Y-130326009D02*
X129653333Y-130421247D01*
X129653333Y-130421247D02*
X129653333Y-130659342D01*
X129653333Y-130659342D02*
X129605714Y-130754580D01*
X129605714Y-130754580D02*
X129558095Y-130802200D01*
X129558095Y-130802200D02*
X129462857Y-130849819D01*
X129462857Y-130849819D02*
X129177143Y-130849819D01*
X129177143Y-130849819D02*
X129081905Y-130802200D01*
X129081905Y-130802200D02*
X129034286Y-130754580D01*
X126986667Y-111627200D02*
X127129524Y-111674819D01*
X127129524Y-111674819D02*
X127367619Y-111674819D01*
X127367619Y-111674819D02*
X127462857Y-111627200D01*
X127462857Y-111627200D02*
X127510476Y-111579580D01*
X127510476Y-111579580D02*
X127558095Y-111484342D01*
X127558095Y-111484342D02*
X127558095Y-111389104D01*
X127558095Y-111389104D02*
X127510476Y-111293866D01*
X127510476Y-111293866D02*
X127462857Y-111246247D01*
X127462857Y-111246247D02*
X127367619Y-111198628D01*
X127367619Y-111198628D02*
X127177143Y-111151009D01*
X127177143Y-111151009D02*
X127081905Y-111103390D01*
X127081905Y-111103390D02*
X127034286Y-111055771D01*
X127034286Y-111055771D02*
X126986667Y-110960533D01*
X126986667Y-110960533D02*
X126986667Y-110865295D01*
X126986667Y-110865295D02*
X127034286Y-110770057D01*
X127034286Y-110770057D02*
X127081905Y-110722438D01*
X127081905Y-110722438D02*
X127177143Y-110674819D01*
X127177143Y-110674819D02*
X127415238Y-110674819D01*
X127415238Y-110674819D02*
X127558095Y-110722438D01*
X127891429Y-110674819D02*
X128129524Y-111674819D01*
X128129524Y-111674819D02*
X128320000Y-110960533D01*
X128320000Y-110960533D02*
X128510476Y-111674819D01*
X128510476Y-111674819D02*
X128748572Y-110674819D01*
X129081905Y-110770057D02*
X129129524Y-110722438D01*
X129129524Y-110722438D02*
X129224762Y-110674819D01*
X129224762Y-110674819D02*
X129462857Y-110674819D01*
X129462857Y-110674819D02*
X129558095Y-110722438D01*
X129558095Y-110722438D02*
X129605714Y-110770057D01*
X129605714Y-110770057D02*
X129653333Y-110865295D01*
X129653333Y-110865295D02*
X129653333Y-110960533D01*
X129653333Y-110960533D02*
X129605714Y-111103390D01*
X129605714Y-111103390D02*
X129034286Y-111674819D01*
X129034286Y-111674819D02*
X129653333Y-111674819D01*
X165624667Y-130802200D02*
X165767524Y-130849819D01*
X165767524Y-130849819D02*
X166005619Y-130849819D01*
X166005619Y-130849819D02*
X166100857Y-130802200D01*
X166100857Y-130802200D02*
X166148476Y-130754580D01*
X166148476Y-130754580D02*
X166196095Y-130659342D01*
X166196095Y-130659342D02*
X166196095Y-130564104D01*
X166196095Y-130564104D02*
X166148476Y-130468866D01*
X166148476Y-130468866D02*
X166100857Y-130421247D01*
X166100857Y-130421247D02*
X166005619Y-130373628D01*
X166005619Y-130373628D02*
X165815143Y-130326009D01*
X165815143Y-130326009D02*
X165719905Y-130278390D01*
X165719905Y-130278390D02*
X165672286Y-130230771D01*
X165672286Y-130230771D02*
X165624667Y-130135533D01*
X165624667Y-130135533D02*
X165624667Y-130040295D01*
X165624667Y-130040295D02*
X165672286Y-129945057D01*
X165672286Y-129945057D02*
X165719905Y-129897438D01*
X165719905Y-129897438D02*
X165815143Y-129849819D01*
X165815143Y-129849819D02*
X166053238Y-129849819D01*
X166053238Y-129849819D02*
X166196095Y-129897438D01*
X166529429Y-129849819D02*
X166767524Y-130849819D01*
X166767524Y-130849819D02*
X166958000Y-130135533D01*
X166958000Y-130135533D02*
X167148476Y-130849819D01*
X167148476Y-130849819D02*
X167386572Y-129849819D01*
X167815143Y-130849819D02*
X168005619Y-130849819D01*
X168005619Y-130849819D02*
X168100857Y-130802200D01*
X168100857Y-130802200D02*
X168148476Y-130754580D01*
X168148476Y-130754580D02*
X168243714Y-130611723D01*
X168243714Y-130611723D02*
X168291333Y-130421247D01*
X168291333Y-130421247D02*
X168291333Y-130040295D01*
X168291333Y-130040295D02*
X168243714Y-129945057D01*
X168243714Y-129945057D02*
X168196095Y-129897438D01*
X168196095Y-129897438D02*
X168100857Y-129849819D01*
X168100857Y-129849819D02*
X167910381Y-129849819D01*
X167910381Y-129849819D02*
X167815143Y-129897438D01*
X167815143Y-129897438D02*
X167767524Y-129945057D01*
X167767524Y-129945057D02*
X167719905Y-130040295D01*
X167719905Y-130040295D02*
X167719905Y-130278390D01*
X167719905Y-130278390D02*
X167767524Y-130373628D01*
X167767524Y-130373628D02*
X167815143Y-130421247D01*
X167815143Y-130421247D02*
X167910381Y-130468866D01*
X167910381Y-130468866D02*
X168100857Y-130468866D01*
X168100857Y-130468866D02*
X168196095Y-130421247D01*
X168196095Y-130421247D02*
X168243714Y-130373628D01*
X168243714Y-130373628D02*
X168291333Y-130278390D01*
X146461667Y-130802200D02*
X146604524Y-130849819D01*
X146604524Y-130849819D02*
X146842619Y-130849819D01*
X146842619Y-130849819D02*
X146937857Y-130802200D01*
X146937857Y-130802200D02*
X146985476Y-130754580D01*
X146985476Y-130754580D02*
X147033095Y-130659342D01*
X147033095Y-130659342D02*
X147033095Y-130564104D01*
X147033095Y-130564104D02*
X146985476Y-130468866D01*
X146985476Y-130468866D02*
X146937857Y-130421247D01*
X146937857Y-130421247D02*
X146842619Y-130373628D01*
X146842619Y-130373628D02*
X146652143Y-130326009D01*
X146652143Y-130326009D02*
X146556905Y-130278390D01*
X146556905Y-130278390D02*
X146509286Y-130230771D01*
X146509286Y-130230771D02*
X146461667Y-130135533D01*
X146461667Y-130135533D02*
X146461667Y-130040295D01*
X146461667Y-130040295D02*
X146509286Y-129945057D01*
X146509286Y-129945057D02*
X146556905Y-129897438D01*
X146556905Y-129897438D02*
X146652143Y-129849819D01*
X146652143Y-129849819D02*
X146890238Y-129849819D01*
X146890238Y-129849819D02*
X147033095Y-129897438D01*
X147366429Y-129849819D02*
X147604524Y-130849819D01*
X147604524Y-130849819D02*
X147795000Y-130135533D01*
X147795000Y-130135533D02*
X147985476Y-130849819D01*
X147985476Y-130849819D02*
X148223572Y-129849819D01*
X149033095Y-129849819D02*
X148842619Y-129849819D01*
X148842619Y-129849819D02*
X148747381Y-129897438D01*
X148747381Y-129897438D02*
X148699762Y-129945057D01*
X148699762Y-129945057D02*
X148604524Y-130087914D01*
X148604524Y-130087914D02*
X148556905Y-130278390D01*
X148556905Y-130278390D02*
X148556905Y-130659342D01*
X148556905Y-130659342D02*
X148604524Y-130754580D01*
X148604524Y-130754580D02*
X148652143Y-130802200D01*
X148652143Y-130802200D02*
X148747381Y-130849819D01*
X148747381Y-130849819D02*
X148937857Y-130849819D01*
X148937857Y-130849819D02*
X149033095Y-130802200D01*
X149033095Y-130802200D02*
X149080714Y-130754580D01*
X149080714Y-130754580D02*
X149128333Y-130659342D01*
X149128333Y-130659342D02*
X149128333Y-130421247D01*
X149128333Y-130421247D02*
X149080714Y-130326009D01*
X149080714Y-130326009D02*
X149033095Y-130278390D01*
X149033095Y-130278390D02*
X148937857Y-130230771D01*
X148937857Y-130230771D02*
X148747381Y-130230771D01*
X148747381Y-130230771D02*
X148652143Y-130278390D01*
X148652143Y-130278390D02*
X148604524Y-130326009D01*
X148604524Y-130326009D02*
X148556905Y-130421247D01*
X146461667Y-111627200D02*
X146604524Y-111674819D01*
X146604524Y-111674819D02*
X146842619Y-111674819D01*
X146842619Y-111674819D02*
X146937857Y-111627200D01*
X146937857Y-111627200D02*
X146985476Y-111579580D01*
X146985476Y-111579580D02*
X147033095Y-111484342D01*
X147033095Y-111484342D02*
X147033095Y-111389104D01*
X147033095Y-111389104D02*
X146985476Y-111293866D01*
X146985476Y-111293866D02*
X146937857Y-111246247D01*
X146937857Y-111246247D02*
X146842619Y-111198628D01*
X146842619Y-111198628D02*
X146652143Y-111151009D01*
X146652143Y-111151009D02*
X146556905Y-111103390D01*
X146556905Y-111103390D02*
X146509286Y-111055771D01*
X146509286Y-111055771D02*
X146461667Y-110960533D01*
X146461667Y-110960533D02*
X146461667Y-110865295D01*
X146461667Y-110865295D02*
X146509286Y-110770057D01*
X146509286Y-110770057D02*
X146556905Y-110722438D01*
X146556905Y-110722438D02*
X146652143Y-110674819D01*
X146652143Y-110674819D02*
X146890238Y-110674819D01*
X146890238Y-110674819D02*
X147033095Y-110722438D01*
X147366429Y-110674819D02*
X147604524Y-111674819D01*
X147604524Y-111674819D02*
X147795000Y-110960533D01*
X147795000Y-110960533D02*
X147985476Y-111674819D01*
X147985476Y-111674819D02*
X148223572Y-110674819D01*
X149080714Y-110674819D02*
X148604524Y-110674819D01*
X148604524Y-110674819D02*
X148556905Y-111151009D01*
X148556905Y-111151009D02*
X148604524Y-111103390D01*
X148604524Y-111103390D02*
X148699762Y-111055771D01*
X148699762Y-111055771D02*
X148937857Y-111055771D01*
X148937857Y-111055771D02*
X149033095Y-111103390D01*
X149033095Y-111103390D02*
X149080714Y-111151009D01*
X149080714Y-111151009D02*
X149128333Y-111246247D01*
X149128333Y-111246247D02*
X149128333Y-111484342D01*
X149128333Y-111484342D02*
X149080714Y-111579580D01*
X149080714Y-111579580D02*
X149033095Y-111627200D01*
X149033095Y-111627200D02*
X148937857Y-111674819D01*
X148937857Y-111674819D02*
X148699762Y-111674819D01*
X148699762Y-111674819D02*
X148604524Y-111627200D01*
X148604524Y-111627200D02*
X148556905Y-111579580D01*
X126986667Y-92627200D02*
X127129524Y-92674819D01*
X127129524Y-92674819D02*
X127367619Y-92674819D01*
X127367619Y-92674819D02*
X127462857Y-92627200D01*
X127462857Y-92627200D02*
X127510476Y-92579580D01*
X127510476Y-92579580D02*
X127558095Y-92484342D01*
X127558095Y-92484342D02*
X127558095Y-92389104D01*
X127558095Y-92389104D02*
X127510476Y-92293866D01*
X127510476Y-92293866D02*
X127462857Y-92246247D01*
X127462857Y-92246247D02*
X127367619Y-92198628D01*
X127367619Y-92198628D02*
X127177143Y-92151009D01*
X127177143Y-92151009D02*
X127081905Y-92103390D01*
X127081905Y-92103390D02*
X127034286Y-92055771D01*
X127034286Y-92055771D02*
X126986667Y-91960533D01*
X126986667Y-91960533D02*
X126986667Y-91865295D01*
X126986667Y-91865295D02*
X127034286Y-91770057D01*
X127034286Y-91770057D02*
X127081905Y-91722438D01*
X127081905Y-91722438D02*
X127177143Y-91674819D01*
X127177143Y-91674819D02*
X127415238Y-91674819D01*
X127415238Y-91674819D02*
X127558095Y-91722438D01*
X127891429Y-91674819D02*
X128129524Y-92674819D01*
X128129524Y-92674819D02*
X128320000Y-91960533D01*
X128320000Y-91960533D02*
X128510476Y-92674819D01*
X128510476Y-92674819D02*
X128748572Y-91674819D01*
X129653333Y-92674819D02*
X129081905Y-92674819D01*
X129367619Y-92674819D02*
X129367619Y-91674819D01*
X129367619Y-91674819D02*
X129272381Y-91817676D01*
X129272381Y-91817676D02*
X129177143Y-91912914D01*
X129177143Y-91912914D02*
X129081905Y-91960533D01*
X165624667Y-92627200D02*
X165767524Y-92674819D01*
X165767524Y-92674819D02*
X166005619Y-92674819D01*
X166005619Y-92674819D02*
X166100857Y-92627200D01*
X166100857Y-92627200D02*
X166148476Y-92579580D01*
X166148476Y-92579580D02*
X166196095Y-92484342D01*
X166196095Y-92484342D02*
X166196095Y-92389104D01*
X166196095Y-92389104D02*
X166148476Y-92293866D01*
X166148476Y-92293866D02*
X166100857Y-92246247D01*
X166100857Y-92246247D02*
X166005619Y-92198628D01*
X166005619Y-92198628D02*
X165815143Y-92151009D01*
X165815143Y-92151009D02*
X165719905Y-92103390D01*
X165719905Y-92103390D02*
X165672286Y-92055771D01*
X165672286Y-92055771D02*
X165624667Y-91960533D01*
X165624667Y-91960533D02*
X165624667Y-91865295D01*
X165624667Y-91865295D02*
X165672286Y-91770057D01*
X165672286Y-91770057D02*
X165719905Y-91722438D01*
X165719905Y-91722438D02*
X165815143Y-91674819D01*
X165815143Y-91674819D02*
X166053238Y-91674819D01*
X166053238Y-91674819D02*
X166196095Y-91722438D01*
X166529429Y-91674819D02*
X166767524Y-92674819D01*
X166767524Y-92674819D02*
X166958000Y-91960533D01*
X166958000Y-91960533D02*
X167148476Y-92674819D01*
X167148476Y-92674819D02*
X167386572Y-91674819D01*
X167672286Y-91674819D02*
X168338952Y-91674819D01*
X168338952Y-91674819D02*
X167910381Y-92674819D01*
%TO.C,C10*%
D15*
X167417164Y-145790000D02*
X167632836Y-145790000D01*
X167417164Y-146510000D02*
X167632836Y-146510000D01*
%TO.C,VR1*%
D16*
X155725000Y-138445000D02*
X155725000Y-139245000D01*
X155725000Y-138445000D02*
X156500000Y-138445000D01*
X155725000Y-141305000D02*
X155725000Y-140505000D01*
X156500000Y-141305000D02*
X155725000Y-141305000D01*
%TO.C,SW8*%
D15*
X159658000Y-98675000D02*
X159658000Y-112875000D01*
X159658000Y-112875000D02*
X173858000Y-112875000D01*
X173858000Y-98675000D02*
X159658000Y-98675000D01*
X173858000Y-112875000D02*
X173858000Y-98675000D01*
%TO.C,C18*%
X151009420Y-136365000D02*
X151290580Y-136365000D01*
X151009420Y-137385000D02*
X151290580Y-137385000D01*
%TO.C,SW4*%
X140495000Y-79675000D02*
X140495000Y-93875000D01*
X140495000Y-93875000D02*
X154695000Y-93875000D01*
X154695000Y-79675000D02*
X140495000Y-79675000D01*
X154695000Y-93875000D02*
X154695000Y-79675000D01*
%TO.C,U1*%
D10*
X161450000Y-142275000D02*
X161450000Y-139275000D01*
X161700000Y-137675000D02*
X161900000Y-137475000D01*
X163500000Y-137225000D02*
X166500000Y-137225000D01*
X166500000Y-144325000D02*
X163500000Y-144325000D01*
X168550000Y-139275000D02*
X168550000Y-142275000D01*
%TO.C,R5*%
D15*
X171025000Y-136081359D02*
X171025000Y-136388641D01*
X171785000Y-136081359D02*
X171785000Y-136388641D01*
%TO.C,R10*%
X144770000Y-137521359D02*
X144770000Y-137828641D01*
X145530000Y-137521359D02*
X145530000Y-137828641D01*
%TO.C,J2*%
D16*
X120955000Y-141825000D02*
X120955000Y-143505000D01*
X120955000Y-147275000D02*
X120955000Y-145845000D01*
X120955000Y-147275000D02*
X129895000Y-147275000D01*
X129895000Y-141825000D02*
X129895000Y-143505000D01*
X129895000Y-147275000D02*
X129895000Y-145845000D01*
D12*
X122325000Y-138675000D02*
G75*
G02*
X122125000Y-138675000I-100000J0D01*
G01*
X122125000Y-138675000D02*
G75*
G02*
X122325000Y-138675000I100000J0D01*
G01*
%TO.C,Display1*%
D15*
X154320000Y-61170000D02*
X155700000Y-61170000D01*
X154320000Y-62550000D02*
X154320000Y-61170000D01*
X154320000Y-63820000D02*
X154320000Y-71550000D01*
X154320000Y-63820000D02*
X157080000Y-63820000D01*
X154320000Y-71550000D02*
X157080000Y-71550000D01*
X157080000Y-63820000D02*
X157080000Y-71550000D01*
%TO.C,C13*%
X169060000Y-139607836D02*
X169060000Y-139392164D01*
X169780000Y-139607836D02*
X169780000Y-139392164D01*
%TO.C,R6*%
X148220000Y-136586359D02*
X148220000Y-136893641D01*
X148980000Y-136586359D02*
X148980000Y-136893641D01*
%TO.C,C5*%
X154390580Y-136365000D02*
X154109420Y-136365000D01*
X154390580Y-137385000D02*
X154109420Y-137385000D01*
%TO.C,D10*%
X150565000Y-141915000D02*
X150565000Y-143385000D01*
X150565000Y-143385000D02*
X152850000Y-143385000D01*
X152850000Y-141915000D02*
X150565000Y-141915000D01*
%TO.C,R2*%
X154771359Y-143995000D02*
X155078641Y-143995000D01*
X154771359Y-144755000D02*
X155078641Y-144755000D01*
%TO.C,C22*%
X160859420Y-146240000D02*
X161140580Y-146240000D01*
X160859420Y-147260000D02*
X161140580Y-147260000D01*
%TO.C,C20*%
X142690000Y-142990580D02*
X142690000Y-142709420D01*
X143710000Y-142990580D02*
X143710000Y-142709420D01*
%TO.C,C7*%
X161232836Y-135440000D02*
X161017164Y-135440000D01*
X161232836Y-136160000D02*
X161017164Y-136160000D01*
%TO.C,SW3*%
X121020000Y-117850000D02*
X121020000Y-132050000D01*
X121020000Y-132050000D02*
X135220000Y-132050000D01*
X135220000Y-117850000D02*
X121020000Y-117850000D01*
X135220000Y-132050000D02*
X135220000Y-117850000D01*
%TO.C,C2*%
X158590000Y-133997164D02*
X158590000Y-134212836D01*
X159310000Y-133997164D02*
X159310000Y-134212836D01*
%TO.C,SW2*%
X121020000Y-98675000D02*
X121020000Y-112875000D01*
X121020000Y-112875000D02*
X135220000Y-112875000D01*
X135220000Y-98675000D02*
X121020000Y-98675000D01*
X135220000Y-112875000D02*
X135220000Y-98675000D01*
%TO.C,C23*%
X133640000Y-138057836D02*
X133640000Y-137842164D01*
X134360000Y-138057836D02*
X134360000Y-137842164D01*
%TO.C,C17*%
X150384420Y-146265000D02*
X150665580Y-146265000D01*
X150384420Y-147285000D02*
X150665580Y-147285000D01*
%TO.C,R9*%
X157070000Y-137003641D02*
X157070000Y-136696359D01*
X157830000Y-137003641D02*
X157830000Y-136696359D01*
%TO.C,C8*%
X171007836Y-142290000D02*
X170792164Y-142290000D01*
X171007836Y-143010000D02*
X170792164Y-143010000D01*
%TO.C,D11*%
X150565000Y-143690000D02*
X150565000Y-145160000D01*
X150565000Y-145160000D02*
X152850000Y-145160000D01*
X152850000Y-143690000D02*
X150565000Y-143690000D01*
%TO.C,R3*%
X151713641Y-138245000D02*
X151406359Y-138245000D01*
X151713641Y-139005000D02*
X151406359Y-139005000D01*
%TO.C,X1*%
X169875000Y-133300000D02*
X167055000Y-133300000D01*
X169875000Y-135720000D02*
X169875000Y-133300000D01*
%TO.C,C12*%
X170905000Y-134012164D02*
X170905000Y-134227836D01*
X171625000Y-134012164D02*
X171625000Y-134227836D01*
%TO.C,SW9*%
X159658000Y-117850000D02*
X159658000Y-132050000D01*
X159658000Y-132050000D02*
X173858000Y-132050000D01*
X173858000Y-117850000D02*
X159658000Y-117850000D01*
X173858000Y-132050000D02*
X173858000Y-117850000D01*
%TO.C,SW6*%
X140495000Y-117850000D02*
X140495000Y-132050000D01*
X140495000Y-132050000D02*
X154695000Y-132050000D01*
X154695000Y-117850000D02*
X140495000Y-117850000D01*
X154695000Y-132050000D02*
X154695000Y-117850000D01*
%TO.C,C9*%
X168717164Y-135965000D02*
X168932836Y-135965000D01*
X168717164Y-136685000D02*
X168932836Y-136685000D01*
%TO.C,R1*%
X154711359Y-142295000D02*
X155018641Y-142295000D01*
X154711359Y-143055000D02*
X155018641Y-143055000D01*
%TO.C,C4*%
X160067164Y-138515000D02*
X160282836Y-138515000D01*
X160067164Y-139235000D02*
X160282836Y-139235000D01*
%TO.C,SW5*%
X140495000Y-98675000D02*
X140495000Y-112875000D01*
X140495000Y-112875000D02*
X154695000Y-112875000D01*
X154695000Y-98675000D02*
X140495000Y-98675000D01*
X154695000Y-112875000D02*
X154695000Y-98675000D01*
%TO.C,C1*%
X158590000Y-141315580D02*
X158590000Y-141034420D01*
X159610000Y-141315580D02*
X159610000Y-141034420D01*
%TO.C,C14*%
X171027836Y-138575000D02*
X170812164Y-138575000D01*
X171027836Y-139295000D02*
X170812164Y-139295000D01*
%TO.C,R7*%
X145070000Y-142928641D02*
X145070000Y-142621359D01*
X145830000Y-142928641D02*
X145830000Y-142621359D01*
%TO.C,R4*%
X147195000Y-136606359D02*
X147195000Y-136913641D01*
X147955000Y-136606359D02*
X147955000Y-136913641D01*
%TO.C,C11*%
X165440000Y-134027164D02*
X165440000Y-134242836D01*
X166160000Y-134027164D02*
X166160000Y-134242836D01*
%TO.C,U2*%
D16*
X146850000Y-138385000D02*
X146850000Y-138685000D01*
X146850000Y-138385000D02*
X147150000Y-138385000D01*
X146850000Y-141385000D02*
X146850000Y-141085000D01*
X146850000Y-141385000D02*
X147150000Y-141385000D01*
X149850000Y-138385000D02*
X149550000Y-138385000D01*
X149850000Y-138385000D02*
X149850000Y-138685000D01*
X149850000Y-141385000D02*
X149550000Y-141385000D01*
X149850000Y-141385000D02*
X149850000Y-141085000D01*
D12*
X145975000Y-138935000D02*
G75*
G02*
X145775000Y-138935000I-100000J0D01*
G01*
X145775000Y-138935000D02*
G75*
G02*
X145975000Y-138935000I100000J0D01*
G01*
%TO.C,SW1*%
D15*
X121020000Y-79675000D02*
X121020000Y-93875000D01*
X121020000Y-93875000D02*
X135220000Y-93875000D01*
X135220000Y-79675000D02*
X121020000Y-79675000D01*
X135220000Y-93875000D02*
X135220000Y-79675000D01*
%TO.C,SW7*%
X159658000Y-79675000D02*
X159658000Y-93875000D01*
X159658000Y-93875000D02*
X173858000Y-93875000D01*
X173858000Y-79675000D02*
X159658000Y-79675000D01*
X173858000Y-93875000D02*
X173858000Y-79675000D01*
%TO.C,R12*%
X123845000Y-137946359D02*
X123845000Y-138253641D01*
X124605000Y-137946359D02*
X124605000Y-138253641D01*
%TO.C,MCU_flash1*%
X175820000Y-117930000D02*
X177200000Y-117930000D01*
X175820000Y-119310000D02*
X175820000Y-117930000D01*
X175820000Y-120580000D02*
X175820000Y-130850000D01*
X175820000Y-120580000D02*
X178580000Y-120580000D01*
X175820000Y-130850000D02*
X178580000Y-130850000D01*
X178580000Y-120580000D02*
X178580000Y-130850000D01*
%TO.C,R11*%
X126845000Y-138253641D02*
X126845000Y-137946359D01*
X127605000Y-138253641D02*
X127605000Y-137946359D01*
%TO.C,C3*%
X163915000Y-134037164D02*
X163915000Y-134252836D01*
X164635000Y-134037164D02*
X164635000Y-134252836D01*
%TO.C,C6*%
X170490580Y-143865000D02*
X170209420Y-143865000D01*
X170490580Y-144885000D02*
X170209420Y-144885000D01*
%TO.C,C19*%
X154490580Y-146265000D02*
X154209420Y-146265000D01*
X154490580Y-147285000D02*
X154209420Y-147285000D01*
%TO.C,C16*%
X171012836Y-141315000D02*
X170797164Y-141315000D01*
X171012836Y-142035000D02*
X170797164Y-142035000D01*
%TO.C,C15*%
X171995000Y-136127164D02*
X171995000Y-136342836D01*
X172715000Y-136127164D02*
X172715000Y-136342836D01*
%TO.C,SW10*%
X135725000Y-137850000D02*
X135725000Y-137950000D01*
X135725000Y-139450000D02*
X140125000Y-139450000D01*
X140125000Y-136350000D02*
X135725000Y-136350000D01*
X140125000Y-137850000D02*
X140125000Y-137950000D01*
%TO.C,SW11*%
X159800000Y-62100000D02*
X160400000Y-62100000D01*
X160100000Y-62400000D02*
X159800000Y-62100000D01*
X160400000Y-62100000D02*
X160100000Y-62400000D01*
X161500000Y-60300000D02*
X161500000Y-72100000D01*
X165600000Y-60300000D02*
X161500000Y-60300000D01*
X165600000Y-72100000D02*
X161500000Y-72100000D01*
X167100000Y-66200000D02*
X168100000Y-66200000D01*
X167600000Y-65700000D02*
X167600000Y-66700000D01*
X169600000Y-60300000D02*
X173700000Y-60300000D01*
X173700000Y-60300000D02*
X173700000Y-62700000D01*
X173700000Y-64900000D02*
X173700000Y-67500000D01*
X173700000Y-69700000D02*
X173700000Y-72100000D01*
X173700000Y-72100000D02*
X169600000Y-72100000D01*
X170600000Y-66200000D02*
G75*
G02*
X164600000Y-66200000I-3000000J0D01*
G01*
X164600000Y-66200000D02*
G75*
G02*
X170600000Y-66200000I3000000J0D01*
G01*
%TO.C,X2*%
X160900000Y-133150000D02*
X162250000Y-133150000D01*
X160900000Y-134900000D02*
X162250000Y-134900000D01*
%TO.C,C21*%
X146984420Y-146240000D02*
X147265580Y-146240000D01*
X146984420Y-147260000D02*
X147265580Y-147260000D01*
%TD*%
M02*
