%TF.GenerationSoftware,KiCad,Pcbnew,10.0.3*%
%TF.CreationDate,2026-06-15T13:38:46+02:00*%
%TF.ProjectId,Macropad,4d616372-6f70-4616-942e-6b696361645f,rev?*%
%TF.SameCoordinates,Original*%
%TF.FileFunction,Copper,L4,Bot*%
%TF.FilePolarity,Positive*%
%FSLAX46Y46*%
G04 Gerber Fmt 4.6, Leading zero omitted, Abs format (unit mm)*
G04 Created by KiCad (PCBNEW 10.0.3) date 2026-06-15 13:38:46*
%MOMM*%
%LPD*%
G01*
G04 APERTURE LIST*
G04 Aperture macros list*
%AMRoundRect*
0 Rectangle with rounded corners*
0 $1 Rounding radius*
0 $2 $3 $4 $5 $6 $7 $8 $9 X,Y pos of 4 corners*
0 Add a 4 corners polygon primitive as box body*
4,1,4,$2,$3,$4,$5,$6,$7,$8,$9,$2,$3,0*
0 Add four circle primitives for the rounded corners*
1,1,$1+$1,$2,$3*
1,1,$1+$1,$4,$5*
1,1,$1+$1,$6,$7*
1,1,$1+$1,$8,$9*
0 Add four rect primitives between the rounded corners*
20,1,$1+$1,$2,$3,$4,$5,0*
20,1,$1+$1,$4,$5,$6,$7,0*
20,1,$1+$1,$6,$7,$8,$9,0*
20,1,$1+$1,$8,$9,$2,$3,0*%
G04 Aperture macros list end*
%TA.AperFunction,SMDPad,CuDef*%
%ADD10RoundRect,0.250000X-1.025000X-1.000000X1.025000X-1.000000X1.025000X1.000000X-1.025000X1.000000X0*%
%TD*%
%TA.AperFunction,ComponentPad*%
%ADD11O,0.900000X2.000000*%
%TD*%
%TA.AperFunction,ComponentPad*%
%ADD12O,0.900000X1.700000*%
%TD*%
%TA.AperFunction,ComponentPad*%
%ADD13R,1.700000X1.700000*%
%TD*%
%TA.AperFunction,ComponentPad*%
%ADD14C,1.700000*%
%TD*%
%TA.AperFunction,ComponentPad*%
%ADD15C,0.400000*%
%TD*%
%TA.AperFunction,ComponentPad*%
%ADD16R,2.000000X2.000000*%
%TD*%
%TA.AperFunction,ComponentPad*%
%ADD17C,2.000000*%
%TD*%
%TA.AperFunction,ComponentPad*%
%ADD18R,3.200000X2.000000*%
%TD*%
%TA.AperFunction,ComponentPad*%
%ADD19RoundRect,0.250000X-0.350000X-0.625000X0.350000X-0.625000X0.350000X0.625000X-0.350000X0.625000X0*%
%TD*%
%TA.AperFunction,ComponentPad*%
%ADD20O,1.200000X1.750000*%
%TD*%
%TA.AperFunction,ViaPad*%
%ADD21C,0.600000*%
%TD*%
%TA.AperFunction,ViaPad*%
%ADD22C,0.500000*%
%TD*%
%TA.AperFunction,Conductor*%
%ADD23C,0.200000*%
%TD*%
%TA.AperFunction,Conductor*%
%ADD24C,0.150000*%
%TD*%
%TA.AperFunction,Conductor*%
%ADD25C,0.400000*%
%TD*%
G04 APERTURE END LIST*
D10*
%TO.P,SW8,1,1_1*%
%TO.N,P1.08*%
X159673000Y-103235000D03*
%TO.P,SW8,2,2_2*%
%TO.N,GND*%
X172600000Y-100695000D03*
%TD*%
%TO.P,SW4,1,1_1*%
%TO.N,P1.04*%
X140510000Y-84235000D03*
%TO.P,SW4,2,2_2*%
%TO.N,GND*%
X153437000Y-81695000D03*
%TD*%
D11*
%TO.P,J2,S1,SHIELD_S1*%
%TO.N,GND*%
X121100000Y-140505000D03*
%TO.P,J2,S2,SHIELD_S2*%
X129750000Y-140505000D03*
D12*
%TO.P,J2,S3,SHIELD_S3*%
X121100000Y-144675000D03*
%TO.P,J2,S4,SHIELD_S4*%
X129750000Y-144675000D03*
%TD*%
D13*
%TO.P,Display1,1,Pin_1_1*%
%TO.N,GND*%
X155700000Y-62550000D03*
D14*
%TO.P,Display1,2,Pin_2_2*%
%TO.N,MCU System VDD*%
X155700000Y-65090000D03*
%TO.P,Display1,3,Pin_3_3*%
%TO.N,P1.14 Display SCL*%
X155700000Y-67630000D03*
%TO.P,Display1,4,Pin_4_4*%
%TO.N,P1.15 Display SDA*%
X155700000Y-70170000D03*
%TD*%
D10*
%TO.P,SW3,1,1_1*%
%TO.N,P1.03*%
X121035000Y-122410000D03*
%TO.P,SW3,2,2_2*%
%TO.N,GND*%
X133962000Y-119870000D03*
%TD*%
%TO.P,SW2,1,1_1*%
%TO.N,P1.02*%
X121035000Y-103235000D03*
%TO.P,SW2,2,2_2*%
%TO.N,GND*%
X133962000Y-100695000D03*
%TD*%
%TO.P,SW9,1,1_1*%
%TO.N,P1.09*%
X159673000Y-122410000D03*
%TO.P,SW9,2,2_2*%
%TO.N,GND*%
X172600000Y-119870000D03*
%TD*%
%TO.P,SW6,1,1_1*%
%TO.N,P1.06*%
X140510000Y-122410000D03*
%TO.P,SW6,2,2_2*%
%TO.N,GND*%
X153437000Y-119870000D03*
%TD*%
%TO.P,SW5,1,1_1*%
%TO.N,P1.05*%
X140510000Y-103235000D03*
%TO.P,SW5,2,2_2*%
%TO.N,GND*%
X153437000Y-100695000D03*
%TD*%
D15*
%TO.P,U2,18*%
%TO.N,GND*%
X148350000Y-139885000D03*
%TO.P,U2,19*%
X147770000Y-139305000D03*
%TO.P,U2,20*%
X148930000Y-139305000D03*
%TO.P,U2,21*%
X147770000Y-140465000D03*
%TO.P,U2,22*%
X148930000Y-140465000D03*
%TD*%
D10*
%TO.P,SW1,1,1_1*%
%TO.N,P1.01*%
X121035000Y-84235000D03*
%TO.P,SW1,2,2_2*%
%TO.N,GND*%
X133962000Y-81695000D03*
%TD*%
%TO.P,SW7,1,1_1*%
%TO.N,P1.07*%
X159673000Y-84235000D03*
%TO.P,SW7,2,2_2*%
%TO.N,GND*%
X172600000Y-81695000D03*
%TD*%
D13*
%TO.P,MCU_flash1,1,Pin_1_1*%
%TO.N,MCU System VDD*%
X177200000Y-119310000D03*
D14*
%TO.P,MCU_flash1,2,Pin_2_2*%
%TO.N,SWDIO*%
X177200000Y-121850000D03*
%TO.P,MCU_flash1,3,Pin_3_3*%
%TO.N,SWDCLK*%
X177200000Y-124390000D03*
%TO.P,MCU_flash1,4,Pin_4_4*%
%TO.N,P0.18{slash}RESET*%
X177200000Y-126930000D03*
%TO.P,MCU_flash1,5,Pin_5_5*%
%TO.N,GND*%
X177200000Y-129470000D03*
%TD*%
D16*
%TO.P,SW11,A,A_A*%
%TO.N,P1.10 CLK*%
X160100000Y-63700000D03*
D17*
%TO.P,SW11,B,B_B*%
%TO.N,P1.11 DT*%
X160100000Y-68700000D03*
%TO.P,SW11,C,C_C*%
%TO.N,GND*%
X160100000Y-66200000D03*
D18*
%TO.P,SW11,MP*%
%TO.N,N/C*%
X167600000Y-60600000D03*
X167600000Y-71800000D03*
D17*
%TO.P,SW11,S1,S1_S1*%
%TO.N,P1.12 SW*%
X174600000Y-68700000D03*
%TO.P,SW11,S2,S2_S2*%
%TO.N,GND*%
X174600000Y-63700000D03*
%TD*%
D19*
%TO.P,J1,1,Pin_1_1*%
%TO.N,Net-(J1-Pin_1)*%
X136100000Y-145875000D03*
D20*
%TO.P,J1,2,Pin_2_2*%
%TO.N,GND*%
X138100000Y-145875000D03*
%TD*%
D21*
%TO.N,GND*%
X157425000Y-142125000D03*
X152400000Y-146775000D03*
X165050000Y-132900000D03*
X145150000Y-136450000D03*
X172600000Y-81700000D03*
X171275000Y-131975000D03*
X159625000Y-136775000D03*
X124225000Y-136650000D03*
X165000000Y-140775000D03*
X162925000Y-146775000D03*
X169025000Y-146625000D03*
X172950000Y-118375000D03*
X170025000Y-138235000D03*
X148100000Y-135200000D03*
D22*
X153437000Y-100695000D03*
D21*
X152880000Y-62595000D03*
X145450000Y-144050000D03*
X167645000Y-65065000D03*
X171130000Y-145855000D03*
D22*
X133962000Y-100695000D03*
X133962000Y-81695000D03*
X133962000Y-119870000D03*
D21*
X143225000Y-145875000D03*
X127250000Y-136650000D03*
X169313235Y-137363235D03*
X172300000Y-137375000D03*
X149750000Y-142525000D03*
X148275000Y-142875000D03*
X131250000Y-139100000D03*
D22*
X153437000Y-81695000D03*
D21*
X152800000Y-138625000D03*
D22*
X153455000Y-119800000D03*
X172850000Y-100695000D03*
%TO.N,P1.08*%
X162625000Y-141317182D03*
X158850000Y-130200000D03*
D21*
%TO.N,USB-C VBUS*%
X158075000Y-144075000D03*
X154550000Y-135325000D03*
X156950000Y-146775000D03*
D22*
%TO.N,P1.04*%
X133660000Y-110420000D03*
X169190452Y-142145672D03*
%TO.N,P1.15 Display SDA*%
X165405189Y-137146884D03*
%TO.N,Net-(U1-DEC2)*%
X165955189Y-136692317D03*
D21*
X168355000Y-137225000D03*
D22*
%TO.N,P1.10 CLK*%
X166575380Y-137019620D03*
%TO.N,SWDCLK*%
X133135000Y-132185000D03*
X167690000Y-147205000D03*
D21*
X169640002Y-142746012D03*
%TO.N,Net-(U1-DECUSB)*%
X162840831Y-143169071D03*
X160046788Y-141838210D03*
%TO.N,P0.18{slash}RESET*%
X169175000Y-126925000D03*
X157450000Y-134700000D03*
X165050000Y-143200002D03*
X134000000Y-136300000D03*
D22*
%TO.N,SWDIO*%
X172050000Y-126625000D03*
D21*
X168625000Y-144176473D03*
X155350000Y-131750000D03*
X163795000Y-127865000D03*
X163556291Y-143200000D03*
X165775000Y-127930000D03*
%TO.N,D- USB-C*%
X161575000Y-144800000D03*
X155625000Y-135300000D03*
%TO.N,D+ USB-C*%
X126175000Y-138475000D03*
X163065318Y-144765318D03*
%TO.N,DEC4*%
X168432369Y-138898198D03*
X162450000Y-135850000D03*
X164325000Y-136850000D03*
X162450000Y-137477277D03*
X169575000Y-145375000D03*
D22*
%TO.N,P1.14 Display SCL*%
X165330722Y-138400001D03*
%TO.N,P1.12 SW*%
X166030724Y-138399998D03*
%TO.N,P1.11 DT*%
X166773185Y-138400001D03*
D21*
%TO.N,P0.00{slash}XL1*%
X162366605Y-138558581D03*
X159375000Y-135475000D03*
%TO.N,DEC3*%
X170576401Y-143352625D03*
X167528047Y-138744564D03*
%TO.N,P0.01{slash}XL2*%
X164075000Y-135500000D03*
X162575001Y-139331292D03*
D22*
%TO.N,P1.07*%
X167741865Y-140814527D03*
X170025000Y-136616091D03*
X169900000Y-131305000D03*
%TO.N,P1.09*%
X161274187Y-141871368D03*
X157168591Y-130956409D03*
%TO.N,P1.06*%
X168636742Y-141614560D03*
X151990000Y-132950000D03*
%TO.N,P1.05*%
X151435000Y-117305000D03*
X167374999Y-140142423D03*
%TO.N,P1.03*%
X167375002Y-142271960D03*
X136095000Y-132870000D03*
%TO.N,P1.02*%
X168865000Y-142770000D03*
X135955000Y-117180000D03*
%TO.N,P1.01*%
X167321578Y-142969918D03*
X164655000Y-146200000D03*
X132750000Y-97975000D03*
%TD*%
%TO.N,GND*%
D23*
X171275000Y-136350000D02*
X171275000Y-131975000D01*
X153437000Y-119818000D02*
X153455000Y-119800000D01*
D24*
X170201041Y-136191091D02*
X169848959Y-136191091D01*
D23*
X153437000Y-119870000D02*
X153437000Y-119818000D01*
D24*
X169313235Y-136726815D02*
X169313235Y-137363235D01*
D23*
X172300000Y-137375000D02*
X171275000Y-136350000D01*
X172600000Y-81695000D02*
X172600000Y-81700000D01*
D24*
X170450000Y-137810000D02*
X170450000Y-136440050D01*
X170025000Y-138235000D02*
X170450000Y-137810000D01*
D23*
X133962000Y-100695000D02*
X134002000Y-100695000D01*
X172600000Y-118725000D02*
X172950000Y-118375000D01*
D24*
X170450000Y-136440050D02*
X170201041Y-136191091D01*
D23*
X172600000Y-119870000D02*
X172600000Y-118725000D01*
D24*
X169848959Y-136191091D02*
X169313235Y-136726815D01*
%TO.N,P1.08*%
D23*
X163250000Y-118875000D02*
X160800000Y-118875000D01*
X158850000Y-129925000D02*
X164200000Y-124575000D01*
X159673000Y-117748000D02*
X159673000Y-103235000D01*
X160800000Y-118875000D02*
X159673000Y-117748000D01*
X164200000Y-123975000D02*
X165250000Y-122925000D01*
X164200000Y-124575000D02*
X164200000Y-123975000D01*
X165250000Y-120875000D02*
X163250000Y-118875000D01*
X158850000Y-130200000D02*
X158850000Y-129925000D01*
X165250000Y-122925000D02*
X165250000Y-120875000D01*
%TO.N,USB-C VBUS*%
D25*
X157800000Y-144075000D02*
X158075000Y-144075000D01*
X158075000Y-144075000D02*
X158075000Y-145650000D01*
X154550000Y-135325000D02*
X154550000Y-140825000D01*
X154550000Y-140825000D02*
X157800000Y-144075000D01*
X158075000Y-145650000D02*
X156950000Y-146775000D01*
%TO.N,P1.04*%
D23*
X140510000Y-94115000D02*
X140510000Y-84235000D01*
D24*
X133800000Y-110280000D02*
X133800000Y-108975000D01*
X133660000Y-110420000D02*
X133800000Y-110280000D01*
X137750000Y-100875000D02*
X140510000Y-98115000D01*
X133800000Y-108975000D02*
X137750000Y-105025000D01*
X140510000Y-98115000D02*
X140510000Y-94115000D01*
X137750000Y-105025000D02*
X137750000Y-100875000D01*
%TO.N,Net-(U1-DEC2)*%
D23*
X166892506Y-135755000D02*
X165955189Y-136692317D01*
X167305000Y-135755000D02*
X167715000Y-136165000D01*
X168160000Y-137125000D02*
X168255000Y-137125000D01*
X167715000Y-136165000D02*
X167715000Y-136680000D01*
X168255000Y-137125000D02*
X168355000Y-137225000D01*
X165955189Y-136644811D02*
X166002695Y-136644811D01*
X167715000Y-136680000D02*
X168160000Y-137125000D01*
X166892506Y-135755000D02*
X167305000Y-135755000D01*
X165870000Y-136730000D02*
X165955189Y-136644811D01*
%TO.N,SWDCLK*%
X133135000Y-132185000D02*
X133135000Y-131695000D01*
X133135000Y-131695000D02*
X133630000Y-131200000D01*
X155930000Y-131520000D02*
X157382818Y-131520000D01*
X155565000Y-119165000D02*
X155565000Y-121150000D01*
X169145000Y-129630000D02*
X169145000Y-131545000D01*
X171176401Y-144825070D02*
X169976471Y-146025000D01*
X169590000Y-126120000D02*
X169925000Y-126455000D01*
X138450000Y-121575000D02*
X138450000Y-120875000D01*
X170210000Y-131955000D02*
X170575000Y-131590000D01*
X154375000Y-117975000D02*
X155565000Y-119165000D01*
X170818317Y-142746012D02*
X171176401Y-143104096D01*
X170575000Y-130150000D02*
X176335000Y-124390000D01*
X168776471Y-146025000D02*
X167690000Y-147111471D01*
X158152818Y-130750000D02*
X164305000Y-130750000D01*
X138450000Y-120875000D02*
X141350000Y-117975000D01*
X169925000Y-128850000D02*
X169145000Y-129630000D01*
X169925000Y-126455000D02*
X169925000Y-128850000D01*
X168935000Y-126120000D02*
X169590000Y-126120000D01*
X169976471Y-146025000D02*
X168776471Y-146025000D01*
X169145000Y-131545000D02*
X169555000Y-131955000D01*
X155570000Y-131160000D02*
X155930000Y-131520000D01*
X141350000Y-117975000D02*
X154375000Y-117975000D01*
X155570000Y-121155000D02*
X155570000Y-131160000D01*
X170575000Y-131590000D02*
X170575000Y-130150000D01*
X171176401Y-143104096D02*
X171176401Y-144825070D01*
X167690000Y-147111471D02*
X167690000Y-147205000D01*
X133630000Y-126395000D02*
X138450000Y-121575000D01*
X169555000Y-131955000D02*
X170210000Y-131955000D01*
X155565000Y-121150000D02*
X155570000Y-121155000D01*
X133630000Y-131200000D02*
X133630000Y-126395000D01*
X164305000Y-130750000D02*
X168935000Y-126120000D01*
X169640002Y-142746012D02*
X170818317Y-142746012D01*
X157382818Y-131520000D02*
X158152818Y-130750000D01*
X176335000Y-124390000D02*
X177200000Y-124390000D01*
%TO.N,Net-(U1-DECUSB)*%
X162840831Y-143169071D02*
X161794071Y-143169071D01*
X161794071Y-143169071D02*
X160675000Y-142050000D01*
D24*
X160258578Y-142050000D02*
X160046788Y-141838210D01*
X160675000Y-142050000D02*
X160258578Y-142050000D01*
%TO.N,P0.18{slash}RESET*%
D23*
X159376471Y-137375000D02*
X159770180Y-137375000D01*
X159770180Y-137375000D02*
X165050000Y-142654820D01*
X155349998Y-133500000D02*
X136025000Y-133500000D01*
X165050000Y-142654820D02*
X165050000Y-143200002D01*
X156250000Y-133500000D02*
X155349998Y-133500000D01*
X155990000Y-133500000D02*
X159025000Y-136535000D01*
X158500000Y-131150000D02*
X156250000Y-133400000D01*
X164950000Y-131150000D02*
X158500000Y-131150000D01*
X159025000Y-137023529D02*
X159376471Y-137375000D01*
X157450000Y-134700000D02*
X156250000Y-133500000D01*
X155349998Y-133500000D02*
X155990000Y-133500000D01*
X159025000Y-136535000D02*
X159025000Y-137023529D01*
X156250000Y-133400000D02*
X156250000Y-133500000D01*
X134000000Y-135525000D02*
X134000000Y-136300000D01*
X136025000Y-133500000D02*
X134000000Y-135525000D01*
X169175000Y-126925000D02*
X164950000Y-131150000D01*
%TO.N,SWDIO*%
X167825002Y-143376475D02*
X167825002Y-142085563D01*
X164056293Y-143700002D02*
X163556291Y-143200000D01*
X165310563Y-143700002D02*
X164056293Y-143700002D01*
X177200000Y-121850000D02*
X176925000Y-121850000D01*
X167561399Y-141821960D02*
X167188605Y-141821960D01*
X172150000Y-126625000D02*
X172050000Y-126625000D01*
X167188605Y-141821960D02*
X165310563Y-143700002D01*
X176925000Y-121850000D02*
X172150000Y-126625000D01*
X168625000Y-144176473D02*
X167825002Y-143376475D01*
X167825002Y-142085563D02*
X167561399Y-141821960D01*
%TO.N,D- USB-C*%
X157925000Y-143475000D02*
X155625000Y-141175000D01*
X161575000Y-144800000D02*
X161500000Y-144725000D01*
X160650000Y-144725000D02*
X159400000Y-143475000D01*
X161500000Y-144725000D02*
X160650000Y-144725000D01*
X159400000Y-143475000D02*
X157925000Y-143475000D01*
X155625000Y-141175000D02*
X155625000Y-135300000D01*
%TO.N,D+ USB-C*%
X146700000Y-146050000D02*
X148175000Y-147525000D01*
X148175000Y-147525000D02*
X160305636Y-147525000D01*
X160305636Y-147525000D02*
X163065318Y-144765318D01*
X126450000Y-138475000D02*
X127000000Y-137925000D01*
X127000000Y-137925000D02*
X143400000Y-137925000D01*
X143400000Y-137925000D02*
X146700000Y-141225000D01*
X126175000Y-138475000D02*
X126450000Y-138475000D01*
X146700000Y-141225000D02*
X146700000Y-146050000D01*
%TO.N,DEC4*%
X162450000Y-137477277D02*
X162450000Y-135850000D01*
%TO.N,P0.00{slash}XL1*%
D24*
X162366605Y-138466603D02*
X162366605Y-138558581D01*
D23*
X159375000Y-135475000D02*
X162366605Y-138466603D01*
%TO.N,DEC3*%
X167270000Y-139161750D02*
X167528047Y-138903703D01*
X168086742Y-141386742D02*
X168291865Y-141181619D01*
X167270000Y-139440000D02*
X167270000Y-139161750D01*
X168086742Y-141842378D02*
X168086742Y-141386742D01*
X167422423Y-139592423D02*
X167270000Y-139440000D01*
X167924999Y-139914605D02*
X167602817Y-139592423D01*
X170350000Y-143350000D02*
X168655000Y-143350000D01*
X168291865Y-141181619D02*
X168291865Y-140586709D01*
X170352625Y-143352625D02*
X170350000Y-143350000D01*
X170576401Y-143352625D02*
X170352625Y-143352625D01*
X168315000Y-142070636D02*
X168086742Y-141842378D01*
X167924999Y-140264527D02*
X167924999Y-139914605D01*
X168655000Y-143350000D02*
X168315000Y-143010000D01*
X167528047Y-138903703D02*
X167528047Y-138744564D01*
X168291865Y-140586709D02*
X167969683Y-140264527D01*
X167602817Y-139592423D02*
X167422423Y-139592423D01*
X167969683Y-140264527D02*
X167924999Y-140264527D01*
X168315000Y-143010000D02*
X168315000Y-142070636D01*
%TO.N,P0.01{slash}XL2*%
X164075000Y-135500000D02*
X163825000Y-135750000D01*
X163593708Y-139331292D02*
X162575001Y-139331292D01*
X163825000Y-135750000D02*
X163825000Y-139100000D01*
X163825000Y-139100000D02*
X163593708Y-139331292D01*
%TO.N,P1.07*%
X168825000Y-137965000D02*
X169062941Y-137965000D01*
X168400000Y-102375000D02*
X166100000Y-102375000D01*
X165900000Y-111275000D02*
X169350000Y-107825000D01*
X159673000Y-95898000D02*
X159673000Y-84235000D01*
X168232697Y-137849998D02*
X168232699Y-137850000D01*
X169062941Y-137965000D02*
X169064706Y-137963235D01*
X170550000Y-123875000D02*
X165900000Y-119225000D01*
X166100000Y-102375000D02*
X165500000Y-101775000D01*
X170550000Y-128799314D02*
X170550000Y-123875000D01*
X169350000Y-103325000D02*
X168400000Y-102375000D01*
X169350000Y-107825000D02*
X169350000Y-103325000D01*
X167741865Y-140814527D02*
X166967430Y-140814527D01*
X164780722Y-138627819D02*
X164780722Y-138172183D01*
X169064706Y-137963235D02*
X169561764Y-137963235D01*
X169561764Y-137963235D02*
X170025000Y-137499999D01*
X165500000Y-101775000D02*
X165500000Y-101725000D01*
X165500000Y-101725000D02*
X159673000Y-95898000D01*
X164780722Y-138172183D02*
X165102907Y-137849998D01*
X165900000Y-119225000D02*
X165900000Y-111275000D01*
X169900000Y-129449314D02*
X170550000Y-128799314D01*
X166967430Y-140814527D02*
X164780722Y-138627819D01*
X165102907Y-137849998D02*
X168232697Y-137849998D01*
X170025000Y-137499999D02*
X170025000Y-136616091D01*
X168710000Y-137850000D02*
X168825000Y-137965000D01*
X168232699Y-137850000D02*
X168710000Y-137850000D01*
X169900000Y-131305000D02*
X169900000Y-129449314D01*
%TO.N,P1.09*%
X159615000Y-122410000D02*
X159673000Y-122410000D01*
X157145000Y-130932818D02*
X157145000Y-124880000D01*
X157168591Y-130956409D02*
X157145000Y-130932818D01*
X157145000Y-124880000D02*
X159615000Y-122410000D01*
%TO.N,P1.06*%
X140510000Y-130305000D02*
X140510000Y-122410000D01*
X151990000Y-132950000D02*
X151715000Y-132675000D01*
X151715000Y-132675000D02*
X142880000Y-132675000D01*
X142880000Y-132675000D02*
X140510000Y-130305000D01*
%TO.N,P1.05*%
X146295000Y-116820000D02*
X140510000Y-111035000D01*
X150950000Y-116820000D02*
X146295000Y-116820000D01*
X151435000Y-117305000D02*
X150950000Y-116820000D01*
X140510000Y-111035000D02*
X140510000Y-103235000D01*
%TO.N,P1.03*%
X124795000Y-132870000D02*
X136095000Y-132870000D01*
X121035000Y-129110000D02*
X124795000Y-132870000D01*
X121035000Y-122410000D02*
X121035000Y-129110000D01*
%TO.N,P1.02*%
X135485000Y-116710000D02*
X126085000Y-116710000D01*
X121035000Y-111660000D02*
X121035000Y-103235000D01*
X126085000Y-116710000D02*
X121035000Y-111660000D01*
X135955000Y-117180000D02*
X135485000Y-116710000D01*
%TO.N,P1.01*%
D24*
X165875000Y-146200000D02*
X167321578Y-144753422D01*
D23*
X132750000Y-97975000D02*
X124200000Y-97975000D01*
X124200000Y-97975000D02*
X121035000Y-94810000D01*
X121035000Y-94810000D02*
X121035000Y-84235000D01*
D24*
X164655000Y-146200000D02*
X165875000Y-146200000D01*
X167321578Y-144753422D02*
X167321578Y-142969918D01*
%TD*%
M02*
