%TF.GenerationSoftware,KiCad,Pcbnew,10.0.3*%
%TF.CreationDate,2026-06-15T13:38:46+02:00*%
%TF.ProjectId,Macropad,4d616372-6f70-4616-942e-6b696361645f,rev?*%
%TF.SameCoordinates,Original*%
%TF.FileFunction,Copper,L3,Inr*%
%TF.FilePolarity,Positive*%
%FSLAX46Y46*%
G04 Gerber Fmt 4.6, Leading zero omitted, Abs format (unit mm)*
G04 Created by KiCad (PCBNEW 10.0.3) date 2026-06-15 13:38:46*
%MOMM*%
%LPD*%
G01*
G04 APERTURE LIST*
G04 Aperture macros list*
%AMRoundRect*
0 Rectangle with rounded corners*
0 $1 Rounding radius*
0 $2 $3 $4 $5 $6 $7 $8 $9 X,Y pos of 4 corners*
0 Add a 4 corners polygon primitive as box body*
4,1,4,$2,$3,$4,$5,$6,$7,$8,$9,$2,$3,0*
0 Add four circle primitives for the rounded corners*
1,1,$1+$1,$2,$3*
1,1,$1+$1,$4,$5*
1,1,$1+$1,$6,$7*
1,1,$1+$1,$8,$9*
0 Add four rect primitives between the rounded corners*
20,1,$1+$1,$2,$3,$4,$5,0*
20,1,$1+$1,$4,$5,$6,$7,0*
20,1,$1+$1,$6,$7,$8,$9,0*
20,1,$1+$1,$8,$9,$2,$3,0*%
G04 Aperture macros list end*
%TA.AperFunction,ComponentPad*%
%ADD10O,0.900000X2.000000*%
%TD*%
%TA.AperFunction,ComponentPad*%
%ADD11O,0.900000X1.700000*%
%TD*%
%TA.AperFunction,ComponentPad*%
%ADD12R,1.700000X1.700000*%
%TD*%
%TA.AperFunction,ComponentPad*%
%ADD13C,1.700000*%
%TD*%
%TA.AperFunction,ComponentPad*%
%ADD14C,0.400000*%
%TD*%
%TA.AperFunction,ComponentPad*%
%ADD15R,2.000000X2.000000*%
%TD*%
%TA.AperFunction,ComponentPad*%
%ADD16C,2.000000*%
%TD*%
%TA.AperFunction,ComponentPad*%
%ADD17R,3.200000X2.000000*%
%TD*%
%TA.AperFunction,ComponentPad*%
%ADD18RoundRect,0.250000X-0.350000X-0.625000X0.350000X-0.625000X0.350000X0.625000X-0.350000X0.625000X0*%
%TD*%
%TA.AperFunction,ComponentPad*%
%ADD19O,1.200000X1.750000*%
%TD*%
%TA.AperFunction,ViaPad*%
%ADD20C,0.600000*%
%TD*%
%TA.AperFunction,ViaPad*%
%ADD21C,0.500000*%
%TD*%
%TA.AperFunction,Conductor*%
%ADD22C,0.200000*%
%TD*%
%TA.AperFunction,Conductor*%
%ADD23C,0.150000*%
%TD*%
G04 APERTURE END LIST*
D10*
%TO.N,GND*%
%TO.C,J2*%
X121100000Y-140505000D03*
X129750000Y-140505000D03*
D11*
X121100000Y-144675000D03*
X129750000Y-144675000D03*
%TD*%
D12*
%TO.N,GND*%
%TO.C,Display1*%
X155700000Y-62550000D03*
D13*
%TO.N,MCU System VDD*%
X155700000Y-65090000D03*
%TO.N,P1.14 Display SCL*%
X155700000Y-67630000D03*
%TO.N,P1.15 Display SDA*%
X155700000Y-70170000D03*
%TD*%
D14*
%TO.N,GND*%
%TO.C,U2*%
X148350000Y-139885000D03*
X147770000Y-139305000D03*
X148930000Y-139305000D03*
X147770000Y-140465000D03*
X148930000Y-140465000D03*
%TD*%
D12*
%TO.N,MCU System VDD*%
%TO.C,MCU_flash1*%
X177200000Y-119310000D03*
D13*
%TO.N,SWDIO*%
X177200000Y-121850000D03*
%TO.N,SWDCLK*%
X177200000Y-124390000D03*
%TO.N,P0.18{slash}RESET*%
X177200000Y-126930000D03*
%TO.N,GND*%
X177200000Y-129470000D03*
%TD*%
D15*
%TO.N,P1.10 CLK*%
%TO.C,SW11*%
X160100000Y-63700000D03*
D16*
%TO.N,P1.11 DT*%
X160100000Y-68700000D03*
%TO.N,GND*%
X160100000Y-66200000D03*
D17*
%TO.N,N/C*%
X167600000Y-60600000D03*
X167600000Y-71800000D03*
D16*
%TO.N,P1.12 SW*%
X174600000Y-68700000D03*
%TO.N,GND*%
X174600000Y-63700000D03*
%TD*%
D18*
%TO.N,Net-(J1-Pin_1)*%
%TO.C,J1*%
X136100000Y-145875000D03*
D19*
%TO.N,GND*%
X138100000Y-145875000D03*
%TD*%
D20*
%TO.N,GND*%
X157425000Y-142125000D03*
X152400000Y-146775000D03*
X165050000Y-132900000D03*
X145150000Y-136450000D03*
X172600000Y-81700000D03*
X171275000Y-131975000D03*
X159625000Y-136775000D03*
X124225000Y-136650000D03*
X165000000Y-140775000D03*
X162925000Y-146775000D03*
X169025000Y-146625000D03*
X172950000Y-118375000D03*
X170025000Y-138235000D03*
X148100000Y-135200000D03*
D21*
X153437000Y-100695000D03*
D20*
X152880000Y-62595000D03*
X145450000Y-144050000D03*
X167645000Y-65065000D03*
X171130000Y-145855000D03*
D21*
X133962000Y-100695000D03*
X133962000Y-81695000D03*
X133962000Y-119870000D03*
D20*
X143225000Y-145875000D03*
X127250000Y-136650000D03*
X169313235Y-137363235D03*
X172300000Y-137375000D03*
X149750000Y-142525000D03*
X148275000Y-142875000D03*
X131250000Y-139100000D03*
D21*
X153437000Y-81695000D03*
D20*
X152800000Y-138625000D03*
D21*
X153455000Y-119800000D03*
X172850000Y-100695000D03*
%TO.N,P1.08*%
X162625000Y-141317182D03*
X158850000Y-130200000D03*
D20*
%TO.N,USB-C VBUS*%
X158075000Y-144075000D03*
X154550000Y-135325000D03*
X156950000Y-146775000D03*
D21*
%TO.N,P1.04*%
X133660000Y-110420000D03*
X169190452Y-142145672D03*
%TO.N,P1.15 Display SDA*%
X165405189Y-137146884D03*
%TO.N,Net-(U1-DEC2)*%
X165955189Y-136692317D03*
D20*
X168355000Y-137225000D03*
D21*
%TO.N,P1.10 CLK*%
X166575380Y-137019620D03*
%TO.N,SWDCLK*%
X133135000Y-132185000D03*
X167690000Y-147205000D03*
D20*
X169640002Y-142746012D03*
%TO.N,Net-(U1-DECUSB)*%
X162840831Y-143169071D03*
X160046788Y-141838210D03*
%TO.N,P0.18{slash}RESET*%
X169175000Y-126925000D03*
X157450000Y-134700000D03*
X165050000Y-143200002D03*
X134000000Y-136300000D03*
D21*
%TO.N,SWDIO*%
X172050000Y-126625000D03*
D20*
X168625000Y-144176473D03*
X155350000Y-131750000D03*
X163795000Y-127865000D03*
X163556291Y-143200000D03*
X165775000Y-127930000D03*
%TO.N,D- USB-C*%
X161575000Y-144800000D03*
X155625000Y-135300000D03*
%TO.N,D+ USB-C*%
X126175000Y-138475000D03*
X163065318Y-144765318D03*
%TO.N,DEC4*%
X168432369Y-138898198D03*
X162450000Y-135850000D03*
X164325000Y-136850000D03*
X162450000Y-137477277D03*
X169575000Y-145375000D03*
D21*
%TO.N,P1.14 Display SCL*%
X165330722Y-138400001D03*
%TO.N,P1.12 SW*%
X166030724Y-138399998D03*
%TO.N,P1.11 DT*%
X166773185Y-138400001D03*
D20*
%TO.N,P0.00{slash}XL1*%
X162366605Y-138558581D03*
X159375000Y-135475000D03*
%TO.N,DEC3*%
X170576401Y-143352625D03*
X167528047Y-138744564D03*
%TO.N,P0.01{slash}XL2*%
X164075000Y-135500000D03*
X162575001Y-139331292D03*
D21*
%TO.N,P1.07*%
X167741865Y-140814527D03*
X170025000Y-136616091D03*
X169900000Y-131305000D03*
%TO.N,P1.09*%
X161274187Y-141871368D03*
X157168591Y-130956409D03*
%TO.N,P1.06*%
X168636742Y-141614560D03*
X151990000Y-132950000D03*
%TO.N,P1.05*%
X151435000Y-117305000D03*
X167374999Y-140142423D03*
%TO.N,P1.03*%
X167375002Y-142271960D03*
X136095000Y-132870000D03*
%TO.N,P1.02*%
X168865000Y-142770000D03*
X135955000Y-117180000D03*
%TO.N,P1.01*%
X167321578Y-142969918D03*
X164655000Y-146200000D03*
X132750000Y-97975000D03*
%TD*%
%TO.N,P1.08*%
D22*
X162625000Y-141317182D02*
X160428235Y-139120417D01*
X160428235Y-139120417D02*
X160428235Y-131778235D01*
X160428235Y-131778235D02*
X158850000Y-130200000D01*
%TO.N,P1.04*%
D23*
X131425000Y-126450000D02*
X131425000Y-122850000D01*
X169942199Y-144800000D02*
X167365330Y-144800000D01*
X133660000Y-132308834D02*
X133660000Y-128685000D01*
X169190452Y-142145672D02*
X170182621Y-142145672D01*
X170182621Y-142145672D02*
X171151401Y-143114452D01*
X131425000Y-122850000D02*
X132825000Y-121450000D01*
X132825000Y-113375000D02*
X133660000Y-112540000D01*
X171151401Y-143590798D02*
X169942199Y-144800000D01*
X149563173Y-147350000D02*
X138388173Y-136175000D01*
X133660000Y-128685000D02*
X131425000Y-126450000D01*
X132825000Y-121450000D02*
X132825000Y-113375000D01*
X137526166Y-136175000D02*
X133660000Y-132308834D01*
X164815330Y-147350000D02*
X149563173Y-147350000D01*
X133660000Y-112540000D02*
X133660000Y-110420000D01*
X171151401Y-143114452D02*
X171151401Y-143590798D01*
X138388173Y-136175000D02*
X137526166Y-136175000D01*
X167365330Y-144800000D02*
X164815330Y-147350000D01*
%TO.N,P1.15 Display SDA*%
X165405189Y-137146884D02*
X165405189Y-134068362D01*
X165405189Y-134068362D02*
X155700000Y-124363173D01*
X155700000Y-124363173D02*
X155700000Y-70170000D01*
X165330000Y-137071695D02*
X165405189Y-137146884D01*
%TO.N,P1.10 CLK*%
D22*
X160100000Y-63700000D02*
X158315000Y-65485000D01*
X170300000Y-127075000D02*
X170300000Y-124875000D01*
X166575380Y-130799620D02*
X170300000Y-127075000D01*
X157850000Y-77705000D02*
X158315000Y-77240000D01*
X170300000Y-124875000D02*
X157850000Y-112425000D01*
X157850000Y-112425000D02*
X157850000Y-77705000D01*
X166575380Y-137019620D02*
X166575380Y-130799620D01*
X158315000Y-65485000D02*
X158315000Y-77240000D01*
%TO.N,SWDCLK*%
X133630000Y-133078529D02*
X148416471Y-147865000D01*
X148416471Y-147865000D02*
X167030000Y-147865000D01*
X133210000Y-132260000D02*
X133210000Y-132650000D01*
X133135000Y-132185000D02*
X133210000Y-132260000D01*
X133630000Y-133070000D02*
X133630000Y-133078529D01*
X133210000Y-132650000D02*
X133630000Y-133070000D01*
X167030000Y-147865000D02*
X167690000Y-147205000D01*
%TO.N,SWDIO*%
X156129363Y-132529363D02*
X155350000Y-131750000D01*
X163556291Y-143200000D02*
X163556291Y-143177424D01*
X163556291Y-143177424D02*
X162945755Y-142566888D01*
X163795000Y-127865000D02*
X165710000Y-127865000D01*
X162945755Y-142566888D02*
X161333310Y-142566888D01*
X165710000Y-127865000D02*
X165775000Y-127930000D01*
X160824187Y-142057765D02*
X160824187Y-141728451D01*
X161333310Y-142566888D02*
X160824187Y-142057765D01*
X160824187Y-141728451D02*
X156129363Y-137033627D01*
X156129363Y-137033627D02*
X156129363Y-132529363D01*
%TO.N,DEC4*%
X169086742Y-141695672D02*
X169086742Y-141421742D01*
X169756107Y-145375000D02*
X171426401Y-143704706D01*
X164325000Y-138030000D02*
X164325000Y-136850000D01*
X167836026Y-139956026D02*
X167824999Y-139956026D01*
X168432369Y-138898198D02*
X168086003Y-139244564D01*
X170121530Y-141695672D02*
X169086742Y-141695672D01*
X168029527Y-140364527D02*
X168029527Y-140149527D01*
X169086742Y-141421742D02*
X168029527Y-140364527D01*
X171426401Y-143000543D02*
X170121530Y-141695672D01*
X168086003Y-139244564D02*
X167113537Y-139244564D01*
X171426401Y-143704706D02*
X171426401Y-143000543D01*
X167113537Y-139244564D02*
X165539564Y-139244564D01*
X168029527Y-140149527D02*
X167836026Y-139956026D01*
X167824999Y-139956026D02*
X167113537Y-139244564D01*
X165539564Y-139244564D02*
X164325000Y-138030000D01*
X169575000Y-145375000D02*
X169756107Y-145375000D01*
%TO.N,P1.14 Display SCL*%
X164855189Y-137364347D02*
X164855189Y-134244811D01*
X164855189Y-134244811D02*
X164880189Y-134219811D01*
D23*
X165330722Y-138400001D02*
X165330722Y-137839880D01*
D22*
X154265000Y-123604622D02*
X154265000Y-69065000D01*
X164880189Y-134219811D02*
X154265000Y-123604622D01*
X154265000Y-69065000D02*
X155700000Y-67630000D01*
D23*
X165330722Y-138400001D02*
X165445000Y-138285723D01*
X165330722Y-137839880D02*
X164855189Y-137364347D01*
D22*
X165445000Y-138348709D02*
X165445000Y-138285723D01*
X165443709Y-138350000D02*
X165445000Y-138348709D01*
%TO.N,P1.12 SW*%
X166030724Y-138399998D02*
X166030724Y-138364644D01*
X174600000Y-78575000D02*
X174600000Y-68700000D01*
X172450000Y-129475000D02*
X173450000Y-128475000D01*
X168505000Y-129475000D02*
X172450000Y-129475000D01*
X167305000Y-130675000D02*
X168505000Y-129475000D01*
X173450000Y-79725000D02*
X174600000Y-78575000D01*
X173450000Y-128475000D02*
X173450000Y-79725000D01*
X167305000Y-137090368D02*
X167305000Y-130675000D01*
X166030724Y-138364644D02*
X167305000Y-137090368D01*
%TO.N,P1.11 DT*%
X176700000Y-67375000D02*
X175400000Y-66075000D01*
X174000000Y-66075000D02*
X171375000Y-68700000D01*
X169850000Y-130175000D02*
X173100000Y-130175000D01*
X173100000Y-130175000D02*
X174100000Y-129175000D01*
X174100000Y-81375000D02*
X176700000Y-78775000D01*
X171375000Y-68700000D02*
X160100000Y-68700000D01*
X176700000Y-78775000D02*
X176700000Y-67375000D01*
X175400000Y-66075000D02*
X174000000Y-66075000D01*
X167748303Y-137424883D02*
X167755000Y-137424883D01*
X174100000Y-129175000D02*
X174100000Y-81375000D01*
X166773185Y-138400001D02*
X167748303Y-137424883D01*
X167755000Y-137424883D02*
X167755000Y-132270000D01*
X167755000Y-132270000D02*
X169850000Y-130175000D01*
D23*
X166773185Y-138400001D02*
X166804882Y-138400001D01*
%TO.N,P1.07*%
D22*
X170025000Y-136616091D02*
X170025000Y-131430000D01*
X170025000Y-131430000D02*
X169900000Y-131305000D01*
X167741865Y-140738135D02*
X167741865Y-140814527D01*
%TO.N,P1.09*%
X157168591Y-130956409D02*
X156795000Y-131330000D01*
X156795000Y-137275000D02*
X161274187Y-141754187D01*
X161274187Y-141754187D02*
X161274187Y-141871368D01*
X156795000Y-131330000D02*
X156795000Y-137275000D01*
%TO.N,P1.06*%
X152690000Y-133650000D02*
X152690000Y-135188529D01*
X168315000Y-142754314D02*
X168315000Y-142542182D01*
X168636742Y-142220440D02*
X168636742Y-141614560D01*
X167269312Y-143800002D02*
X168315000Y-142754314D01*
X152690000Y-135188529D02*
X161301473Y-143800002D01*
X151990000Y-132950000D02*
X152690000Y-133650000D01*
X168315000Y-142542182D02*
X168636742Y-142220440D01*
X161301473Y-143800002D02*
X167269312Y-143800002D01*
%TO.N,P1.05*%
X163475000Y-137760000D02*
X165375000Y-139660000D01*
X167374999Y-140129999D02*
X167374999Y-140142423D01*
X163475000Y-133380308D02*
X163475000Y-137760000D01*
X152200000Y-118070000D02*
X152200000Y-122105308D01*
X152200000Y-122105308D02*
X163475000Y-133380308D01*
X166905000Y-139660000D02*
X167374999Y-140129999D01*
X165375000Y-139660000D02*
X166905000Y-139660000D01*
X151435000Y-117305000D02*
X152200000Y-118070000D01*
%TO.N,P1.03*%
X158195000Y-131205000D02*
X157215000Y-130225000D01*
X141300000Y-130225000D02*
X138655000Y-132870000D01*
X167314225Y-142266888D02*
X162796888Y-142266888D01*
X157215000Y-130225000D02*
X141300000Y-130225000D01*
X162796888Y-142266888D02*
X158195000Y-137665000D01*
X167319297Y-142271960D02*
X167314225Y-142266888D01*
X158195000Y-137665000D02*
X158195000Y-131205000D01*
X167375002Y-142271960D02*
X167319297Y-142271960D01*
X138655000Y-132870000D02*
X136095000Y-132870000D01*
%TO.N,P1.02*%
X134855000Y-132407818D02*
X135867182Y-133420000D01*
X135867182Y-133420000D02*
X150355785Y-133420000D01*
X162465318Y-145013847D02*
X162816789Y-145365318D01*
X162816789Y-145365318D02*
X166269682Y-145365318D01*
X135955000Y-117180000D02*
X136220000Y-117445000D01*
X150355785Y-133420000D02*
X161135787Y-144200002D01*
X162465318Y-144516789D02*
X162465318Y-145013847D01*
X136220000Y-120070000D02*
X136225000Y-120075000D01*
X166269682Y-145365318D02*
X168865000Y-142770000D01*
X134855000Y-123100000D02*
X134855000Y-132407818D01*
X136225000Y-121730000D02*
X134855000Y-123100000D01*
X161135787Y-144200002D02*
X162148531Y-144200002D01*
X136220000Y-117445000D02*
X136220000Y-120070000D01*
X162148531Y-144200002D02*
X162465318Y-144516789D01*
X136225000Y-120075000D02*
X136225000Y-121730000D01*
%TO.N,P1.01*%
X137690000Y-135800000D02*
X148951471Y-135800000D01*
X136180000Y-134290000D02*
X137690000Y-135800000D01*
X134455000Y-122220000D02*
X134455000Y-132573504D01*
X148951471Y-135800000D02*
X159326471Y-146175000D01*
X163585000Y-146200000D02*
X164655000Y-146200000D01*
X134155000Y-110035000D02*
X135400000Y-111280000D01*
X135950000Y-104840000D02*
X134155000Y-106635000D01*
X136171496Y-134290000D02*
X136180000Y-134290000D01*
X135400000Y-111280000D02*
X135400000Y-121275000D01*
X134850000Y-97975000D02*
X135950000Y-99075000D01*
X135400000Y-121275000D02*
X134455000Y-122220000D01*
X159326471Y-146175000D02*
X163560000Y-146175000D01*
X134155000Y-106635000D02*
X134155000Y-110035000D01*
X134455000Y-132573504D02*
X136171496Y-134290000D01*
X163560000Y-146175000D02*
X163585000Y-146200000D01*
X132750000Y-97975000D02*
X134850000Y-97975000D01*
X135950000Y-99075000D02*
X135950000Y-104840000D01*
%TD*%
%TA.AperFunction,Conductor*%
%TO.N,GND*%
G36*
X171827804Y-143974347D02*
G01*
X171849477Y-144026295D01*
X171869619Y-147965616D01*
X171848213Y-148018052D01*
X171795998Y-148039993D01*
X171795614Y-148039994D01*
X167600366Y-148039671D01*
X167548042Y-148017993D01*
X167526372Y-147965665D01*
X167548044Y-147913348D01*
X167684219Y-147777174D01*
X167736545Y-147755500D01*
X167762477Y-147755500D01*
X167762477Y-147755499D01*
X167902485Y-147717984D01*
X168028015Y-147645509D01*
X168130509Y-147543015D01*
X168202984Y-147417485D01*
X168240499Y-147277477D01*
X168240500Y-147277477D01*
X168240500Y-147132523D01*
X168240499Y-147132522D01*
X168202985Y-146992518D01*
X168202983Y-146992513D01*
X168149859Y-146900500D01*
X168130509Y-146866985D01*
X168028015Y-146764491D01*
X168003780Y-146750499D01*
X167902486Y-146692016D01*
X167902481Y-146692014D01*
X167762477Y-146654500D01*
X167762475Y-146654500D01*
X167617525Y-146654500D01*
X167617523Y-146654500D01*
X167477518Y-146692014D01*
X167477513Y-146692016D01*
X167351984Y-146764491D01*
X167249491Y-146866984D01*
X167177016Y-146992513D01*
X167177014Y-146992518D01*
X167139500Y-147132522D01*
X167139500Y-147158455D01*
X167117826Y-147210781D01*
X166885781Y-147442826D01*
X166833455Y-147464500D01*
X165410519Y-147464500D01*
X165358193Y-147442826D01*
X165336519Y-147390500D01*
X165358193Y-147338174D01*
X167499193Y-145197174D01*
X167551519Y-145175500D01*
X168910334Y-145175500D01*
X168962660Y-145197174D01*
X168984334Y-145249500D01*
X168981812Y-145268653D01*
X168974500Y-145295940D01*
X168974500Y-145454059D01*
X169015421Y-145606779D01*
X169015422Y-145606781D01*
X169015423Y-145606784D01*
X169094480Y-145743716D01*
X169206284Y-145855520D01*
X169343216Y-145934577D01*
X169495940Y-145975499D01*
X169495941Y-145975500D01*
X169495943Y-145975500D01*
X169654059Y-145975500D01*
X169654059Y-145975499D01*
X169806784Y-145934577D01*
X169943716Y-145855520D01*
X170055520Y-145743716D01*
X170134577Y-145606784D01*
X170145500Y-145566017D01*
X170164649Y-145532849D01*
X171723153Y-143974346D01*
X171775478Y-143952673D01*
X171827804Y-143974347D01*
G37*
%TD.AperFunction*%
%TA.AperFunction,Conductor*%
G36*
X179547826Y-57227174D02*
G01*
X179569500Y-57279500D01*
X179569500Y-111452298D01*
X179531167Y-131972518D01*
X179529274Y-132986138D01*
X179507502Y-133038424D01*
X179455274Y-133060000D01*
X172075000Y-133060000D01*
X172084584Y-135106283D01*
X172084652Y-135120653D01*
X172063223Y-135173080D01*
X172011000Y-135194999D01*
X172010653Y-135195000D01*
X170546884Y-135195000D01*
X170500068Y-135214814D01*
X170447577Y-135193542D01*
X170425502Y-135141384D01*
X170425500Y-135140816D01*
X170425500Y-131488689D01*
X170425501Y-131480503D01*
X170425502Y-131480498D01*
X170428023Y-131461359D01*
X170445290Y-131396917D01*
X170450499Y-131377477D01*
X170450500Y-131377477D01*
X170450500Y-131232523D01*
X170450499Y-131232522D01*
X170412985Y-131092518D01*
X170412983Y-131092513D01*
X170340508Y-130966984D01*
X170238015Y-130864491D01*
X170112486Y-130792016D01*
X170112481Y-130792014D01*
X169989349Y-130759020D01*
X169974024Y-130747260D01*
X169956175Y-130739867D01*
X169952348Y-130730627D01*
X169944416Y-130724541D01*
X169941894Y-130705390D01*
X169934502Y-130687541D01*
X169938328Y-130678302D01*
X169937024Y-130668389D01*
X169956175Y-130635217D01*
X169994220Y-130597173D01*
X170046545Y-130575500D01*
X173152726Y-130575500D01*
X173152727Y-130575500D01*
X173254588Y-130548207D01*
X173345913Y-130495480D01*
X174345910Y-129495481D01*
X174345913Y-129495480D01*
X174420480Y-129420913D01*
X174449003Y-129371509D01*
X176200000Y-129371509D01*
X176200000Y-129568490D01*
X176238427Y-129761682D01*
X176238430Y-129761693D01*
X176313810Y-129943677D01*
X176365747Y-130021406D01*
X176731979Y-129655174D01*
X176734075Y-129662993D01*
X176799901Y-129777007D01*
X176892993Y-129870099D01*
X177007007Y-129935925D01*
X177014822Y-129938019D01*
X176648591Y-130304250D01*
X176648591Y-130304251D01*
X176726322Y-130356189D01*
X176908306Y-130431569D01*
X176908317Y-130431572D01*
X177101510Y-130470000D01*
X177298490Y-130470000D01*
X177491682Y-130431572D01*
X177491693Y-130431569D01*
X177673675Y-130356190D01*
X177751407Y-130304251D01*
X177751407Y-130304250D01*
X177385176Y-129938019D01*
X177392993Y-129935925D01*
X177507007Y-129870099D01*
X177600099Y-129777007D01*
X177665925Y-129662993D01*
X177668019Y-129655176D01*
X178034250Y-130021407D01*
X178034251Y-130021407D01*
X178086190Y-129943675D01*
X178161569Y-129761693D01*
X178161572Y-129761682D01*
X178200000Y-129568490D01*
X178200000Y-129371509D01*
X178161572Y-129178317D01*
X178161569Y-129178306D01*
X178086189Y-128996322D01*
X178034250Y-128918591D01*
X177668019Y-129284821D01*
X177665925Y-129277007D01*
X177600099Y-129162993D01*
X177507007Y-129069901D01*
X177392993Y-129004075D01*
X177385174Y-129001980D01*
X177751407Y-128635747D01*
X177673677Y-128583810D01*
X177491693Y-128508430D01*
X177491682Y-128508427D01*
X177298490Y-128470000D01*
X177101510Y-128470000D01*
X176908317Y-128508427D01*
X176908306Y-128508430D01*
X176726322Y-128583810D01*
X176648591Y-128635747D01*
X177014823Y-129001980D01*
X177007007Y-129004075D01*
X176892993Y-129069901D01*
X176799901Y-129162993D01*
X176734075Y-129277007D01*
X176731980Y-129284823D01*
X176365747Y-128918591D01*
X176313810Y-128996322D01*
X176238430Y-129178306D01*
X176238427Y-129178317D01*
X176200000Y-129371509D01*
X174449003Y-129371509D01*
X174473207Y-129329587D01*
X174475665Y-129320412D01*
X174500501Y-129227727D01*
X174500501Y-129122273D01*
X174500501Y-129117744D01*
X174500500Y-129117726D01*
X174500500Y-126839453D01*
X176049500Y-126839453D01*
X176049500Y-127020546D01*
X176077828Y-127199406D01*
X176077831Y-127199419D01*
X176133787Y-127371635D01*
X176133788Y-127371638D01*
X176133789Y-127371639D01*
X176216004Y-127532994D01*
X176322447Y-127679501D01*
X176450499Y-127807553D01*
X176597006Y-127913996D01*
X176758361Y-127996211D01*
X176758364Y-127996212D01*
X176758363Y-127996212D01*
X176930580Y-128052168D01*
X176930586Y-128052169D01*
X176930591Y-128052171D01*
X177049833Y-128071057D01*
X177109453Y-128080500D01*
X177109454Y-128080500D01*
X177290547Y-128080500D01*
X177335261Y-128073417D01*
X177469409Y-128052171D01*
X177469416Y-128052168D01*
X177469419Y-128052168D01*
X177602102Y-128009057D01*
X177641639Y-127996211D01*
X177802994Y-127913996D01*
X177949501Y-127807553D01*
X178077553Y-127679501D01*
X178183996Y-127532994D01*
X178266211Y-127371639D01*
X178312364Y-127229592D01*
X178322168Y-127199419D01*
X178322168Y-127199416D01*
X178322171Y-127199409D01*
X178350500Y-127020546D01*
X178350500Y-126839454D01*
X178322171Y-126660591D01*
X178322169Y-126660586D01*
X178322168Y-126660580D01*
X178266212Y-126488364D01*
X178266211Y-126488363D01*
X178266211Y-126488361D01*
X178183996Y-126327006D01*
X178077553Y-126180499D01*
X177949501Y-126052447D01*
X177864128Y-125990420D01*
X177802996Y-125946005D01*
X177641635Y-125863787D01*
X177641636Y-125863787D01*
X177469419Y-125807831D01*
X177469406Y-125807828D01*
X177290547Y-125779500D01*
X177290546Y-125779500D01*
X177109454Y-125779500D01*
X177109453Y-125779500D01*
X176930593Y-125807828D01*
X176930580Y-125807831D01*
X176758364Y-125863787D01*
X176597004Y-125946005D01*
X176597003Y-125946005D01*
X176450503Y-126052444D01*
X176450499Y-126052447D01*
X176322447Y-126180499D01*
X176322444Y-126180502D01*
X176322444Y-126180503D01*
X176216005Y-126327003D01*
X176216005Y-126327004D01*
X176133787Y-126488364D01*
X176077831Y-126660580D01*
X176077828Y-126660593D01*
X176049500Y-126839453D01*
X174500500Y-126839453D01*
X174500500Y-124299453D01*
X176049500Y-124299453D01*
X176049500Y-124480546D01*
X176077828Y-124659406D01*
X176077831Y-124659419D01*
X176133787Y-124831635D01*
X176216005Y-124992995D01*
X176216005Y-124992996D01*
X176247415Y-125036228D01*
X176322447Y-125139501D01*
X176450499Y-125267553D01*
X176597006Y-125373996D01*
X176758361Y-125456211D01*
X176758364Y-125456212D01*
X176758363Y-125456212D01*
X176930580Y-125512168D01*
X176930586Y-125512169D01*
X176930591Y-125512171D01*
X177049833Y-125531057D01*
X177109453Y-125540500D01*
X177109454Y-125540500D01*
X177290547Y-125540500D01*
X177335261Y-125533417D01*
X177469409Y-125512171D01*
X177469416Y-125512168D01*
X177469419Y-125512168D01*
X177547601Y-125486765D01*
X177641639Y-125456211D01*
X177802994Y-125373996D01*
X177949501Y-125267553D01*
X178077553Y-125139501D01*
X178183996Y-124992994D01*
X178266211Y-124831639D01*
X178310727Y-124694632D01*
X178322168Y-124659419D01*
X178322168Y-124659416D01*
X178322171Y-124659409D01*
X178350500Y-124480546D01*
X178350500Y-124299454D01*
X178322171Y-124120591D01*
X178322169Y-124120586D01*
X178322168Y-124120580D01*
X178266212Y-123948364D01*
X178266211Y-123948363D01*
X178266211Y-123948361D01*
X178183996Y-123787006D01*
X178077553Y-123640499D01*
X177949501Y-123512447D01*
X177853527Y-123442718D01*
X177802996Y-123406005D01*
X177641635Y-123323787D01*
X177641636Y-123323787D01*
X177469419Y-123267831D01*
X177469406Y-123267828D01*
X177290547Y-123239500D01*
X177290546Y-123239500D01*
X177109454Y-123239500D01*
X177109453Y-123239500D01*
X176930593Y-123267828D01*
X176930580Y-123267831D01*
X176758364Y-123323787D01*
X176597004Y-123406005D01*
X176597003Y-123406005D01*
X176450503Y-123512444D01*
X176450499Y-123512447D01*
X176322447Y-123640499D01*
X176322444Y-123640502D01*
X176322444Y-123640503D01*
X176216005Y-123787003D01*
X176216005Y-123787004D01*
X176133787Y-123948364D01*
X176077831Y-124120580D01*
X176077828Y-124120593D01*
X176049500Y-124299453D01*
X174500500Y-124299453D01*
X174500500Y-121759453D01*
X176049500Y-121759453D01*
X176049500Y-121940546D01*
X176077828Y-122119406D01*
X176077831Y-122119419D01*
X176133787Y-122291635D01*
X176133788Y-122291638D01*
X176133789Y-122291639D01*
X176216004Y-122452994D01*
X176322447Y-122599501D01*
X176450499Y-122727553D01*
X176597006Y-122833996D01*
X176758361Y-122916211D01*
X176758364Y-122916212D01*
X176758363Y-122916212D01*
X176930580Y-122972168D01*
X176930586Y-122972169D01*
X176930591Y-122972171D01*
X177004412Y-122983863D01*
X177109453Y-123000500D01*
X177109454Y-123000500D01*
X177290547Y-123000500D01*
X177335261Y-122993417D01*
X177469409Y-122972171D01*
X177469416Y-122972168D01*
X177469419Y-122972168D01*
X177547601Y-122946765D01*
X177641639Y-122916211D01*
X177802994Y-122833996D01*
X177949501Y-122727553D01*
X178077553Y-122599501D01*
X178183996Y-122452994D01*
X178266211Y-122291639D01*
X178322171Y-122119409D01*
X178350500Y-121940546D01*
X178350500Y-121759454D01*
X178322171Y-121580591D01*
X178322169Y-121580586D01*
X178322168Y-121580580D01*
X178266212Y-121408364D01*
X178266211Y-121408363D01*
X178266211Y-121408361D01*
X178183996Y-121247006D01*
X178077553Y-121100499D01*
X177949501Y-120972447D01*
X177828452Y-120884500D01*
X177802996Y-120866005D01*
X177641635Y-120783787D01*
X177641636Y-120783787D01*
X177469419Y-120727831D01*
X177469406Y-120727828D01*
X177290547Y-120699500D01*
X177290546Y-120699500D01*
X177109454Y-120699500D01*
X177109453Y-120699500D01*
X176930593Y-120727828D01*
X176930580Y-120727831D01*
X176758364Y-120783787D01*
X176597004Y-120866005D01*
X176597003Y-120866005D01*
X176450503Y-120972444D01*
X176450499Y-120972447D01*
X176322447Y-121100499D01*
X176322444Y-121100502D01*
X176322444Y-121100503D01*
X176216005Y-121247003D01*
X176216005Y-121247004D01*
X176133787Y-121408364D01*
X176077831Y-121580580D01*
X176077828Y-121580593D01*
X176049500Y-121759453D01*
X174500500Y-121759453D01*
X174500500Y-118415135D01*
X176049500Y-118415135D01*
X176049500Y-120204863D01*
X176052414Y-120229986D01*
X176052415Y-120229991D01*
X176097794Y-120332765D01*
X176177235Y-120412206D01*
X176280009Y-120457585D01*
X176305135Y-120460500D01*
X178094864Y-120460499D01*
X178119991Y-120457585D01*
X178222765Y-120412206D01*
X178302206Y-120332765D01*
X178347585Y-120229991D01*
X178350500Y-120204865D01*
X178350499Y-118415136D01*
X178347585Y-118390009D01*
X178302206Y-118287235D01*
X178222765Y-118207794D01*
X178119991Y-118162415D01*
X178119990Y-118162414D01*
X178119988Y-118162414D01*
X178098659Y-118159940D01*
X178094865Y-118159500D01*
X178094864Y-118159500D01*
X176305136Y-118159500D01*
X176280013Y-118162414D01*
X176280007Y-118162415D01*
X176177234Y-118207794D01*
X176097794Y-118287234D01*
X176052414Y-118390011D01*
X176049500Y-118415135D01*
X174500500Y-118415135D01*
X174500500Y-109488388D01*
X175899500Y-109488388D01*
X175899500Y-109661611D01*
X175926597Y-109832698D01*
X175926600Y-109832711D01*
X175980125Y-109997442D01*
X175980127Y-109997446D01*
X176058767Y-110151787D01*
X176099254Y-110207513D01*
X176160586Y-110291928D01*
X176283072Y-110414414D01*
X176283075Y-110414416D01*
X176283076Y-110414417D01*
X176423212Y-110516232D01*
X176577553Y-110594872D01*
X176577557Y-110594874D01*
X176742288Y-110648399D01*
X176742294Y-110648400D01*
X176742299Y-110648402D01*
X176856359Y-110666467D01*
X176913388Y-110675500D01*
X176913389Y-110675500D01*
X177086612Y-110675500D01*
X177129383Y-110668725D01*
X177257701Y-110648402D01*
X177257708Y-110648399D01*
X177257711Y-110648399D01*
X177422442Y-110594874D01*
X177422442Y-110594873D01*
X177422445Y-110594873D01*
X177576788Y-110516232D01*
X177716928Y-110414414D01*
X177839414Y-110291928D01*
X177941232Y-110151788D01*
X178019873Y-109997445D01*
X178025707Y-109979491D01*
X178073399Y-109832711D01*
X178073399Y-109832708D01*
X178073402Y-109832701D01*
X178100500Y-109661611D01*
X178100500Y-109488389D01*
X178073402Y-109317299D01*
X178073400Y-109317294D01*
X178073399Y-109317288D01*
X178019874Y-109152557D01*
X178019872Y-109152553D01*
X177941232Y-108998212D01*
X177839417Y-108858076D01*
X177839416Y-108858075D01*
X177839414Y-108858072D01*
X177716928Y-108735586D01*
X177716925Y-108735583D01*
X177716923Y-108735582D01*
X177576787Y-108633767D01*
X177422446Y-108555127D01*
X177422442Y-108555125D01*
X177257711Y-108501600D01*
X177257698Y-108501597D01*
X177086612Y-108474500D01*
X177086611Y-108474500D01*
X176913389Y-108474500D01*
X176913388Y-108474500D01*
X176742301Y-108501597D01*
X176742288Y-108501600D01*
X176577557Y-108555125D01*
X176577553Y-108555127D01*
X176423212Y-108633767D01*
X176283076Y-108735582D01*
X176160582Y-108858076D01*
X176058767Y-108998212D01*
X175980127Y-109152553D01*
X175980125Y-109152557D01*
X175926600Y-109317288D01*
X175926597Y-109317301D01*
X175899500Y-109488388D01*
X174500500Y-109488388D01*
X174500500Y-88488388D01*
X175899500Y-88488388D01*
X175899500Y-88661611D01*
X175926597Y-88832698D01*
X175926600Y-88832711D01*
X175980125Y-88997442D01*
X175980127Y-88997446D01*
X176058767Y-89151787D01*
X176058768Y-89151788D01*
X176160586Y-89291928D01*
X176283072Y-89414414D01*
X176283075Y-89414416D01*
X176283076Y-89414417D01*
X176423212Y-89516232D01*
X176577553Y-89594872D01*
X176577557Y-89594874D01*
X176742288Y-89648399D01*
X176742294Y-89648400D01*
X176742299Y-89648402D01*
X176856359Y-89666467D01*
X176913388Y-89675500D01*
X176913389Y-89675500D01*
X177086612Y-89675500D01*
X177129383Y-89668725D01*
X177257701Y-89648402D01*
X177257708Y-89648399D01*
X177257711Y-89648399D01*
X177422442Y-89594874D01*
X177422442Y-89594873D01*
X177422445Y-89594873D01*
X177576788Y-89516232D01*
X177716928Y-89414414D01*
X177839414Y-89291928D01*
X177941232Y-89151788D01*
X178019873Y-88997445D01*
X178073402Y-88832701D01*
X178100500Y-88661611D01*
X178100500Y-88488389D01*
X178073402Y-88317299D01*
X178073400Y-88317294D01*
X178073399Y-88317288D01*
X178019874Y-88152557D01*
X178019872Y-88152553D01*
X177941232Y-87998212D01*
X177839417Y-87858076D01*
X177839416Y-87858075D01*
X177839414Y-87858072D01*
X177716928Y-87735586D01*
X177716925Y-87735583D01*
X177716923Y-87735582D01*
X177576787Y-87633767D01*
X177422446Y-87555127D01*
X177422442Y-87555125D01*
X177257711Y-87501600D01*
X177257698Y-87501597D01*
X177086612Y-87474500D01*
X177086611Y-87474500D01*
X176913389Y-87474500D01*
X176913388Y-87474500D01*
X176742301Y-87501597D01*
X176742288Y-87501600D01*
X176577557Y-87555125D01*
X176577553Y-87555127D01*
X176423212Y-87633767D01*
X176283076Y-87735582D01*
X176160582Y-87858076D01*
X176058767Y-87998212D01*
X175980127Y-88152553D01*
X175980125Y-88152557D01*
X175926600Y-88317288D01*
X175926597Y-88317301D01*
X175899500Y-88488388D01*
X174500500Y-88488388D01*
X174500500Y-81571544D01*
X174522173Y-81519219D01*
X177020480Y-79020913D01*
X177073207Y-78929588D01*
X177100500Y-78827727D01*
X177100500Y-78722273D01*
X177100500Y-67433698D01*
X177100501Y-67433685D01*
X177100501Y-67322271D01*
X177100500Y-67322270D01*
X177094666Y-67300499D01*
X177073207Y-67220413D01*
X177054702Y-67188360D01*
X177054702Y-67188361D01*
X177020480Y-67129087D01*
X176945913Y-67054520D01*
X176945912Y-67054519D01*
X176943334Y-67051941D01*
X176943323Y-67051931D01*
X176360681Y-66469289D01*
X175645913Y-65754520D01*
X175645910Y-65754518D01*
X175645909Y-65754517D01*
X175554592Y-65701795D01*
X175554588Y-65701793D01*
X175521756Y-65692996D01*
X175452727Y-65674500D01*
X175452726Y-65674500D01*
X174057273Y-65674500D01*
X174057257Y-65674499D01*
X174052727Y-65674499D01*
X173947273Y-65674499D01*
X173947271Y-65674499D01*
X173845416Y-65701791D01*
X173845411Y-65701793D01*
X173754086Y-65754520D01*
X171230781Y-68277826D01*
X171178455Y-68299500D01*
X161391060Y-68299500D01*
X161338734Y-68277826D01*
X161320682Y-68248367D01*
X161305223Y-68200788D01*
X161305220Y-68200784D01*
X161305220Y-68200781D01*
X161239417Y-68071635D01*
X161212287Y-68018389D01*
X161125843Y-67899409D01*
X161091966Y-67852781D01*
X160947219Y-67708034D01*
X160883040Y-67661406D01*
X160781610Y-67587712D01*
X160599213Y-67494777D01*
X160434489Y-67441255D01*
X160391421Y-67404472D01*
X160386978Y-67348010D01*
X160423761Y-67304942D01*
X160434489Y-67300499D01*
X160541443Y-67265748D01*
X160702729Y-67183568D01*
X160759487Y-67142331D01*
X160285176Y-66668019D01*
X160292993Y-66665925D01*
X160407007Y-66600099D01*
X160500099Y-66507007D01*
X160565925Y-66392993D01*
X160568019Y-66385176D01*
X161042331Y-66859487D01*
X161083568Y-66802729D01*
X161165748Y-66641443D01*
X161221680Y-66469302D01*
X161221683Y-66469289D01*
X161250000Y-66290508D01*
X161250000Y-66109491D01*
X161221683Y-65930710D01*
X161221680Y-65930697D01*
X161165748Y-65758556D01*
X161083566Y-65597267D01*
X161083566Y-65597266D01*
X161042331Y-65540511D01*
X160568019Y-66014822D01*
X160565925Y-66007007D01*
X160500099Y-65892993D01*
X160407007Y-65799901D01*
X160292993Y-65734075D01*
X160285174Y-65731980D01*
X160759487Y-65257668D01*
X160702726Y-65216429D01*
X160553576Y-65140433D01*
X160516793Y-65097366D01*
X160521237Y-65040904D01*
X160564304Y-65004121D01*
X160587171Y-65000499D01*
X161144863Y-65000499D01*
X161144864Y-65000499D01*
X161169991Y-64997585D01*
X161272765Y-64952206D01*
X161352206Y-64872765D01*
X161397585Y-64769991D01*
X161400500Y-64744865D01*
X161400499Y-63609491D01*
X173450000Y-63609491D01*
X173450000Y-63790508D01*
X173478316Y-63969289D01*
X173478319Y-63969302D01*
X173534251Y-64141443D01*
X173616431Y-64302728D01*
X173657668Y-64359487D01*
X174131980Y-63885174D01*
X174134075Y-63892993D01*
X174199901Y-64007007D01*
X174292993Y-64100099D01*
X174407007Y-64165925D01*
X174414822Y-64168019D01*
X173940511Y-64642331D01*
X173997266Y-64683566D01*
X174158556Y-64765748D01*
X174158555Y-64765748D01*
X174330697Y-64821680D01*
X174330710Y-64821683D01*
X174509491Y-64850000D01*
X174690509Y-64850000D01*
X174869289Y-64821683D01*
X174869302Y-64821680D01*
X175041443Y-64765748D01*
X175202729Y-64683568D01*
X175259487Y-64642331D01*
X174785176Y-64168019D01*
X174792993Y-64165925D01*
X174907007Y-64100099D01*
X175000099Y-64007007D01*
X175065925Y-63892993D01*
X175068019Y-63885176D01*
X175542331Y-64359487D01*
X175583568Y-64302729D01*
X175665748Y-64141443D01*
X175721680Y-63969302D01*
X175721683Y-63969289D01*
X175750000Y-63790508D01*
X175750000Y-63609491D01*
X175721683Y-63430710D01*
X175721680Y-63430697D01*
X175665748Y-63258556D01*
X175583566Y-63097267D01*
X175583566Y-63097266D01*
X175542331Y-63040511D01*
X175068019Y-63514822D01*
X175065925Y-63507007D01*
X175000099Y-63392993D01*
X174907007Y-63299901D01*
X174792993Y-63234075D01*
X174785174Y-63231980D01*
X175259487Y-62757668D01*
X175202728Y-62716431D01*
X175041443Y-62634251D01*
X175041444Y-62634251D01*
X174869302Y-62578319D01*
X174869289Y-62578316D01*
X174690509Y-62550000D01*
X174509491Y-62550000D01*
X174330710Y-62578316D01*
X174330697Y-62578319D01*
X174158558Y-62634250D01*
X173997268Y-62716431D01*
X173940511Y-62757667D01*
X173940511Y-62757668D01*
X174414823Y-63231980D01*
X174407007Y-63234075D01*
X174292993Y-63299901D01*
X174199901Y-63392993D01*
X174134075Y-63507007D01*
X174131980Y-63514823D01*
X173657668Y-63040511D01*
X173657667Y-63040511D01*
X173616431Y-63097268D01*
X173534250Y-63258558D01*
X173478319Y-63430697D01*
X173478316Y-63430710D01*
X173450000Y-63609491D01*
X161400499Y-63609491D01*
X161400499Y-62655136D01*
X161397585Y-62630009D01*
X161352206Y-62527235D01*
X161272765Y-62447794D01*
X161169991Y-62402415D01*
X161169990Y-62402414D01*
X161169988Y-62402414D01*
X161148659Y-62399940D01*
X161144865Y-62399500D01*
X161144864Y-62399500D01*
X159055136Y-62399500D01*
X159030013Y-62402414D01*
X159030007Y-62402415D01*
X158927234Y-62447794D01*
X158847794Y-62527234D01*
X158802414Y-62630011D01*
X158799500Y-62655135D01*
X158799500Y-64403454D01*
X158777826Y-64455780D01*
X157994517Y-65239090D01*
X157941795Y-65330407D01*
X157941793Y-65330411D01*
X157914500Y-65432274D01*
X157914500Y-77043455D01*
X157892826Y-77095781D01*
X157529517Y-77459090D01*
X157476795Y-77550407D01*
X157476793Y-77550411D01*
X157476793Y-77550412D01*
X157449500Y-77652273D01*
X157449500Y-112372273D01*
X157449500Y-112477727D01*
X157476793Y-112579588D01*
X157476795Y-112579592D01*
X157529517Y-112670909D01*
X157529518Y-112670910D01*
X157529520Y-112670913D01*
X169877826Y-125019219D01*
X169899500Y-125071544D01*
X169899500Y-126746631D01*
X169877826Y-126798957D01*
X169825500Y-126820631D01*
X169773174Y-126798957D01*
X169754022Y-126765784D01*
X169734578Y-126693220D01*
X169734577Y-126693216D01*
X169655520Y-126556284D01*
X169543716Y-126444480D01*
X169406784Y-126365423D01*
X169406781Y-126365422D01*
X169406779Y-126365421D01*
X169254059Y-126324500D01*
X169254057Y-126324500D01*
X169095943Y-126324500D01*
X169095941Y-126324500D01*
X168943220Y-126365421D01*
X168943214Y-126365424D01*
X168806283Y-126444480D01*
X168694480Y-126556283D01*
X168615424Y-126693214D01*
X168615421Y-126693220D01*
X168574500Y-126845940D01*
X168574500Y-127004059D01*
X168615421Y-127156779D01*
X168615422Y-127156781D01*
X168615423Y-127156784D01*
X168694480Y-127293716D01*
X168806284Y-127405520D01*
X168943216Y-127484577D01*
X169095940Y-127525499D01*
X169095941Y-127525500D01*
X169104454Y-127525500D01*
X169156780Y-127547174D01*
X169178454Y-127599500D01*
X169156780Y-127651826D01*
X166254897Y-130553710D01*
X166202172Y-130645032D01*
X166202173Y-130645033D01*
X166174880Y-130746893D01*
X166174880Y-136084824D01*
X166153206Y-136137150D01*
X166100880Y-136158824D01*
X166081728Y-136156303D01*
X166027664Y-136141817D01*
X165882714Y-136141817D01*
X165873837Y-136144195D01*
X165817685Y-136136799D01*
X165783209Y-136091863D01*
X165780689Y-136072715D01*
X165780689Y-134018927D01*
X165775138Y-133998212D01*
X165755099Y-133923425D01*
X165755099Y-133923424D01*
X165705664Y-133837800D01*
X165635751Y-133767887D01*
X159653804Y-127785940D01*
X163194500Y-127785940D01*
X163194500Y-127944059D01*
X163235421Y-128096779D01*
X163235422Y-128096781D01*
X163235423Y-128096784D01*
X163314480Y-128233716D01*
X163426284Y-128345520D01*
X163563216Y-128424577D01*
X163715940Y-128465499D01*
X163715941Y-128465500D01*
X163715943Y-128465500D01*
X163874059Y-128465500D01*
X163874059Y-128465499D01*
X164026784Y-128424577D01*
X164163716Y-128345520D01*
X164222062Y-128287174D01*
X164274388Y-128265500D01*
X165232579Y-128265500D01*
X165284905Y-128287174D01*
X165291074Y-128295217D01*
X165291528Y-128294869D01*
X165294478Y-128298714D01*
X165294480Y-128298716D01*
X165406284Y-128410520D01*
X165543216Y-128489577D01*
X165695940Y-128530499D01*
X165695941Y-128530500D01*
X165695943Y-128530500D01*
X165854059Y-128530500D01*
X165854059Y-128530499D01*
X166006784Y-128489577D01*
X166143716Y-128410520D01*
X166255520Y-128298716D01*
X166334577Y-128161784D01*
X166375499Y-128009059D01*
X166375500Y-128009059D01*
X166375500Y-127850941D01*
X166375499Y-127850940D01*
X166358082Y-127785940D01*
X166334577Y-127698216D01*
X166255520Y-127561284D01*
X166143716Y-127449480D01*
X166006784Y-127370423D01*
X166006781Y-127370422D01*
X166006779Y-127370421D01*
X165854059Y-127329500D01*
X165854057Y-127329500D01*
X165695943Y-127329500D01*
X165695941Y-127329500D01*
X165543220Y-127370421D01*
X165543214Y-127370424D01*
X165402084Y-127451905D01*
X165401528Y-127450942D01*
X165361590Y-127464500D01*
X164274388Y-127464500D01*
X164222062Y-127442826D01*
X164163716Y-127384480D01*
X164026784Y-127305423D01*
X164026781Y-127305422D01*
X164026779Y-127305421D01*
X163874059Y-127264500D01*
X163874057Y-127264500D01*
X163715943Y-127264500D01*
X163715941Y-127264500D01*
X163563220Y-127305421D01*
X163563214Y-127305424D01*
X163426283Y-127384480D01*
X163314480Y-127496283D01*
X163235424Y-127633214D01*
X163235421Y-127633220D01*
X163194500Y-127785940D01*
X159653804Y-127785940D01*
X156731635Y-124863771D01*
X160802500Y-124863771D01*
X160802500Y-125036228D01*
X160836143Y-125205367D01*
X160836146Y-125205378D01*
X160902140Y-125364702D01*
X160976852Y-125476517D01*
X160997955Y-125508099D01*
X161119901Y-125630045D01*
X161263295Y-125725858D01*
X161422626Y-125791855D01*
X161591771Y-125825500D01*
X161591772Y-125825500D01*
X161764228Y-125825500D01*
X161764229Y-125825500D01*
X161933374Y-125791855D01*
X162092705Y-125725858D01*
X162236099Y-125630045D01*
X162358045Y-125508099D01*
X162453858Y-125364705D01*
X162519855Y-125205374D01*
X162553500Y-125036229D01*
X162553500Y-124863771D01*
X162544571Y-124818881D01*
X164757500Y-124818881D01*
X164757500Y-125081118D01*
X164791729Y-125341114D01*
X164859601Y-125594415D01*
X164859601Y-125594416D01*
X164959955Y-125836694D01*
X164959956Y-125836696D01*
X165084523Y-126052452D01*
X165091076Y-126063803D01*
X165250718Y-126271851D01*
X165436149Y-126457282D01*
X165644197Y-126616924D01*
X165871303Y-126748043D01*
X166113581Y-126848398D01*
X166366884Y-126916270D01*
X166626880Y-126950500D01*
X166626882Y-126950500D01*
X166889118Y-126950500D01*
X166889120Y-126950500D01*
X167149116Y-126916270D01*
X167402419Y-126848398D01*
X167644697Y-126748043D01*
X167871803Y-126616924D01*
X168079851Y-126457282D01*
X168265282Y-126271851D01*
X168424924Y-126063803D01*
X168556043Y-125836697D01*
X168656398Y-125594419D01*
X168724270Y-125341116D01*
X168758500Y-125081120D01*
X168758500Y-124818880D01*
X168724270Y-124558884D01*
X168656398Y-124305581D01*
X168556043Y-124063303D01*
X168424924Y-123836197D01*
X168265282Y-123628149D01*
X168079851Y-123442718D01*
X167913412Y-123315004D01*
X167871802Y-123283075D01*
X167644696Y-123151956D01*
X167644694Y-123151955D01*
X167461203Y-123075951D01*
X167402419Y-123051602D01*
X167402417Y-123051601D01*
X167402416Y-123051601D01*
X167149114Y-122983729D01*
X166957578Y-122958512D01*
X166889120Y-122949500D01*
X166626880Y-122949500D01*
X166566386Y-122957464D01*
X166366885Y-122983729D01*
X166113584Y-123051601D01*
X166113583Y-123051601D01*
X165871305Y-123151955D01*
X165871303Y-123151956D01*
X165644197Y-123283075D01*
X165436144Y-123442722D01*
X165250722Y-123628144D01*
X165250718Y-123628148D01*
X165250718Y-123628149D01*
X165241238Y-123640503D01*
X165091075Y-123836197D01*
X164959956Y-124063303D01*
X164959955Y-124063305D01*
X164859601Y-124305583D01*
X164859601Y-124305584D01*
X164791729Y-124558885D01*
X164757500Y-124818881D01*
X162544571Y-124818881D01*
X162519855Y-124694626D01*
X162505268Y-124659409D01*
X162453859Y-124535297D01*
X162418945Y-124483045D01*
X162358045Y-124391901D01*
X162236099Y-124269955D01*
X162092705Y-124174142D01*
X162092704Y-124174141D01*
X162092702Y-124174140D01*
X161933378Y-124108146D01*
X161933367Y-124108143D01*
X161805942Y-124082797D01*
X161764229Y-124074500D01*
X161591771Y-124074500D01*
X161558309Y-124081155D01*
X161422632Y-124108143D01*
X161422621Y-124108146D01*
X161263297Y-124174140D01*
X161119904Y-124269952D01*
X160997952Y-124391904D01*
X160902140Y-124535297D01*
X160836146Y-124694621D01*
X160836143Y-124694632D01*
X160802500Y-124863771D01*
X156731635Y-124863771D01*
X156097174Y-124229310D01*
X156075500Y-124176984D01*
X156075500Y-122289940D01*
X161422500Y-122289940D01*
X161422500Y-122530059D01*
X161460062Y-122767219D01*
X161460065Y-122767232D01*
X161534262Y-122995585D01*
X161534264Y-122995590D01*
X161643274Y-123209532D01*
X161643277Y-123209538D01*
X161784410Y-123403791D01*
X161784414Y-123403796D01*
X161954204Y-123573586D01*
X161954207Y-123573588D01*
X161954208Y-123573589D01*
X162029303Y-123628149D01*
X162148464Y-123714724D01*
X162362411Y-123823736D01*
X162362413Y-123823736D01*
X162362414Y-123823737D01*
X162590767Y-123897934D01*
X162590773Y-123897935D01*
X162590778Y-123897937D01*
X162748886Y-123922979D01*
X162827940Y-123935500D01*
X162827941Y-123935500D01*
X163068060Y-123935500D01*
X163127349Y-123926109D01*
X163305222Y-123897937D01*
X163305229Y-123897934D01*
X163305232Y-123897934D01*
X163408907Y-123864247D01*
X163533589Y-123823736D01*
X163747536Y-123714724D01*
X163941796Y-123573586D01*
X164111586Y-123403796D01*
X164252724Y-123209536D01*
X164361736Y-122995589D01*
X164414241Y-122833996D01*
X164435934Y-122767232D01*
X164435934Y-122767229D01*
X164435937Y-122767222D01*
X164473500Y-122530059D01*
X164473500Y-122289941D01*
X164435937Y-122052778D01*
X164435935Y-122052773D01*
X164435934Y-122052767D01*
X164361737Y-121824414D01*
X164361735Y-121824409D01*
X164340497Y-121782727D01*
X164252724Y-121610464D01*
X164241444Y-121594939D01*
X164111589Y-121416208D01*
X164111588Y-121416207D01*
X164111586Y-121416204D01*
X163941796Y-121246414D01*
X163941793Y-121246411D01*
X163941791Y-121246410D01*
X163747538Y-121105277D01*
X163747532Y-121105274D01*
X163738168Y-121100503D01*
X163694897Y-121078455D01*
X163533590Y-120996264D01*
X163533585Y-120996262D01*
X163305232Y-120922065D01*
X163305219Y-120922062D01*
X163068060Y-120884500D01*
X163068059Y-120884500D01*
X162827941Y-120884500D01*
X162827940Y-120884500D01*
X162590780Y-120922062D01*
X162590767Y-120922065D01*
X162362414Y-120996262D01*
X162362409Y-120996264D01*
X162148467Y-121105274D01*
X162148461Y-121105277D01*
X161954208Y-121246410D01*
X161784410Y-121416208D01*
X161643277Y-121610461D01*
X161643274Y-121610467D01*
X161534264Y-121824409D01*
X161534262Y-121824414D01*
X161460065Y-122052767D01*
X161460062Y-122052780D01*
X161422500Y-122289940D01*
X156075500Y-122289940D01*
X156075500Y-71311464D01*
X156097174Y-71259138D01*
X156126632Y-71241086D01*
X156141639Y-71236211D01*
X156302994Y-71153996D01*
X156449501Y-71047553D01*
X156577553Y-70919501D01*
X156683996Y-70772994D01*
X156766211Y-70611639D01*
X156822171Y-70439409D01*
X156850500Y-70260546D01*
X156850500Y-70079454D01*
X156822171Y-69900591D01*
X156822169Y-69900586D01*
X156822168Y-69900580D01*
X156766212Y-69728364D01*
X156766211Y-69728363D01*
X156766211Y-69728361D01*
X156683996Y-69567006D01*
X156577553Y-69420499D01*
X156449501Y-69292447D01*
X156364128Y-69230420D01*
X156302996Y-69186005D01*
X156141635Y-69103787D01*
X156141636Y-69103787D01*
X155969419Y-69047831D01*
X155969406Y-69047828D01*
X155790547Y-69019500D01*
X155790546Y-69019500D01*
X155609454Y-69019500D01*
X155609453Y-69019500D01*
X155430593Y-69047828D01*
X155430580Y-69047831D01*
X155258364Y-69103787D01*
X155097004Y-69186005D01*
X155097003Y-69186005D01*
X154950503Y-69292444D01*
X154950499Y-69292447D01*
X154950494Y-69292452D01*
X154822443Y-69420503D01*
X154799367Y-69452266D01*
X154751076Y-69481859D01*
X154696004Y-69468637D01*
X154666411Y-69420346D01*
X154665500Y-69408770D01*
X154665500Y-69261544D01*
X154687173Y-69209219D01*
X155182384Y-68714007D01*
X155234709Y-68692334D01*
X155257576Y-68695956D01*
X155430580Y-68752168D01*
X155430586Y-68752169D01*
X155430591Y-68752171D01*
X155549833Y-68771057D01*
X155609453Y-68780500D01*
X155609454Y-68780500D01*
X155790547Y-68780500D01*
X155835261Y-68773417D01*
X155969409Y-68752171D01*
X155969416Y-68752168D01*
X155969419Y-68752168D01*
X156047601Y-68726765D01*
X156141639Y-68696211D01*
X156302994Y-68613996D01*
X156449501Y-68507553D01*
X156577553Y-68379501D01*
X156683996Y-68232994D01*
X156766211Y-68071639D01*
X156822171Y-67899409D01*
X156850500Y-67720546D01*
X156850500Y-67539454D01*
X156822171Y-67360591D01*
X156822169Y-67360586D01*
X156822168Y-67360580D01*
X156766211Y-67188361D01*
X156736009Y-67129087D01*
X156683996Y-67027006D01*
X156577553Y-66880499D01*
X156449501Y-66752447D01*
X156330413Y-66665925D01*
X156302996Y-66646005D01*
X156141635Y-66563787D01*
X156141636Y-66563787D01*
X155969419Y-66507831D01*
X155969406Y-66507828D01*
X155790547Y-66479500D01*
X155790546Y-66479500D01*
X155609454Y-66479500D01*
X155609453Y-66479500D01*
X155430593Y-66507828D01*
X155430580Y-66507831D01*
X155258364Y-66563787D01*
X155097004Y-66646005D01*
X155097003Y-66646005D01*
X155022686Y-66700000D01*
X154950499Y-66752447D01*
X154822447Y-66880499D01*
X154822444Y-66880502D01*
X154822444Y-66880503D01*
X154716005Y-67027003D01*
X154716005Y-67027004D01*
X154633789Y-67188361D01*
X154577831Y-67360580D01*
X154577828Y-67360593D01*
X154549500Y-67539453D01*
X154549500Y-67720546D01*
X154577828Y-67899406D01*
X154577831Y-67899419D01*
X154634043Y-68072422D01*
X154629599Y-68128885D01*
X154615991Y-68147615D01*
X153944517Y-68819090D01*
X153891792Y-68910412D01*
X153891793Y-68910413D01*
X153864500Y-69012273D01*
X153864500Y-123024763D01*
X153842826Y-123077089D01*
X153790500Y-123098763D01*
X153738174Y-123077089D01*
X152622174Y-121961089D01*
X152600500Y-121908763D01*
X152600500Y-118017271D01*
X152600499Y-118017270D01*
X152573208Y-117915417D01*
X152573207Y-117915413D01*
X152520480Y-117824087D01*
X152445913Y-117749520D01*
X152007174Y-117310781D01*
X151985500Y-117258455D01*
X151985500Y-117232523D01*
X151985499Y-117232522D01*
X151947985Y-117092518D01*
X151947983Y-117092513D01*
X151928563Y-117058876D01*
X151875509Y-116966985D01*
X151773015Y-116864491D01*
X151734032Y-116841984D01*
X151647486Y-116792016D01*
X151647481Y-116792014D01*
X151507477Y-116754500D01*
X151507475Y-116754500D01*
X151362525Y-116754500D01*
X151362523Y-116754500D01*
X151222518Y-116792014D01*
X151222513Y-116792016D01*
X151096984Y-116864491D01*
X150994491Y-116966984D01*
X150922016Y-117092513D01*
X150922014Y-117092518D01*
X150884500Y-117232522D01*
X150884500Y-117377477D01*
X150922014Y-117517481D01*
X150922016Y-117517486D01*
X150994491Y-117643015D01*
X151096985Y-117745509D01*
X151222515Y-117817984D01*
X151222516Y-117817984D01*
X151222518Y-117817985D01*
X151245291Y-117824087D01*
X151362522Y-117855499D01*
X151362523Y-117855500D01*
X151362525Y-117855500D01*
X151388455Y-117855500D01*
X151440781Y-117877174D01*
X151777826Y-118214219D01*
X151799500Y-118266545D01*
X151799500Y-119687292D01*
X151777826Y-119739618D01*
X151725500Y-119761292D01*
X151673174Y-119739618D01*
X151652411Y-119698868D01*
X151622937Y-119512780D01*
X151622934Y-119512767D01*
X151548737Y-119284414D01*
X151548735Y-119284409D01*
X151544941Y-119276964D01*
X151439724Y-119070464D01*
X151298586Y-118876204D01*
X151128796Y-118706414D01*
X151128793Y-118706411D01*
X151128791Y-118706410D01*
X150934538Y-118565277D01*
X150934532Y-118565274D01*
X150720590Y-118456264D01*
X150720585Y-118456262D01*
X150492232Y-118382065D01*
X150492219Y-118382062D01*
X150255060Y-118344500D01*
X150255059Y-118344500D01*
X150014941Y-118344500D01*
X150014940Y-118344500D01*
X149777780Y-118382062D01*
X149777767Y-118382065D01*
X149549414Y-118456262D01*
X149549409Y-118456264D01*
X149335467Y-118565274D01*
X149335461Y-118565277D01*
X149141208Y-118706410D01*
X148971410Y-118876208D01*
X148830277Y-119070461D01*
X148830274Y-119070467D01*
X148721264Y-119284409D01*
X148721262Y-119284414D01*
X148647065Y-119512767D01*
X148647062Y-119512780D01*
X148609500Y-119749940D01*
X148609500Y-119990059D01*
X148647062Y-120227219D01*
X148647065Y-120227232D01*
X148721262Y-120455585D01*
X148721264Y-120455590D01*
X148830274Y-120669532D01*
X148830277Y-120669538D01*
X148971410Y-120863791D01*
X148971414Y-120863796D01*
X149141204Y-121033586D01*
X149141207Y-121033588D01*
X149141208Y-121033589D01*
X149274981Y-121130781D01*
X149335464Y-121174724D01*
X149549411Y-121283736D01*
X149549413Y-121283736D01*
X149549414Y-121283737D01*
X149777767Y-121357934D01*
X149777773Y-121357935D01*
X149777778Y-121357937D01*
X149935886Y-121382979D01*
X150014940Y-121395500D01*
X150014941Y-121395500D01*
X150255060Y-121395500D01*
X150314349Y-121386109D01*
X150492222Y-121357937D01*
X150492229Y-121357934D01*
X150492232Y-121357934D01*
X150620869Y-121316137D01*
X150720589Y-121283736D01*
X150934536Y-121174724D01*
X151128796Y-121033586D01*
X151298586Y-120863796D01*
X151439724Y-120669536D01*
X151548736Y-120455589D01*
X151622037Y-120229992D01*
X151622934Y-120227232D01*
X151622934Y-120227229D01*
X151622937Y-120227222D01*
X151652411Y-120041131D01*
X151682004Y-119992840D01*
X151737076Y-119979618D01*
X151785367Y-120009211D01*
X151799500Y-120052707D01*
X151799500Y-122052581D01*
X151799500Y-122158035D01*
X151820044Y-122234708D01*
X151826793Y-122259896D01*
X151826795Y-122259900D01*
X151879517Y-122351217D01*
X151879518Y-122351218D01*
X151879520Y-122351221D01*
X155580743Y-126052444D01*
X159075971Y-129547672D01*
X159097645Y-129599998D01*
X159075971Y-129652324D01*
X159023645Y-129673998D01*
X159004492Y-129671476D01*
X158922477Y-129649500D01*
X158922475Y-129649500D01*
X158777525Y-129649500D01*
X158777523Y-129649500D01*
X158637518Y-129687014D01*
X158637513Y-129687016D01*
X158511984Y-129759491D01*
X158409491Y-129861984D01*
X158337016Y-129987513D01*
X158337014Y-129987518D01*
X158299500Y-130127522D01*
X158299500Y-130272477D01*
X158337014Y-130412481D01*
X158337016Y-130412486D01*
X158370222Y-130470000D01*
X158409491Y-130538015D01*
X158511985Y-130640509D01*
X158637515Y-130712984D01*
X158637516Y-130712984D01*
X158637518Y-130712985D01*
X158680646Y-130724541D01*
X158777522Y-130750499D01*
X158777523Y-130750500D01*
X158777525Y-130750500D01*
X158803455Y-130750500D01*
X158855781Y-130772174D01*
X160006061Y-131922454D01*
X160027735Y-131974780D01*
X160027735Y-135128398D01*
X160006061Y-135180724D01*
X159953735Y-135202398D01*
X159901409Y-135180724D01*
X159889649Y-135165398D01*
X159855520Y-135106284D01*
X159743716Y-134994480D01*
X159606784Y-134915423D01*
X159606781Y-134915422D01*
X159606779Y-134915421D01*
X159454059Y-134874500D01*
X159454057Y-134874500D01*
X159295943Y-134874500D01*
X159295941Y-134874500D01*
X159143220Y-134915421D01*
X159143214Y-134915424D01*
X159006283Y-134994480D01*
X158894480Y-135106283D01*
X158815424Y-135243214D01*
X158815421Y-135243220D01*
X158774500Y-135395940D01*
X158774500Y-135554059D01*
X158815421Y-135706779D01*
X158815422Y-135706781D01*
X158815423Y-135706784D01*
X158894480Y-135843716D01*
X159006284Y-135955520D01*
X159143216Y-136034577D01*
X159295940Y-136075499D01*
X159295941Y-136075500D01*
X159295943Y-136075500D01*
X159454059Y-136075500D01*
X159454059Y-136075499D01*
X159606784Y-136034577D01*
X159743716Y-135955520D01*
X159855520Y-135843716D01*
X159889649Y-135784601D01*
X159934582Y-135750123D01*
X159990734Y-135757515D01*
X160025213Y-135802448D01*
X160027735Y-135821601D01*
X160027735Y-138752690D01*
X160006061Y-138805016D01*
X159953735Y-138826690D01*
X159901409Y-138805016D01*
X158617174Y-137520781D01*
X158595500Y-137468455D01*
X158595500Y-131152271D01*
X158589970Y-131131635D01*
X158584440Y-131110997D01*
X158568207Y-131050412D01*
X158520040Y-130966985D01*
X158515482Y-130959090D01*
X158515481Y-130959089D01*
X158515480Y-130959087D01*
X157460913Y-129904520D01*
X157460910Y-129904518D01*
X157460909Y-129904517D01*
X157369592Y-129851795D01*
X157369588Y-129851793D01*
X157267727Y-129824500D01*
X141352727Y-129824500D01*
X141247273Y-129824500D01*
X141196342Y-129838146D01*
X141145411Y-129851793D01*
X141145407Y-129851795D01*
X141054090Y-129904517D01*
X138510781Y-132447826D01*
X138458455Y-132469500D01*
X136503676Y-132469500D01*
X136451350Y-132447826D01*
X136433015Y-132429491D01*
X136307486Y-132357016D01*
X136307481Y-132357014D01*
X136167477Y-132319500D01*
X136167475Y-132319500D01*
X136022525Y-132319500D01*
X136022523Y-132319500D01*
X135882518Y-132357014D01*
X135882513Y-132357016D01*
X135756984Y-132429491D01*
X135652351Y-132534124D01*
X135600025Y-132555798D01*
X135547699Y-132534124D01*
X135277174Y-132263599D01*
X135255500Y-132211273D01*
X135255500Y-124863771D01*
X141639500Y-124863771D01*
X141639500Y-125036228D01*
X141673143Y-125205367D01*
X141673146Y-125205378D01*
X141739140Y-125364702D01*
X141813852Y-125476517D01*
X141834955Y-125508099D01*
X141956901Y-125630045D01*
X142100295Y-125725858D01*
X142259626Y-125791855D01*
X142428771Y-125825500D01*
X142428772Y-125825500D01*
X142601228Y-125825500D01*
X142601229Y-125825500D01*
X142770374Y-125791855D01*
X142929705Y-125725858D01*
X143073099Y-125630045D01*
X143195045Y-125508099D01*
X143290858Y-125364705D01*
X143356855Y-125205374D01*
X143390500Y-125036229D01*
X143390500Y-124863771D01*
X143381571Y-124818881D01*
X145594500Y-124818881D01*
X145594500Y-125081118D01*
X145628729Y-125341114D01*
X145696601Y-125594415D01*
X145696601Y-125594416D01*
X145796955Y-125836694D01*
X145796956Y-125836696D01*
X145921523Y-126052452D01*
X145928076Y-126063803D01*
X146087718Y-126271851D01*
X146273149Y-126457282D01*
X146481197Y-126616924D01*
X146708303Y-126748043D01*
X146950581Y-126848398D01*
X147203884Y-126916270D01*
X147463880Y-126950500D01*
X147463882Y-126950500D01*
X147726118Y-126950500D01*
X147726120Y-126950500D01*
X147986116Y-126916270D01*
X148239419Y-126848398D01*
X148481697Y-126748043D01*
X148708803Y-126616924D01*
X148916851Y-126457282D01*
X149102282Y-126271851D01*
X149261924Y-126063803D01*
X149393043Y-125836697D01*
X149493398Y-125594419D01*
X149561270Y-125341116D01*
X149595500Y-125081120D01*
X149595500Y-124863771D01*
X151799500Y-124863771D01*
X151799500Y-125036228D01*
X151833143Y-125205367D01*
X151833146Y-125205378D01*
X151899140Y-125364702D01*
X151973852Y-125476517D01*
X151994955Y-125508099D01*
X152116901Y-125630045D01*
X152260295Y-125725858D01*
X152419626Y-125791855D01*
X152588771Y-125825500D01*
X152588772Y-125825500D01*
X152761228Y-125825500D01*
X152761229Y-125825500D01*
X152930374Y-125791855D01*
X153089705Y-125725858D01*
X153233099Y-125630045D01*
X153355045Y-125508099D01*
X153450858Y-125364705D01*
X153516855Y-125205374D01*
X153550500Y-125036229D01*
X153550500Y-124863771D01*
X153516855Y-124694626D01*
X153502268Y-124659409D01*
X153450859Y-124535297D01*
X153415945Y-124483045D01*
X153355045Y-124391901D01*
X153233099Y-124269955D01*
X153089705Y-124174142D01*
X153089704Y-124174141D01*
X153089702Y-124174140D01*
X152930378Y-124108146D01*
X152930367Y-124108143D01*
X152802942Y-124082797D01*
X152761229Y-124074500D01*
X152588771Y-124074500D01*
X152555309Y-124081155D01*
X152419632Y-124108143D01*
X152419621Y-124108146D01*
X152260297Y-124174140D01*
X152116904Y-124269952D01*
X151994952Y-124391904D01*
X151899140Y-124535297D01*
X151833146Y-124694621D01*
X151833143Y-124694632D01*
X151799500Y-124863771D01*
X149595500Y-124863771D01*
X149595500Y-124818880D01*
X149561270Y-124558884D01*
X149493398Y-124305581D01*
X149393043Y-124063303D01*
X149261924Y-123836197D01*
X149102282Y-123628149D01*
X148916851Y-123442718D01*
X148750412Y-123315004D01*
X148708802Y-123283075D01*
X148481696Y-123151956D01*
X148481694Y-123151955D01*
X148298203Y-123075951D01*
X148239419Y-123051602D01*
X148239417Y-123051601D01*
X148239416Y-123051601D01*
X147986114Y-122983729D01*
X147794578Y-122958512D01*
X147726120Y-122949500D01*
X147463880Y-122949500D01*
X147403386Y-122957464D01*
X147203885Y-122983729D01*
X146950584Y-123051601D01*
X146950583Y-123051601D01*
X146708305Y-123151955D01*
X146708303Y-123151956D01*
X146481197Y-123283075D01*
X146273144Y-123442722D01*
X146087722Y-123628144D01*
X146087718Y-123628148D01*
X146087718Y-123628149D01*
X146078238Y-123640503D01*
X145928075Y-123836197D01*
X145796956Y-124063303D01*
X145796955Y-124063305D01*
X145696601Y-124305583D01*
X145696601Y-124305584D01*
X145628729Y-124558885D01*
X145594500Y-124818881D01*
X143381571Y-124818881D01*
X143356855Y-124694626D01*
X143342268Y-124659409D01*
X143290859Y-124535297D01*
X143255945Y-124483045D01*
X143195045Y-124391901D01*
X143073099Y-124269955D01*
X142929705Y-124174142D01*
X142929704Y-124174141D01*
X142929702Y-124174140D01*
X142770378Y-124108146D01*
X142770367Y-124108143D01*
X142642942Y-124082797D01*
X142601229Y-124074500D01*
X142428771Y-124074500D01*
X142395309Y-124081155D01*
X142259632Y-124108143D01*
X142259621Y-124108146D01*
X142100297Y-124174140D01*
X141956904Y-124269952D01*
X141834952Y-124391904D01*
X141739140Y-124535297D01*
X141673146Y-124694621D01*
X141673143Y-124694632D01*
X141639500Y-124863771D01*
X135255500Y-124863771D01*
X135255500Y-123296543D01*
X135277173Y-123244218D01*
X136231451Y-122289940D01*
X142259500Y-122289940D01*
X142259500Y-122530059D01*
X142297062Y-122767219D01*
X142297065Y-122767232D01*
X142371262Y-122995585D01*
X142371264Y-122995590D01*
X142480274Y-123209532D01*
X142480277Y-123209538D01*
X142621410Y-123403791D01*
X142621414Y-123403796D01*
X142791204Y-123573586D01*
X142791207Y-123573588D01*
X142791208Y-123573589D01*
X142866303Y-123628149D01*
X142985464Y-123714724D01*
X143199411Y-123823736D01*
X143199413Y-123823736D01*
X143199414Y-123823737D01*
X143427767Y-123897934D01*
X143427773Y-123897935D01*
X143427778Y-123897937D01*
X143585886Y-123922979D01*
X143664940Y-123935500D01*
X143664941Y-123935500D01*
X143905060Y-123935500D01*
X143964349Y-123926109D01*
X144142222Y-123897937D01*
X144142229Y-123897934D01*
X144142232Y-123897934D01*
X144245907Y-123864247D01*
X144370589Y-123823736D01*
X144584536Y-123714724D01*
X144778796Y-123573586D01*
X144948586Y-123403796D01*
X145089724Y-123209536D01*
X145198736Y-122995589D01*
X145251241Y-122833996D01*
X145272934Y-122767232D01*
X145272934Y-122767229D01*
X145272937Y-122767222D01*
X145310500Y-122530059D01*
X145310500Y-122289941D01*
X145272937Y-122052778D01*
X145272935Y-122052773D01*
X145272934Y-122052767D01*
X145198737Y-121824414D01*
X145198735Y-121824409D01*
X145177497Y-121782727D01*
X145089724Y-121610464D01*
X145078444Y-121594939D01*
X144948589Y-121416208D01*
X144948588Y-121416207D01*
X144948586Y-121416204D01*
X144778796Y-121246414D01*
X144778793Y-121246411D01*
X144778791Y-121246410D01*
X144584538Y-121105277D01*
X144584532Y-121105274D01*
X144575168Y-121100503D01*
X144531897Y-121078455D01*
X144370590Y-120996264D01*
X144370585Y-120996262D01*
X144142232Y-120922065D01*
X144142219Y-120922062D01*
X143905060Y-120884500D01*
X143905059Y-120884500D01*
X143664941Y-120884500D01*
X143664940Y-120884500D01*
X143427780Y-120922062D01*
X143427767Y-120922065D01*
X143199414Y-120996262D01*
X143199409Y-120996264D01*
X142985467Y-121105274D01*
X142985461Y-121105277D01*
X142791208Y-121246410D01*
X142621410Y-121416208D01*
X142480277Y-121610461D01*
X142480274Y-121610467D01*
X142371264Y-121824409D01*
X142371262Y-121824414D01*
X142297065Y-122052767D01*
X142297062Y-122052780D01*
X142259500Y-122289940D01*
X136231451Y-122289940D01*
X136470910Y-122050481D01*
X136470913Y-122050480D01*
X136545480Y-121975913D01*
X136598207Y-121884587D01*
X136608334Y-121846793D01*
X136625501Y-121782727D01*
X136625501Y-121677273D01*
X136625501Y-121672744D01*
X136625500Y-121672726D01*
X136625500Y-120022272D01*
X136623021Y-120013020D01*
X136620500Y-119993869D01*
X136620500Y-117503698D01*
X136620501Y-117503685D01*
X136620501Y-117392271D01*
X136620500Y-117392270D01*
X136593208Y-117290416D01*
X136593206Y-117290411D01*
X136559784Y-117232523D01*
X136540480Y-117199087D01*
X136527174Y-117185781D01*
X136505500Y-117133455D01*
X136505500Y-117107523D01*
X136505499Y-117107522D01*
X136501477Y-117092513D01*
X136467984Y-116967515D01*
X136467677Y-116966984D01*
X136395508Y-116841984D01*
X136293015Y-116739491D01*
X136167486Y-116667016D01*
X136167481Y-116667014D01*
X136027477Y-116629500D01*
X136027475Y-116629500D01*
X135882525Y-116629500D01*
X135877675Y-116629500D01*
X135877675Y-116627553D01*
X135829434Y-116614611D01*
X135801130Y-116565553D01*
X135800500Y-116555917D01*
X135800500Y-111227273D01*
X135773207Y-111125413D01*
X135773207Y-111125412D01*
X135720482Y-111034090D01*
X135720481Y-111034089D01*
X135720480Y-111034087D01*
X134577174Y-109890781D01*
X134555500Y-109838455D01*
X134555500Y-106831545D01*
X134577174Y-106779219D01*
X135667622Y-105688771D01*
X141639500Y-105688771D01*
X141639500Y-105861228D01*
X141673143Y-106030367D01*
X141673146Y-106030378D01*
X141739140Y-106189702D01*
X141739141Y-106189704D01*
X141739142Y-106189705D01*
X141834955Y-106333099D01*
X141956901Y-106455045D01*
X142100295Y-106550858D01*
X142100296Y-106550858D01*
X142100297Y-106550859D01*
X142259621Y-106616853D01*
X142259626Y-106616855D01*
X142428771Y-106650500D01*
X142428772Y-106650500D01*
X142601228Y-106650500D01*
X142601229Y-106650500D01*
X142770374Y-106616855D01*
X142929705Y-106550858D01*
X143073099Y-106455045D01*
X143195045Y-106333099D01*
X143290858Y-106189705D01*
X143356855Y-106030374D01*
X143390500Y-105861229D01*
X143390500Y-105688771D01*
X143381571Y-105643881D01*
X145594500Y-105643881D01*
X145594500Y-105906118D01*
X145628729Y-106166114D01*
X145696601Y-106419415D01*
X145696601Y-106419416D01*
X145796955Y-106661694D01*
X145796956Y-106661696D01*
X145796957Y-106661697D01*
X145928076Y-106888803D01*
X146087718Y-107096851D01*
X146273149Y-107282282D01*
X146481197Y-107441924D01*
X146708303Y-107573043D01*
X146950581Y-107673398D01*
X147203884Y-107741270D01*
X147463880Y-107775500D01*
X147463882Y-107775500D01*
X147726118Y-107775500D01*
X147726120Y-107775500D01*
X147986116Y-107741270D01*
X148239419Y-107673398D01*
X148481697Y-107573043D01*
X148708803Y-107441924D01*
X148916851Y-107282282D01*
X149102282Y-107096851D01*
X149261924Y-106888803D01*
X149393043Y-106661697D01*
X149493398Y-106419419D01*
X149561270Y-106166116D01*
X149595500Y-105906120D01*
X149595500Y-105688771D01*
X151799500Y-105688771D01*
X151799500Y-105861228D01*
X151833143Y-106030367D01*
X151833146Y-106030378D01*
X151899140Y-106189702D01*
X151899141Y-106189704D01*
X151899142Y-106189705D01*
X151994955Y-106333099D01*
X152116901Y-106455045D01*
X152260295Y-106550858D01*
X152260296Y-106550858D01*
X152260297Y-106550859D01*
X152419621Y-106616853D01*
X152419626Y-106616855D01*
X152588771Y-106650500D01*
X152588772Y-106650500D01*
X152761228Y-106650500D01*
X152761229Y-106650500D01*
X152930374Y-106616855D01*
X153089705Y-106550858D01*
X153233099Y-106455045D01*
X153355045Y-106333099D01*
X153450858Y-106189705D01*
X153516855Y-106030374D01*
X153550500Y-105861229D01*
X153550500Y-105688771D01*
X153516855Y-105519626D01*
X153450858Y-105360295D01*
X153355045Y-105216901D01*
X153233099Y-105094955D01*
X153089705Y-104999142D01*
X153089704Y-104999141D01*
X153089702Y-104999140D01*
X152930378Y-104933146D01*
X152930367Y-104933143D01*
X152802942Y-104907797D01*
X152761229Y-104899500D01*
X152588771Y-104899500D01*
X152555309Y-104906155D01*
X152419632Y-104933143D01*
X152419621Y-104933146D01*
X152260297Y-104999140D01*
X152116904Y-105094952D01*
X151994952Y-105216904D01*
X151899140Y-105360297D01*
X151833146Y-105519621D01*
X151833143Y-105519632D01*
X151799500Y-105688771D01*
X149595500Y-105688771D01*
X149595500Y-105643880D01*
X149561270Y-105383884D01*
X149493398Y-105130581D01*
X149397681Y-104899500D01*
X149393044Y-104888305D01*
X149393043Y-104888303D01*
X149261924Y-104661197D01*
X149252362Y-104648736D01*
X149102282Y-104453149D01*
X148916851Y-104267718D01*
X148708803Y-104108076D01*
X148708804Y-104108076D01*
X148708802Y-104108075D01*
X148481696Y-103976956D01*
X148481694Y-103976955D01*
X148298203Y-103900951D01*
X148239419Y-103876602D01*
X148239417Y-103876601D01*
X148239416Y-103876601D01*
X147986114Y-103808729D01*
X147794578Y-103783512D01*
X147726120Y-103774500D01*
X147463880Y-103774500D01*
X147403386Y-103782464D01*
X147203885Y-103808729D01*
X146950584Y-103876601D01*
X146950583Y-103876601D01*
X146708305Y-103976955D01*
X146708303Y-103976956D01*
X146481197Y-104108075D01*
X146273144Y-104267722D01*
X146087722Y-104453144D01*
X145928075Y-104661197D01*
X145796956Y-104888303D01*
X145796955Y-104888305D01*
X145696601Y-105130583D01*
X145696601Y-105130584D01*
X145628729Y-105383885D01*
X145610858Y-105519632D01*
X145595958Y-105632810D01*
X145594500Y-105643881D01*
X143381571Y-105643881D01*
X143356855Y-105519626D01*
X143290858Y-105360295D01*
X143195045Y-105216901D01*
X143073099Y-105094955D01*
X142929705Y-104999142D01*
X142929704Y-104999141D01*
X142929702Y-104999140D01*
X142770378Y-104933146D01*
X142770367Y-104933143D01*
X142642942Y-104907797D01*
X142601229Y-104899500D01*
X142428771Y-104899500D01*
X142395309Y-104906155D01*
X142259632Y-104933143D01*
X142259621Y-104933146D01*
X142100297Y-104999140D01*
X141956904Y-105094952D01*
X141834952Y-105216904D01*
X141739140Y-105360297D01*
X141673146Y-105519621D01*
X141673143Y-105519632D01*
X141639500Y-105688771D01*
X135667622Y-105688771D01*
X135723583Y-105632810D01*
X135996098Y-105360295D01*
X136270480Y-105085913D01*
X136323206Y-104994588D01*
X136323207Y-104994587D01*
X136350500Y-104892727D01*
X136350500Y-103114940D01*
X142259500Y-103114940D01*
X142259500Y-103355059D01*
X142297062Y-103592219D01*
X142297065Y-103592232D01*
X142371262Y-103820585D01*
X142371264Y-103820590D01*
X142480274Y-104034532D01*
X142480277Y-104034538D01*
X142621410Y-104228791D01*
X142621414Y-104228796D01*
X142791204Y-104398586D01*
X142791207Y-104398588D01*
X142791208Y-104398589D01*
X142866303Y-104453149D01*
X142985464Y-104539724D01*
X143199411Y-104648736D01*
X143199413Y-104648736D01*
X143199414Y-104648737D01*
X143427767Y-104722934D01*
X143427773Y-104722935D01*
X143427778Y-104722937D01*
X143585886Y-104747979D01*
X143664940Y-104760500D01*
X143664941Y-104760500D01*
X143905060Y-104760500D01*
X143964349Y-104751109D01*
X144142222Y-104722937D01*
X144142229Y-104722934D01*
X144142232Y-104722934D01*
X144292505Y-104674107D01*
X144370589Y-104648736D01*
X144584536Y-104539724D01*
X144778796Y-104398586D01*
X144948586Y-104228796D01*
X145089724Y-104034536D01*
X145198736Y-103820589D01*
X145272937Y-103592222D01*
X145310500Y-103355059D01*
X145310500Y-103114941D01*
X145272937Y-102877778D01*
X145272935Y-102877773D01*
X145272934Y-102877767D01*
X145198737Y-102649414D01*
X145198735Y-102649409D01*
X145194941Y-102641964D01*
X145089724Y-102435464D01*
X144948586Y-102241204D01*
X144778796Y-102071414D01*
X144778793Y-102071411D01*
X144778791Y-102071410D01*
X144584538Y-101930277D01*
X144584532Y-101930274D01*
X144370590Y-101821264D01*
X144370585Y-101821262D01*
X144142232Y-101747065D01*
X144142219Y-101747062D01*
X143905060Y-101709500D01*
X143905059Y-101709500D01*
X143664941Y-101709500D01*
X143664940Y-101709500D01*
X143427780Y-101747062D01*
X143427767Y-101747065D01*
X143199414Y-101821262D01*
X143199409Y-101821264D01*
X142985467Y-101930274D01*
X142985461Y-101930277D01*
X142791208Y-102071410D01*
X142621410Y-102241208D01*
X142480277Y-102435461D01*
X142480274Y-102435467D01*
X142371264Y-102649409D01*
X142371262Y-102649414D01*
X142297065Y-102877767D01*
X142297062Y-102877780D01*
X142259500Y-103114940D01*
X136350500Y-103114940D01*
X136350500Y-100574940D01*
X148609500Y-100574940D01*
X148609500Y-100815059D01*
X148647062Y-101052219D01*
X148647065Y-101052232D01*
X148721262Y-101280585D01*
X148721264Y-101280590D01*
X148822687Y-101479643D01*
X148830276Y-101494536D01*
X148971414Y-101688796D01*
X149141204Y-101858586D01*
X149335464Y-101999724D01*
X149549411Y-102108736D01*
X149549413Y-102108736D01*
X149549414Y-102108737D01*
X149777767Y-102182934D01*
X149777773Y-102182935D01*
X149777778Y-102182937D01*
X149935886Y-102207979D01*
X150014940Y-102220500D01*
X150014941Y-102220500D01*
X150255060Y-102220500D01*
X150314349Y-102211109D01*
X150492222Y-102182937D01*
X150492229Y-102182934D01*
X150492232Y-102182934D01*
X150595907Y-102149247D01*
X150720589Y-102108736D01*
X150934536Y-101999724D01*
X151128796Y-101858586D01*
X151298586Y-101688796D01*
X151439724Y-101494536D01*
X151548736Y-101280589D01*
X151622937Y-101052222D01*
X151660500Y-100815059D01*
X151660500Y-100574941D01*
X151622937Y-100337778D01*
X151622935Y-100337773D01*
X151622934Y-100337767D01*
X151548737Y-100109414D01*
X151548735Y-100109409D01*
X151544941Y-100101964D01*
X151439724Y-99895464D01*
X151298586Y-99701204D01*
X151128796Y-99531414D01*
X151128793Y-99531411D01*
X151128791Y-99531410D01*
X150934538Y-99390277D01*
X150934532Y-99390274D01*
X150720590Y-99281264D01*
X150720585Y-99281262D01*
X150492232Y-99207065D01*
X150492219Y-99207062D01*
X150255060Y-99169500D01*
X150255059Y-99169500D01*
X150014941Y-99169500D01*
X150014940Y-99169500D01*
X149777780Y-99207062D01*
X149777767Y-99207065D01*
X149549414Y-99281262D01*
X149549409Y-99281264D01*
X149335467Y-99390274D01*
X149335461Y-99390277D01*
X149141208Y-99531410D01*
X148971410Y-99701208D01*
X148830277Y-99895461D01*
X148830274Y-99895467D01*
X148721264Y-100109409D01*
X148721262Y-100109414D01*
X148647065Y-100337767D01*
X148647062Y-100337780D01*
X148609500Y-100574940D01*
X136350500Y-100574940D01*
X136350500Y-99022273D01*
X136323207Y-98920413D01*
X136323207Y-98920412D01*
X136270480Y-98829087D01*
X135095913Y-97654520D01*
X135095910Y-97654518D01*
X135095909Y-97654517D01*
X135004592Y-97601795D01*
X135004588Y-97601793D01*
X134902727Y-97574500D01*
X134902726Y-97574500D01*
X133158676Y-97574500D01*
X133106350Y-97552826D01*
X133088015Y-97534491D01*
X132962486Y-97462016D01*
X132962481Y-97462014D01*
X132822477Y-97424500D01*
X132822475Y-97424500D01*
X132677525Y-97424500D01*
X132677523Y-97424500D01*
X132537518Y-97462014D01*
X132537513Y-97462016D01*
X132411984Y-97534491D01*
X132309491Y-97636984D01*
X132237016Y-97762513D01*
X132237014Y-97762518D01*
X132199500Y-97902522D01*
X132199500Y-98047477D01*
X132237014Y-98187481D01*
X132237016Y-98187486D01*
X132309491Y-98313015D01*
X132411985Y-98415509D01*
X132537515Y-98487984D01*
X132537516Y-98487984D01*
X132537518Y-98487985D01*
X132607520Y-98506742D01*
X132677522Y-98525499D01*
X132677523Y-98525500D01*
X132677525Y-98525500D01*
X132822477Y-98525500D01*
X132822477Y-98525499D01*
X132962485Y-98487984D01*
X133088015Y-98415509D01*
X133106350Y-98397174D01*
X133158676Y-98375500D01*
X134653455Y-98375500D01*
X134705781Y-98397174D01*
X135527826Y-99219219D01*
X135549500Y-99271545D01*
X135549500Y-104643455D01*
X135527826Y-104695781D01*
X134176762Y-106046845D01*
X134124436Y-106068519D01*
X134072110Y-106046845D01*
X134050436Y-105994519D01*
X134051857Y-105980088D01*
X134075500Y-105861229D01*
X134075500Y-105688771D01*
X134041855Y-105519626D01*
X133975858Y-105360295D01*
X133880045Y-105216901D01*
X133758099Y-105094955D01*
X133614705Y-104999142D01*
X133614704Y-104999141D01*
X133614702Y-104999140D01*
X133455378Y-104933146D01*
X133455367Y-104933143D01*
X133327942Y-104907797D01*
X133286229Y-104899500D01*
X133113771Y-104899500D01*
X133080309Y-104906155D01*
X132944632Y-104933143D01*
X132944621Y-104933146D01*
X132785297Y-104999140D01*
X132641904Y-105094952D01*
X132519952Y-105216904D01*
X132424140Y-105360297D01*
X132358146Y-105519621D01*
X132358143Y-105519632D01*
X132324500Y-105688771D01*
X132324500Y-105861228D01*
X132358143Y-106030367D01*
X132358146Y-106030378D01*
X132424140Y-106189702D01*
X132424141Y-106189704D01*
X132424142Y-106189705D01*
X132519955Y-106333099D01*
X132641901Y-106455045D01*
X132785295Y-106550858D01*
X132785296Y-106550858D01*
X132785297Y-106550859D01*
X132944621Y-106616853D01*
X132944626Y-106616855D01*
X133113771Y-106650500D01*
X133113772Y-106650500D01*
X133286228Y-106650500D01*
X133286229Y-106650500D01*
X133455374Y-106616855D01*
X133614705Y-106550858D01*
X133639388Y-106534364D01*
X133694936Y-106523316D01*
X133742029Y-106554782D01*
X133754500Y-106595894D01*
X133754500Y-109795500D01*
X133732826Y-109847826D01*
X133680500Y-109869500D01*
X133587523Y-109869500D01*
X133447518Y-109907014D01*
X133447513Y-109907016D01*
X133321984Y-109979491D01*
X133219491Y-110081984D01*
X133147016Y-110207513D01*
X133147014Y-110207518D01*
X133109500Y-110347522D01*
X133109500Y-110492477D01*
X133147014Y-110632481D01*
X133147016Y-110632486D01*
X133219491Y-110758015D01*
X133262826Y-110801350D01*
X133284500Y-110853676D01*
X133284500Y-112353811D01*
X133262826Y-112406137D01*
X132524525Y-113144437D01*
X132475090Y-113230060D01*
X132475088Y-113230065D01*
X132449500Y-113325562D01*
X132449500Y-121263811D01*
X132427826Y-121316137D01*
X131124525Y-122619437D01*
X131075090Y-122705060D01*
X131075088Y-122705065D01*
X131049500Y-122800562D01*
X131049500Y-126499437D01*
X131075088Y-126594934D01*
X131075090Y-126594939D01*
X131124525Y-126680562D01*
X133262826Y-128818863D01*
X133284500Y-128871189D01*
X133284500Y-131560500D01*
X133262826Y-131612826D01*
X133210500Y-131634500D01*
X133062523Y-131634500D01*
X132922518Y-131672014D01*
X132922513Y-131672016D01*
X132796984Y-131744491D01*
X132694491Y-131846984D01*
X132622016Y-131972513D01*
X132622014Y-131972518D01*
X132584500Y-132112522D01*
X132584500Y-132257477D01*
X132622014Y-132397481D01*
X132622016Y-132397486D01*
X132694491Y-132523015D01*
X132787826Y-132616350D01*
X132809500Y-132668676D01*
X132809500Y-132702727D01*
X132818822Y-132737518D01*
X132836793Y-132804588D01*
X132836795Y-132804592D01*
X132889517Y-132895909D01*
X132889518Y-132895910D01*
X132889520Y-132895913D01*
X133156089Y-133162481D01*
X133290979Y-133297371D01*
X133302736Y-133312693D01*
X133309520Y-133324442D01*
X140638127Y-140653049D01*
X147896907Y-147911829D01*
X147918581Y-147964155D01*
X147896907Y-148016481D01*
X147844581Y-148038155D01*
X147844575Y-148038155D01*
X115504494Y-148035672D01*
X115452170Y-148013994D01*
X115430500Y-147961672D01*
X115430500Y-146543104D01*
X135199499Y-146543104D01*
X135208995Y-146622174D01*
X135210123Y-146631564D01*
X135219168Y-146654500D01*
X135265638Y-146772341D01*
X135337409Y-146866984D01*
X135357078Y-146892922D01*
X135477658Y-146984361D01*
X135618436Y-147039877D01*
X135689764Y-147048442D01*
X135706896Y-147050500D01*
X135706898Y-147050500D01*
X136493104Y-147050500D01*
X136508722Y-147048624D01*
X136581564Y-147039877D01*
X136722342Y-146984361D01*
X136842922Y-146892922D01*
X136934361Y-146772342D01*
X136989877Y-146631564D01*
X137000486Y-146543220D01*
X137000500Y-146543104D01*
X137000500Y-145526131D01*
X137350000Y-145526131D01*
X137350000Y-145675000D01*
X137782457Y-145675000D01*
X137750556Y-145730255D01*
X137725000Y-145825630D01*
X137725000Y-145924370D01*
X137750556Y-146019745D01*
X137782457Y-146075000D01*
X137350000Y-146075000D01*
X137350000Y-146223868D01*
X137378820Y-146368760D01*
X137378822Y-146368767D01*
X137435357Y-146505254D01*
X137517436Y-146628096D01*
X137621903Y-146732563D01*
X137744745Y-146814642D01*
X137881231Y-146871177D01*
X137881235Y-146871178D01*
X137899999Y-146874910D01*
X137900000Y-146874910D01*
X137900000Y-146192542D01*
X137955255Y-146224444D01*
X138050630Y-146250000D01*
X138149370Y-146250000D01*
X138244745Y-146224444D01*
X138300000Y-146192542D01*
X138300000Y-146874910D01*
X138318764Y-146871178D01*
X138318768Y-146871177D01*
X138455254Y-146814642D01*
X138578096Y-146732563D01*
X138578098Y-146732562D01*
X138682562Y-146628098D01*
X138682563Y-146628096D01*
X138764642Y-146505254D01*
X138821177Y-146368767D01*
X138821179Y-146368760D01*
X138850000Y-146223868D01*
X138850000Y-146075000D01*
X138417543Y-146075000D01*
X138449444Y-146019745D01*
X138475000Y-145924370D01*
X138475000Y-145825630D01*
X138449444Y-145730255D01*
X138417543Y-145675000D01*
X138850000Y-145675000D01*
X138850000Y-145526131D01*
X138821179Y-145381239D01*
X138821177Y-145381232D01*
X138764642Y-145244745D01*
X138682563Y-145121903D01*
X138578096Y-145017436D01*
X138455254Y-144935357D01*
X138318767Y-144878822D01*
X138318760Y-144878820D01*
X138300000Y-144875088D01*
X138300000Y-145557457D01*
X138244745Y-145525556D01*
X138149370Y-145500000D01*
X138050630Y-145500000D01*
X137955255Y-145525556D01*
X137900000Y-145557457D01*
X137900000Y-144875089D01*
X137899999Y-144875088D01*
X137881239Y-144878820D01*
X137881232Y-144878822D01*
X137744745Y-144935357D01*
X137621903Y-145017436D01*
X137621902Y-145017438D01*
X137517438Y-145121902D01*
X137517436Y-145121903D01*
X137435357Y-145244745D01*
X137378822Y-145381232D01*
X137378820Y-145381239D01*
X137350000Y-145526131D01*
X137000500Y-145526131D01*
X137000500Y-145206895D01*
X136997686Y-145183467D01*
X136989877Y-145118436D01*
X136934361Y-144977658D01*
X136842922Y-144857078D01*
X136826174Y-144844377D01*
X136722341Y-144765638D01*
X136608996Y-144720941D01*
X136581564Y-144710123D01*
X136552076Y-144706582D01*
X136493104Y-144699500D01*
X136493102Y-144699500D01*
X135706898Y-144699500D01*
X135706896Y-144699500D01*
X135618436Y-144710123D01*
X135477658Y-144765638D01*
X135357078Y-144857077D01*
X135357077Y-144857078D01*
X135265638Y-144977658D01*
X135210123Y-145118436D01*
X135200668Y-145197174D01*
X135199500Y-145206898D01*
X135199500Y-146543102D01*
X135199500Y-146543104D01*
X135199499Y-146543104D01*
X115430500Y-146543104D01*
X115430500Y-144196006D01*
X120500000Y-144196006D01*
X120500000Y-144475000D01*
X120800000Y-144475000D01*
X120800000Y-144875000D01*
X120500000Y-144875000D01*
X120500000Y-145153993D01*
X120540887Y-145306587D01*
X120540889Y-145306592D01*
X120619878Y-145443404D01*
X120731595Y-145555121D01*
X120868411Y-145634111D01*
X120899999Y-145642574D01*
X120900000Y-145642574D01*
X120900000Y-145299265D01*
X120915795Y-145315060D01*
X120984204Y-145354556D01*
X121060504Y-145375000D01*
X121139496Y-145375000D01*
X121215796Y-145354556D01*
X121284205Y-145315060D01*
X121300000Y-145299265D01*
X121300000Y-145642574D01*
X121331588Y-145634111D01*
X121468404Y-145555121D01*
X121580121Y-145443404D01*
X121659110Y-145306592D01*
X121659112Y-145306587D01*
X121699999Y-145153993D01*
X121700000Y-145153993D01*
X121700000Y-144875000D01*
X121400000Y-144875000D01*
X121400000Y-144475000D01*
X121700000Y-144475000D01*
X121700000Y-144196007D01*
X121699999Y-144196006D01*
X129150000Y-144196006D01*
X129150000Y-144475000D01*
X129450000Y-144475000D01*
X129450000Y-144875000D01*
X129150000Y-144875000D01*
X129150000Y-145153993D01*
X129190887Y-145306587D01*
X129190889Y-145306592D01*
X129269878Y-145443404D01*
X129381595Y-145555121D01*
X129518411Y-145634111D01*
X129549999Y-145642574D01*
X129550000Y-145642574D01*
X129550000Y-145299265D01*
X129565795Y-145315060D01*
X129634204Y-145354556D01*
X129710504Y-145375000D01*
X129789496Y-145375000D01*
X129865796Y-145354556D01*
X129934205Y-145315060D01*
X129950000Y-145299265D01*
X129950000Y-145642574D01*
X129981588Y-145634111D01*
X130118404Y-145555121D01*
X130230121Y-145443404D01*
X130309110Y-145306592D01*
X130309112Y-145306587D01*
X130341547Y-145185540D01*
X130341548Y-145185533D01*
X130350000Y-145153989D01*
X130350000Y-144875000D01*
X130050000Y-144875000D01*
X130050000Y-144475000D01*
X130350000Y-144475000D01*
X130350000Y-144196007D01*
X130349999Y-144196006D01*
X130309112Y-144043412D01*
X130309110Y-144043407D01*
X130230121Y-143906595D01*
X130118404Y-143794878D01*
X129981592Y-143715889D01*
X129981587Y-143715887D01*
X129950000Y-143707423D01*
X129950000Y-144050735D01*
X129934205Y-144034940D01*
X129865796Y-143995444D01*
X129789496Y-143975000D01*
X129710504Y-143975000D01*
X129634204Y-143995444D01*
X129565795Y-144034940D01*
X129550000Y-144050735D01*
X129550000Y-143707423D01*
X129549999Y-143707423D01*
X129518412Y-143715887D01*
X129518407Y-143715889D01*
X129381595Y-143794878D01*
X129269878Y-143906595D01*
X129190889Y-144043407D01*
X129190887Y-144043412D01*
X129150000Y-144196006D01*
X121699999Y-144196006D01*
X121659112Y-144043412D01*
X121659110Y-144043407D01*
X121580121Y-143906595D01*
X121468404Y-143794878D01*
X121331592Y-143715889D01*
X121331587Y-143715887D01*
X121300000Y-143707423D01*
X121300000Y-144050735D01*
X121284205Y-144034940D01*
X121215796Y-143995444D01*
X121139496Y-143975000D01*
X121060504Y-143975000D01*
X120984204Y-143995444D01*
X120915795Y-144034940D01*
X120900000Y-144050735D01*
X120900000Y-143707423D01*
X120899999Y-143707423D01*
X120868412Y-143715887D01*
X120868407Y-143715889D01*
X120731595Y-143794878D01*
X120619878Y-143906595D01*
X120540889Y-144043407D01*
X120540887Y-144043412D01*
X120500000Y-144196006D01*
X115430500Y-144196006D01*
X115430500Y-139876006D01*
X120500000Y-139876006D01*
X120500000Y-140305000D01*
X120800000Y-140305000D01*
X120800000Y-140705000D01*
X120500000Y-140705000D01*
X120500000Y-141133993D01*
X120540887Y-141286587D01*
X120540889Y-141286592D01*
X120619878Y-141423404D01*
X120731595Y-141535121D01*
X120868411Y-141614111D01*
X120899999Y-141622574D01*
X120900000Y-141622574D01*
X120900000Y-141279265D01*
X120915795Y-141295060D01*
X120984204Y-141334556D01*
X121060504Y-141355000D01*
X121139496Y-141355000D01*
X121215796Y-141334556D01*
X121284205Y-141295060D01*
X121300000Y-141279265D01*
X121300000Y-141622574D01*
X121331588Y-141614111D01*
X121468404Y-141535121D01*
X121580121Y-141423404D01*
X121659110Y-141286592D01*
X121659112Y-141286587D01*
X121699999Y-141133993D01*
X121700000Y-141133993D01*
X121700000Y-140955435D01*
X122234500Y-140955435D01*
X122234500Y-141034564D01*
X122254977Y-141110985D01*
X122254979Y-141110990D01*
X122289508Y-141170796D01*
X122294540Y-141179511D01*
X122350489Y-141235460D01*
X122384394Y-141255035D01*
X122407274Y-141268245D01*
X122419011Y-141275021D01*
X122419012Y-141275021D01*
X122419014Y-141275022D01*
X122438988Y-141280374D01*
X122495435Y-141295499D01*
X122495436Y-141295500D01*
X122495438Y-141295500D01*
X122574564Y-141295500D01*
X122574564Y-141295499D01*
X122650989Y-141275021D01*
X122719511Y-141235460D01*
X122775460Y-141179511D01*
X122815021Y-141110989D01*
X122835499Y-141034564D01*
X122835500Y-141034564D01*
X122835500Y-140955436D01*
X122835499Y-140955435D01*
X128014500Y-140955435D01*
X128014500Y-141034564D01*
X128034977Y-141110985D01*
X128034979Y-141110990D01*
X128069508Y-141170796D01*
X128074540Y-141179511D01*
X128130489Y-141235460D01*
X128164394Y-141255035D01*
X128187274Y-141268245D01*
X128199011Y-141275021D01*
X128199012Y-141275021D01*
X128199014Y-141275022D01*
X128218988Y-141280374D01*
X128275435Y-141295499D01*
X128275436Y-141295500D01*
X128275438Y-141295500D01*
X128354564Y-141295500D01*
X128354564Y-141295499D01*
X128430989Y-141275021D01*
X128499511Y-141235460D01*
X128555460Y-141179511D01*
X128595021Y-141110989D01*
X128615499Y-141034564D01*
X128615500Y-141034564D01*
X128615500Y-140955436D01*
X128615499Y-140955435D01*
X128595022Y-140879014D01*
X128595020Y-140879009D01*
X128555459Y-140810488D01*
X128499511Y-140754540D01*
X128471614Y-140738434D01*
X128430990Y-140714979D01*
X128430985Y-140714977D01*
X128354564Y-140694500D01*
X128354562Y-140694500D01*
X128275438Y-140694500D01*
X128275436Y-140694500D01*
X128199014Y-140714977D01*
X128199009Y-140714979D01*
X128130488Y-140754540D01*
X128074540Y-140810488D01*
X128034979Y-140879009D01*
X128034977Y-140879014D01*
X128014500Y-140955435D01*
X122835499Y-140955435D01*
X122815022Y-140879014D01*
X122815020Y-140879009D01*
X122775459Y-140810488D01*
X122719511Y-140754540D01*
X122650990Y-140714979D01*
X122650985Y-140714977D01*
X122574564Y-140694500D01*
X122574562Y-140694500D01*
X122495438Y-140694500D01*
X122495436Y-140694500D01*
X122419014Y-140714977D01*
X122419009Y-140714979D01*
X122350488Y-140754540D01*
X122294540Y-140810488D01*
X122254979Y-140879009D01*
X122254977Y-140879014D01*
X122234500Y-140955435D01*
X121700000Y-140955435D01*
X121700000Y-140705000D01*
X121400000Y-140705000D01*
X121400000Y-140305000D01*
X121700000Y-140305000D01*
X121700000Y-139876007D01*
X121699999Y-139876006D01*
X129150000Y-139876006D01*
X129150000Y-140305000D01*
X129450000Y-140305000D01*
X129450000Y-140705000D01*
X129150000Y-140705000D01*
X129150000Y-141133993D01*
X129190887Y-141286587D01*
X129190889Y-141286592D01*
X129269878Y-141423404D01*
X129381595Y-141535121D01*
X129518411Y-141614111D01*
X129549999Y-141622574D01*
X129550000Y-141622574D01*
X129550000Y-141279265D01*
X129565795Y-141295060D01*
X129634204Y-141334556D01*
X129710504Y-141355000D01*
X129789496Y-141355000D01*
X129865796Y-141334556D01*
X129934205Y-141295060D01*
X129950000Y-141279265D01*
X129950000Y-141622574D01*
X129981588Y-141614111D01*
X130118404Y-141535121D01*
X130230121Y-141423404D01*
X130309110Y-141286592D01*
X130309112Y-141286587D01*
X130349999Y-141133993D01*
X130350000Y-141133993D01*
X130350000Y-140705000D01*
X130050000Y-140705000D01*
X130050000Y-140305000D01*
X130350000Y-140305000D01*
X130350000Y-139876007D01*
X130349999Y-139876006D01*
X130309112Y-139723412D01*
X130309110Y-139723407D01*
X130230121Y-139586595D01*
X130118404Y-139474878D01*
X129981592Y-139395889D01*
X129981587Y-139395887D01*
X129950000Y-139387423D01*
X129950000Y-139730735D01*
X129934205Y-139714940D01*
X129865796Y-139675444D01*
X129789496Y-139655000D01*
X129710504Y-139655000D01*
X129634204Y-139675444D01*
X129565795Y-139714940D01*
X129550000Y-139730735D01*
X129550000Y-139387423D01*
X129549999Y-139387423D01*
X129518412Y-139395887D01*
X129518407Y-139395889D01*
X129381595Y-139474878D01*
X129269878Y-139586595D01*
X129190889Y-139723407D01*
X129190887Y-139723412D01*
X129150000Y-139876006D01*
X121699999Y-139876006D01*
X121659112Y-139723412D01*
X121659110Y-139723407D01*
X121580121Y-139586595D01*
X121468404Y-139474878D01*
X121331592Y-139395889D01*
X121331587Y-139395887D01*
X121300000Y-139387423D01*
X121300000Y-139730735D01*
X121284205Y-139714940D01*
X121215796Y-139675444D01*
X121139496Y-139655000D01*
X121060504Y-139655000D01*
X120984204Y-139675444D01*
X120915795Y-139714940D01*
X120900000Y-139730735D01*
X120900000Y-139387423D01*
X120899999Y-139387423D01*
X120868412Y-139395887D01*
X120868407Y-139395889D01*
X120731595Y-139474878D01*
X120619878Y-139586595D01*
X120540889Y-139723407D01*
X120540887Y-139723412D01*
X120500000Y-139876006D01*
X115430500Y-139876006D01*
X115430500Y-138395940D01*
X125574500Y-138395940D01*
X125574500Y-138554059D01*
X125615421Y-138706779D01*
X125615422Y-138706781D01*
X125615423Y-138706784D01*
X125694480Y-138843716D01*
X125806284Y-138955520D01*
X125943216Y-139034577D01*
X126095940Y-139075499D01*
X126095941Y-139075500D01*
X126095943Y-139075500D01*
X126254059Y-139075500D01*
X126254059Y-139075499D01*
X126406784Y-139034577D01*
X126543716Y-138955520D01*
X126655520Y-138843716D01*
X126734577Y-138706784D01*
X126775499Y-138554059D01*
X126775500Y-138554059D01*
X126775500Y-138395941D01*
X126775499Y-138395940D01*
X126771034Y-138379278D01*
X126734577Y-138243216D01*
X126655520Y-138106284D01*
X126543716Y-137994480D01*
X126406784Y-137915423D01*
X126406781Y-137915422D01*
X126406779Y-137915421D01*
X126254059Y-137874500D01*
X126254057Y-137874500D01*
X126095943Y-137874500D01*
X126095941Y-137874500D01*
X125943220Y-137915421D01*
X125943214Y-137915424D01*
X125806283Y-137994480D01*
X125694480Y-138106283D01*
X125615424Y-138243214D01*
X125615421Y-138243220D01*
X125574500Y-138395940D01*
X115430500Y-138395940D01*
X115430500Y-136220940D01*
X133399500Y-136220940D01*
X133399500Y-136379059D01*
X133440421Y-136531779D01*
X133440422Y-136531781D01*
X133440423Y-136531784D01*
X133519480Y-136668716D01*
X133631284Y-136780520D01*
X133768216Y-136859577D01*
X133920940Y-136900499D01*
X133920941Y-136900500D01*
X133920943Y-136900500D01*
X134079059Y-136900500D01*
X134079059Y-136900499D01*
X134231784Y-136859577D01*
X134368716Y-136780520D01*
X134480520Y-136668716D01*
X134559577Y-136531784D01*
X134600499Y-136379059D01*
X134600500Y-136379059D01*
X134600500Y-136220941D01*
X134600499Y-136220940D01*
X134589909Y-136181419D01*
X134559577Y-136068216D01*
X134480520Y-135931284D01*
X134368716Y-135819480D01*
X134231784Y-135740423D01*
X134231781Y-135740422D01*
X134231779Y-135740421D01*
X134079059Y-135699500D01*
X134079057Y-135699500D01*
X133920943Y-135699500D01*
X133920941Y-135699500D01*
X133768220Y-135740421D01*
X133768214Y-135740424D01*
X133631283Y-135819480D01*
X133519480Y-135931283D01*
X133440424Y-136068214D01*
X133440421Y-136068220D01*
X133399500Y-136220940D01*
X115430500Y-136220940D01*
X115430500Y-134488388D01*
X117099500Y-134488388D01*
X117099500Y-134661611D01*
X117126597Y-134832698D01*
X117126600Y-134832711D01*
X117180125Y-134997442D01*
X117180127Y-134997446D01*
X117258767Y-135151787D01*
X117359492Y-135290423D01*
X117360586Y-135291928D01*
X117483072Y-135414414D01*
X117483075Y-135414416D01*
X117483076Y-135414417D01*
X117623212Y-135516232D01*
X117777553Y-135594872D01*
X117777557Y-135594874D01*
X117942288Y-135648399D01*
X117942294Y-135648400D01*
X117942299Y-135648402D01*
X118028463Y-135662049D01*
X118113388Y-135675500D01*
X118113389Y-135675500D01*
X118286612Y-135675500D01*
X118329443Y-135668716D01*
X118457701Y-135648402D01*
X118457708Y-135648399D01*
X118457711Y-135648399D01*
X118622442Y-135594874D01*
X118622442Y-135594873D01*
X118622445Y-135594873D01*
X118776788Y-135516232D01*
X118916928Y-135414414D01*
X119039414Y-135291928D01*
X119141232Y-135151788D01*
X119219873Y-134997445D01*
X119233247Y-134956284D01*
X119273399Y-134832711D01*
X119273399Y-134832708D01*
X119273402Y-134832701D01*
X119300500Y-134661611D01*
X119300500Y-134488389D01*
X119273402Y-134317299D01*
X119273400Y-134317294D01*
X119273399Y-134317288D01*
X119219874Y-134152557D01*
X119219872Y-134152553D01*
X119141232Y-133998212D01*
X119039417Y-133858076D01*
X119039416Y-133858075D01*
X119039414Y-133858072D01*
X118916928Y-133735586D01*
X118916925Y-133735583D01*
X118916923Y-133735582D01*
X118776787Y-133633767D01*
X118622446Y-133555127D01*
X118622442Y-133555125D01*
X118457711Y-133501600D01*
X118457698Y-133501597D01*
X118286612Y-133474500D01*
X118286611Y-133474500D01*
X118113389Y-133474500D01*
X118113388Y-133474500D01*
X117942301Y-133501597D01*
X117942288Y-133501600D01*
X117777557Y-133555125D01*
X117777553Y-133555127D01*
X117623212Y-133633767D01*
X117483076Y-133735582D01*
X117360582Y-133858076D01*
X117258767Y-133998212D01*
X117180127Y-134152553D01*
X117180125Y-134152557D01*
X117126600Y-134317288D01*
X117126597Y-134317301D01*
X117099500Y-134488388D01*
X115430500Y-134488388D01*
X115430500Y-124863771D01*
X122164500Y-124863771D01*
X122164500Y-125036228D01*
X122198143Y-125205367D01*
X122198146Y-125205378D01*
X122264140Y-125364702D01*
X122338852Y-125476517D01*
X122359955Y-125508099D01*
X122481901Y-125630045D01*
X122625295Y-125725858D01*
X122784626Y-125791855D01*
X122953771Y-125825500D01*
X122953772Y-125825500D01*
X123126228Y-125825500D01*
X123126229Y-125825500D01*
X123295374Y-125791855D01*
X123454705Y-125725858D01*
X123598099Y-125630045D01*
X123720045Y-125508099D01*
X123815858Y-125364705D01*
X123881855Y-125205374D01*
X123915500Y-125036229D01*
X123915500Y-124863771D01*
X123906571Y-124818881D01*
X126119500Y-124818881D01*
X126119500Y-125081118D01*
X126153729Y-125341114D01*
X126221601Y-125594415D01*
X126221601Y-125594416D01*
X126321955Y-125836694D01*
X126321956Y-125836696D01*
X126446523Y-126052452D01*
X126453076Y-126063803D01*
X126612718Y-126271851D01*
X126798149Y-126457282D01*
X127006197Y-126616924D01*
X127233303Y-126748043D01*
X127475581Y-126848398D01*
X127728884Y-126916270D01*
X127988880Y-126950500D01*
X127988882Y-126950500D01*
X128251118Y-126950500D01*
X128251120Y-126950500D01*
X128511116Y-126916270D01*
X128764419Y-126848398D01*
X129006697Y-126748043D01*
X129233803Y-126616924D01*
X129441851Y-126457282D01*
X129627282Y-126271851D01*
X129786924Y-126063803D01*
X129918043Y-125836697D01*
X130018398Y-125594419D01*
X130086270Y-125341116D01*
X130120500Y-125081120D01*
X130120500Y-124818880D01*
X130086270Y-124558884D01*
X130018398Y-124305581D01*
X129918043Y-124063303D01*
X129786924Y-123836197D01*
X129627282Y-123628149D01*
X129441851Y-123442718D01*
X129275412Y-123315004D01*
X129233802Y-123283075D01*
X129006696Y-123151956D01*
X129006694Y-123151955D01*
X128823203Y-123075951D01*
X128764419Y-123051602D01*
X128764417Y-123051601D01*
X128764416Y-123051601D01*
X128511114Y-122983729D01*
X128319578Y-122958512D01*
X128251120Y-122949500D01*
X127988880Y-122949500D01*
X127928386Y-122957464D01*
X127728885Y-122983729D01*
X127475584Y-123051601D01*
X127475583Y-123051601D01*
X127233305Y-123151955D01*
X127233303Y-123151956D01*
X127006197Y-123283075D01*
X126798144Y-123442722D01*
X126612722Y-123628144D01*
X126612718Y-123628148D01*
X126612718Y-123628149D01*
X126603238Y-123640503D01*
X126453075Y-123836197D01*
X126321956Y-124063303D01*
X126321955Y-124063305D01*
X126221601Y-124305583D01*
X126221601Y-124305584D01*
X126153729Y-124558885D01*
X126119500Y-124818881D01*
X123906571Y-124818881D01*
X123881855Y-124694626D01*
X123867268Y-124659409D01*
X123815859Y-124535297D01*
X123780945Y-124483045D01*
X123720045Y-124391901D01*
X123598099Y-124269955D01*
X123454705Y-124174142D01*
X123454704Y-124174141D01*
X123454702Y-124174140D01*
X123295378Y-124108146D01*
X123295367Y-124108143D01*
X123167942Y-124082797D01*
X123126229Y-124074500D01*
X122953771Y-124074500D01*
X122920309Y-124081155D01*
X122784632Y-124108143D01*
X122784621Y-124108146D01*
X122625297Y-124174140D01*
X122481904Y-124269952D01*
X122359952Y-124391904D01*
X122264140Y-124535297D01*
X122198146Y-124694621D01*
X122198143Y-124694632D01*
X122164500Y-124863771D01*
X115430500Y-124863771D01*
X115430500Y-122289940D01*
X122784500Y-122289940D01*
X122784500Y-122530059D01*
X122822062Y-122767219D01*
X122822065Y-122767232D01*
X122896262Y-122995585D01*
X122896264Y-122995590D01*
X123005274Y-123209532D01*
X123005277Y-123209538D01*
X123146410Y-123403791D01*
X123146414Y-123403796D01*
X123316204Y-123573586D01*
X123316207Y-123573588D01*
X123316208Y-123573589D01*
X123391303Y-123628149D01*
X123510464Y-123714724D01*
X123724411Y-123823736D01*
X123724413Y-123823736D01*
X123724414Y-123823737D01*
X123952767Y-123897934D01*
X123952773Y-123897935D01*
X123952778Y-123897937D01*
X124110886Y-123922979D01*
X124189940Y-123935500D01*
X124189941Y-123935500D01*
X124430060Y-123935500D01*
X124489349Y-123926109D01*
X124667222Y-123897937D01*
X124667229Y-123897934D01*
X124667232Y-123897934D01*
X124770907Y-123864247D01*
X124895589Y-123823736D01*
X125109536Y-123714724D01*
X125303796Y-123573586D01*
X125473586Y-123403796D01*
X125614724Y-123209536D01*
X125723736Y-122995589D01*
X125776241Y-122833996D01*
X125797934Y-122767232D01*
X125797934Y-122767229D01*
X125797937Y-122767222D01*
X125835500Y-122530059D01*
X125835500Y-122289941D01*
X125797937Y-122052778D01*
X125797935Y-122052773D01*
X125797934Y-122052767D01*
X125723737Y-121824414D01*
X125723735Y-121824409D01*
X125702497Y-121782727D01*
X125614724Y-121610464D01*
X125603444Y-121594939D01*
X125473589Y-121416208D01*
X125473588Y-121416207D01*
X125473586Y-121416204D01*
X125303796Y-121246414D01*
X125303793Y-121246411D01*
X125303791Y-121246410D01*
X125109538Y-121105277D01*
X125109532Y-121105274D01*
X125100168Y-121100503D01*
X125056897Y-121078455D01*
X124895590Y-120996264D01*
X124895585Y-120996262D01*
X124667232Y-120922065D01*
X124667219Y-120922062D01*
X124430060Y-120884500D01*
X124430059Y-120884500D01*
X124189941Y-120884500D01*
X124189940Y-120884500D01*
X123952780Y-120922062D01*
X123952767Y-120922065D01*
X123724414Y-120996262D01*
X123724409Y-120996264D01*
X123510467Y-121105274D01*
X123510461Y-121105277D01*
X123316208Y-121246410D01*
X123146410Y-121416208D01*
X123005277Y-121610461D01*
X123005274Y-121610467D01*
X122896264Y-121824409D01*
X122896262Y-121824414D01*
X122822065Y-122052767D01*
X122822062Y-122052780D01*
X122784500Y-122289940D01*
X115430500Y-122289940D01*
X115430500Y-119749940D01*
X129134500Y-119749940D01*
X129134500Y-119990059D01*
X129172062Y-120227219D01*
X129172065Y-120227232D01*
X129246262Y-120455585D01*
X129246264Y-120455590D01*
X129355274Y-120669532D01*
X129355277Y-120669538D01*
X129496410Y-120863791D01*
X129496414Y-120863796D01*
X129666204Y-121033586D01*
X129666207Y-121033588D01*
X129666208Y-121033589D01*
X129799981Y-121130781D01*
X129860464Y-121174724D01*
X130074411Y-121283736D01*
X130074413Y-121283736D01*
X130074414Y-121283737D01*
X130302767Y-121357934D01*
X130302773Y-121357935D01*
X130302778Y-121357937D01*
X130460886Y-121382979D01*
X130539940Y-121395500D01*
X130539941Y-121395500D01*
X130780060Y-121395500D01*
X130839349Y-121386109D01*
X131017222Y-121357937D01*
X131017229Y-121357934D01*
X131017232Y-121357934D01*
X131145869Y-121316137D01*
X131245589Y-121283736D01*
X131459536Y-121174724D01*
X131653796Y-121033586D01*
X131823586Y-120863796D01*
X131964724Y-120669536D01*
X132073736Y-120455589D01*
X132147037Y-120229992D01*
X132147934Y-120227232D01*
X132147934Y-120227229D01*
X132147937Y-120227222D01*
X132185500Y-119990059D01*
X132185500Y-119749941D01*
X132147937Y-119512778D01*
X132147935Y-119512773D01*
X132147934Y-119512767D01*
X132073737Y-119284414D01*
X132073735Y-119284409D01*
X132069941Y-119276964D01*
X131964724Y-119070464D01*
X131823586Y-118876204D01*
X131653796Y-118706414D01*
X131653793Y-118706411D01*
X131653791Y-118706410D01*
X131459538Y-118565277D01*
X131459532Y-118565274D01*
X131245590Y-118456264D01*
X131245585Y-118456262D01*
X131017232Y-118382065D01*
X131017219Y-118382062D01*
X130780060Y-118344500D01*
X130780059Y-118344500D01*
X130539941Y-118344500D01*
X130539940Y-118344500D01*
X130302780Y-118382062D01*
X130302767Y-118382065D01*
X130074414Y-118456262D01*
X130074409Y-118456264D01*
X129860467Y-118565274D01*
X129860461Y-118565277D01*
X129666208Y-118706410D01*
X129496410Y-118876208D01*
X129355277Y-119070461D01*
X129355274Y-119070467D01*
X129246264Y-119284409D01*
X129246262Y-119284414D01*
X129172065Y-119512767D01*
X129172062Y-119512780D01*
X129134500Y-119749940D01*
X115430500Y-119749940D01*
X115430500Y-105688771D01*
X122164500Y-105688771D01*
X122164500Y-105861228D01*
X122198143Y-106030367D01*
X122198146Y-106030378D01*
X122264140Y-106189702D01*
X122264141Y-106189704D01*
X122264142Y-106189705D01*
X122359955Y-106333099D01*
X122481901Y-106455045D01*
X122625295Y-106550858D01*
X122625296Y-106550858D01*
X122625297Y-106550859D01*
X122784621Y-106616853D01*
X122784626Y-106616855D01*
X122953771Y-106650500D01*
X122953772Y-106650500D01*
X123126228Y-106650500D01*
X123126229Y-106650500D01*
X123295374Y-106616855D01*
X123454705Y-106550858D01*
X123598099Y-106455045D01*
X123720045Y-106333099D01*
X123815858Y-106189705D01*
X123881855Y-106030374D01*
X123915500Y-105861229D01*
X123915500Y-105688771D01*
X123906571Y-105643881D01*
X126119500Y-105643881D01*
X126119500Y-105906118D01*
X126153729Y-106166114D01*
X126221601Y-106419415D01*
X126221601Y-106419416D01*
X126321955Y-106661694D01*
X126321956Y-106661696D01*
X126321957Y-106661697D01*
X126453076Y-106888803D01*
X126612718Y-107096851D01*
X126798149Y-107282282D01*
X127006197Y-107441924D01*
X127233303Y-107573043D01*
X127475581Y-107673398D01*
X127728884Y-107741270D01*
X127988880Y-107775500D01*
X127988882Y-107775500D01*
X128251118Y-107775500D01*
X128251120Y-107775500D01*
X128511116Y-107741270D01*
X128764419Y-107673398D01*
X129006697Y-107573043D01*
X129233803Y-107441924D01*
X129441851Y-107282282D01*
X129627282Y-107096851D01*
X129786924Y-106888803D01*
X129918043Y-106661697D01*
X130018398Y-106419419D01*
X130086270Y-106166116D01*
X130120500Y-105906120D01*
X130120500Y-105643880D01*
X130086270Y-105383884D01*
X130018398Y-105130581D01*
X129922681Y-104899500D01*
X129918044Y-104888305D01*
X129918043Y-104888303D01*
X129786924Y-104661197D01*
X129777362Y-104648736D01*
X129627282Y-104453149D01*
X129441851Y-104267718D01*
X129233803Y-104108076D01*
X129233804Y-104108076D01*
X129233802Y-104108075D01*
X129006696Y-103976956D01*
X129006694Y-103976955D01*
X128823203Y-103900951D01*
X128764419Y-103876602D01*
X128764417Y-103876601D01*
X128764416Y-103876601D01*
X128511114Y-103808729D01*
X128319578Y-103783512D01*
X128251120Y-103774500D01*
X127988880Y-103774500D01*
X127928386Y-103782464D01*
X127728885Y-103808729D01*
X127475584Y-103876601D01*
X127475583Y-103876601D01*
X127233305Y-103976955D01*
X127233303Y-103976956D01*
X127006197Y-104108075D01*
X126798144Y-104267722D01*
X126612722Y-104453144D01*
X126453075Y-104661197D01*
X126321956Y-104888303D01*
X126321955Y-104888305D01*
X126221601Y-105130583D01*
X126221601Y-105130584D01*
X126153729Y-105383885D01*
X126135858Y-105519632D01*
X126120958Y-105632810D01*
X126119500Y-105643881D01*
X123906571Y-105643881D01*
X123881855Y-105519626D01*
X123815858Y-105360295D01*
X123720045Y-105216901D01*
X123598099Y-105094955D01*
X123454705Y-104999142D01*
X123454704Y-104999141D01*
X123454702Y-104999140D01*
X123295378Y-104933146D01*
X123295367Y-104933143D01*
X123167942Y-104907797D01*
X123126229Y-104899500D01*
X122953771Y-104899500D01*
X122920309Y-104906155D01*
X122784632Y-104933143D01*
X122784621Y-104933146D01*
X122625297Y-104999140D01*
X122481904Y-105094952D01*
X122359952Y-105216904D01*
X122264140Y-105360297D01*
X122198146Y-105519621D01*
X122198143Y-105519632D01*
X122164500Y-105688771D01*
X115430500Y-105688771D01*
X115430500Y-103114940D01*
X122784500Y-103114940D01*
X122784500Y-103355059D01*
X122822062Y-103592219D01*
X122822065Y-103592232D01*
X122896262Y-103820585D01*
X122896264Y-103820590D01*
X123005274Y-104034532D01*
X123005277Y-104034538D01*
X123146410Y-104228791D01*
X123146414Y-104228796D01*
X123316204Y-104398586D01*
X123316207Y-104398588D01*
X123316208Y-104398589D01*
X123391303Y-104453149D01*
X123510464Y-104539724D01*
X123724411Y-104648736D01*
X123724413Y-104648736D01*
X123724414Y-104648737D01*
X123952767Y-104722934D01*
X123952773Y-104722935D01*
X123952778Y-104722937D01*
X124110886Y-104747979D01*
X124189940Y-104760500D01*
X124189941Y-104760500D01*
X124430060Y-104760500D01*
X124489349Y-104751109D01*
X124667222Y-104722937D01*
X124667229Y-104722934D01*
X124667232Y-104722934D01*
X124817505Y-104674107D01*
X124895589Y-104648736D01*
X125109536Y-104539724D01*
X125303796Y-104398586D01*
X125473586Y-104228796D01*
X125614724Y-104034536D01*
X125723736Y-103820589D01*
X125797937Y-103592222D01*
X125835500Y-103355059D01*
X125835500Y-103114941D01*
X125797937Y-102877778D01*
X125797935Y-102877773D01*
X125797934Y-102877767D01*
X125723737Y-102649414D01*
X125723735Y-102649409D01*
X125719941Y-102641964D01*
X125614724Y-102435464D01*
X125473586Y-102241204D01*
X125303796Y-102071414D01*
X125303793Y-102071411D01*
X125303791Y-102071410D01*
X125109538Y-101930277D01*
X125109532Y-101930274D01*
X124895590Y-101821264D01*
X124895585Y-101821262D01*
X124667232Y-101747065D01*
X124667219Y-101747062D01*
X124430060Y-101709500D01*
X124430059Y-101709500D01*
X124189941Y-101709500D01*
X124189940Y-101709500D01*
X123952780Y-101747062D01*
X123952767Y-101747065D01*
X123724414Y-101821262D01*
X123724409Y-101821264D01*
X123510467Y-101930274D01*
X123510461Y-101930277D01*
X123316208Y-102071410D01*
X123146410Y-102241208D01*
X123005277Y-102435461D01*
X123005274Y-102435467D01*
X122896264Y-102649409D01*
X122896262Y-102649414D01*
X122822065Y-102877767D01*
X122822062Y-102877780D01*
X122784500Y-103114940D01*
X115430500Y-103114940D01*
X115430500Y-100574940D01*
X129134500Y-100574940D01*
X129134500Y-100815059D01*
X129172062Y-101052219D01*
X129172065Y-101052232D01*
X129246262Y-101280585D01*
X129246264Y-101280590D01*
X129347687Y-101479643D01*
X129355276Y-101494536D01*
X129496414Y-101688796D01*
X129666204Y-101858586D01*
X129860464Y-101999724D01*
X130074411Y-102108736D01*
X130074413Y-102108736D01*
X130074414Y-102108737D01*
X130302767Y-102182934D01*
X130302773Y-102182935D01*
X130302778Y-102182937D01*
X130460886Y-102207979D01*
X130539940Y-102220500D01*
X130539941Y-102220500D01*
X130780060Y-102220500D01*
X130839349Y-102211109D01*
X131017222Y-102182937D01*
X131017229Y-102182934D01*
X131017232Y-102182934D01*
X131120907Y-102149247D01*
X131245589Y-102108736D01*
X131459536Y-101999724D01*
X131653796Y-101858586D01*
X131823586Y-101688796D01*
X131964724Y-101494536D01*
X132073736Y-101280589D01*
X132147937Y-101052222D01*
X132185500Y-100815059D01*
X132185500Y-100574941D01*
X132147937Y-100337778D01*
X132147935Y-100337773D01*
X132147934Y-100337767D01*
X132073737Y-100109414D01*
X132073735Y-100109409D01*
X132069941Y-100101964D01*
X131964724Y-99895464D01*
X131823586Y-99701204D01*
X131653796Y-99531414D01*
X131653793Y-99531411D01*
X131653791Y-99531410D01*
X131459538Y-99390277D01*
X131459532Y-99390274D01*
X131245590Y-99281264D01*
X131245585Y-99281262D01*
X131017232Y-99207065D01*
X131017219Y-99207062D01*
X130780060Y-99169500D01*
X130780059Y-99169500D01*
X130539941Y-99169500D01*
X130539940Y-99169500D01*
X130302780Y-99207062D01*
X130302767Y-99207065D01*
X130074414Y-99281262D01*
X130074409Y-99281264D01*
X129860467Y-99390274D01*
X129860461Y-99390277D01*
X129666208Y-99531410D01*
X129496410Y-99701208D01*
X129355277Y-99895461D01*
X129355274Y-99895467D01*
X129246264Y-100109409D01*
X129246262Y-100109414D01*
X129172065Y-100337767D01*
X129172062Y-100337780D01*
X129134500Y-100574940D01*
X115430500Y-100574940D01*
X115430500Y-86688771D01*
X122164500Y-86688771D01*
X122164500Y-86861228D01*
X122198143Y-87030367D01*
X122198146Y-87030378D01*
X122264140Y-87189702D01*
X122264141Y-87189704D01*
X122264142Y-87189705D01*
X122359955Y-87333099D01*
X122481901Y-87455045D01*
X122625295Y-87550858D01*
X122784626Y-87616855D01*
X122953771Y-87650500D01*
X122953772Y-87650500D01*
X123126228Y-87650500D01*
X123126229Y-87650500D01*
X123295374Y-87616855D01*
X123454705Y-87550858D01*
X123598099Y-87455045D01*
X123720045Y-87333099D01*
X123815858Y-87189705D01*
X123881855Y-87030374D01*
X123915500Y-86861229D01*
X123915500Y-86688771D01*
X123906571Y-86643881D01*
X126119500Y-86643881D01*
X126119500Y-86906118D01*
X126153729Y-87166114D01*
X126221601Y-87419415D01*
X126221601Y-87419416D01*
X126321955Y-87661694D01*
X126321956Y-87661696D01*
X126435336Y-87858076D01*
X126453076Y-87888803D01*
X126612718Y-88096851D01*
X126798149Y-88282282D01*
X127006197Y-88441924D01*
X127233303Y-88573043D01*
X127475581Y-88673398D01*
X127728884Y-88741270D01*
X127988880Y-88775500D01*
X127988882Y-88775500D01*
X128251118Y-88775500D01*
X128251120Y-88775500D01*
X128511116Y-88741270D01*
X128764419Y-88673398D01*
X129006697Y-88573043D01*
X129233803Y-88441924D01*
X129441851Y-88282282D01*
X129627282Y-88096851D01*
X129786924Y-87888803D01*
X129918043Y-87661697D01*
X130018398Y-87419419D01*
X130086270Y-87166116D01*
X130120500Y-86906120D01*
X130120500Y-86688771D01*
X132324500Y-86688771D01*
X132324500Y-86861228D01*
X132358143Y-87030367D01*
X132358146Y-87030378D01*
X132424140Y-87189702D01*
X132424141Y-87189704D01*
X132424142Y-87189705D01*
X132519955Y-87333099D01*
X132641901Y-87455045D01*
X132785295Y-87550858D01*
X132944626Y-87616855D01*
X133113771Y-87650500D01*
X133113772Y-87650500D01*
X133286228Y-87650500D01*
X133286229Y-87650500D01*
X133455374Y-87616855D01*
X133614705Y-87550858D01*
X133758099Y-87455045D01*
X133880045Y-87333099D01*
X133975858Y-87189705D01*
X134041855Y-87030374D01*
X134075500Y-86861229D01*
X134075500Y-86688771D01*
X141639500Y-86688771D01*
X141639500Y-86861228D01*
X141673143Y-87030367D01*
X141673146Y-87030378D01*
X141739140Y-87189702D01*
X141739141Y-87189704D01*
X141739142Y-87189705D01*
X141834955Y-87333099D01*
X141956901Y-87455045D01*
X142100295Y-87550858D01*
X142259626Y-87616855D01*
X142428771Y-87650500D01*
X142428772Y-87650500D01*
X142601228Y-87650500D01*
X142601229Y-87650500D01*
X142770374Y-87616855D01*
X142929705Y-87550858D01*
X143073099Y-87455045D01*
X143195045Y-87333099D01*
X143290858Y-87189705D01*
X143356855Y-87030374D01*
X143390500Y-86861229D01*
X143390500Y-86688771D01*
X143381571Y-86643881D01*
X145594500Y-86643881D01*
X145594500Y-86906118D01*
X145628729Y-87166114D01*
X145696601Y-87419415D01*
X145696601Y-87419416D01*
X145796955Y-87661694D01*
X145796956Y-87661696D01*
X145910336Y-87858076D01*
X145928076Y-87888803D01*
X146087718Y-88096851D01*
X146273149Y-88282282D01*
X146481197Y-88441924D01*
X146708303Y-88573043D01*
X146950581Y-88673398D01*
X147203884Y-88741270D01*
X147463880Y-88775500D01*
X147463882Y-88775500D01*
X147726118Y-88775500D01*
X147726120Y-88775500D01*
X147986116Y-88741270D01*
X148239419Y-88673398D01*
X148481697Y-88573043D01*
X148708803Y-88441924D01*
X148916851Y-88282282D01*
X149102282Y-88096851D01*
X149261924Y-87888803D01*
X149393043Y-87661697D01*
X149493398Y-87419419D01*
X149561270Y-87166116D01*
X149595500Y-86906120D01*
X149595500Y-86688771D01*
X151799500Y-86688771D01*
X151799500Y-86861228D01*
X151833143Y-87030367D01*
X151833146Y-87030378D01*
X151899140Y-87189702D01*
X151899141Y-87189704D01*
X151899142Y-87189705D01*
X151994955Y-87333099D01*
X152116901Y-87455045D01*
X152260295Y-87550858D01*
X152419626Y-87616855D01*
X152588771Y-87650500D01*
X152588772Y-87650500D01*
X152761228Y-87650500D01*
X152761229Y-87650500D01*
X152930374Y-87616855D01*
X153089705Y-87550858D01*
X153233099Y-87455045D01*
X153355045Y-87333099D01*
X153450858Y-87189705D01*
X153516855Y-87030374D01*
X153550500Y-86861229D01*
X153550500Y-86688771D01*
X153516855Y-86519626D01*
X153450858Y-86360295D01*
X153355045Y-86216901D01*
X153233099Y-86094955D01*
X153089705Y-85999142D01*
X153089704Y-85999141D01*
X153089702Y-85999140D01*
X152930378Y-85933146D01*
X152930367Y-85933143D01*
X152802942Y-85907797D01*
X152761229Y-85899500D01*
X152588771Y-85899500D01*
X152555309Y-85906155D01*
X152419632Y-85933143D01*
X152419621Y-85933146D01*
X152260297Y-85999140D01*
X152116904Y-86094952D01*
X151994952Y-86216904D01*
X151899140Y-86360297D01*
X151833146Y-86519621D01*
X151833143Y-86519632D01*
X151799500Y-86688771D01*
X149595500Y-86688771D01*
X149595500Y-86643880D01*
X149561270Y-86383884D01*
X149493398Y-86130581D01*
X149393043Y-85888303D01*
X149261924Y-85661197D01*
X149102282Y-85453149D01*
X148916851Y-85267718D01*
X148708803Y-85108076D01*
X148708804Y-85108076D01*
X148708802Y-85108075D01*
X148481696Y-84976956D01*
X148481694Y-84976955D01*
X148298203Y-84900951D01*
X148239419Y-84876602D01*
X148239417Y-84876601D01*
X148239416Y-84876601D01*
X147986114Y-84808729D01*
X147794578Y-84783512D01*
X147726120Y-84774500D01*
X147463880Y-84774500D01*
X147403386Y-84782464D01*
X147203885Y-84808729D01*
X146950584Y-84876601D01*
X146950583Y-84876601D01*
X146708305Y-84976955D01*
X146708303Y-84976956D01*
X146481197Y-85108075D01*
X146273144Y-85267722D01*
X146087722Y-85453144D01*
X145928075Y-85661197D01*
X145796956Y-85888303D01*
X145796955Y-85888305D01*
X145696601Y-86130583D01*
X145696601Y-86130584D01*
X145628729Y-86383885D01*
X145594500Y-86643881D01*
X143381571Y-86643881D01*
X143356855Y-86519626D01*
X143290858Y-86360295D01*
X143195045Y-86216901D01*
X143073099Y-86094955D01*
X142929705Y-85999142D01*
X142929704Y-85999141D01*
X142929702Y-85999140D01*
X142770378Y-85933146D01*
X142770367Y-85933143D01*
X142642942Y-85907797D01*
X142601229Y-85899500D01*
X142428771Y-85899500D01*
X142395309Y-85906155D01*
X142259632Y-85933143D01*
X142259621Y-85933146D01*
X142100297Y-85999140D01*
X141956904Y-86094952D01*
X141834952Y-86216904D01*
X141739140Y-86360297D01*
X141673146Y-86519621D01*
X141673143Y-86519632D01*
X141639500Y-86688771D01*
X134075500Y-86688771D01*
X134041855Y-86519626D01*
X133975858Y-86360295D01*
X133880045Y-86216901D01*
X133758099Y-86094955D01*
X133614705Y-85999142D01*
X133614704Y-85999141D01*
X133614702Y-85999140D01*
X133455378Y-85933146D01*
X133455367Y-85933143D01*
X133327942Y-85907797D01*
X133286229Y-85899500D01*
X133113771Y-85899500D01*
X133080309Y-85906155D01*
X132944632Y-85933143D01*
X132944621Y-85933146D01*
X132785297Y-85999140D01*
X132641904Y-86094952D01*
X132519952Y-86216904D01*
X132424140Y-86360297D01*
X132358146Y-86519621D01*
X132358143Y-86519632D01*
X132324500Y-86688771D01*
X130120500Y-86688771D01*
X130120500Y-86643880D01*
X130086270Y-86383884D01*
X130018398Y-86130581D01*
X129918043Y-85888303D01*
X129786924Y-85661197D01*
X129627282Y-85453149D01*
X129441851Y-85267718D01*
X129233803Y-85108076D01*
X129233804Y-85108076D01*
X129233802Y-85108075D01*
X129006696Y-84976956D01*
X129006694Y-84976955D01*
X128823203Y-84900951D01*
X128764419Y-84876602D01*
X128764417Y-84876601D01*
X128764416Y-84876601D01*
X128511114Y-84808729D01*
X128319578Y-84783512D01*
X128251120Y-84774500D01*
X127988880Y-84774500D01*
X127928386Y-84782464D01*
X127728885Y-84808729D01*
X127475584Y-84876601D01*
X127475583Y-84876601D01*
X127233305Y-84976955D01*
X127233303Y-84976956D01*
X127006197Y-85108075D01*
X126798144Y-85267722D01*
X126612722Y-85453144D01*
X126453075Y-85661197D01*
X126321956Y-85888303D01*
X126321955Y-85888305D01*
X126221601Y-86130583D01*
X126221601Y-86130584D01*
X126153729Y-86383885D01*
X126119500Y-86643881D01*
X123906571Y-86643881D01*
X123881855Y-86519626D01*
X123815858Y-86360295D01*
X123720045Y-86216901D01*
X123598099Y-86094955D01*
X123454705Y-85999142D01*
X123454704Y-85999141D01*
X123454702Y-85999140D01*
X123295378Y-85933146D01*
X123295367Y-85933143D01*
X123167942Y-85907797D01*
X123126229Y-85899500D01*
X122953771Y-85899500D01*
X122920309Y-85906155D01*
X122784632Y-85933143D01*
X122784621Y-85933146D01*
X122625297Y-85999140D01*
X122481904Y-86094952D01*
X122359952Y-86216904D01*
X122264140Y-86360297D01*
X122198146Y-86519621D01*
X122198143Y-86519632D01*
X122164500Y-86688771D01*
X115430500Y-86688771D01*
X115430500Y-84114940D01*
X122784500Y-84114940D01*
X122784500Y-84355059D01*
X122822062Y-84592219D01*
X122822065Y-84592232D01*
X122896262Y-84820585D01*
X122896264Y-84820590D01*
X123005274Y-85034532D01*
X123005277Y-85034538D01*
X123146410Y-85228791D01*
X123146414Y-85228796D01*
X123316204Y-85398586D01*
X123316207Y-85398588D01*
X123316208Y-85398589D01*
X123391303Y-85453149D01*
X123510464Y-85539724D01*
X123724411Y-85648736D01*
X123724413Y-85648736D01*
X123724414Y-85648737D01*
X123952767Y-85722934D01*
X123952773Y-85722935D01*
X123952778Y-85722937D01*
X124110886Y-85747979D01*
X124189940Y-85760500D01*
X124189941Y-85760500D01*
X124430060Y-85760500D01*
X124489349Y-85751109D01*
X124667222Y-85722937D01*
X124667229Y-85722934D01*
X124667232Y-85722934D01*
X124770907Y-85689247D01*
X124895589Y-85648736D01*
X125109536Y-85539724D01*
X125303796Y-85398586D01*
X125473586Y-85228796D01*
X125614724Y-85034536D01*
X125723736Y-84820589D01*
X125797937Y-84592222D01*
X125835500Y-84355059D01*
X125835500Y-84114941D01*
X125835500Y-84114940D01*
X142259500Y-84114940D01*
X142259500Y-84355059D01*
X142297062Y-84592219D01*
X142297065Y-84592232D01*
X142371262Y-84820585D01*
X142371264Y-84820590D01*
X142480274Y-85034532D01*
X142480277Y-85034538D01*
X142621410Y-85228791D01*
X142621414Y-85228796D01*
X142791204Y-85398586D01*
X142791207Y-85398588D01*
X142791208Y-85398589D01*
X142866303Y-85453149D01*
X142985464Y-85539724D01*
X143199411Y-85648736D01*
X143199413Y-85648736D01*
X143199414Y-85648737D01*
X143427767Y-85722934D01*
X143427773Y-85722935D01*
X143427778Y-85722937D01*
X143585886Y-85747979D01*
X143664940Y-85760500D01*
X143664941Y-85760500D01*
X143905060Y-85760500D01*
X143964349Y-85751109D01*
X144142222Y-85722937D01*
X144142229Y-85722934D01*
X144142232Y-85722934D01*
X144245907Y-85689247D01*
X144370589Y-85648736D01*
X144584536Y-85539724D01*
X144778796Y-85398586D01*
X144948586Y-85228796D01*
X145089724Y-85034536D01*
X145198736Y-84820589D01*
X145272937Y-84592222D01*
X145310500Y-84355059D01*
X145310500Y-84114941D01*
X145272937Y-83877778D01*
X145272935Y-83877773D01*
X145272934Y-83877767D01*
X145198737Y-83649414D01*
X145198735Y-83649409D01*
X145194941Y-83641964D01*
X145089724Y-83435464D01*
X144948586Y-83241204D01*
X144778796Y-83071414D01*
X144778793Y-83071411D01*
X144778791Y-83071410D01*
X144584538Y-82930277D01*
X144584532Y-82930274D01*
X144370590Y-82821264D01*
X144370585Y-82821262D01*
X144142232Y-82747065D01*
X144142219Y-82747062D01*
X143905060Y-82709500D01*
X143905059Y-82709500D01*
X143664941Y-82709500D01*
X143664940Y-82709500D01*
X143427780Y-82747062D01*
X143427767Y-82747065D01*
X143199414Y-82821262D01*
X143199409Y-82821264D01*
X142985467Y-82930274D01*
X142985461Y-82930277D01*
X142791208Y-83071410D01*
X142621410Y-83241208D01*
X142480277Y-83435461D01*
X142480274Y-83435467D01*
X142371264Y-83649409D01*
X142371262Y-83649414D01*
X142297065Y-83877767D01*
X142297062Y-83877780D01*
X142259500Y-84114940D01*
X125835500Y-84114940D01*
X125797937Y-83877778D01*
X125797935Y-83877773D01*
X125797934Y-83877767D01*
X125723737Y-83649414D01*
X125723735Y-83649409D01*
X125719941Y-83641964D01*
X125614724Y-83435464D01*
X125473586Y-83241204D01*
X125303796Y-83071414D01*
X125303793Y-83071411D01*
X125303791Y-83071410D01*
X125109538Y-82930277D01*
X125109532Y-82930274D01*
X124895590Y-82821264D01*
X124895585Y-82821262D01*
X124667232Y-82747065D01*
X124667219Y-82747062D01*
X124430060Y-82709500D01*
X124430059Y-82709500D01*
X124189941Y-82709500D01*
X124189940Y-82709500D01*
X123952780Y-82747062D01*
X123952767Y-82747065D01*
X123724414Y-82821262D01*
X123724409Y-82821264D01*
X123510467Y-82930274D01*
X123510461Y-82930277D01*
X123316208Y-83071410D01*
X123146410Y-83241208D01*
X123005277Y-83435461D01*
X123005274Y-83435467D01*
X122896264Y-83649409D01*
X122896262Y-83649414D01*
X122822065Y-83877767D01*
X122822062Y-83877780D01*
X122784500Y-84114940D01*
X115430500Y-84114940D01*
X115430500Y-81574940D01*
X129134500Y-81574940D01*
X129134500Y-81815059D01*
X129172062Y-82052219D01*
X129172065Y-82052232D01*
X129246262Y-82280585D01*
X129246264Y-82280590D01*
X129347687Y-82479643D01*
X129355276Y-82494536D01*
X129496414Y-82688796D01*
X129666204Y-82858586D01*
X129860464Y-82999724D01*
X130074411Y-83108736D01*
X130074413Y-83108736D01*
X130074414Y-83108737D01*
X130302767Y-83182934D01*
X130302773Y-83182935D01*
X130302778Y-83182937D01*
X130460886Y-83207979D01*
X130539940Y-83220500D01*
X130539941Y-83220500D01*
X130780060Y-83220500D01*
X130839349Y-83211109D01*
X131017222Y-83182937D01*
X131017229Y-83182934D01*
X131017232Y-83182934D01*
X131120907Y-83149247D01*
X131245589Y-83108736D01*
X131459536Y-82999724D01*
X131653796Y-82858586D01*
X131823586Y-82688796D01*
X131964724Y-82494536D01*
X132073736Y-82280589D01*
X132147937Y-82052222D01*
X132185500Y-81815059D01*
X132185500Y-81574941D01*
X132185500Y-81574940D01*
X148609500Y-81574940D01*
X148609500Y-81815059D01*
X148647062Y-82052219D01*
X148647065Y-82052232D01*
X148721262Y-82280585D01*
X148721264Y-82280590D01*
X148822687Y-82479643D01*
X148830276Y-82494536D01*
X148971414Y-82688796D01*
X149141204Y-82858586D01*
X149335464Y-82999724D01*
X149549411Y-83108736D01*
X149549413Y-83108736D01*
X149549414Y-83108737D01*
X149777767Y-83182934D01*
X149777773Y-83182935D01*
X149777778Y-83182937D01*
X149935886Y-83207979D01*
X150014940Y-83220500D01*
X150014941Y-83220500D01*
X150255060Y-83220500D01*
X150314349Y-83211109D01*
X150492222Y-83182937D01*
X150492229Y-83182934D01*
X150492232Y-83182934D01*
X150595907Y-83149247D01*
X150720589Y-83108736D01*
X150934536Y-82999724D01*
X151128796Y-82858586D01*
X151298586Y-82688796D01*
X151439724Y-82494536D01*
X151548736Y-82280589D01*
X151622937Y-82052222D01*
X151660500Y-81815059D01*
X151660500Y-81574941D01*
X151622937Y-81337778D01*
X151622935Y-81337773D01*
X151622934Y-81337767D01*
X151548737Y-81109414D01*
X151548735Y-81109409D01*
X151469272Y-80953455D01*
X151439724Y-80895464D01*
X151298586Y-80701204D01*
X151128796Y-80531414D01*
X151128793Y-80531411D01*
X151128791Y-80531410D01*
X150934538Y-80390277D01*
X150934532Y-80390274D01*
X150720590Y-80281264D01*
X150720585Y-80281262D01*
X150492232Y-80207065D01*
X150492219Y-80207062D01*
X150255060Y-80169500D01*
X150255059Y-80169500D01*
X150014941Y-80169500D01*
X150014940Y-80169500D01*
X149777780Y-80207062D01*
X149777767Y-80207065D01*
X149549414Y-80281262D01*
X149549409Y-80281264D01*
X149335467Y-80390274D01*
X149335461Y-80390277D01*
X149141208Y-80531410D01*
X148971410Y-80701208D01*
X148830277Y-80895461D01*
X148830274Y-80895467D01*
X148721264Y-81109409D01*
X148721262Y-81109414D01*
X148647065Y-81337767D01*
X148647062Y-81337780D01*
X148609500Y-81574940D01*
X132185500Y-81574940D01*
X132147937Y-81337778D01*
X132147935Y-81337773D01*
X132147934Y-81337767D01*
X132073737Y-81109414D01*
X132073735Y-81109409D01*
X131994272Y-80953455D01*
X131964724Y-80895464D01*
X131823586Y-80701204D01*
X131653796Y-80531414D01*
X131653793Y-80531411D01*
X131653791Y-80531410D01*
X131459538Y-80390277D01*
X131459532Y-80390274D01*
X131245590Y-80281264D01*
X131245585Y-80281262D01*
X131017232Y-80207065D01*
X131017219Y-80207062D01*
X130780060Y-80169500D01*
X130780059Y-80169500D01*
X130539941Y-80169500D01*
X130539940Y-80169500D01*
X130302780Y-80207062D01*
X130302767Y-80207065D01*
X130074414Y-80281262D01*
X130074409Y-80281264D01*
X129860467Y-80390274D01*
X129860461Y-80390277D01*
X129666208Y-80531410D01*
X129496410Y-80701208D01*
X129355277Y-80895461D01*
X129355274Y-80895467D01*
X129246264Y-81109409D01*
X129246262Y-81109414D01*
X129172065Y-81337767D01*
X129172062Y-81337780D01*
X129134500Y-81574940D01*
X115430500Y-81574940D01*
X115430500Y-79488388D01*
X117099500Y-79488388D01*
X117099500Y-79661611D01*
X117126597Y-79832698D01*
X117126600Y-79832711D01*
X117180125Y-79997442D01*
X117180127Y-79997446D01*
X117258767Y-80151787D01*
X117352836Y-80281262D01*
X117360586Y-80291928D01*
X117483072Y-80414414D01*
X117483075Y-80414416D01*
X117483076Y-80414417D01*
X117623212Y-80516232D01*
X117777553Y-80594872D01*
X117777557Y-80594874D01*
X117942288Y-80648399D01*
X117942294Y-80648400D01*
X117942299Y-80648402D01*
X118056359Y-80666467D01*
X118113388Y-80675500D01*
X118113389Y-80675500D01*
X118286612Y-80675500D01*
X118329383Y-80668725D01*
X118457701Y-80648402D01*
X118457708Y-80648399D01*
X118457711Y-80648399D01*
X118622442Y-80594874D01*
X118622442Y-80594873D01*
X118622445Y-80594873D01*
X118776788Y-80516232D01*
X118916928Y-80414414D01*
X119039414Y-80291928D01*
X119141232Y-80151788D01*
X119219873Y-79997445D01*
X119244535Y-79921543D01*
X119273399Y-79832711D01*
X119273399Y-79832708D01*
X119273402Y-79832701D01*
X119300500Y-79661611D01*
X119300500Y-79488389D01*
X119273402Y-79317299D01*
X119273400Y-79317294D01*
X119273399Y-79317288D01*
X119219874Y-79152557D01*
X119219872Y-79152553D01*
X119141232Y-78998212D01*
X119039417Y-78858076D01*
X119039416Y-78858075D01*
X119039414Y-78858072D01*
X118916928Y-78735586D01*
X118916925Y-78735583D01*
X118916923Y-78735582D01*
X118776787Y-78633767D01*
X118622446Y-78555127D01*
X118622442Y-78555125D01*
X118457711Y-78501600D01*
X118457698Y-78501597D01*
X118286612Y-78474500D01*
X118286611Y-78474500D01*
X118113389Y-78474500D01*
X118113388Y-78474500D01*
X117942301Y-78501597D01*
X117942288Y-78501600D01*
X117777557Y-78555125D01*
X117777553Y-78555127D01*
X117623212Y-78633767D01*
X117483076Y-78735582D01*
X117360582Y-78858076D01*
X117258767Y-78998212D01*
X117180127Y-79152553D01*
X117180125Y-79152557D01*
X117126600Y-79317288D01*
X117126597Y-79317301D01*
X117099500Y-79488388D01*
X115430500Y-79488388D01*
X115430500Y-64999453D01*
X154549500Y-64999453D01*
X154549500Y-65180546D01*
X154577828Y-65359406D01*
X154577831Y-65359419D01*
X154633787Y-65531635D01*
X154633788Y-65531638D01*
X154633789Y-65531639D01*
X154706580Y-65674499D01*
X154716005Y-65692995D01*
X154716005Y-65692996D01*
X154722398Y-65701795D01*
X154822447Y-65839501D01*
X154950499Y-65967553D01*
X155097006Y-66073996D01*
X155258361Y-66156211D01*
X155258364Y-66156212D01*
X155258363Y-66156212D01*
X155430580Y-66212168D01*
X155430586Y-66212169D01*
X155430591Y-66212171D01*
X155549833Y-66231057D01*
X155609453Y-66240500D01*
X155609454Y-66240500D01*
X155790547Y-66240500D01*
X155835261Y-66233417D01*
X155969409Y-66212171D01*
X155969416Y-66212168D01*
X155969419Y-66212168D01*
X156047601Y-66186765D01*
X156141639Y-66156211D01*
X156302994Y-66073996D01*
X156449501Y-65967553D01*
X156577553Y-65839501D01*
X156683996Y-65692994D01*
X156766211Y-65531639D01*
X156822171Y-65359409D01*
X156850500Y-65180546D01*
X156850500Y-64999454D01*
X156822171Y-64820591D01*
X156822169Y-64820586D01*
X156822168Y-64820580D01*
X156766212Y-64648364D01*
X156766211Y-64648363D01*
X156766211Y-64648361D01*
X156683996Y-64487006D01*
X156577553Y-64340499D01*
X156449501Y-64212447D01*
X156351772Y-64141443D01*
X156302996Y-64106005D01*
X156141635Y-64023787D01*
X156141636Y-64023787D01*
X155969419Y-63967831D01*
X155969406Y-63967828D01*
X155790547Y-63939500D01*
X155790546Y-63939500D01*
X155609454Y-63939500D01*
X155609453Y-63939500D01*
X155430593Y-63967828D01*
X155430580Y-63967831D01*
X155258364Y-64023787D01*
X155097004Y-64106005D01*
X155097003Y-64106005D01*
X155014531Y-64165925D01*
X154950499Y-64212447D01*
X154822447Y-64340499D01*
X154822444Y-64340502D01*
X154822444Y-64340503D01*
X154716005Y-64487003D01*
X154716005Y-64487004D01*
X154633787Y-64648364D01*
X154577831Y-64820580D01*
X154577828Y-64820593D01*
X154549500Y-64999453D01*
X115430500Y-64999453D01*
X115430500Y-61685226D01*
X154700000Y-61685226D01*
X154700000Y-62350000D01*
X155238120Y-62350000D01*
X155234075Y-62357007D01*
X155200000Y-62484174D01*
X155200000Y-62615826D01*
X155234075Y-62742993D01*
X155238120Y-62750000D01*
X154700001Y-62750000D01*
X154700001Y-63414778D01*
X154708701Y-63458524D01*
X154741855Y-63508143D01*
X154741856Y-63508144D01*
X154791472Y-63541296D01*
X154835226Y-63549999D01*
X155500000Y-63549999D01*
X155500000Y-63011879D01*
X155507007Y-63015925D01*
X155634174Y-63050000D01*
X155765826Y-63050000D01*
X155892993Y-63015925D01*
X155900000Y-63011879D01*
X155900000Y-63549999D01*
X156564779Y-63549999D01*
X156608524Y-63541298D01*
X156658143Y-63508144D01*
X156658144Y-63508143D01*
X156691296Y-63458527D01*
X156700000Y-63414773D01*
X156700000Y-62750000D01*
X156161880Y-62750000D01*
X156165925Y-62742993D01*
X156200000Y-62615826D01*
X156200000Y-62484174D01*
X156165925Y-62357007D01*
X156161880Y-62350000D01*
X156699999Y-62350000D01*
X156699999Y-61685221D01*
X156691298Y-61641475D01*
X156658144Y-61591856D01*
X156658143Y-61591855D01*
X156608527Y-61558703D01*
X156564773Y-61550000D01*
X155900000Y-61550000D01*
X155900000Y-62088120D01*
X155892993Y-62084075D01*
X155765826Y-62050000D01*
X155634174Y-62050000D01*
X155507007Y-62084075D01*
X155500000Y-62088120D01*
X155500000Y-61550000D01*
X154835229Y-61550000D01*
X154791473Y-61558703D01*
X154741856Y-61591855D01*
X154741855Y-61591856D01*
X154708703Y-61641472D01*
X154700000Y-61685226D01*
X115430500Y-61685226D01*
X115430500Y-59555135D01*
X165699500Y-59555135D01*
X165699500Y-61644863D01*
X165702414Y-61669986D01*
X165702415Y-61669992D01*
X165709142Y-61685226D01*
X165747794Y-61772765D01*
X165827235Y-61852206D01*
X165930009Y-61897585D01*
X165955135Y-61900500D01*
X169244864Y-61900499D01*
X169269991Y-61897585D01*
X169372765Y-61852206D01*
X169452206Y-61772765D01*
X169497585Y-61669991D01*
X169500500Y-61644865D01*
X169500499Y-59555136D01*
X169497585Y-59530009D01*
X169452206Y-59427235D01*
X169372765Y-59347794D01*
X169269991Y-59302415D01*
X169269990Y-59302414D01*
X169269988Y-59302414D01*
X169248659Y-59299940D01*
X169244865Y-59299500D01*
X169244864Y-59299500D01*
X165955136Y-59299500D01*
X165930013Y-59302414D01*
X165930007Y-59302415D01*
X165827234Y-59347794D01*
X165747794Y-59427234D01*
X165702414Y-59530011D01*
X165699500Y-59555135D01*
X115430500Y-59555135D01*
X115430500Y-57279500D01*
X115452174Y-57227174D01*
X115504500Y-57205500D01*
X179495500Y-57205500D01*
X179547826Y-57227174D01*
G37*
%TD.AperFunction*%
%TA.AperFunction,Conductor*%
G36*
X138254310Y-136572174D02*
G01*
X149020310Y-147338174D01*
X149041984Y-147390500D01*
X149020310Y-147442826D01*
X148967984Y-147464500D01*
X148613016Y-147464500D01*
X148560690Y-147442826D01*
X137794690Y-136676826D01*
X137773016Y-136624500D01*
X137794690Y-136572174D01*
X137847016Y-136550500D01*
X138201984Y-136550500D01*
X138254310Y-136572174D01*
G37*
%TD.AperFunction*%
%TA.AperFunction,Conductor*%
G36*
X148807252Y-136222174D02*
G01*
X159003402Y-146418323D01*
X159003407Y-146418329D01*
X159005991Y-146420913D01*
X159080558Y-146495480D01*
X159154231Y-146538015D01*
X159171884Y-146548207D01*
X159171885Y-146548207D01*
X159171887Y-146548208D01*
X159222814Y-146561854D01*
X159273741Y-146575500D01*
X159273742Y-146575501D01*
X159273744Y-146575501D01*
X159383728Y-146575501D01*
X159383744Y-146575500D01*
X163429228Y-146575500D01*
X163448378Y-146578020D01*
X163532273Y-146600500D01*
X163637727Y-146600500D01*
X164246324Y-146600500D01*
X164298650Y-146622174D01*
X164316985Y-146640509D01*
X164442515Y-146712984D01*
X164442516Y-146712984D01*
X164442518Y-146712985D01*
X164512520Y-146731742D01*
X164582522Y-146750499D01*
X164582523Y-146750500D01*
X164705141Y-146750500D01*
X164757467Y-146772174D01*
X164779141Y-146824500D01*
X164757467Y-146876826D01*
X164681467Y-146952826D01*
X164629141Y-146974500D01*
X157614666Y-146974500D01*
X157562340Y-146952826D01*
X157540666Y-146900500D01*
X157543188Y-146881347D01*
X157550499Y-146854059D01*
X157550500Y-146854059D01*
X157550500Y-146695941D01*
X157550499Y-146695940D01*
X157535646Y-146640509D01*
X157509577Y-146543216D01*
X157430520Y-146406284D01*
X157318716Y-146294480D01*
X157181784Y-146215423D01*
X157181781Y-146215422D01*
X157181779Y-146215421D01*
X157029059Y-146174500D01*
X157029057Y-146174500D01*
X156870943Y-146174500D01*
X156870941Y-146174500D01*
X156718220Y-146215421D01*
X156718214Y-146215424D01*
X156581283Y-146294480D01*
X156469480Y-146406283D01*
X156390424Y-146543214D01*
X156390421Y-146543220D01*
X156349500Y-146695940D01*
X156349500Y-146854059D01*
X156356812Y-146881347D01*
X156349420Y-146937499D01*
X156304487Y-146971978D01*
X156285334Y-146974500D01*
X149749362Y-146974500D01*
X149697036Y-146952826D01*
X139071036Y-136326826D01*
X139049362Y-136274500D01*
X139071036Y-136222174D01*
X139123362Y-136200500D01*
X148754926Y-136200500D01*
X148807252Y-136222174D01*
G37*
%TD.AperFunction*%
%TA.AperFunction,Conductor*%
G36*
X150211566Y-133842174D02*
G01*
X160889874Y-144520482D01*
X160889876Y-144520483D01*
X160889877Y-144520484D01*
X160960503Y-144561260D01*
X160994981Y-144606193D01*
X160994982Y-144644497D01*
X160974500Y-144720941D01*
X160974500Y-144879059D01*
X161015421Y-145031779D01*
X161015422Y-145031781D01*
X161015423Y-145031784D01*
X161094480Y-145168716D01*
X161206284Y-145280520D01*
X161343216Y-145359577D01*
X161495940Y-145400499D01*
X161495941Y-145400500D01*
X161495943Y-145400500D01*
X161654059Y-145400500D01*
X161654059Y-145400499D01*
X161806784Y-145359577D01*
X161943716Y-145280520D01*
X162010629Y-145213606D01*
X162062953Y-145191933D01*
X162115280Y-145213607D01*
X162127040Y-145228934D01*
X162144834Y-145259754D01*
X162144834Y-145259755D01*
X162144836Y-145259757D01*
X162144838Y-145259760D01*
X162533253Y-145648175D01*
X162554927Y-145700500D01*
X162533253Y-145752826D01*
X162480927Y-145774500D01*
X159523015Y-145774500D01*
X159470689Y-145752826D01*
X158403921Y-144686058D01*
X158382247Y-144633732D01*
X158403921Y-144581406D01*
X158419245Y-144569647D01*
X158443716Y-144555520D01*
X158555520Y-144443716D01*
X158634577Y-144306784D01*
X158675499Y-144154059D01*
X158675500Y-144154059D01*
X158675500Y-143995941D01*
X158675499Y-143995940D01*
X158662748Y-143948354D01*
X158634577Y-143843216D01*
X158555520Y-143706284D01*
X158443716Y-143594480D01*
X158306784Y-143515423D01*
X158306781Y-143515422D01*
X158306779Y-143515421D01*
X158154059Y-143474500D01*
X158154057Y-143474500D01*
X157995943Y-143474500D01*
X157995941Y-143474500D01*
X157843220Y-143515421D01*
X157843214Y-143515424D01*
X157706283Y-143594480D01*
X157594479Y-143706284D01*
X157580352Y-143730753D01*
X157535419Y-143765231D01*
X157479266Y-143757837D01*
X157463941Y-143746078D01*
X153372863Y-139655000D01*
X149197384Y-135479520D01*
X149197381Y-135479518D01*
X149197380Y-135479517D01*
X149106063Y-135426795D01*
X149106059Y-135426793D01*
X149059840Y-135414409D01*
X149004198Y-135399500D01*
X149004197Y-135399500D01*
X137886545Y-135399500D01*
X137834219Y-135377826D01*
X137134219Y-134677826D01*
X136425913Y-133969520D01*
X136414227Y-133962773D01*
X136398902Y-133951013D01*
X136394715Y-133946826D01*
X136373041Y-133894500D01*
X136394715Y-133842174D01*
X136447041Y-133820500D01*
X150159240Y-133820500D01*
X150211566Y-133842174D01*
G37*
%TD.AperFunction*%
%TA.AperFunction,Conductor*%
G36*
X159461345Y-129958890D02*
G01*
X159487000Y-129962268D01*
X159490350Y-129964839D01*
X159491477Y-129965070D01*
X159492322Y-129966351D01*
X159502327Y-129974028D01*
X163052826Y-133524527D01*
X163074500Y-133576852D01*
X163074500Y-135454493D01*
X163052826Y-135506819D01*
X163000500Y-135528493D01*
X162948174Y-135506819D01*
X162936414Y-135491493D01*
X162930519Y-135481283D01*
X162818716Y-135369480D01*
X162681784Y-135290423D01*
X162681781Y-135290422D01*
X162681779Y-135290421D01*
X162529059Y-135249500D01*
X162529057Y-135249500D01*
X162370943Y-135249500D01*
X162370941Y-135249500D01*
X162218220Y-135290421D01*
X162218214Y-135290424D01*
X162081283Y-135369480D01*
X161969480Y-135481283D01*
X161890424Y-135618214D01*
X161890421Y-135618220D01*
X161849500Y-135770940D01*
X161849500Y-135929059D01*
X161890421Y-136081779D01*
X161890422Y-136081781D01*
X161890423Y-136081784D01*
X161969480Y-136218716D01*
X162081284Y-136330520D01*
X162218216Y-136409577D01*
X162370940Y-136450499D01*
X162370941Y-136450500D01*
X162370943Y-136450500D01*
X162529059Y-136450500D01*
X162529059Y-136450499D01*
X162681784Y-136409577D01*
X162818716Y-136330520D01*
X162930520Y-136218716D01*
X162936413Y-136208507D01*
X162981345Y-136174028D01*
X163037498Y-136181419D01*
X163071978Y-136226351D01*
X163074500Y-136245506D01*
X163074500Y-137081770D01*
X163052826Y-137134096D01*
X163000500Y-137155770D01*
X162948174Y-137134096D01*
X162936414Y-137118770D01*
X162930519Y-137108560D01*
X162818716Y-136996757D01*
X162812579Y-136993214D01*
X162681784Y-136917700D01*
X162681781Y-136917699D01*
X162681779Y-136917698D01*
X162529059Y-136876777D01*
X162529057Y-136876777D01*
X162370943Y-136876777D01*
X162370941Y-136876777D01*
X162218220Y-136917698D01*
X162218214Y-136917701D01*
X162081283Y-136996757D01*
X161969480Y-137108560D01*
X161890424Y-137245491D01*
X161890421Y-137245497D01*
X161849500Y-137398217D01*
X161849500Y-137556336D01*
X161890421Y-137709056D01*
X161890422Y-137709058D01*
X161890423Y-137709061D01*
X161959390Y-137828517D01*
X161969480Y-137845993D01*
X162058811Y-137935324D01*
X162080485Y-137987650D01*
X162058811Y-138039976D01*
X162043485Y-138051736D01*
X161997888Y-138078061D01*
X161886085Y-138189864D01*
X161807029Y-138326795D01*
X161807026Y-138326801D01*
X161766105Y-138479521D01*
X161766105Y-138637640D01*
X161807026Y-138790360D01*
X161807027Y-138790362D01*
X161807028Y-138790365D01*
X161823642Y-138819141D01*
X161886085Y-138927297D01*
X161994273Y-139035485D01*
X162015947Y-139087811D01*
X162013426Y-139106963D01*
X161974501Y-139252235D01*
X161974501Y-139410351D01*
X162015422Y-139563071D01*
X162015423Y-139563073D01*
X162015424Y-139563076D01*
X162094481Y-139700008D01*
X162206285Y-139811812D01*
X162343217Y-139890869D01*
X162495941Y-139931791D01*
X162495942Y-139931792D01*
X162495944Y-139931792D01*
X162654060Y-139931792D01*
X162654060Y-139931791D01*
X162806785Y-139890869D01*
X162943717Y-139811812D01*
X163055521Y-139700008D01*
X163134578Y-139563076D01*
X163175500Y-139410351D01*
X163175501Y-139410351D01*
X163175501Y-139252233D01*
X163175500Y-139252232D01*
X163136575Y-139106963D01*
X163134578Y-139099508D01*
X163055521Y-138962576D01*
X162947332Y-138854387D01*
X162925658Y-138802061D01*
X162928180Y-138782908D01*
X162948577Y-138706784D01*
X162967104Y-138637640D01*
X162967105Y-138637640D01*
X162967105Y-138479522D01*
X162967104Y-138479521D01*
X162944709Y-138395943D01*
X162926182Y-138326797D01*
X162847125Y-138189865D01*
X162757793Y-138100533D01*
X162736119Y-138048207D01*
X162757793Y-137995881D01*
X162773111Y-137984126D01*
X162818716Y-137957797D01*
X162930520Y-137845993D01*
X162945623Y-137819833D01*
X162990554Y-137785356D01*
X163046707Y-137792747D01*
X163081185Y-137837679D01*
X163094902Y-137888871D01*
X163101793Y-137914588D01*
X163101795Y-137914592D01*
X163154517Y-138005909D01*
X163154518Y-138005910D01*
X163154520Y-138005913D01*
X164111183Y-138962575D01*
X165051931Y-139903323D01*
X165051936Y-139903329D01*
X165054520Y-139905913D01*
X165129087Y-139980480D01*
X165174748Y-140006842D01*
X165174750Y-140006844D01*
X165174750Y-140006843D01*
X165220412Y-140033207D01*
X165322273Y-140060500D01*
X166708455Y-140060500D01*
X166760781Y-140082174D01*
X166802825Y-140124218D01*
X166824499Y-140176544D01*
X166824499Y-140214900D01*
X166862013Y-140354904D01*
X166862015Y-140354909D01*
X166934490Y-140480438D01*
X167036984Y-140582932D01*
X167158430Y-140653049D01*
X167192909Y-140697982D01*
X167192910Y-140736281D01*
X167191365Y-140742047D01*
X167191365Y-140887004D01*
X167228879Y-141027008D01*
X167228881Y-141027013D01*
X167273734Y-141104700D01*
X167301356Y-141152542D01*
X167403850Y-141255036D01*
X167495741Y-141308090D01*
X167525562Y-141325307D01*
X167529380Y-141327511D01*
X167529381Y-141327511D01*
X167529383Y-141327512D01*
X167555672Y-141334556D01*
X167669387Y-141365026D01*
X167669388Y-141365027D01*
X167669390Y-141365027D01*
X167814342Y-141365027D01*
X167814342Y-141365026D01*
X167954350Y-141327511D01*
X168033864Y-141281602D01*
X168090016Y-141274210D01*
X168134950Y-141308689D01*
X168142343Y-141364841D01*
X168134950Y-141382688D01*
X168123760Y-141402069D01*
X168123756Y-141402078D01*
X168086242Y-141542082D01*
X168086242Y-141687037D01*
X168123756Y-141827041D01*
X168123758Y-141827046D01*
X168196233Y-141952575D01*
X168214568Y-141970910D01*
X168236242Y-142023236D01*
X168236242Y-142023895D01*
X168214568Y-142076221D01*
X168050897Y-142239892D01*
X167998571Y-142261566D01*
X167946245Y-142239892D01*
X167928415Y-142203725D01*
X167926758Y-142204170D01*
X167887987Y-142059478D01*
X167887985Y-142059473D01*
X167826267Y-141952575D01*
X167815511Y-141933945D01*
X167713017Y-141831451D01*
X167654320Y-141797562D01*
X167587488Y-141758976D01*
X167587483Y-141758974D01*
X167447479Y-141721460D01*
X167447477Y-141721460D01*
X167302527Y-141721460D01*
X167302525Y-141721460D01*
X167162520Y-141758974D01*
X167162515Y-141758976D01*
X167036986Y-141831451D01*
X167023724Y-141844714D01*
X166971398Y-141866388D01*
X163032970Y-141866388D01*
X162980644Y-141844714D01*
X162958970Y-141792388D01*
X162980644Y-141740062D01*
X162999246Y-141721460D01*
X163065509Y-141655197D01*
X163137984Y-141529667D01*
X163175499Y-141389659D01*
X163175500Y-141389659D01*
X163175500Y-141244705D01*
X163175499Y-141244704D01*
X163167959Y-141216566D01*
X163137984Y-141104697D01*
X163132094Y-141094496D01*
X163118563Y-141071058D01*
X163065509Y-140979167D01*
X162963015Y-140876673D01*
X162837486Y-140804198D01*
X162837481Y-140804196D01*
X162697477Y-140766682D01*
X162697475Y-140766682D01*
X162671545Y-140766682D01*
X162619219Y-140745008D01*
X160850409Y-138976198D01*
X160828735Y-138923872D01*
X160828735Y-131725506D01*
X160828734Y-131725505D01*
X160814114Y-131670943D01*
X160801442Y-131623648D01*
X160748715Y-131532322D01*
X160674148Y-131457755D01*
X159422174Y-130205781D01*
X159401838Y-130167461D01*
X159400500Y-130160519D01*
X159400500Y-130127525D01*
X159377838Y-130042953D01*
X159377339Y-130040360D01*
X159382537Y-130015009D01*
X159385915Y-129989355D01*
X159388150Y-129987639D01*
X159388717Y-129984878D01*
X159410319Y-129970628D01*
X159430848Y-129954876D01*
X159433642Y-129955243D01*
X159435995Y-129953692D01*
X159461345Y-129958890D01*
G37*
%TD.AperFunction*%
%TA.AperFunction,Conductor*%
G36*
X169300390Y-131346894D02*
G01*
X169319541Y-131349416D01*
X169325628Y-131357348D01*
X169334868Y-131361176D01*
X169354020Y-131394349D01*
X169387014Y-131517481D01*
X169387016Y-131517486D01*
X169448309Y-131623648D01*
X169459491Y-131643015D01*
X169561985Y-131745509D01*
X169587499Y-131760239D01*
X169621978Y-131805171D01*
X169624500Y-131824325D01*
X169624500Y-136207415D01*
X169602826Y-136259741D01*
X169584491Y-136278075D01*
X169512016Y-136403604D01*
X169512014Y-136403609D01*
X169474500Y-136543613D01*
X169474500Y-136688568D01*
X169512014Y-136828572D01*
X169512016Y-136828577D01*
X169528013Y-136856284D01*
X169584491Y-136954106D01*
X169686985Y-137056600D01*
X169812515Y-137129075D01*
X169812516Y-137129075D01*
X169812518Y-137129076D01*
X169882520Y-137147833D01*
X169952522Y-137166590D01*
X169952523Y-137166591D01*
X169952525Y-137166591D01*
X170097477Y-137166591D01*
X170097477Y-137166590D01*
X170237485Y-137129075D01*
X170363015Y-137056600D01*
X170451745Y-136967869D01*
X170504070Y-136946196D01*
X170556396Y-136967870D01*
X170578061Y-137019058D01*
X170593850Y-138045302D01*
X170572984Y-138097955D01*
X170520997Y-138120431D01*
X170520294Y-138120439D01*
X168894999Y-138129999D01*
X168896051Y-138343971D01*
X168874634Y-138396403D01*
X168822416Y-138418334D01*
X168785053Y-138408421D01*
X168664157Y-138338623D01*
X168664148Y-138338619D01*
X168511428Y-138297698D01*
X168511426Y-138297698D01*
X168353312Y-138297698D01*
X168353310Y-138297698D01*
X168200589Y-138338619D01*
X168200580Y-138338623D01*
X168103923Y-138394427D01*
X168047770Y-138401819D01*
X168012812Y-138378462D01*
X168011997Y-138379278D01*
X167896763Y-138264044D01*
X167860694Y-138243220D01*
X167759831Y-138184987D01*
X167755308Y-138183775D01*
X167721766Y-138174787D01*
X167676834Y-138140308D01*
X167669442Y-138084155D01*
X167688591Y-138050987D01*
X167976421Y-137763156D01*
X168028746Y-137741483D01*
X168065745Y-137751397D01*
X168123216Y-137784577D01*
X168275940Y-137825499D01*
X168275941Y-137825500D01*
X168275943Y-137825500D01*
X168434059Y-137825500D01*
X168434059Y-137825499D01*
X168586784Y-137784577D01*
X168723716Y-137705520D01*
X168835520Y-137593716D01*
X168914577Y-137456784D01*
X168955499Y-137304059D01*
X168955500Y-137304059D01*
X168955500Y-137145941D01*
X168955499Y-137145940D01*
X168952325Y-137134096D01*
X168914577Y-136993216D01*
X168835520Y-136856284D01*
X168723716Y-136744480D01*
X168586784Y-136665423D01*
X168586781Y-136665422D01*
X168586779Y-136665421D01*
X168434059Y-136624500D01*
X168434057Y-136624500D01*
X168275943Y-136624500D01*
X168248651Y-136631812D01*
X168192498Y-136624418D01*
X168158021Y-136579484D01*
X168155500Y-136560333D01*
X168155500Y-132466545D01*
X168177174Y-132414219D01*
X168668939Y-131922454D01*
X169230217Y-131361175D01*
X169248065Y-131353782D01*
X169263389Y-131342024D01*
X169273302Y-131343329D01*
X169282542Y-131339502D01*
X169300390Y-131346894D01*
G37*
%TD.AperFunction*%
%TA.AperFunction,Conductor*%
G36*
X175255781Y-66497174D02*
G01*
X176277826Y-67519218D01*
X176299500Y-67571544D01*
X176299500Y-78578455D01*
X176277826Y-78630781D01*
X173976826Y-80931781D01*
X173924500Y-80953455D01*
X173872174Y-80931781D01*
X173850500Y-80879455D01*
X173850500Y-79921543D01*
X173872173Y-79869218D01*
X174845910Y-78895481D01*
X174845913Y-78895480D01*
X174920480Y-78820913D01*
X174973207Y-78729587D01*
X174975167Y-78722273D01*
X175000500Y-78627729D01*
X175000501Y-78627729D01*
X175000501Y-78517744D01*
X175000500Y-78517726D01*
X175000500Y-69991059D01*
X175022174Y-69938733D01*
X175051630Y-69920682D01*
X175099219Y-69905220D01*
X175281610Y-69812287D01*
X175447219Y-69691966D01*
X175591966Y-69547219D01*
X175712287Y-69381610D01*
X175805220Y-69199219D01*
X175805223Y-69199211D01*
X175868474Y-69004544D01*
X175868474Y-69004541D01*
X175868477Y-69004534D01*
X175900500Y-68802352D01*
X175900500Y-68597648D01*
X175868477Y-68395466D01*
X175868475Y-68395461D01*
X175868474Y-68395455D01*
X175805222Y-68200786D01*
X175805220Y-68200783D01*
X175805220Y-68200781D01*
X175739417Y-68071635D01*
X175712287Y-68018389D01*
X175625843Y-67899409D01*
X175591966Y-67852781D01*
X175447219Y-67708034D01*
X175383040Y-67661406D01*
X175281610Y-67587712D01*
X175099213Y-67494777D01*
X174904544Y-67431525D01*
X174904531Y-67431522D01*
X174702354Y-67399500D01*
X174702352Y-67399500D01*
X174497648Y-67399500D01*
X174497646Y-67399500D01*
X174295468Y-67431522D01*
X174295455Y-67431525D01*
X174100786Y-67494777D01*
X173918389Y-67587712D01*
X173752785Y-67708031D01*
X173752781Y-67708034D01*
X173608034Y-67852781D01*
X173608031Y-67852784D01*
X173608031Y-67852785D01*
X173487712Y-68018389D01*
X173394777Y-68200786D01*
X173331525Y-68395455D01*
X173331522Y-68395468D01*
X173299500Y-68597646D01*
X173299500Y-68802353D01*
X173331522Y-69004531D01*
X173331525Y-69004544D01*
X173394777Y-69199213D01*
X173487712Y-69381610D01*
X173515967Y-69420499D01*
X173608034Y-69547219D01*
X173752781Y-69691966D01*
X173844695Y-69758745D01*
X173918389Y-69812287D01*
X174009585Y-69858753D01*
X174100781Y-69905220D01*
X174148367Y-69920681D01*
X174191434Y-69957462D01*
X174199500Y-69991059D01*
X174199500Y-78378455D01*
X174177826Y-78430781D01*
X173129517Y-79479090D01*
X173076792Y-79570412D01*
X173076793Y-79570413D01*
X173049500Y-79672273D01*
X173049500Y-128278455D01*
X173027826Y-128330781D01*
X172305781Y-129052826D01*
X172253455Y-129074500D01*
X169045545Y-129074500D01*
X168993219Y-129052826D01*
X168971545Y-129000500D01*
X168993219Y-128948174D01*
X169357583Y-128583810D01*
X170620480Y-127320913D01*
X170673207Y-127229588D01*
X170700500Y-127127727D01*
X170700500Y-127022273D01*
X170700500Y-126552522D01*
X171499500Y-126552522D01*
X171499500Y-126697477D01*
X171537014Y-126837481D01*
X171537016Y-126837486D01*
X171602265Y-126950500D01*
X171609491Y-126963015D01*
X171711985Y-127065509D01*
X171837515Y-127137984D01*
X171837516Y-127137984D01*
X171837518Y-127137985D01*
X171907520Y-127156742D01*
X171977522Y-127175499D01*
X171977523Y-127175500D01*
X171977525Y-127175500D01*
X172122477Y-127175500D01*
X172122477Y-127175499D01*
X172262485Y-127137984D01*
X172388015Y-127065509D01*
X172490509Y-126963015D01*
X172562984Y-126837485D01*
X172600499Y-126697477D01*
X172600500Y-126697477D01*
X172600500Y-126552523D01*
X172600499Y-126552522D01*
X172562985Y-126412518D01*
X172562983Y-126412513D01*
X172490508Y-126286984D01*
X172388015Y-126184491D01*
X172262486Y-126112016D01*
X172262481Y-126112014D01*
X172122477Y-126074500D01*
X172122475Y-126074500D01*
X171977525Y-126074500D01*
X171977523Y-126074500D01*
X171837518Y-126112014D01*
X171837513Y-126112016D01*
X171711984Y-126184491D01*
X171609491Y-126286984D01*
X171537016Y-126412513D01*
X171537014Y-126412518D01*
X171499500Y-126552522D01*
X170700500Y-126552522D01*
X170700500Y-124863771D01*
X170962500Y-124863771D01*
X170962500Y-125036228D01*
X170996143Y-125205367D01*
X170996146Y-125205378D01*
X171062140Y-125364702D01*
X171136852Y-125476517D01*
X171157955Y-125508099D01*
X171279901Y-125630045D01*
X171423295Y-125725858D01*
X171582626Y-125791855D01*
X171751771Y-125825500D01*
X171751772Y-125825500D01*
X171924228Y-125825500D01*
X171924229Y-125825500D01*
X172093374Y-125791855D01*
X172252705Y-125725858D01*
X172396099Y-125630045D01*
X172518045Y-125508099D01*
X172613858Y-125364705D01*
X172679855Y-125205374D01*
X172713500Y-125036229D01*
X172713500Y-124863771D01*
X172679855Y-124694626D01*
X172665268Y-124659409D01*
X172613859Y-124535297D01*
X172578945Y-124483045D01*
X172518045Y-124391901D01*
X172396099Y-124269955D01*
X172252705Y-124174142D01*
X172252704Y-124174141D01*
X172252702Y-124174140D01*
X172093378Y-124108146D01*
X172093367Y-124108143D01*
X171965942Y-124082797D01*
X171924229Y-124074500D01*
X171751771Y-124074500D01*
X171718309Y-124081155D01*
X171582632Y-124108143D01*
X171582621Y-124108146D01*
X171423297Y-124174140D01*
X171279904Y-124269952D01*
X171157952Y-124391904D01*
X171062140Y-124535297D01*
X170996146Y-124694621D01*
X170996143Y-124694632D01*
X170962500Y-124863771D01*
X170700500Y-124863771D01*
X170700500Y-124822273D01*
X170673207Y-124720413D01*
X170673207Y-124720412D01*
X170658316Y-124694621D01*
X170620482Y-124629090D01*
X170620481Y-124629089D01*
X170620480Y-124629087D01*
X165741333Y-119749940D01*
X167772500Y-119749940D01*
X167772500Y-119990059D01*
X167810062Y-120227219D01*
X167810065Y-120227232D01*
X167884262Y-120455585D01*
X167884264Y-120455590D01*
X167993274Y-120669532D01*
X167993277Y-120669538D01*
X168134410Y-120863791D01*
X168134414Y-120863796D01*
X168304204Y-121033586D01*
X168304207Y-121033588D01*
X168304208Y-121033589D01*
X168437981Y-121130781D01*
X168498464Y-121174724D01*
X168712411Y-121283736D01*
X168712413Y-121283736D01*
X168712414Y-121283737D01*
X168940767Y-121357934D01*
X168940773Y-121357935D01*
X168940778Y-121357937D01*
X169098886Y-121382979D01*
X169177940Y-121395500D01*
X169177941Y-121395500D01*
X169418060Y-121395500D01*
X169477349Y-121386109D01*
X169655222Y-121357937D01*
X169655229Y-121357934D01*
X169655232Y-121357934D01*
X169783869Y-121316137D01*
X169883589Y-121283736D01*
X170097536Y-121174724D01*
X170291796Y-121033586D01*
X170461586Y-120863796D01*
X170602724Y-120669536D01*
X170711736Y-120455589D01*
X170785037Y-120229992D01*
X170785934Y-120227232D01*
X170785934Y-120227229D01*
X170785937Y-120227222D01*
X170823500Y-119990059D01*
X170823500Y-119749941D01*
X170785937Y-119512778D01*
X170785935Y-119512773D01*
X170785934Y-119512767D01*
X170711737Y-119284414D01*
X170711735Y-119284409D01*
X170707941Y-119276964D01*
X170602724Y-119070464D01*
X170461586Y-118876204D01*
X170291796Y-118706414D01*
X170291793Y-118706411D01*
X170291791Y-118706410D01*
X170097538Y-118565277D01*
X170097532Y-118565274D01*
X169883590Y-118456264D01*
X169883585Y-118456262D01*
X169655232Y-118382065D01*
X169655219Y-118382062D01*
X169418060Y-118344500D01*
X169418059Y-118344500D01*
X169177941Y-118344500D01*
X169177940Y-118344500D01*
X168940780Y-118382062D01*
X168940767Y-118382065D01*
X168712414Y-118456262D01*
X168712409Y-118456264D01*
X168498467Y-118565274D01*
X168498461Y-118565277D01*
X168304208Y-118706410D01*
X168134410Y-118876208D01*
X167993277Y-119070461D01*
X167993274Y-119070467D01*
X167884264Y-119284409D01*
X167884262Y-119284414D01*
X167810065Y-119512767D01*
X167810062Y-119512780D01*
X167772500Y-119749940D01*
X165741333Y-119749940D01*
X158272174Y-112280781D01*
X158250500Y-112228455D01*
X158250500Y-105688771D01*
X160802500Y-105688771D01*
X160802500Y-105861228D01*
X160836143Y-106030367D01*
X160836146Y-106030378D01*
X160902140Y-106189702D01*
X160902141Y-106189704D01*
X160902142Y-106189705D01*
X160997955Y-106333099D01*
X161119901Y-106455045D01*
X161263295Y-106550858D01*
X161263296Y-106550858D01*
X161263297Y-106550859D01*
X161422621Y-106616853D01*
X161422626Y-106616855D01*
X161591771Y-106650500D01*
X161591772Y-106650500D01*
X161764228Y-106650500D01*
X161764229Y-106650500D01*
X161933374Y-106616855D01*
X162092705Y-106550858D01*
X162236099Y-106455045D01*
X162358045Y-106333099D01*
X162453858Y-106189705D01*
X162519855Y-106030374D01*
X162553500Y-105861229D01*
X162553500Y-105688771D01*
X162544571Y-105643881D01*
X164757500Y-105643881D01*
X164757500Y-105906118D01*
X164791729Y-106166114D01*
X164859601Y-106419415D01*
X164859601Y-106419416D01*
X164959955Y-106661694D01*
X164959956Y-106661696D01*
X164959957Y-106661697D01*
X165091076Y-106888803D01*
X165250718Y-107096851D01*
X165436149Y-107282282D01*
X165644197Y-107441924D01*
X165871303Y-107573043D01*
X166113581Y-107673398D01*
X166366884Y-107741270D01*
X166626880Y-107775500D01*
X166626882Y-107775500D01*
X166889118Y-107775500D01*
X166889120Y-107775500D01*
X167149116Y-107741270D01*
X167402419Y-107673398D01*
X167644697Y-107573043D01*
X167871803Y-107441924D01*
X168079851Y-107282282D01*
X168265282Y-107096851D01*
X168424924Y-106888803D01*
X168556043Y-106661697D01*
X168656398Y-106419419D01*
X168724270Y-106166116D01*
X168758500Y-105906120D01*
X168758500Y-105688771D01*
X170962500Y-105688771D01*
X170962500Y-105861228D01*
X170996143Y-106030367D01*
X170996146Y-106030378D01*
X171062140Y-106189702D01*
X171062141Y-106189704D01*
X171062142Y-106189705D01*
X171157955Y-106333099D01*
X171279901Y-106455045D01*
X171423295Y-106550858D01*
X171423296Y-106550858D01*
X171423297Y-106550859D01*
X171582621Y-106616853D01*
X171582626Y-106616855D01*
X171751771Y-106650500D01*
X171751772Y-106650500D01*
X171924228Y-106650500D01*
X171924229Y-106650500D01*
X172093374Y-106616855D01*
X172252705Y-106550858D01*
X172396099Y-106455045D01*
X172518045Y-106333099D01*
X172613858Y-106189705D01*
X172679855Y-106030374D01*
X172713500Y-105861229D01*
X172713500Y-105688771D01*
X172679855Y-105519626D01*
X172613858Y-105360295D01*
X172518045Y-105216901D01*
X172396099Y-105094955D01*
X172252705Y-104999142D01*
X172252704Y-104999141D01*
X172252702Y-104999140D01*
X172093378Y-104933146D01*
X172093367Y-104933143D01*
X171965942Y-104907797D01*
X171924229Y-104899500D01*
X171751771Y-104899500D01*
X171718309Y-104906155D01*
X171582632Y-104933143D01*
X171582621Y-104933146D01*
X171423297Y-104999140D01*
X171279904Y-105094952D01*
X171157952Y-105216904D01*
X171062140Y-105360297D01*
X170996146Y-105519621D01*
X170996143Y-105519632D01*
X170962500Y-105688771D01*
X168758500Y-105688771D01*
X168758500Y-105643880D01*
X168724270Y-105383884D01*
X168656398Y-105130581D01*
X168560681Y-104899500D01*
X168556044Y-104888305D01*
X168556043Y-104888303D01*
X168424924Y-104661197D01*
X168415362Y-104648736D01*
X168265282Y-104453149D01*
X168079851Y-104267718D01*
X167871803Y-104108076D01*
X167871804Y-104108076D01*
X167871802Y-104108075D01*
X167644696Y-103976956D01*
X167644694Y-103976955D01*
X167461203Y-103900951D01*
X167402419Y-103876602D01*
X167402417Y-103876601D01*
X167402416Y-103876601D01*
X167149114Y-103808729D01*
X166957578Y-103783512D01*
X166889120Y-103774500D01*
X166626880Y-103774500D01*
X166566386Y-103782464D01*
X166366885Y-103808729D01*
X166113584Y-103876601D01*
X166113583Y-103876601D01*
X165871305Y-103976955D01*
X165871303Y-103976956D01*
X165644197Y-104108075D01*
X165436144Y-104267722D01*
X165250722Y-104453144D01*
X165091075Y-104661197D01*
X164959956Y-104888303D01*
X164959955Y-104888305D01*
X164859601Y-105130583D01*
X164859601Y-105130584D01*
X164791729Y-105383885D01*
X164773858Y-105519632D01*
X164758958Y-105632810D01*
X164757500Y-105643881D01*
X162544571Y-105643881D01*
X162519855Y-105519626D01*
X162453858Y-105360295D01*
X162358045Y-105216901D01*
X162236099Y-105094955D01*
X162092705Y-104999142D01*
X162092704Y-104999141D01*
X162092702Y-104999140D01*
X161933378Y-104933146D01*
X161933367Y-104933143D01*
X161805942Y-104907797D01*
X161764229Y-104899500D01*
X161591771Y-104899500D01*
X161558309Y-104906155D01*
X161422632Y-104933143D01*
X161422621Y-104933146D01*
X161263297Y-104999140D01*
X161119904Y-105094952D01*
X160997952Y-105216904D01*
X160902140Y-105360297D01*
X160836146Y-105519621D01*
X160836143Y-105519632D01*
X160802500Y-105688771D01*
X158250500Y-105688771D01*
X158250500Y-103114940D01*
X161422500Y-103114940D01*
X161422500Y-103355059D01*
X161460062Y-103592219D01*
X161460065Y-103592232D01*
X161534262Y-103820585D01*
X161534264Y-103820590D01*
X161643274Y-104034532D01*
X161643277Y-104034538D01*
X161784410Y-104228791D01*
X161784414Y-104228796D01*
X161954204Y-104398586D01*
X161954207Y-104398588D01*
X161954208Y-104398589D01*
X162029303Y-104453149D01*
X162148464Y-104539724D01*
X162362411Y-104648736D01*
X162362413Y-104648736D01*
X162362414Y-104648737D01*
X162590767Y-104722934D01*
X162590773Y-104722935D01*
X162590778Y-104722937D01*
X162748886Y-104747979D01*
X162827940Y-104760500D01*
X162827941Y-104760500D01*
X163068060Y-104760500D01*
X163127349Y-104751109D01*
X163305222Y-104722937D01*
X163305229Y-104722934D01*
X163305232Y-104722934D01*
X163455505Y-104674107D01*
X163533589Y-104648736D01*
X163747536Y-104539724D01*
X163941796Y-104398586D01*
X164111586Y-104228796D01*
X164252724Y-104034536D01*
X164361736Y-103820589D01*
X164435937Y-103592222D01*
X164473500Y-103355059D01*
X164473500Y-103114941D01*
X164435937Y-102877778D01*
X164435935Y-102877773D01*
X164435934Y-102877767D01*
X164361737Y-102649414D01*
X164361735Y-102649409D01*
X164357941Y-102641964D01*
X164252724Y-102435464D01*
X164111586Y-102241204D01*
X163941796Y-102071414D01*
X163941793Y-102071411D01*
X163941791Y-102071410D01*
X163747538Y-101930277D01*
X163747532Y-101930274D01*
X163533590Y-101821264D01*
X163533585Y-101821262D01*
X163305232Y-101747065D01*
X163305219Y-101747062D01*
X163068060Y-101709500D01*
X163068059Y-101709500D01*
X162827941Y-101709500D01*
X162827940Y-101709500D01*
X162590780Y-101747062D01*
X162590767Y-101747065D01*
X162362414Y-101821262D01*
X162362409Y-101821264D01*
X162148467Y-101930274D01*
X162148461Y-101930277D01*
X161954208Y-102071410D01*
X161784410Y-102241208D01*
X161643277Y-102435461D01*
X161643274Y-102435467D01*
X161534264Y-102649409D01*
X161534262Y-102649414D01*
X161460065Y-102877767D01*
X161460062Y-102877780D01*
X161422500Y-103114940D01*
X158250500Y-103114940D01*
X158250500Y-100574940D01*
X167772500Y-100574940D01*
X167772500Y-100815059D01*
X167810062Y-101052219D01*
X167810065Y-101052232D01*
X167884262Y-101280585D01*
X167884264Y-101280590D01*
X167985687Y-101479643D01*
X167993276Y-101494536D01*
X168134414Y-101688796D01*
X168304204Y-101858586D01*
X168498464Y-101999724D01*
X168712411Y-102108736D01*
X168712413Y-102108736D01*
X168712414Y-102108737D01*
X168940767Y-102182934D01*
X168940773Y-102182935D01*
X168940778Y-102182937D01*
X169098886Y-102207979D01*
X169177940Y-102220500D01*
X169177941Y-102220500D01*
X169418060Y-102220500D01*
X169477349Y-102211109D01*
X169655222Y-102182937D01*
X169655229Y-102182934D01*
X169655232Y-102182934D01*
X169758907Y-102149247D01*
X169883589Y-102108736D01*
X170097536Y-101999724D01*
X170291796Y-101858586D01*
X170461586Y-101688796D01*
X170602724Y-101494536D01*
X170711736Y-101280589D01*
X170785937Y-101052222D01*
X170823500Y-100815059D01*
X170823500Y-100574941D01*
X170785937Y-100337778D01*
X170785935Y-100337773D01*
X170785934Y-100337767D01*
X170711737Y-100109414D01*
X170711735Y-100109409D01*
X170707941Y-100101964D01*
X170602724Y-99895464D01*
X170461586Y-99701204D01*
X170291796Y-99531414D01*
X170291793Y-99531411D01*
X170291791Y-99531410D01*
X170097538Y-99390277D01*
X170097532Y-99390274D01*
X169883590Y-99281264D01*
X169883585Y-99281262D01*
X169655232Y-99207065D01*
X169655219Y-99207062D01*
X169418060Y-99169500D01*
X169418059Y-99169500D01*
X169177941Y-99169500D01*
X169177940Y-99169500D01*
X168940780Y-99207062D01*
X168940767Y-99207065D01*
X168712414Y-99281262D01*
X168712409Y-99281264D01*
X168498467Y-99390274D01*
X168498461Y-99390277D01*
X168304208Y-99531410D01*
X168134410Y-99701208D01*
X167993277Y-99895461D01*
X167993274Y-99895467D01*
X167884264Y-100109409D01*
X167884262Y-100109414D01*
X167810065Y-100337767D01*
X167810062Y-100337780D01*
X167772500Y-100574940D01*
X158250500Y-100574940D01*
X158250500Y-86688771D01*
X160802500Y-86688771D01*
X160802500Y-86861228D01*
X160836143Y-87030367D01*
X160836146Y-87030378D01*
X160902140Y-87189702D01*
X160902141Y-87189704D01*
X160902142Y-87189705D01*
X160997955Y-87333099D01*
X161119901Y-87455045D01*
X161263295Y-87550858D01*
X161422626Y-87616855D01*
X161591771Y-87650500D01*
X161591772Y-87650500D01*
X161764228Y-87650500D01*
X161764229Y-87650500D01*
X161933374Y-87616855D01*
X162092705Y-87550858D01*
X162236099Y-87455045D01*
X162358045Y-87333099D01*
X162453858Y-87189705D01*
X162519855Y-87030374D01*
X162553500Y-86861229D01*
X162553500Y-86688771D01*
X162544571Y-86643881D01*
X164757500Y-86643881D01*
X164757500Y-86906118D01*
X164791729Y-87166114D01*
X164859601Y-87419415D01*
X164859601Y-87419416D01*
X164959955Y-87661694D01*
X164959956Y-87661696D01*
X165073336Y-87858076D01*
X165091076Y-87888803D01*
X165250718Y-88096851D01*
X165436149Y-88282282D01*
X165644197Y-88441924D01*
X165871303Y-88573043D01*
X166113581Y-88673398D01*
X166366884Y-88741270D01*
X166626880Y-88775500D01*
X166626882Y-88775500D01*
X166889118Y-88775500D01*
X166889120Y-88775500D01*
X167149116Y-88741270D01*
X167402419Y-88673398D01*
X167644697Y-88573043D01*
X167871803Y-88441924D01*
X168079851Y-88282282D01*
X168265282Y-88096851D01*
X168424924Y-87888803D01*
X168556043Y-87661697D01*
X168656398Y-87419419D01*
X168724270Y-87166116D01*
X168758500Y-86906120D01*
X168758500Y-86688771D01*
X170962500Y-86688771D01*
X170962500Y-86861228D01*
X170996143Y-87030367D01*
X170996146Y-87030378D01*
X171062140Y-87189702D01*
X171062141Y-87189704D01*
X171062142Y-87189705D01*
X171157955Y-87333099D01*
X171279901Y-87455045D01*
X171423295Y-87550858D01*
X171582626Y-87616855D01*
X171751771Y-87650500D01*
X171751772Y-87650500D01*
X171924228Y-87650500D01*
X171924229Y-87650500D01*
X172093374Y-87616855D01*
X172252705Y-87550858D01*
X172396099Y-87455045D01*
X172518045Y-87333099D01*
X172613858Y-87189705D01*
X172679855Y-87030374D01*
X172713500Y-86861229D01*
X172713500Y-86688771D01*
X172679855Y-86519626D01*
X172613858Y-86360295D01*
X172518045Y-86216901D01*
X172396099Y-86094955D01*
X172252705Y-85999142D01*
X172252704Y-85999141D01*
X172252702Y-85999140D01*
X172093378Y-85933146D01*
X172093367Y-85933143D01*
X171965942Y-85907797D01*
X171924229Y-85899500D01*
X171751771Y-85899500D01*
X171718309Y-85906155D01*
X171582632Y-85933143D01*
X171582621Y-85933146D01*
X171423297Y-85999140D01*
X171279904Y-86094952D01*
X171157952Y-86216904D01*
X171062140Y-86360297D01*
X170996146Y-86519621D01*
X170996143Y-86519632D01*
X170962500Y-86688771D01*
X168758500Y-86688771D01*
X168758500Y-86643880D01*
X168724270Y-86383884D01*
X168656398Y-86130581D01*
X168556043Y-85888303D01*
X168424924Y-85661197D01*
X168265282Y-85453149D01*
X168079851Y-85267718D01*
X167871803Y-85108076D01*
X167871804Y-85108076D01*
X167871802Y-85108075D01*
X167644696Y-84976956D01*
X167644694Y-84976955D01*
X167461203Y-84900951D01*
X167402419Y-84876602D01*
X167402417Y-84876601D01*
X167402416Y-84876601D01*
X167149114Y-84808729D01*
X166957578Y-84783512D01*
X166889120Y-84774500D01*
X166626880Y-84774500D01*
X166566386Y-84782464D01*
X166366885Y-84808729D01*
X166113584Y-84876601D01*
X166113583Y-84876601D01*
X165871305Y-84976955D01*
X165871303Y-84976956D01*
X165644197Y-85108075D01*
X165436144Y-85267722D01*
X165250722Y-85453144D01*
X165091075Y-85661197D01*
X164959956Y-85888303D01*
X164959955Y-85888305D01*
X164859601Y-86130583D01*
X164859601Y-86130584D01*
X164791729Y-86383885D01*
X164757500Y-86643881D01*
X162544571Y-86643881D01*
X162519855Y-86519626D01*
X162453858Y-86360295D01*
X162358045Y-86216901D01*
X162236099Y-86094955D01*
X162092705Y-85999142D01*
X162092704Y-85999141D01*
X162092702Y-85999140D01*
X161933378Y-85933146D01*
X161933367Y-85933143D01*
X161805942Y-85907797D01*
X161764229Y-85899500D01*
X161591771Y-85899500D01*
X161558309Y-85906155D01*
X161422632Y-85933143D01*
X161422621Y-85933146D01*
X161263297Y-85999140D01*
X161119904Y-86094952D01*
X160997952Y-86216904D01*
X160902140Y-86360297D01*
X160836146Y-86519621D01*
X160836143Y-86519632D01*
X160802500Y-86688771D01*
X158250500Y-86688771D01*
X158250500Y-84114940D01*
X161422500Y-84114940D01*
X161422500Y-84355059D01*
X161460062Y-84592219D01*
X161460065Y-84592232D01*
X161534262Y-84820585D01*
X161534264Y-84820590D01*
X161643274Y-85034532D01*
X161643277Y-85034538D01*
X161784410Y-85228791D01*
X161784414Y-85228796D01*
X161954204Y-85398586D01*
X161954207Y-85398588D01*
X161954208Y-85398589D01*
X162029303Y-85453149D01*
X162148464Y-85539724D01*
X162362411Y-85648736D01*
X162362413Y-85648736D01*
X162362414Y-85648737D01*
X162590767Y-85722934D01*
X162590773Y-85722935D01*
X162590778Y-85722937D01*
X162748886Y-85747979D01*
X162827940Y-85760500D01*
X162827941Y-85760500D01*
X163068060Y-85760500D01*
X163127349Y-85751109D01*
X163305222Y-85722937D01*
X163305229Y-85722934D01*
X163305232Y-85722934D01*
X163408907Y-85689247D01*
X163533589Y-85648736D01*
X163747536Y-85539724D01*
X163941796Y-85398586D01*
X164111586Y-85228796D01*
X164252724Y-85034536D01*
X164361736Y-84820589D01*
X164435937Y-84592222D01*
X164473500Y-84355059D01*
X164473500Y-84114941D01*
X164435937Y-83877778D01*
X164435935Y-83877773D01*
X164435934Y-83877767D01*
X164361737Y-83649414D01*
X164361735Y-83649409D01*
X164357941Y-83641964D01*
X164252724Y-83435464D01*
X164111586Y-83241204D01*
X163941796Y-83071414D01*
X163941793Y-83071411D01*
X163941791Y-83071410D01*
X163747538Y-82930277D01*
X163747532Y-82930274D01*
X163533590Y-82821264D01*
X163533585Y-82821262D01*
X163305232Y-82747065D01*
X163305219Y-82747062D01*
X163068060Y-82709500D01*
X163068059Y-82709500D01*
X162827941Y-82709500D01*
X162827940Y-82709500D01*
X162590780Y-82747062D01*
X162590767Y-82747065D01*
X162362414Y-82821262D01*
X162362409Y-82821264D01*
X162148467Y-82930274D01*
X162148461Y-82930277D01*
X161954208Y-83071410D01*
X161784410Y-83241208D01*
X161643277Y-83435461D01*
X161643274Y-83435467D01*
X161534264Y-83649409D01*
X161534262Y-83649414D01*
X161460065Y-83877767D01*
X161460062Y-83877780D01*
X161422500Y-84114940D01*
X158250500Y-84114940D01*
X158250500Y-81574940D01*
X167772500Y-81574940D01*
X167772500Y-81815059D01*
X167810062Y-82052219D01*
X167810065Y-82052232D01*
X167884262Y-82280585D01*
X167884264Y-82280590D01*
X167985687Y-82479643D01*
X167993276Y-82494536D01*
X168134414Y-82688796D01*
X168304204Y-82858586D01*
X168498464Y-82999724D01*
X168712411Y-83108736D01*
X168712413Y-83108736D01*
X168712414Y-83108737D01*
X168940767Y-83182934D01*
X168940773Y-83182935D01*
X168940778Y-83182937D01*
X169098886Y-83207979D01*
X169177940Y-83220500D01*
X169177941Y-83220500D01*
X169418060Y-83220500D01*
X169477349Y-83211109D01*
X169655222Y-83182937D01*
X169655229Y-83182934D01*
X169655232Y-83182934D01*
X169758907Y-83149247D01*
X169883589Y-83108736D01*
X170097536Y-82999724D01*
X170291796Y-82858586D01*
X170461586Y-82688796D01*
X170602724Y-82494536D01*
X170711736Y-82280589D01*
X170785937Y-82052222D01*
X170823500Y-81815059D01*
X170823500Y-81574941D01*
X170785937Y-81337778D01*
X170785935Y-81337773D01*
X170785934Y-81337767D01*
X170711737Y-81109414D01*
X170711735Y-81109409D01*
X170632272Y-80953455D01*
X170602724Y-80895464D01*
X170461586Y-80701204D01*
X170291796Y-80531414D01*
X170291793Y-80531411D01*
X170291791Y-80531410D01*
X170097538Y-80390277D01*
X170097532Y-80390274D01*
X169883590Y-80281264D01*
X169883585Y-80281262D01*
X169655232Y-80207065D01*
X169655219Y-80207062D01*
X169418060Y-80169500D01*
X169418059Y-80169500D01*
X169177941Y-80169500D01*
X169177940Y-80169500D01*
X168940780Y-80207062D01*
X168940767Y-80207065D01*
X168712414Y-80281262D01*
X168712409Y-80281264D01*
X168498467Y-80390274D01*
X168498461Y-80390277D01*
X168304208Y-80531410D01*
X168134410Y-80701208D01*
X167993277Y-80895461D01*
X167993274Y-80895467D01*
X167884264Y-81109409D01*
X167884262Y-81109414D01*
X167810065Y-81337767D01*
X167810062Y-81337780D01*
X167772500Y-81574940D01*
X158250500Y-81574940D01*
X158250500Y-77901545D01*
X158272174Y-77849219D01*
X158635480Y-77485913D01*
X158688206Y-77394588D01*
X158688207Y-77394587D01*
X158715500Y-77292727D01*
X158715500Y-70755135D01*
X165699500Y-70755135D01*
X165699500Y-72844863D01*
X165702414Y-72869986D01*
X165702415Y-72869991D01*
X165747794Y-72972765D01*
X165827235Y-73052206D01*
X165930009Y-73097585D01*
X165955135Y-73100500D01*
X169244864Y-73100499D01*
X169269991Y-73097585D01*
X169372765Y-73052206D01*
X169452206Y-72972765D01*
X169497585Y-72869991D01*
X169500500Y-72844865D01*
X169500499Y-70755136D01*
X169497585Y-70730009D01*
X169452206Y-70627235D01*
X169372765Y-70547794D01*
X169269991Y-70502415D01*
X169269990Y-70502414D01*
X169269988Y-70502414D01*
X169248659Y-70499940D01*
X169244865Y-70499500D01*
X169244864Y-70499500D01*
X165955136Y-70499500D01*
X165930013Y-70502414D01*
X165930007Y-70502415D01*
X165827234Y-70547794D01*
X165747794Y-70627234D01*
X165702414Y-70730011D01*
X165699500Y-70755135D01*
X158715500Y-70755135D01*
X158715500Y-69114670D01*
X158737174Y-69062344D01*
X158789500Y-69040670D01*
X158841826Y-69062344D01*
X158859878Y-69091803D01*
X158894777Y-69199213D01*
X158987712Y-69381610D01*
X159015967Y-69420499D01*
X159108034Y-69547219D01*
X159252781Y-69691966D01*
X159344695Y-69758745D01*
X159418389Y-69812287D01*
X159506300Y-69857079D01*
X159600781Y-69905220D01*
X159600783Y-69905220D01*
X159600786Y-69905222D01*
X159795455Y-69968474D01*
X159795461Y-69968475D01*
X159795466Y-69968477D01*
X159896557Y-69984488D01*
X159997646Y-70000500D01*
X159997648Y-70000500D01*
X160202354Y-70000500D01*
X160283224Y-69987690D01*
X160404534Y-69968477D01*
X160404541Y-69968474D01*
X160404544Y-69968474D01*
X160599213Y-69905222D01*
X160599213Y-69905221D01*
X160599219Y-69905220D01*
X160781610Y-69812287D01*
X160947219Y-69691966D01*
X161091966Y-69547219D01*
X161212287Y-69381610D01*
X161305220Y-69199219D01*
X161320682Y-69151633D01*
X161357464Y-69108566D01*
X161391060Y-69100500D01*
X171427726Y-69100500D01*
X171427727Y-69100500D01*
X171529588Y-69073207D01*
X171620913Y-69020480D01*
X174144218Y-66497173D01*
X174196544Y-66475500D01*
X175203455Y-66475500D01*
X175255781Y-66497174D01*
G37*
%TD.AperFunction*%
%TA.AperFunction,Conductor*%
G36*
X134207118Y-110677509D02*
G01*
X134230648Y-110680607D01*
X134237266Y-110685685D01*
X134238873Y-110686121D01*
X134239689Y-110687544D01*
X134245974Y-110692367D01*
X134977826Y-111424219D01*
X134999500Y-111476545D01*
X134999500Y-121078455D01*
X134977826Y-121130781D01*
X134134517Y-121974090D01*
X134081792Y-122065412D01*
X134081793Y-122065413D01*
X134054500Y-122167273D01*
X134054500Y-124409045D01*
X134032826Y-124461371D01*
X133980500Y-124483045D01*
X133928174Y-124461371D01*
X133918972Y-124450158D01*
X133880049Y-124391906D01*
X133880047Y-124391904D01*
X133880045Y-124391901D01*
X133758099Y-124269955D01*
X133614705Y-124174142D01*
X133614704Y-124174141D01*
X133614702Y-124174140D01*
X133455378Y-124108146D01*
X133455367Y-124108143D01*
X133327942Y-124082797D01*
X133286229Y-124074500D01*
X133113771Y-124074500D01*
X133080309Y-124081155D01*
X132944632Y-124108143D01*
X132944621Y-124108146D01*
X132785297Y-124174140D01*
X132641904Y-124269952D01*
X132519952Y-124391904D01*
X132424140Y-124535297D01*
X132358146Y-124694621D01*
X132358143Y-124694632D01*
X132324500Y-124863771D01*
X132324500Y-125036228D01*
X132358143Y-125205367D01*
X132358146Y-125205378D01*
X132424140Y-125364702D01*
X132498852Y-125476517D01*
X132519955Y-125508099D01*
X132641901Y-125630045D01*
X132785295Y-125725858D01*
X132944626Y-125791855D01*
X133113771Y-125825500D01*
X133113772Y-125825500D01*
X133286228Y-125825500D01*
X133286229Y-125825500D01*
X133455374Y-125791855D01*
X133614705Y-125725858D01*
X133758099Y-125630045D01*
X133880045Y-125508099D01*
X133918971Y-125449841D01*
X133966063Y-125418376D01*
X134021612Y-125429425D01*
X134053078Y-125476517D01*
X134054500Y-125490954D01*
X134054500Y-128369811D01*
X134032826Y-128422137D01*
X133980500Y-128443811D01*
X133928174Y-128422137D01*
X131822174Y-126316137D01*
X131800500Y-126263811D01*
X131800500Y-123036189D01*
X131822174Y-122983863D01*
X132454820Y-122351217D01*
X133125474Y-121680563D01*
X133125475Y-121680562D01*
X133174910Y-121594938D01*
X133200499Y-121499437D01*
X133200500Y-121499437D01*
X133200500Y-113561188D01*
X133222173Y-113508863D01*
X133960474Y-112770563D01*
X133974956Y-112745480D01*
X134009910Y-112684938D01*
X134035499Y-112589437D01*
X134035500Y-112589437D01*
X134035500Y-110853676D01*
X134050928Y-110808451D01*
X134053824Y-110804699D01*
X134100509Y-110758015D01*
X134132044Y-110703394D01*
X134135076Y-110699468D01*
X134155666Y-110687662D01*
X134174495Y-110673215D01*
X134179675Y-110673896D01*
X134184210Y-110671297D01*
X134207118Y-110677509D01*
G37*
%TD.AperFunction*%
%TA.AperFunction,Conductor*%
G36*
X159665154Y-65022173D02*
G01*
X159686828Y-65074499D01*
X159665154Y-65126825D01*
X159646423Y-65140433D01*
X159497273Y-65216428D01*
X159440511Y-65257667D01*
X159440511Y-65257668D01*
X159914823Y-65731980D01*
X159907007Y-65734075D01*
X159792993Y-65799901D01*
X159699901Y-65892993D01*
X159634075Y-66007007D01*
X159631980Y-66014823D01*
X159157668Y-65540511D01*
X159157667Y-65540511D01*
X159116431Y-65597268D01*
X159034250Y-65758558D01*
X158978319Y-65930697D01*
X158978316Y-65930710D01*
X158950000Y-66109491D01*
X158950000Y-66290508D01*
X158978316Y-66469289D01*
X158978319Y-66469302D01*
X159034251Y-66641443D01*
X159116431Y-66802728D01*
X159157668Y-66859487D01*
X159631980Y-66385174D01*
X159634075Y-66392993D01*
X159699901Y-66507007D01*
X159792993Y-66600099D01*
X159907007Y-66665925D01*
X159914822Y-66668019D01*
X159440511Y-67142331D01*
X159497266Y-67183566D01*
X159658556Y-67265748D01*
X159658555Y-67265748D01*
X159765510Y-67300499D01*
X159808577Y-67337281D01*
X159813021Y-67393744D01*
X159776239Y-67436811D01*
X159765511Y-67441255D01*
X159600785Y-67494778D01*
X159418389Y-67587712D01*
X159252785Y-67708031D01*
X159252781Y-67708034D01*
X159108034Y-67852781D01*
X159108031Y-67852784D01*
X159108031Y-67852785D01*
X158987712Y-68018389D01*
X158894777Y-68200786D01*
X158859878Y-68308196D01*
X158823095Y-68351264D01*
X158766633Y-68355707D01*
X158723565Y-68318924D01*
X158715500Y-68285329D01*
X158715500Y-65681544D01*
X158737173Y-65629219D01*
X159344219Y-65022172D01*
X159396545Y-65000499D01*
X159612828Y-65000499D01*
X159665154Y-65022173D01*
G37*
%TD.AperFunction*%
%TD*%
M02*
